<?xml version="1.0" encoding="utf-8"?>
<!-- Generator: Adobe Illustrator 15.0.0, SVG Export Plug-In . SVG Version: 6.00 Build 0)  -->
<!DOCTYPE svg PUBLIC "-//W3C//DTD SVG 1.1//EN" "http://www.w3.org/Graphics/SVG/1.1/DTD/svg11.dtd">
<svg version="1.1"
	 id="svg2" xmlns:rdf="http://www.w3.org/1999/02/22-rdf-syntax-ns#" xmlns:dc="http://purl.org/dc/elements/1.1/" xmlns:cc="http://creativecommons.org/ns#" xmlns:svg="http://www.w3.org/2000/svg"
	 xmlns="http://www.w3.org/2000/svg" xmlns:xlink="http://www.w3.org/1999/xlink" x="0px" y="0px" width="396.16px"
	 height="111.187px" viewBox="0 0 396.16 111.187" enable-background="new 0 0 396.16 111.187" xml:space="preserve">
<g id="g10" transform="matrix(1.3333333,0,0,-1.3333333,0,111.18667)">
	<g id="g12" transform="scale(0.1)">
		<path id="path14" fill="#E35205" d="M2920.108,62.751c7.471,0,14.136,0.571,14.136,9.99c0,7.573-6.533,8.979-12.664,8.979h-11.982
			v-18.97H2920.108z M2928.377,55.317l16.523-26.975h-9.836l-15.366,26.543h-10.1V28.342h-8.818v61.252h22.119
			c13.74,0,20.544-5.325,20.544-17.424C2943.443,61.213,2936.917,56.452,2928.377,55.317L2928.377,55.317z M2961.043,59.118
			c0,25.151-17.996,44.121-40.803,44.121c-23.057,0-41.052-18.97-41.052-44.121c0-25.591,17.996-44.399,41.052-44.399
			C2943.047,14.719,2961.043,33.528,2961.043,59.118z M2971.158,59.118c0-30.776-23.467-53.247-50.918-53.247
			c-27.7,0-51.182,22.471-51.182,53.247c0,30.476,23.481,52.969,51.182,52.969C2947.691,112.087,2971.158,89.594,2971.158,59.118z
			 M2568.523,562.827h55.459l-108.516-129.884l-104.963,129.884h56.096v121.97h-271.56v-121.97h65.904l181.494-220.928
			l-181.392-216.797h-66.006V-0.003h271.56v125.105h-56.089l105.886,124.197l105.894-124.197h-53.767V-0.003h266.689v125.105h-65.42
			L2590.43,340.552l181.948,222.275h62.834v121.97h-266.689V562.827z M1572.583,562.552h70.254V124.948h-70.254V-0.003h550.737
			v165.857h-129.067v-40.906h-216.885v148.894l216.885-1.165v119.377h-216.885v170.497h216.885v-47.93h129.067v171.054h-550.737
			V562.552z M1424.839,477.181c0,47.146-42.048,85.367-93.918,85.367h-150.941V391.814h150.941c30.26,0,57.089,13.052,74.268,33.252
			c0.114,0.128,0.212,0.264,0.322,0.392c1.469,1.75,2.889,3.527,4.219,5.38c0.41,0.582,0.791,1.179,1.179,1.772
			C1419.69,445.595,1424.839,460.823,1424.839,477.181z M1540.379,560.904c12.341-25.583,18.596-53.43,18.596-82.771
			c0-30.505-6.357-58.978-18.904-84.606c-12.546-25.708-30.579-48.054-53.58-66.438c-22.262-17.703-48.391-31.443-77.681-40.833
			c-28.85-9.272-60.059-13.96-92.761-13.96h-136.069V125.593h74.37V-0.003H981.555v125.427h64.384l-0.029,437.124H902.608v123.128
			h423.944c30.718,0,60.41-5.12,88.25-15.22c27.839-10.085,52.841-24.478,74.308-42.799
			C1510.913,608.732,1528.14,586.29,1540.379,560.904L1540.379,560.904z M831.156,124.699h79.252V-0.003H594.404v124.702h83.086
			v144.946H478.191l101.21,122.183h98.09l0.011,252.008l-416.73-519.137h71.55V0.027L0.033,0.942L0,125.666l78.051-0.952
			L652.778,833.94h178.396L831.156,124.699"/>
	</g>
</g>
</svg>
