<?xml version="1.0" encoding="utf-8"?>
<!-- Generator: Adobe Illustrator 15.0.0, SVG Export Plug-In . SVG Version: 6.00 Build 0)  -->
<!DOCTYPE svg PUBLIC "-//W3C//DTD SVG 1.1//EN" "http://www.w3.org/Graphics/SVG/1.1/DTD/svg11.dtd">
<svg version="1.1" id="Layer_1" xmlns="http://www.w3.org/2000/svg" xmlns:xlink="http://www.w3.org/1999/xlink" x="0px" y="0px"
	 width="327.667px" height="131.833px" viewBox="0 0 327.667 131.833" enable-background="new 0 0 327.667 131.833"
	 xml:space="preserve">
<g>
	<g>
		<path fill="#E05206" d="M85.429,74.121v1.972c0,7.341-0.112,13.979-7.799,19.082c-7.683,5.013-17.066,4.923-26.9,4.923
			c-23.053,0.006-39.896-0.892-39.896-25.437V57.277c0-22.22,15.032-25.444,39.896-25.444c23.284,0,34.133,1.879,34.586,22.041
			v2.599H62.03v-2.599c-0.788-6.005-6.1-6.452-13.785-6.452c-12.887,0-14.131,3.134-14.131,12.721v10.489
			c0,10.034,0.564,13.879,14.131,13.879c9.38,0,13.901-0.53,13.901-8.413v-1.97L85.429,74.121L85.429,74.121z"/>
	</g>
	<rect x="91.638" y="32.37" fill="#E05206" width="19.44" height="67.198"/>
	<path fill="#E05206" d="M156.312,68.885c0-7.291-3.424-7.76-10.26-7.76c-7.187,0-9.433,1.312-9.667,7.76H156.312z M176.585,83.184
		c0,7.384-3.062,11.594-8.366,14.022c-5.307,2.333-12.851,2.896-21.811,2.896c-24.405,0-30.302-6.726-30.302-25.048
		c0-18.88,5.42-25.145,30.302-25.145c23.227,0,30.177,5.139,30.177,25.145v2.708h-40.201c0,8.603,1.65,11.128,10.02,11.128
		c6.251,0,10.255-0.563,10.255-5.704h19.926V83.184z"/>
	<path fill="#E05206" d="M241.362,79.917c0,9.159-2.011,14.202-6.847,16.914c-4.706,2.808-12.14,3.271-23.096,3.271
		c-23.938,0-29.598-5.694-29.598-25.048c0-16.634,4.247-25.145,29.598-25.145c17.793,0,29.95,1.499,29.95,18.975h-20.293
		c0.121-2.619-0.234-4.206-1.645-5.234c-1.421-1.026-3.774-1.402-8.015-1.402c-7.193,0-9.317,1.59-9.317,12.807
		c0,11.494,1.647,12.708,9.317,12.708c9.193,0,9.659-1.77,9.659-7.846H241.362z"/>
	<path fill="#E05206" d="M266.544,75.055c0,10.66,1.182,12.708,10.967,12.708c9.433,0,10.378-2.048,10.378-12.708
		c0-10.655-0.945-12.807-10.378-12.807C267.726,62.249,266.544,64.4,266.544,75.055 M308.162,75.055
		c0,20.188-5.304,25.048-31.01,25.048c-25.347,0-30.884-5.42-30.884-25.048c0-20.095,5.07-25.145,30.884-25.145
		C303.096,49.911,308.162,54.305,308.162,75.055"/>
	<path fill="#E05206" d="M310.847,50.544c0.927,0,1.763-0.07,1.763-1.174c0-0.893-0.819-1.059-1.582-1.059h-1.499v2.232H310.847z
		 M309.529,54.588h-1.103v-7.194h2.758c1.716,0,2.565,0.628,2.565,2.045c0,1.285-0.814,1.845-1.888,1.981l2.062,3.168h-1.229
		l-1.915-3.121h-1.261L309.529,54.588L309.529,54.588z M310.862,56.186c2.848,0,5.1-2.21,5.1-5.213c0-2.951-2.252-5.182-5.1-5.182
		c-2.883,0-5.121,2.229-5.121,5.182C305.735,53.976,307.979,56.186,310.862,56.186 M304.466,50.973c0-3.579,2.936-6.222,6.396-6.222
		c3.429,0,6.36,2.643,6.36,6.222c0,3.615-2.932,6.255-6.36,6.255C307.402,57.228,304.466,54.588,304.466,50.973"/>
</g>
</svg>
