<?xml version="1.0" encoding="utf-8"?>
<!-- Generator: Adobe Illustrator 15.0.0, SVG Export Plug-In . SVG Version: 6.00 Build 0)  -->
<!DOCTYPE svg PUBLIC "-//W3C//DTD SVG 1.1//EN" "http://www.w3.org/Graphics/SVG/1.1/DTD/svg11.dtd">
<svg version="1.1" id="Layer_1" xmlns="http://www.w3.org/2000/svg" xmlns:xlink="http://www.w3.org/1999/xlink" x="0px" y="0px"
	 width="327.667px" height="131.833px" viewBox="0 0 327.667 131.833" enable-background="new 0 0 327.667 131.833"
	 xml:space="preserve">
<g>
	<path fill="#E05206" d="M44.26,94.037c13.791,0.959,13.902-4.778,13.555-16.701V48.133C57.697,37.644,54.317,37.05,44.26,36.808
		V94.037z M23.667,110.145V20.71h22.338c7.485,0,16.489,0.242,23.155,4.164c7.95,4.772,9.248,13.481,9.248,22.067v39.703
		c-0.126,8.951-2.816,15.509-8.783,19.312c-5.388,3.571-11.929,4.189-18.234,4.189H23.667z"/>
	<path fill="#E05206" d="M119.876,83.424c0,5.124-0.465,12.754-7.139,12.754c-6.676,0-7.492-7.631-7.492-12.754V46.708
		c0-5.484,0.816-12.047,7.374-12.047c6.792,0,7.257,6.563,7.257,12.047V83.424z M220.606,75.2v8.096
		c0,5.495-0.583,12.883-7.606,12.883c-5.376,0-7.359-2.972-7.359-7.992l0.109-44.228c0-5.841,1.528-9.411,7.952-9.298
		c3.862,0,6.558,3.927,6.558,11.563v5.732h20.577v-7.527c0-18.234-10.519-25.855-28.065-25.855c-10.93,0-18.447,3.071-22.858,9.416
		v-7.28h-53.33v8.853c-4.387-7.151-12.448-10.989-23.847-10.989c-18.014,0-28.081,9.535-28.081,26.701v36.364
		c0,20.143,7.25,30.632,28.081,30.632c20.813,0,27.707-10.489,27.707-30.632V45.274c0-2.374-0.195-4.589-0.566-6.687h12.855v71.557
		h20.579V38.588h12.546c-0.44,2.582-0.692,5.381-0.692,8.477v36.721c0,18.234,7.369,28.486,26.32,28.486
		c21.038,0,29.697-10.712,29.697-26.112V75.2H220.606z"/>
	<path fill="#E05206" d="M281.283,46.708c0-5.484-0.46-12.047-7.251-12.047c-6.548,0-7.354,6.563-7.354,12.047v36.715
		c0,5.124,0.806,12.754,7.473,12.754c6.672,0,7.132-7.631,7.132-12.754V46.708z M301.875,81.639
		c0,20.143-6.903,30.632-27.724,30.632c-20.815,0-28.065-10.489-28.065-30.632V45.274c0-17.166,10.049-26.701,28.065-26.701
		c18.021,0,27.724,9.535,27.724,26.701V81.639z"/>
	<path fill="#E05206" d="M304.715,24.627c0.974,0,1.834-0.069,1.834-1.227c0-0.93-0.841-1.103-1.632-1.103h-1.542v2.329H304.715z
		 M303.375,28.841h-1.144v-7.502h2.863c1.751,0,2.641,0.658,2.641,2.122c0,1.365-0.841,1.934-1.947,2.077l2.136,3.304h-1.275
		l-1.969-3.254h-1.305V28.841z M304.749,30.507c2.928,0,5.253-2.305,5.253-5.43c0-3.081-2.325-5.396-5.253-5.396
		c-2.978,0-5.302,2.314-5.302,5.396C299.447,28.203,301.771,30.507,304.749,30.507 M298.156,25.077c0-3.739,3.013-6.489,6.593-6.489
		c3.526,0,6.562,2.75,6.562,6.489c0,3.764-3.036,6.513-6.562,6.513C301.169,31.59,298.156,28.841,298.156,25.077"/>
</g>
</svg>
