<?xml version="1.0" standalone="no"?>
<!DOCTYPE svg PUBLIC "-//W3C//DTD SVG 20010904//EN"
 "http://www.w3.org/TR/2001/REC-SVG-20010904/DTD/svg10.dtd">
<svg version="1.0" xmlns="http://www.w3.org/2000/svg"
 width="171.000000pt" height="171.000000pt" viewBox="0 0 171.000000 171.000000"
 preserveAspectRatio="xMidYMid meet">
<metadata>
Created by potrace 1.14, written by Peter Selinger 2001-2017
</metadata>
<g transform="translate(0.000000,171.000000) scale(0.100000,-0.100000)"
fill="#000000" stroke="none">
<path d="M735 1695 c-5 -2 -44 -11 -84 -20 -318 -73 -568 -332 -635 -658 -21
-102 -15 -276 13 -374 92 -318 338 -543 666 -608 69 -14 256 -14 320 0 296 63
542 272 636 541 165 474 -100 965 -596 1100 -52 14 -287 28 -320 19z m274 -52
c275 -57 494 -240 597 -497 40 -101 53 -180 50 -311 -3 -104 -7 -133 -35 -216
-69 -205 -205 -366 -391 -463 -133 -70 -226 -91 -395 -91 -125 0 -208 18 -322
70 -242 111 -419 339 -460 594 -9 57 -10 212 -1 266 36 213 185 431 371 543
63 38 184 89 231 98 17 3 51 9 76 14 67 12 203 9 279 -7z"/>
<path d="M723 1592 c-27 -4 -37 -31 -24 -65 8 -20 18 -26 47 -29 21 -2 39 -9
42 -15 4 -15 -34 -18 -42 -4 -6 10 -31 9 -42 -1 -3 -4 -1 -15 5 -26 9 -17 19
-20 53 -17 74 8 81 13 75 52 -8 47 -6 46 -79 52 -10 0 -18 6 -18 12 0 7 12 9
35 5 43 -8 55 -2 48 24 -6 21 -27 23 -100 12z"/>
<path d="M912 1587 c-17 -20 -26 -133 -12 -142 6 -4 35 -9 64 -12 51 -5 53 -4
58 21 4 20 0 27 -15 32 -12 4 -23 2 -25 -5 -2 -6 -13 -11 -24 -11 -17 0 -19 5
-14 38 3 20 5 40 6 45 0 11 17 8 32 -6 23 -23 48 -28 55 -10 7 19 -7 45 -28
48 -7 2 -30 5 -50 9 -24 3 -41 1 -47 -7z"/>
<path d="M548 1541 c-21 -10 -40 -20 -43 -23 -8 -7 50 -139 61 -140 21 -1 104
37 104 49 0 21 -18 24 -49 9 -24 -13 -30 -13 -34 -2 -3 8 5 18 19 25 13 6 24
17 24 26 0 18 -9 19 -44 5 -20 -7 -26 -6 -26 4 0 8 14 19 30 25 32 11 42 42
13 40 -10 0 -35 -8 -55 -18z"/>
<path d="M1088 1480 l-35 -70 55 -26 c41 -19 57 -23 66 -14 8 8 6 15 -8 26
-11 8 -26 14 -33 14 -7 0 -13 7 -13 16 0 11 6 15 18 11 9 -2 23 -6 31 -8 27
-7 23 27 -4 39 -14 7 -23 17 -20 22 4 6 17 4 36 -6 25 -12 33 -13 46 -3 12 11
7 17 -39 40 -29 16 -55 28 -58 29 -3 0 -22 -31 -42 -70z"/>
<path d="M360 1421 l-44 -38 50 -60 c41 -49 54 -59 67 -51 21 11 21 22 1 43
-23 23 -10 30 30 18 24 -8 38 -7 45 0 16 16 14 23 -15 35 -14 7 -23 16 -19 21
6 11 -42 71 -58 71 -7 0 -32 -17 -57 -39z m64 -26 c3 -8 -3 -19 -14 -25 -22
-12 -33 0 -24 24 8 20 30 21 38 1z"/>
<path d="M1257 1394 c-42 -44 -53 -61 -45 -71 15 -19 26 -16 54 12 14 14 26
25 28 25 2 0 0 -19 -5 -42 -11 -57 -11 -54 6 -71 13 -14 21 -9 69 41 51 53 54
58 39 74 -15 17 -18 16 -45 -14 l-29 -32 6 39 c3 22 8 45 10 52 2 6 -5 19 -15
28 -17 15 -21 13 -73 -41z"/>
<path d="M775 1378 c-261 -38 -457 -262 -454 -523 2 -278 221 -506 499 -520
307 -16 562 222 561 523 0 139 -47 256 -145 360 -114 121 -295 184 -461 160z
m192 -156 c55 -17 132 -64 139 -84 4 -14 -5 -29 -31 -54 -44 -41 -61 -43 -77
-8 -14 30 -59 56 -76 45 -10 -6 -13 -66 -13 -235 l0 -227 -25 -9 c-58 -22 -86
-1 -84 64 1 28 1 131 1 229 -1 172 -2 177 -22 177 -31 0 -59 -18 -69 -46 -5
-13 -17 -24 -27 -24 -19 0 -83 58 -83 75 0 30 101 91 173 104 51 10 151 6 194
-7z m-364 -179 c43 -33 46 -50 11 -78 -50 -40 -48 -161 3 -244 35 -56 100
-107 155 -122 94 -25 206 -1 230 49 7 14 18 27 25 29 15 5 83 -61 83 -81 0 -9
-18 -29 -41 -45 -126 -92 -321 -86 -452 14 -49 38 -107 119 -128 180 -30 90
-9 252 39 308 21 23 33 22 75 -10z"/>
<path d="M221 1263 c-16 -25 -27 -52 -25 -58 5 -13 105 -75 119 -75 13 1 65
75 65 93 0 7 -8 21 -18 30 -16 15 -19 15 -30 -3 -6 -11 -9 -26 -6 -34 12 -31
-7 -37 -46 -15 -33 19 -37 25 -29 41 5 10 14 16 18 14 5 -3 16 3 25 13 17 18
17 20 -3 30 -32 17 -39 14 -70 -36z"/>
<path d="M1454 1272 c-7 -4 -8 -15 -4 -27 6 -17 -1 -25 -45 -50 -49 -28 -52
-32 -39 -49 13 -19 15 -18 65 9 48 26 53 27 64 11 7 -9 19 -14 29 -10 13 5 11
14 -17 65 -34 62 -35 63 -53 51z"/>
<path d="M171 851 c1 -81 3 -88 20 -84 20 6 27 23 9 23 -6 0 -10 32 -10 75 0
45 -4 75 -10 75 -7 0 -10 -34 -9 -89z"/>
<path d="M1515 878 c0 -35 -4 -73 -8 -85 -7 -19 -5 -23 10 -23 16 0 18 10 19
85 0 55 -3 85 -10 85 -7 0 -11 -24 -11 -62z"/>
<path d="M193 732 c-9 -5 -5 -28 13 -82 13 -40 28 -78 34 -84 15 -15 12 3 -11
68 -11 32 -18 64 -15 71 6 17 -8 35 -21 27z"/>
<path d="M1492 697 c-1 -19 -10 -55 -21 -80 -11 -26 -16 -49 -11 -52 10 -6 50
95 50 125 0 11 5 20 10 20 6 0 10 5 10 10 0 6 -8 10 -18 10 -14 0 -19 -8 -20
-33z"/>
<path d="M425 419 c-4 -5 1 -19 10 -29 16 -18 15 -21 -19 -63 -35 -43 -36 -46
-19 -62 16 -17 18 -16 39 8 12 14 29 36 38 49 14 19 19 21 35 11 15 -10 22 -9
31 2 9 11 0 22 -43 54 -58 45 -63 46 -72 30z"/>
<path d="M1207 397 c-51 -35 -57 -53 -29 -86 16 -21 19 -21 61 -6 24 8 46 13
49 10 9 -8 -19 -34 -32 -29 -6 2 -20 -1 -29 -9 -18 -12 -18 -13 0 -29 18 -16
21 -16 63 12 60 39 65 53 37 86 l-24 27 -43 -17 c-23 -9 -45 -15 -47 -12 -9 9
8 26 26 26 9 0 25 6 35 13 16 12 16 14 -1 30 -18 16 -22 15 -66 -16z"/>
<path d="M592 317 c-18 -23 -46 -127 -36 -136 15 -14 104 -40 118 -35 13 5 46
96 46 126 0 25 -113 64 -128 45z m65 -45 c19 -12 -5 -82 -28 -82 -27 0 -30 14
-14 54 16 37 22 41 42 28z"/>
<path d="M996 291 c-6 -8 34 -138 44 -143 3 -2 29 3 58 11 40 11 52 19 52 34
0 19 -19 20 -61 3 -12 -5 -19 6 -33 49 -13 41 -22 55 -36 55 -10 0 -21 -4 -24
-9z"/>
<path d="M795 270 c-11 -18 -13 -102 -4 -128 8 -19 15 -22 69 -22 72 0 78 8
70 97 l-5 58 -62 3 c-38 2 -64 -1 -68 -8z m87 -100 c-3 -16 -41 -22 -43 -8 -8
48 -3 73 16 79 16 4 21 -1 25 -25 3 -17 4 -38 2 -46z"/>
</g>
</svg>
