<svg viewBox="0 0 101 114" fill="none" xmlns="http://www.w3.org/2000/svg">
<path fill-rule="evenodd" clip-rule="evenodd" d="M48.0426 1.38687C49.5678 0.526099 51.4322 0.5261 52.9574 1.38687L98.4574 27.0651C100.028 27.9517 101 29.6157 101 31.4195V82.5805C101 84.3843 100.028 86.0483 98.4574 86.9349L52.9574 112.613C51.4322 113.474 49.5678 113.474 48.0426 112.613L2.54255 86.9349C0.971615 86.0483 0 84.3843 0 82.5805V31.4195C0 29.6157 0.971615 27.9517 2.54256 27.0651L48.0426 1.38687Z" fill="#FFB81C"/>
<path fill-rule="evenodd" clip-rule="evenodd" d="M48.0141 7.42453C49.5539 6.54215 51.4461 6.54215 52.9859 7.42453L92.4859 30.0594C94.0409 30.9504 95 32.6055 95 34.3976V79.6024C95 81.3946 94.0409 83.0496 92.4859 83.9406L52.9859 106.575C51.4461 107.458 49.5539 107.458 48.0141 106.575L8.51405 83.9406C6.95913 83.0496 6 81.3946 6 79.6024V34.3976C6 32.6055 6.95914 30.9504 8.51406 30.0594L48.0141 7.42453Z" fill="#006549"/>
</svg>
