<svg width="187" height="56" viewBox="0 0 187 56" fill="none" xmlns="http://www.w3.org/2000/svg">
<path d="M29.288 11.9233L27.48 16.3073C27.24 16.8993 26.84 17.9233 26.696 18.3873H26.632C26.488 17.9233 26.104 16.8993 25.864 16.3073L24.04 11.9233H22.056V23.1233H23.976V19.6193C23.928 18.3073 23.88 17.0273 23.816 15.7633L23.896 15.7313C24.232 16.6593 24.584 17.6673 24.936 18.6753L25.688 20.6593H27.64L28.392 18.6753C28.744 17.6673 29.112 16.6593 29.432 15.7313L29.512 15.7633C29.448 17.0273 29.4 18.3073 29.352 19.6193V23.1233H31.288V11.9233H29.288ZM37.9761 23.1233H40.0241L37.2721 11.9233H35.1601L32.4081 23.1233H34.4561L34.9041 21.0913H37.5281L37.9761 23.1233ZM35.3041 19.2193L35.7521 17.1393C35.9121 16.3713 36.0881 15.1393 36.1841 14.3873H36.2321C36.3441 15.1393 36.5201 16.3713 36.6801 17.1393L37.1281 19.2193H35.3041ZM41.1497 23.1233H44.1098C46.3018 23.1233 47.5978 21.7633 47.5978 19.4593V15.5393C47.5978 13.2513 46.3018 11.9233 44.0778 11.9233H41.1497V23.1233ZM43.1178 21.2513V13.7953H44.1098C45.0858 13.7953 45.6138 14.3873 45.6138 15.5393V19.4433C45.6138 20.6273 45.0858 21.2513 44.1098 21.2513H43.1178ZM51.3521 21.2673V18.3393H54.7121V16.5473H51.3521V13.7793H55.0161V11.9233H49.3841V23.1233H55.1761V21.2673H51.3521ZM65.8621 11.9233H59.3341V13.7953H61.5901V23.1233H63.6061V13.7953H65.8621V11.9233ZM70.397 23.3153C72.605 23.3153 73.917 21.8913 73.917 19.5233V15.5233C73.917 13.1553 72.605 11.7313 70.397 11.7313C68.173 11.7313 66.861 13.1553 66.861 15.5233V19.5233C66.861 21.8913 68.173 23.3153 70.397 23.3153ZM70.397 21.4113C69.405 21.4113 68.893 20.7393 68.893 19.5233V15.5233C68.893 14.3073 69.405 13.6353 70.397 13.6353C71.389 13.6353 71.885 14.3073 71.885 15.5233V19.5233C71.885 20.7393 71.389 21.4113 70.397 21.4113ZM25.096 43.3153C27.256 43.3153 28.52 42.0673 28.6 39.7953H26.632C26.552 40.9153 26.072 41.4113 25.096 41.4113C24.264 41.4113 23.768 40.8833 23.768 39.7633V35.2833C23.768 34.1313 24.264 33.6033 25.08 33.6033C26.04 33.6033 26.52 34.0993 26.584 35.2513H28.552C28.456 32.9633 27.24 31.6993 25.096 31.6993C23 31.6993 21.736 32.9633 21.736 35.2833V39.7633C21.736 42.0673 23.016 43.3153 25.096 43.3153ZM34.6968 31.9233V36.5313H31.9928V31.9233H30.0247V43.1233H31.9928V38.4033H34.6968V43.1233H36.6808V31.9233H34.6968ZM43.3824 43.1233H45.4304L42.6784 31.9233H40.5664L37.8144 43.1233H39.8624L40.3104 41.0913H42.9344L43.3824 43.1233ZM40.7104 39.2193L41.1584 37.1393C41.3184 36.3713 41.4944 35.1393 41.5904 34.3873H41.6384C41.7504 35.1393 41.9264 36.3713 42.0864 37.1393L42.5344 39.2193H40.7104ZM48.524 41.2513V31.9233H46.556V43.1233H52.028V41.2513H48.524ZM55.149 41.2513V31.9233H53.181V43.1233H58.653V41.2513H55.149ZM61.774 41.2673V38.3393H65.134V36.5473H61.774V33.7793H65.438V31.9233H59.806V43.1233H65.598V41.2673H61.774ZM72.2035 31.9233V35.3313C72.2035 36.3553 72.3155 38.1633 72.4755 39.4273L72.4275 39.4753C72.1555 38.7873 71.8195 37.9073 71.5315 37.1873L69.1955 31.9233H67.2435V43.1233H69.1795V39.9073C69.1795 38.7393 69.0835 36.8353 68.9395 35.5713L68.9875 35.5233C69.2915 36.3553 69.6915 37.3793 70.0275 38.2593L72.1875 43.1233H74.1395V31.9233H72.2035ZM79.3631 43.3153C81.4751 43.3153 82.7231 42.0513 82.7711 39.7793V36.9473H79.2991V38.6913H80.8511V39.7793C80.8511 40.9153 80.3391 41.4113 79.3951 41.4113C78.4831 41.4113 77.9711 40.9153 77.9711 39.7473V35.2993C77.9711 34.1313 78.4671 33.6353 79.3631 33.6353C80.2591 33.6353 80.6911 34.1153 80.7391 35.2513H82.7071C82.6271 32.9793 81.4431 31.7313 79.3631 31.7313C77.2191 31.7313 75.9391 32.9793 75.9391 35.2993V39.7473C75.9391 42.0513 77.2351 43.3153 79.3631 43.3153ZM86.3053 41.2673V38.3393H89.6653V36.5473H86.3053V33.7793H89.9693V31.9233H84.3372V43.1233H90.1293V41.2673H86.3053Z" fill="white"/>
<line x1="1" y1="0.123291" x2="0.999998" y2="55.1233" stroke="white" stroke-width="2"/>
</svg>
