<svg viewBox="0 0 176 200" fill="none" xmlns="http://www.w3.org/2000/svg">
<path d="M163.43 91.655L153.99 100.935C153.99 100.935 151.9 103.045 151.77 106.065C151.69 108.095 151.77 127.345 151.77 127.345V136.965C151.77 137.085 151.71 137.195 151.6 137.255L87.88 174.045C87.74 174.125 87.57 174.125 87.43 174.045L23.99 137.415L23.49 137.165C23.51 137.025 23.54 136.905 23.54 136.745V107.925C23.54 109.145 23.05 109.685 21.84 110.875L11.66 121.355L2.22 112.075C2.22 112.075 0 110.745 0 106.945V145.635C0 148.805 1.69 151.735 4.44 153.315L83.23 198.805C85.97 200.385 89.35 200.385 92.1 198.805L170.88 153.315C173.62 151.735 175.31 148.805 175.31 145.635V107.795C175.31 105.155 174.96 103.275 172.18 100.665L163.43 91.655Z" fill="#006549"/>
<path d="M175.31 54.345C175.31 51.175 173.62 48.245 170.87 46.665L92.09 1.185C89.35 -0.395 85.97 -0.395 83.22 1.185L4.43 46.665C1.69 48.245 0 51.175 0 54.345V93.185C0 96.565 2.22 98.315 2.22 98.315L11.66 107.595L20.01 99.005C22.55 96.575 23.54 95.185 23.54 91.435V63.015C23.6 62.915 23.65 62.825 23.71 62.725L87.43 25.935C87.57 25.855 87.74 25.855 87.88 25.935L151.32 62.565L151.77 62.795C151.77 62.795 151.77 62.825 151.77 62.835V91.655C151.77 87.845 153.99 86.525 153.99 86.525L163.43 77.245L173.61 87.725C174.82 88.915 175.31 89.455 175.31 90.675V54.345Z" fill="#FFB81C"/>
<path d="M65.4202 117.535H50.0602C49.2902 117.535 48.6602 118.165 48.6602 118.935V140.875C48.6602 141.645 49.2902 142.275 50.0602 142.275C50.8302 142.275 51.4602 141.645 51.4602 140.875V120.335H64.0202V147.595C64.0202 148.365 64.6502 148.995 65.4202 148.995C66.1901 148.995 66.8202 148.365 66.8202 147.595V118.935C66.8202 118.165 66.1901 117.535 65.4202 117.535Z" fill="#006549"/>
<path d="M94.6902 107.495H79.3302C78.5602 107.495 77.9302 108.125 77.9302 108.895V156.965C77.9302 157.735 78.5602 158.365 79.3302 158.365C80.1002 158.365 80.7302 157.735 80.7302 156.965V110.295H93.2902V157.575C93.2902 158.345 93.9202 158.975 94.6902 158.975C95.4602 158.975 96.0902 158.345 96.0902 157.575V108.895C96.0902 108.125 95.4602 107.495 94.6902 107.495Z" fill="#006549"/>
<path d="M124.52 95.075H109.16C108.39 95.075 107.76 95.705 107.76 96.475V148.915C107.76 149.685 108.39 150.315 109.16 150.315C109.93 150.315 110.56 149.685 110.56 148.915V97.875H123.12V140.875C123.12 141.645 123.75 142.275 124.52 142.275C125.29 142.275 125.92 141.645 125.92 140.875V96.475C125.92 95.705 125.29 95.075 124.52 95.075Z" fill="#006549"/>
<path d="M126.24 60.395C125.91 60.075 125.44 59.935 124.99 60.015L102.84 64.365C102.33 64.465 101.92 64.845 101.77 65.335C101.62 65.825 101.77 66.375 102.13 66.735L109.15 73.605L86.6402 96.115L73.4702 82.945C72.9202 82.395 72.0302 82.395 71.4902 82.945L49.0702 105.365C48.5202 105.915 48.5202 106.805 49.0702 107.345C49.3402 107.615 49.7002 107.755 50.0602 107.755C50.4202 107.755 50.7802 107.615 51.0502 107.345L72.4802 85.915L85.6502 99.085C86.2002 99.635 87.0902 99.635 87.6302 99.085L111.15 75.565L120.3 84.525C120.57 84.785 120.92 84.925 121.28 84.925C121.42 84.925 121.57 84.905 121.71 84.855C122.21 84.695 122.57 84.275 122.66 83.765L126.64 61.615C126.72 61.155 126.57 60.695 126.24 60.365V60.395ZM120.37 80.685L106 66.605L123.52 63.165L120.37 80.685Z" fill="#006549"/>
</svg>
