<svg viewBox="0 0 177 201" fill="none" xmlns="http://www.w3.org/2000/svg">
<g clip-path="url(#clip0_1884_29592)">
<path d="M81.0687 66.2227H75.0471L66.292 91.6036H72.9327L74.6126 86.3622H84.3911L86.071 91.6036H92.7117L83.9665 66.2227H81.0687ZM82.8191 81.499H76.1768L79.5081 71.108L82.8367 81.5011C82.8326 81.5011 82.8258 81.5011 82.8217 81.5011" fill="#006549"/>
<path d="M128.873 91.6036H135.514L126.766 66.2227H117.849L109.097 91.6036H115.739L117.419 86.3622H127.198L128.873 91.6036ZM118.976 81.4965L122.307 71.1054L125.634 81.4965H118.976Z" fill="#006549"/>
<path d="M61.5049 71.0924C63.3886 71.0924 63.4259 70.9329 65.0664 66.2246H45.2086C44.7347 66.2247 44.2654 66.3177 43.8276 66.4983C43.3898 66.6789 42.9921 66.9436 42.657 67.2773C42.322 67.6109 42.0563 68.007 41.8751 68.4429C41.6939 68.8788 41.6008 69.3459 41.601 69.8177V79.4464C41.6009 79.7417 41.6593 80.0342 41.7728 80.307C41.8863 80.5799 42.0527 80.8278 42.2625 81.0366C42.4723 81.2454 42.7213 81.411 42.9954 81.524C43.2695 81.637 43.5633 81.6951 43.86 81.695H57.9876C57.9876 81.695 57.9876 81.695 57.9876 81.6992V86.5654H45.0048C43.1212 86.5654 43.0838 86.729 41.4434 91.4373H60.65C61.607 91.4369 62.5247 91.0582 63.2012 90.3844C63.8777 89.7106 64.2577 88.7969 64.2576 87.8443V78.2088C64.2578 77.9134 64.1996 77.6207 64.0862 77.3477C63.9728 77.0746 63.8064 76.8265 63.5966 76.6175C63.3868 76.4085 63.1377 76.2426 62.8635 76.1295C62.5893 76.0164 62.2954 75.9581 61.9985 75.9581H47.8663C47.8663 75.9581 47.8663 75.9581 47.8663 75.954V71.0924H61.5049Z" fill="#006549"/>
<path d="M109.226 71.1276C111.109 71.1276 111.147 70.966 112.787 66.2598H89.7515V71.1276H97.7034V91.6036H103.888V71.1276H109.226Z" fill="#006549"/>
<path d="M135.515 66.1914C134.858 66.1912 134.215 66.385 133.669 66.7484C133.122 67.1117 132.696 67.6282 132.444 68.2326C132.193 68.837 132.127 69.5022 132.255 70.1439C132.383 70.7857 132.699 71.3753 133.164 71.8381C133.628 72.3009 134.22 72.6161 134.865 72.744C135.51 72.8718 136.178 72.8065 136.785 72.5563C137.393 72.3061 137.912 71.8823 138.277 71.3383C138.643 70.7944 138.838 70.1549 138.838 69.5006C138.837 68.6236 138.487 67.7826 137.864 67.1623C137.241 66.5419 136.397 66.1928 135.515 66.1914ZM135.515 72.1554C134.988 72.1556 134.472 72 134.033 71.7082C133.594 71.4165 133.252 71.0017 133.05 70.5164C132.848 70.0311 132.795 69.497 132.898 68.9817C133 68.4664 133.255 67.9931 133.628 67.6216C134.001 67.2501 134.476 66.9972 134.994 66.8947C135.512 66.7923 136.048 66.845 136.536 67.0461C137.023 67.2472 137.44 67.5878 137.733 68.0247C138.026 68.4616 138.183 68.9752 138.182 69.5006C138.182 70.2045 137.901 70.8793 137.401 71.3771C136.901 71.8748 136.223 72.1547 135.515 72.1554Z" fill="#006549"/>
<path d="M136.241 69.6924C136.224 69.6769 136.207 69.6619 136.186 69.6464C136.384 69.5967 136.565 69.4949 136.711 69.3517C136.888 69.1645 136.984 68.915 136.978 68.6576C136.98 68.4544 136.924 68.2548 136.818 68.0811C136.719 67.911 136.564 67.7794 136.38 67.708C136.139 67.6308 135.887 67.5968 135.634 67.6074H133.985V71.2794H134.659V69.7424H135.085C135.162 69.7394 135.239 69.7446 135.315 69.7579C135.378 69.7725 135.438 69.7983 135.493 69.8343C135.572 69.8921 135.642 69.9617 135.7 70.0407C135.786 70.1476 135.895 70.3045 136.027 70.5099L136.518 71.2783H137.351L136.641 70.1713C136.528 69.9956 136.394 69.8344 136.242 69.6913L136.241 69.6924ZM136.29 68.6566C136.29 68.7467 136.263 68.8347 136.213 68.91C136.162 68.9868 136.087 69.0444 135.999 69.0736C135.85 69.1185 135.695 69.1384 135.54 69.1324H134.659V68.2034H135.65C135.826 68.1874 136.001 68.2339 136.146 68.3345C136.192 68.3745 136.229 68.4243 136.254 68.4801C136.278 68.536 136.29 68.5966 136.288 68.6576" fill="#006549"/>
<path d="M165.011 92.123L155.475 101.447C154.165 102.866 153.376 104.685 153.236 106.608C153.15 108.651 153.236 127.994 153.236 127.994V130.843L153.231 137.671C153.232 137.729 153.217 137.786 153.188 137.837C153.159 137.888 153.117 137.93 153.067 137.959L88.7281 174.93C88.6584 174.97 88.5794 174.991 88.499 174.991C88.4186 174.991 88.3396 174.97 88.2698 174.93L24.2177 138.12L23.7153 137.867C23.7412 137.727 23.7573 137.585 23.7635 137.443V108.475C23.7635 109.698 23.2725 110.242 22.0463 111.442L11.7721 121.97L2.2388 112.646C2.2388 112.646 1.54485e-07 111.312 1.54485e-07 107.488V146.374C-0.000291871 147.939 0.413436 149.476 1.19956 150.831C1.98568 152.186 3.11646 153.311 4.47812 154.093L84.024 199.808C85.386 200.588 86.9303 200.999 88.5021 200.999C90.0739 200.999 91.6181 200.588 92.9802 199.808L172.523 154.092C173.884 153.309 175.014 152.184 175.8 150.829C176.586 149.474 176.999 147.938 176.999 146.373V108.342C176.999 105.688 176.646 103.804 173.839 101.173L165.011 92.123Z" fill="#006549"/>
<path d="M177 62.1631V54.6281C177 53.0634 176.586 51.5261 175.8 50.1711C175.014 48.816 173.883 47.6909 172.522 46.9089L92.976 1.19331C91.6146 0.41154 90.0706 0 88.499 0C86.9273 0 85.3832 0.41154 84.0219 1.19331L4.47603 46.9063C3.11501 47.6893 1.98492 48.815 1.19924 50.1703C0.413568 51.5256 -3.34923e-05 53.0629 -2.2152e-05 54.6276V93.6629C-0.0162679 94.6313 0.175052 95.5921 0.561188 96.4811C0.947324 97.3701 1.51941 98.167 2.2393 98.8187L11.7721 108.147L20.2021 99.5087C22.768 97.0701 23.7635 95.671 23.7635 91.8948L23.7682 63.331C23.8294 63.2278 23.8755 63.1432 23.9372 63.0384L88.2719 26.0701C88.3413 26.0293 88.4204 26.0077 88.501 26.0077C88.5816 26.0077 88.6608 26.0293 88.7302 26.0701L152.782 62.8789L153.239 63.1101C153.239 63.1256 153.236 63.1385 153.236 63.1561V92.1239C153.236 88.2991 155.475 86.9655 155.475 86.9655L165.011 77.6397L175.285 88.168C176.511 89.3669 177.002 89.9124 177.002 91.1351V62.1631H177Z" fill="#FFB81C"/>
<path d="M41.2056 112.051V104.596C41.2056 100.88 43.2546 98.8945 46.5915 98.8945C49.8492 98.8945 51.8199 100.856 51.9516 104.465H49.3239C49.2202 102.347 48.273 101.431 46.5915 101.431C44.9101 101.431 43.9115 102.399 43.9115 104.622V112.049C43.9115 114.272 44.9625 115.24 46.6703 115.24C48.4332 115.24 49.4816 114.272 49.4816 112.18V109.881H46.5651V107.527H52.0828V112.182C52.0309 115.765 49.9544 117.779 46.6439 117.779C43.3334 117.779 41.2056 115.765 41.2056 112.051Z" fill="#006549"/>
<path d="M61.8556 113.802H56.9949L56.1539 117.49H53.3691L57.993 99.1836H60.857L65.4814 117.49H62.7225L61.8556 113.802ZM61.3035 111.345L60.1478 106.427C59.8849 105.225 59.5961 103.473 59.4644 102.505H59.3856C59.2544 103.473 58.9915 105.225 58.7027 106.427L57.5725 111.345H61.3035Z" fill="#006549"/>
<path d="M71.8401 110.848H70.1809V117.49H67.5273V99.1836H72.2823C75.8033 99.1836 77.8 101.276 77.8 104.912C77.8 107.763 76.5914 109.724 74.4895 110.482L78.4818 117.492H75.5394L71.8401 110.848ZM70.1809 108.337H72.23C74.0965 108.337 75.0676 107.134 75.0676 104.963C75.0676 102.793 74.0955 101.694 72.2564 101.694H70.1825L70.1809 108.337Z" fill="#006549"/>
<path d="M87.6017 113.802H82.741L81.9005 117.49H79.1152L83.7396 99.1836H86.6036L91.228 117.49H88.4691L87.6017 113.802ZM87.0501 111.345L85.8938 106.427C85.6315 105.225 85.3427 103.473 85.211 102.505H85.1322C85.0005 103.473 84.7382 105.225 84.4488 106.427L83.3191 111.345H87.0501Z" fill="#006549"/>
<path d="M104.179 99.1836V117.49H101.525L97.4294 108.52C96.8773 107.16 96.1156 105.251 95.6666 104.074L95.5883 104.126C95.7718 105.956 95.903 108.703 95.903 110.429V117.49H93.2759V99.1836H95.9295L100.159 108.518C100.711 109.746 101.394 111.446 101.841 112.543L101.919 112.492C101.709 110.685 101.552 107.941 101.552 106.32V99.1836H104.179Z" fill="#006549"/>
<path d="M116.815 101.694H112.979V117.49H110.272V101.694H106.462V99.1836H116.814L116.815 101.694Z" fill="#006549"/>
<path d="M124.197 95.8633L120.834 98.9227H118.968L121.411 95.8633H124.197ZM121.517 99.8646V117.491H119.205V99.8646H121.517Z" fill="#006549"/>
<path d="M132.184 113.802H127.323L126.483 117.49H123.697L128.322 99.1836H131.185L135.81 117.49H133.051L132.184 113.802ZM131.632 111.345L130.476 106.427C130.213 105.225 129.924 103.473 129.793 102.505H129.714C129.583 103.473 129.32 105.225 129.031 106.427L127.901 111.345H131.632Z" fill="#006549"/>
<path d="M41.3984 121.92H45.1424C48.0692 121.92 49.7906 123.668 49.7906 126.684V132.41C49.7906 135.447 48.0692 137.217 45.1642 137.217H41.3984V121.92ZM45.1642 135.119C46.7134 135.119 47.5958 134.18 47.5958 132.366V126.727C47.5958 124.936 46.7352 124.018 45.1642 124.018H43.5719V135.119H45.1642Z" fill="#006549"/>
<path d="M59.6446 135.141V137.217H52.0483V121.92H59.4294V123.996H54.2218V128.435H59.0203V130.467H54.2218V135.143L59.6446 135.141Z" fill="#006549"/>
<path d="M74.5551 126.859C74.5551 130.071 72.8767 131.842 69.9287 131.842H68.1212V137.217H65.9478V121.92H69.9287C72.8767 121.92 74.5551 123.734 74.5551 126.859ZM72.3386 126.859C72.3386 124.98 71.5427 124.018 69.9069 124.018H68.1212V129.743H69.9069C71.5427 129.743 72.3386 128.826 72.3386 126.859Z" fill="#006549"/>
<path d="M75.9746 132.366V126.772C75.9746 123.582 77.696 121.637 80.5792 121.637C83.4625 121.637 85.1844 123.582 85.1844 126.772V132.366C85.1844 135.557 83.463 137.502 80.5792 137.502C77.6955 137.502 75.9746 135.557 75.9746 132.366ZM82.9466 132.366V126.772C82.9466 124.849 82.129 123.8 80.5792 123.8C79.0088 123.8 78.2124 124.849 78.2124 126.772V132.366C78.2124 134.29 79.0088 135.339 80.5792 135.339C82.129 135.339 82.9466 134.29 82.9466 132.366Z" fill="#006549"/>
<path d="M90.9721 131.667H89.6168V137.217H87.4434V121.92H91.3351C94.2189 121.92 95.8542 123.668 95.8542 126.706C95.8542 129.088 94.8644 130.727 93.143 131.361L96.4136 137.217H94.0037L90.9721 131.667ZM89.6168 129.568H91.2952C92.8236 129.568 93.6195 128.564 93.6195 126.75C93.6195 124.935 92.8236 124.018 91.3164 124.018H89.6168V129.568Z" fill="#006549"/>
<path d="M100.911 121.92H103.192L105 130.355C105.302 131.71 105.538 133.194 105.753 134.42H105.839C106.054 133.197 106.313 131.71 106.593 130.355L108.422 121.92H110.681L106.979 137.217H104.613L100.911 121.92Z" fill="#006549"/>
<path d="M114.209 121.92V137.217H112.035V121.92H114.209Z" fill="#006549"/>
<path d="M116.876 121.92H120.62C123.547 121.92 125.269 123.668 125.269 126.684V132.41C125.269 135.447 123.547 137.217 120.642 137.217H116.876V121.92ZM120.642 135.119C122.191 135.119 123.073 134.18 123.073 132.366V126.727C123.073 124.936 122.213 124.018 120.642 124.018H119.049V135.119H120.642Z" fill="#006549"/>
<path d="M132.841 134.136H128.861L128.172 137.217H125.891L129.678 121.92H132.024L135.811 137.217H133.551L132.841 134.136ZM132.39 132.082L131.443 127.973C131.227 126.968 130.991 125.504 130.883 124.695H130.819C130.711 125.504 130.496 126.966 130.259 127.973L129.334 132.082H132.39Z" fill="#006549"/>
</g>
<defs>
<clipPath id="clip0_1884_29592">
<rect width="177" height="201" fill="white"/>
</clipPath>
</defs>
</svg>
