<svg viewBox="0 0 177 201" fill="none" xmlns="http://www.w3.org/2000/svg">
<g clip-path="url(#clip0_1884_29340)">
<path d="M81.0687 64.2021H75.0471L66.292 89.5831H72.9327L74.6126 84.3422H84.3911L86.071 89.5831H92.7117L83.9639 64.2021H81.0687ZM82.8191 79.4785H76.1768L79.5081 69.0875L82.8367 79.4806C82.8326 79.4806 82.8258 79.4806 82.8217 79.4806" fill="#006549"/>
<path d="M128.873 89.5831H135.514L126.766 64.2021H117.849L109.097 89.5831H115.739L117.419 84.3422H127.198L128.873 89.5831ZM118.976 79.4765L122.307 69.0854L125.634 79.4765H118.976Z" fill="#006549"/>
<path d="M61.5049 69.0724C63.3886 69.0724 63.4259 68.9129 65.0664 64.2046H45.2086C44.7347 64.2047 44.2654 64.2977 43.8276 64.4783C43.3898 64.6589 42.9921 64.9236 42.657 65.2572C42.322 65.5909 42.0563 65.987 41.8751 66.4229C41.6939 66.8588 41.6008 67.3259 41.601 67.7976V77.4264C41.6009 77.7217 41.6593 78.0141 41.7728 78.287C41.8863 78.5598 42.0527 78.8077 42.2625 79.0166C42.4723 79.2254 42.7213 79.391 42.9954 79.504C43.2695 79.617 43.5633 79.6751 43.86 79.675H57.9876C57.9876 79.675 57.9876 79.675 57.9876 79.6791V84.5449H45.0048C43.1212 84.5449 43.0838 84.7085 41.4434 89.4173H60.65C61.607 89.4169 62.5247 89.0382 63.2012 88.3644C63.8777 87.6906 64.2577 86.7769 64.2576 85.8243V76.1888C64.2578 75.8933 64.1996 75.6007 64.0862 75.3277C63.9728 75.0546 63.8064 74.8065 63.5966 74.5975C63.3868 74.3884 63.1377 74.2226 62.8635 74.1095C62.5893 73.9963 62.2954 73.9381 61.9985 73.9381H47.8663C47.8663 73.9381 47.8663 73.9381 47.8663 73.9335V69.0724H61.5049Z" fill="#006549"/>
<path d="M109.226 69.1075C111.109 69.1075 111.147 68.946 112.787 64.2397H89.7515V69.1075H97.7034V89.5836H103.888V69.1075H109.226Z" fill="#006549"/>
<path d="M135.515 64.1714C134.858 64.1712 134.215 64.365 133.669 64.7283C133.122 65.0917 132.696 65.6082 132.444 66.2126C132.193 66.817 132.127 67.4822 132.255 68.1239C132.383 68.7657 132.699 69.3552 133.164 69.818C133.628 70.2808 134.22 70.5961 134.865 70.7239C135.51 70.8518 136.178 70.7865 136.785 70.5363C137.393 70.2861 137.912 69.8622 138.277 69.3183C138.643 68.7744 138.838 68.1349 138.838 67.4806C138.837 66.6035 138.487 65.7626 137.864 65.1423C137.241 64.5219 136.397 64.1728 135.515 64.1714V64.1714ZM135.515 70.1349C134.988 70.1351 134.472 69.9794 134.033 69.6877C133.594 69.3959 133.252 68.9811 133.05 68.4957C132.847 68.0104 132.795 67.4763 132.898 66.961C133 66.4457 133.255 65.9724 133.628 65.6009C134.001 65.2294 134.477 64.9765 134.994 64.8741C135.512 64.7717 136.049 64.8245 136.536 65.0257C137.024 65.2269 137.44 65.5676 137.734 66.0046C138.027 66.4415 138.183 66.9552 138.182 67.4806C138.182 68.1844 137.9 68.8591 137.4 69.3567C136.9 69.8543 136.222 70.1342 135.515 70.1349Z" fill="#006549"/>
<path d="M136.241 67.6714C136.224 67.6565 136.207 67.641 136.186 67.626C136.384 67.5763 136.565 67.4745 136.711 67.3313C136.888 67.1439 136.984 66.8945 136.978 66.6372C136.98 66.434 136.924 66.2344 136.818 66.0607C136.719 65.8905 136.564 65.759 136.38 65.6876C136.139 65.6102 135.887 65.5761 135.634 65.5869H133.985V69.2584H134.659V67.722H135.085C135.162 67.7193 135.239 67.7243 135.315 67.737C135.378 67.7517 135.438 67.7776 135.493 67.8134C135.572 67.8713 135.642 67.9409 135.7 68.0198C135.786 68.1266 135.895 68.284 136.027 68.4894L136.518 69.2574H137.351L136.641 68.1509C136.528 67.9751 136.394 67.8137 136.242 67.6704L136.241 67.6714ZM136.29 66.6382C136.29 66.7281 136.263 66.8161 136.213 66.8911C136.162 66.9682 136.087 67.0259 135.999 67.0547C135.85 67.1001 135.695 67.1201 135.54 67.1141H134.659V66.1851H135.65C135.826 66.1688 136.002 66.2153 136.146 66.3162C136.192 66.3562 136.229 66.4059 136.254 66.4618C136.278 66.5176 136.29 66.5782 136.288 66.6392" fill="#006549"/>
<path d="M165.011 92.1235L155.475 101.447C154.165 102.867 153.376 104.686 153.236 106.608C153.15 108.651 153.236 127.995 153.236 127.995V130.843L153.231 137.671C153.232 137.73 153.217 137.787 153.188 137.838C153.159 137.888 153.117 137.93 153.067 137.96L88.7281 174.931C88.6584 174.971 88.5794 174.992 88.499 174.992C88.4186 174.992 88.3396 174.971 88.2698 174.931L24.2177 138.12L23.7153 137.867C23.7412 137.727 23.7573 137.585 23.7635 137.443V108.476C23.7635 109.698 23.2725 110.242 22.0463 111.442L11.7721 121.971L2.2388 112.647C2.2388 112.647 1.54485e-07 111.312 1.54485e-07 107.488V146.375C-0.000291871 147.94 0.413436 149.477 1.19956 150.832C1.98568 152.187 3.11646 153.312 4.47812 154.094L84.024 199.808C85.386 200.589 86.9303 201 88.5021 201C90.0739 201 91.6181 200.589 92.9802 199.808L172.523 154.092C173.884 153.31 175.014 152.185 175.8 150.83C176.586 149.475 176.999 147.938 176.999 146.374V108.343C176.999 105.688 176.646 103.804 173.839 101.174L165.011 92.1235Z" fill="#006549"/>
<path d="M177 62.1631V54.6281C177 53.0634 176.586 51.5262 175.8 50.1711C175.014 48.816 173.883 47.6909 172.522 46.9089L92.976 1.19331C91.6146 0.411541 90.0706 0 88.499 0C86.9273 0 85.3832 0.411541 84.0219 1.19331L4.47603 46.9063C3.11501 47.6893 1.98492 48.815 1.19924 50.1703C0.413568 51.5256 -3.34923e-05 53.0629 -2.2152e-05 54.6276V93.6629C-0.0162679 94.6313 0.175052 95.5921 0.561188 96.4811C0.947324 97.3701 1.51941 98.167 2.2393 98.8187L11.7721 108.147L20.2021 99.5087C22.768 97.0701 23.7635 95.671 23.7635 91.8948L23.7682 63.331C23.8294 63.2278 23.8755 63.1432 23.9372 63.0384L88.2718 26.0701C88.3413 26.0293 88.4204 26.0077 88.501 26.0077C88.5816 26.0077 88.6608 26.0293 88.7302 26.0701L152.782 62.8789L153.239 63.1101C153.239 63.1256 153.236 63.1385 153.236 63.1561V92.1239C153.236 88.2991 155.475 86.9656 155.475 86.9656L165.011 77.6397L175.285 88.168C176.511 89.3669 177.002 89.9125 177.002 91.1351V62.1631H177Z" fill="#FFB81C"/>
<path d="M41.5981 108.358V100.951C41.5981 97.2607 43.6347 95.2856 46.9509 95.2856C50.1883 95.2856 52.1466 97.2349 52.2773 100.821H49.6662C49.5625 98.7161 48.6215 97.8068 46.9509 97.8068C45.2804 97.8068 44.2875 98.7682 44.2875 100.977V108.357C44.2875 110.566 45.3322 111.528 47.0292 111.528C48.7781 111.528 49.8228 110.566 49.8228 108.487V106.2H46.925V103.861H52.4074V108.487C52.3556 112.048 50.2925 114.049 47.0033 114.049C43.7141 114.049 41.5981 112.048 41.5981 108.358Z" fill="#006549"/>
<path d="M62.1206 110.1H57.2904L56.4552 113.764H53.6875L58.2828 95.5718H61.1287L65.7235 113.764H62.9823L62.1206 110.1ZM61.572 107.657L60.4236 102.771C60.1644 101.576 59.8751 99.8342 59.7444 98.8722H59.6661C59.536 99.8342 59.2747 101.576 58.9874 102.771L57.8649 107.657H61.572Z" fill="#006549"/>
<path d="M72.0424 107.163H70.3977V113.764H67.7607V95.5718H72.4867C75.9849 95.5718 77.9691 97.6511 77.9691 101.264C77.9691 104.096 76.7683 106.045 74.6793 106.799L78.6483 113.766H75.7241L72.0424 107.163ZM70.3977 104.668H72.4343C74.2879 104.668 75.2538 103.473 75.2538 101.313C75.2538 99.154 74.2879 98.0645 72.4602 98.0645H70.3977V104.668Z" fill="#006549"/>
<path d="M87.708 110.1H82.8778L82.0425 113.764H79.2749L83.8702 95.5718H86.7161L91.3109 113.764H88.5697L87.708 110.1ZM87.1594 107.657L86.011 102.771C85.7518 101.576 85.463 99.8342 85.3323 98.8722H85.2535C85.1234 99.8342 84.862 101.576 84.5748 102.771L83.4523 107.657H87.1594Z" fill="#006549"/>
<path d="M104.184 95.5718V113.764H101.548L97.4752 104.85C96.9272 103.498 96.1702 101.601 95.7264 100.432L95.6481 100.483C95.8312 102.303 95.9592 105.032 95.9592 106.747V113.766H93.3481V95.5733H95.9857L100.189 104.851C100.737 106.073 101.416 107.762 101.86 108.853L101.938 108.802C101.731 107.009 101.573 104.28 101.573 102.669V95.5718H104.184Z" fill="#006549"/>
<path d="M116.74 98.0666H112.928V113.764H110.24V98.0666H106.455V95.5718H116.74V98.0666Z" fill="#006549"/>
<path d="M121.494 95.5718V113.764H118.857V95.5718H121.494Z" fill="#006549"/>
<path d="M131.913 110.1H127.082L126.247 113.764H123.48L128.076 95.5718H130.922L135.517 113.764H132.776L131.913 110.1ZM131.364 107.657L130.216 102.771C129.956 101.576 129.667 99.8342 129.536 98.8722H129.458C129.327 99.8342 129.067 101.576 128.779 102.771L127.656 107.657H131.364Z" fill="#006549"/>
<path d="M41.5981 119.376H44.5094L46.8167 129.928C47.2008 131.623 47.5031 133.482 47.7774 135.013H47.8873C48.1621 133.482 48.4919 131.623 48.8486 129.928L51.1817 119.376H54.065L49.3417 138.512H46.3205L41.5981 119.376Z" fill="#006549"/>
<path d="M58.9814 119.376V138.512H56.2075V119.376H58.9814Z" fill="#006549"/>
<path d="M72.164 122H68.154V138.512H65.3252V122H61.3433V119.376H72.164V122Z" fill="#006549"/>
<path d="M80.649 134.658H75.5679L74.6891 138.512H71.7778L76.6116 119.376H79.6048L84.4386 138.512H81.5548L80.649 134.658ZM80.0725 132.088L78.8639 126.949C78.5896 125.691 78.2873 123.859 78.1499 122.848H78.0675C77.9301 123.859 77.6558 125.691 77.3536 126.949L76.1725 132.088H80.0725Z" fill="#006549"/>
<path d="M95.7255 135.887V138.512H86.5806V119.376H89.3544V135.887H95.7255Z" fill="#006549"/>
<path d="M100.615 119.376V138.512H97.8413V119.376H100.615Z" fill="#006549"/>
<path d="M103.882 132.88V125.007C103.882 121.125 106.052 119.021 109.43 119.021C112.917 119.021 114.977 121.098 115.142 124.898H112.394C112.229 122.656 111.241 121.646 109.401 121.646C107.78 121.646 106.709 122.712 106.709 125.009V132.882C106.709 135.153 107.78 136.217 109.457 136.217C111.324 136.217 112.313 135.178 112.506 132.991H115.254C115.061 136.763 113.001 138.841 109.459 138.841C106.078 138.84 103.882 136.735 103.882 132.88Z" fill="#006549"/>
<path d="M120.715 119.376V138.512H117.941V119.376H120.715Z" fill="#006549"/>
<path d="M131.672 134.658H126.591L125.71 138.512H122.801L127.635 119.376H130.628L135.462 138.512H132.578L131.672 134.658ZM131.096 132.088L129.887 126.949C129.613 125.691 129.311 123.859 129.173 122.848H129.091C128.954 123.859 128.679 125.691 128.377 126.949L127.196 132.088H131.096Z" fill="#006549"/>
<path d="M100.352 115.395H102.845L100.536 118.031H98.3813L100.352 115.395Z" fill="#006549"/>
</g>
<defs>
<clipPath id="clip0_1884_29340">
<rect width="177" height="201" fill="white"/>
</clipPath>
</defs>
</svg>
