<svg viewBox="0 0 176 200" fill="none" xmlns="http://www.w3.org/2000/svg">
<path d="M80.2998 65.815H74.3298L65.6598 91.065H72.2398L73.8998 85.855H83.5798L85.2398 91.065H91.8198L83.1598 65.815H80.2898H80.2998ZM75.4498 81.015L78.7498 70.675L82.0498 81.015H75.4498Z" fill="#006549"/>
<path d="M127.64 91.075H134.22L125.56 65.825H116.73L108.06 91.075H114.64L116.3 85.865H125.98L127.64 91.075ZM117.84 81.015L121.14 70.675L124.44 81.015H117.84Z" fill="#006549"/>
<path d="M60.9198 70.665C62.7798 70.665 62.8198 70.505 64.4498 65.825H44.7798C42.8098 65.825 41.2098 67.425 41.2098 69.395V78.975C41.2098 80.215 42.2098 81.215 43.4498 81.215H57.4398V86.055H44.5798C42.7198 86.055 42.6798 86.215 41.0498 90.905H60.0698C62.0398 90.905 63.6398 89.305 63.6398 87.335V77.745C63.6398 76.505 62.6398 75.505 61.3998 75.505H47.3998V70.665H60.9198Z" fill="#006549"/>
<path d="M108.18 70.695C110.05 70.695 110.08 70.535 111.71 65.855H88.8898V70.695H96.7698V91.065H102.89V70.695H108.18Z" fill="#006549"/>
<path d="M134.22 65.785C132.41 65.785 130.93 67.265 130.93 69.075C130.93 70.885 132.41 72.365 134.22 72.365C136.03 72.365 137.51 70.885 137.51 69.075C137.51 67.265 136.03 65.785 134.22 65.785ZM134.22 71.715C132.76 71.715 131.58 70.525 131.58 69.075C131.58 67.625 132.77 66.435 134.22 66.435C135.67 66.435 136.86 67.625 136.86 69.075C136.86 70.525 135.68 71.715 134.22 71.715Z" fill="#006549"/>
<path d="M134.94 69.265C134.94 69.265 134.91 69.235 134.89 69.225C135.11 69.165 135.28 69.065 135.41 68.935C135.59 68.745 135.68 68.515 135.68 68.245C135.68 68.035 135.63 67.845 135.52 67.675C135.41 67.495 135.27 67.375 135.09 67.305C134.92 67.235 134.67 67.205 134.35 67.205H132.72V70.855H133.39V69.325H133.81C133.96 69.325 134.02 69.325 134.04 69.335C134.1 69.345 134.16 69.375 134.22 69.415C134.28 69.455 134.35 69.525 134.43 69.625C134.51 69.735 134.62 69.885 134.75 70.095L135.24 70.855H136.06L135.36 69.755C135.24 69.565 135.1 69.405 134.96 69.275M135.01 68.245C135.01 68.335 134.99 68.415 134.94 68.495C134.89 68.575 134.82 68.625 134.73 68.655C134.62 68.695 134.47 68.715 134.28 68.715H133.41V67.785H134.39C134.62 67.785 134.78 67.825 134.88 67.915C134.98 68.005 135.02 68.105 135.02 68.235" fill="#006549"/>
<path d="M50.6901 113.985V116.745H41.1201V96.625H44.0201V113.985H50.6901Z" fill="#006549"/>
<path d="M55.8101 96.625V116.745H52.9101V96.625H55.8101Z" fill="#006549"/>
<path d="M62.7001 99.355V105.365H68.7601V108.005H62.7001V116.745H59.8001V96.625H69.2901V99.355H62.7001Z" fill="#006549"/>
<path d="M82.1601 114.015V116.745H72.0101V96.625H81.8701V99.355H74.9101V105.195H81.3201V107.865H74.9101V114.015H82.1601Z" fill="#006549"/>
<path d="M95.0601 99.385H90.8601V116.745H87.9001V99.385H83.7301V96.625H95.0601V99.385Z" fill="#006549"/>
<path d="M100.28 96.625V116.745H97.3801V96.625H100.28Z" fill="#006549"/>
<path d="M120.03 96.625V116.745H117.18V108.895C117.24 106.595 117.3 104.495 117.41 102.395L117.3 102.335C116.72 103.945 116.04 105.785 115.34 107.625L113.59 112.195H110.72L108.97 107.625C108.28 105.785 107.59 103.945 107.02 102.335L106.9 102.395C106.99 104.495 107.07 106.595 107.13 108.895V116.745H104.28V96.625H107.24L110.63 104.785C111.09 105.935 111.78 107.865 112.1 108.785H112.21C112.53 107.865 113.22 105.935 113.68 104.785L117.07 96.625H120.03Z" fill="#006549"/>
<path d="M134.19 114.015V116.745H124.04V96.625H133.9V99.355H126.94V105.195H133.35V107.865H126.94V114.015H134.19Z" fill="#006549"/>
<path d="M57.2798 121.635L53.6498 137.805H51.1598L49.5898 130.665C49.2398 129.145 48.9198 126.785 48.8298 125.465H48.7398C48.6298 126.785 48.2998 129.135 47.9598 130.665L46.3898 137.805H43.8898L40.2598 121.635H42.6798L44.3398 130.485C44.5498 131.665 44.9398 133.765 45.0798 134.785H45.1698C45.3098 133.765 45.6598 131.785 45.9098 130.375L47.5298 121.895H49.9998L51.6198 130.375C51.8698 131.785 52.2198 133.775 52.3598 134.785H52.4498C52.5898 133.765 52.9798 131.665 53.1898 130.485L54.8498 121.635H57.2798Z" fill="#006549"/>
<path d="M64.4298 134.545H60.1598L59.4198 137.805H56.9698L61.0298 121.635H63.5498L67.6198 137.805H65.1898L64.4298 134.545ZM63.9398 132.375L62.9198 128.035C62.6898 126.975 62.4298 125.425 62.3198 124.575H62.2498C62.1398 125.425 61.8998 126.975 61.6498 128.035L60.6598 132.375H63.9398Z" fill="#006549"/>
<path d="M73.2098 131.935H71.7498V137.805H69.4198V121.635H73.5998C76.6898 121.635 78.4498 123.485 78.4498 126.695C78.4498 129.215 77.3898 130.945 75.5398 131.615L79.0498 137.805H76.4598L73.1998 131.935H73.2098ZM71.7498 129.715H73.5498C75.1898 129.715 76.0398 128.655 76.0398 126.735C76.0398 124.815 75.1898 123.845 73.5698 123.845H71.7498V129.715Z" fill="#006549"/>
<path d="M84.8598 131.935H83.3998V137.805H81.0698V121.635H85.2498C88.3398 121.635 90.0998 123.485 90.0998 126.695C90.0998 129.215 89.0398 130.945 87.1898 131.615L90.6998 137.805H88.1098L84.8498 131.935H84.8598ZM83.3998 129.715H85.1998C86.8398 129.715 87.6898 128.655 87.6898 126.735C87.6898 124.815 86.8398 123.845 85.2198 123.845H83.3998V129.715Z" fill="#006549"/>
<path d="M98.7198 134.545H94.4498L93.7098 137.805H91.2598L95.3198 121.635H97.8398L101.91 137.805H99.4798L98.7198 134.545ZM98.2298 132.375L97.2098 128.035C96.9798 126.975 96.7198 125.425 96.6098 124.575H96.5398C96.4298 125.425 96.1898 126.975 95.9398 128.035L94.9498 132.375H98.2298Z" fill="#006549"/>
<path d="M113.3 121.635V137.805H110.97L107.37 129.885C106.88 128.685 106.22 126.995 105.82 125.955L105.75 126.005C105.91 127.625 106.03 130.045 106.03 131.575V137.815H103.72V121.645H106.05L109.77 129.895C110.26 130.985 110.86 132.485 111.25 133.455L111.32 133.405C111.14 131.815 111 129.385 111 127.955V121.645H113.31L113.3 121.635Z" fill="#006549"/>
<path d="M124.42 123.845H121.05V137.795H118.67V123.845H115.32V121.625H124.42V123.845Z" fill="#006549"/>
<path d="M128.79 132.485L124.86 121.625H127.28L129.11 127.005C129.34 127.695 129.69 128.735 129.92 129.545H129.97L130.8 126.955L132.6 121.615H135.05L131.12 132.475V137.785H128.79V132.475V132.485Z" fill="#006549"/>
<path d="M163.43 91.655L153.99 100.935C153.99 100.935 151.9 103.045 151.77 106.065C151.69 108.095 151.77 127.345 151.77 127.345V136.965C151.77 137.085 151.71 137.195 151.6 137.255L87.88 174.045C87.74 174.125 87.57 174.125 87.43 174.045L23.99 137.415L23.49 137.165C23.51 137.025 23.54 136.905 23.54 136.745V107.925C23.54 109.145 23.05 109.685 21.84 110.875L11.66 121.355L2.22 112.075C2.22 112.075 0 110.745 0 106.945V145.635C0 148.805 1.69 151.735 4.44 153.315L83.23 198.805C85.97 200.385 89.35 200.385 92.1 198.805L170.88 153.315C173.62 151.735 175.31 148.805 175.31 145.635V107.795C175.31 105.155 174.96 103.275 172.18 100.665L163.43 91.655Z" fill="#006549"/>
<path d="M175.31 54.345C175.31 51.175 173.62 48.245 170.87 46.665L92.09 1.185C89.35 -0.395 85.97 -0.395 83.22 1.185L4.43 46.665C1.69 48.245 0 51.175 0 54.345V93.185C0 96.565 2.22 98.315 2.22 98.315L11.66 107.595L20.01 99.005C22.55 96.575 23.54 95.185 23.54 91.435V63.015C23.6 62.915 23.65 62.825 23.71 62.725L87.43 25.935C87.57 25.855 87.74 25.855 87.88 25.935L151.32 62.565L151.77 62.795C151.77 62.795 151.77 62.825 151.77 62.835V91.655C151.77 87.845 153.99 86.525 153.99 86.525L163.43 77.245L173.61 87.725C174.82 88.915 175.31 89.455 175.31 90.675V54.345Z" fill="#FFB81C"/>
</svg>
