<svg viewBox="0 0 176 200" fill="none" xmlns="http://www.w3.org/2000/svg">
<path d="M163.43 91.655L153.99 100.935C153.99 100.935 151.9 103.045 151.77 106.065C151.69 108.095 151.77 127.345 151.77 127.345V136.965C151.77 137.085 151.71 137.195 151.6 137.255L87.88 174.045C87.74 174.125 87.57 174.125 87.43 174.045L23.99 137.415L23.49 137.165C23.51 137.025 23.54 136.905 23.54 136.745V107.925C23.54 109.145 23.05 109.685 21.84 110.875L11.66 121.355L2.22 112.075C2.22 112.075 0 110.745 0 106.945V145.635C0 148.805 1.69 151.735 4.44 153.315L83.23 198.805C85.97 200.385 89.35 200.385 92.1 198.805L170.88 153.315C173.62 151.735 175.31 148.805 175.31 145.635V107.795C175.31 105.155 174.96 103.275 172.18 100.665L163.43 91.655Z" fill="#006549"/>
<path d="M175.31 54.345C175.31 51.175 173.62 48.245 170.87 46.665L92.09 1.185C89.35 -0.395 85.97 -0.395 83.22 1.185L4.43 46.665C1.69 48.245 0 51.175 0 54.345V93.185C0 96.565 2.22 98.315 2.22 98.315L11.66 107.595L20.01 99.005C22.55 96.575 23.54 95.185 23.54 91.435V63.015C23.6 62.915 23.65 62.825 23.71 62.725L87.43 25.935C87.57 25.855 87.74 25.855 87.88 25.935L151.32 62.565L151.77 62.795C151.77 62.795 151.77 62.825 151.77 62.835V91.655C151.77 87.845 153.99 86.525 153.99 86.525L163.43 77.245L173.61 87.725C174.82 88.915 175.31 89.455 175.31 90.675V54.345Z" fill="#FFB81C"/>
<path d="M117.4 120.285H116.72C115.36 120.425 113.99 119.875 113.04 118.925C112.9 118.785 112.77 118.655 112.77 118.515C112.09 117.695 111.82 116.745 111.82 115.515V113.335C111.82 112.515 111.55 111.695 111 111.155C109.91 110.065 107.86 109.925 106.77 111.155L105.13 112.925L101.72 109.515L109.77 101.465C111.13 101.735 112.5 102.015 113.86 102.015C118.36 102.015 122.45 100.245 125.59 97.105C129.96 92.735 131.46 86.465 129.68 80.465L129 78.285L116.45 90.835L108.26 82.655L120.81 70.105L118.63 69.425C117.13 69.015 115.49 68.745 113.86 68.745C111.3 68.745 108.82 69.325 106.56 70.455L96.94 73.115C95.3 71.065 93.53 69.295 91.48 67.795L92.98 60.975L82.61 56.885L79.06 62.885C76.47 62.615 73.88 62.615 71.42 63.025L67.46 57.155L57.23 61.655L59 68.475C56.95 70.115 55.18 71.885 53.68 73.935L46.86 72.435L42.77 82.805L48.77 86.355C48.5 88.945 48.5 91.535 48.91 93.995L43.04 97.815L47.54 108.045L54.36 106.275C56 108.325 57.77 110.095 59.82 111.595L58.59 117.185C54.91 121.415 53.68 127.275 55.32 132.735L56 134.915L68.55 122.365L76.73 130.545L64.18 143.095L66.36 143.775C67.86 144.185 69.5 144.455 71.13 144.455C75.63 144.455 79.72 142.685 82.86 139.545C86.95 135.455 88.59 129.455 87.23 123.725L95.41 115.545L98.82 118.955L97.32 120.455C96.5 121.275 96.23 122.635 96.64 123.725C97.05 124.815 98.14 125.635 99.5 125.635H101.68C102.77 125.635 103.86 125.905 104.68 126.585C104.82 126.725 104.95 126.725 105.09 126.855C106.18 127.805 106.59 129.175 106.45 130.535V131.215L116.27 141.035C117.77 142.535 119.68 143.355 121.73 143.355C123.78 143.355 125.82 142.535 127.32 141.035C130.32 138.035 130.46 132.985 127.32 129.985L117.36 120.295L117.4 120.285ZM113.72 71.445C114.4 71.445 114.95 71.445 115.49 71.585L104.44 82.635L116.58 94.775L127.63 83.725C128.18 87.955 126.68 92.185 123.67 95.185C121.08 97.775 117.53 99.275 113.85 99.275C112.49 99.275 111.12 99.135 109.76 98.725L108.94 98.455L99.8 107.595L91.62 99.415L100.76 90.275L100.49 89.455C98.99 84.545 100.35 79.225 103.9 75.545C106.49 72.955 110.04 71.455 113.72 71.455V71.445ZM56.02 103.915L55.47 103.095L49.19 104.735L46.6 98.735L52.06 95.185L51.92 94.235C51.37 91.375 51.24 88.505 51.78 85.645L51.92 84.695L46.33 81.425L48.65 75.425L55.06 76.785L55.61 75.965C57.25 73.505 59.16 71.465 61.48 69.825L62.3 69.275L60.66 62.995L66.66 60.405L70.21 65.865L71.16 65.725C73.89 65.175 76.89 65.045 79.75 65.585L80.7 65.725L83.97 60.135L89.97 62.455L88.61 68.865L89.43 69.415C91.89 71.055 93.93 72.965 95.57 75.285L96.12 76.105L101.3 74.745C97.89 78.835 96.66 84.155 98.03 89.345L89.98 97.395L85.34 92.755L85.75 88.665L72.11 80.205L66.11 86.075L74.7 99.585L78.93 99.035L83.57 103.535L75.52 111.585C74.16 111.315 72.79 111.035 71.43 111.035C68.16 111.035 65.02 111.985 62.29 113.765L63.11 110.085L62.29 109.535C59.7 108.305 57.65 106.265 56.01 103.945L56.02 103.915ZM84.26 123.015L84.53 123.835C86.03 128.745 84.67 134.065 81.12 137.745C78.53 140.335 74.98 141.835 71.3 141.835C70.75 141.835 70.21 141.835 69.66 141.695L80.71 130.645L68.57 118.505L57.52 129.555C56.97 125.325 58.47 121.095 61.48 118.095C64.07 115.505 67.62 114.005 71.3 114.005C72.66 114.005 74.03 114.145 75.39 114.555L76.21 114.825L85.49 105.545L93.67 113.725L84.26 123.005V123.015ZM79.89 96.145L76.07 96.695L69.66 86.465L72.39 83.735L82.62 90.145L82.21 93.825L103.22 114.835L100.9 117.155L79.89 96.145ZM125.18 139.115C123.27 141.025 119.86 141.025 117.95 139.115L109.08 130.245C109.08 128.335 108.26 126.425 106.9 125.065L106.35 124.515C105.12 123.565 103.49 123.015 101.58 123.015H99.53C99.39 123.015 99.26 123.015 99.26 122.875V122.605L108.54 113.325C108.68 113.185 108.81 113.185 108.95 113.325L109.09 113.465V115.645C109.09 117.415 109.64 119.055 110.73 120.415C110.87 120.555 111 120.825 111.28 120.965C112.64 122.325 114.55 123.145 116.46 123.145L125.33 132.015C127.24 133.925 127.24 137.195 125.19 139.105L125.18 139.115Z" fill="#006549"/>
</svg>
