<svg viewBox="0 0 176 200" fill="none" xmlns="http://www.w3.org/2000/svg">
<path d="M75.2 63.9761C74.74 63.9761 74.34 63.6961 74.18 63.2661L73.84 62.3461L72.92 62.0061C72.49 61.8461 72.21 61.4361 72.21 60.9861C72.21 60.5361 72.49 60.1261 72.92 59.9661L73.84 59.6261L74.18 58.7061C74.34 58.2761 74.75 57.9961 75.2 57.9961C75.65 57.9961 76.06 58.2761 76.22 58.7061L76.56 59.6261L77.48 59.9661C77.91 60.1261 78.19 60.5361 78.19 60.9861C78.19 61.4361 77.91 61.8461 77.48 62.0061L76.56 62.3461L76.22 63.2661C76.06 63.6961 75.65 63.9761 75.2 63.9761Z" fill="#006549"/>
<path d="M65.2 73.0659C64.74 73.0659 64.34 72.7859 64.18 72.3559L63.84 71.4359L62.92 71.0959C62.49 70.9359 62.21 70.5259 62.21 70.0759C62.21 69.6259 62.49 69.2159 62.92 69.0559L63.84 68.7159L64.18 67.7959C64.34 67.3659 64.75 67.0859 65.2 67.0859C65.65 67.0859 66.06 67.3659 66.22 67.7959L66.56 68.7159L67.48 69.0559C67.91 69.2159 68.19 69.6259 68.19 70.0759C68.19 70.5259 67.91 70.9359 67.48 71.0959L66.56 71.4359L66.22 72.3559C66.06 72.7859 65.65 73.0659 65.2 73.0659Z" fill="#006549"/>
<path d="M64.9099 100.056C64.4499 100.056 64.0499 99.7762 63.8899 99.3462L63.5499 98.4262L62.6299 98.0862C62.1999 97.9262 61.9199 97.5162 61.9199 97.0662C61.9199 96.6162 62.1999 96.2062 62.6299 96.0462L63.5499 95.7062L63.8899 94.7862C64.0499 94.3562 64.4599 94.0762 64.9099 94.0762C65.3599 94.0762 65.7699 94.3562 65.9299 94.7862L66.2699 95.7062L67.1899 96.0462C67.6199 96.2062 67.8999 96.6162 67.8999 97.0662C67.8999 97.5162 67.6199 97.9262 67.1899 98.0862L66.2699 98.4262L65.9299 99.3462C65.7699 99.7762 65.3599 100.056 64.9099 100.056Z" fill="#006549"/>
<path d="M110.66 100.056C110.2 100.056 109.8 99.7762 109.64 99.3462L109.3 98.4262L108.38 98.0862C107.95 97.9262 107.67 97.5162 107.67 97.0662C107.67 96.6162 107.95 96.2062 108.38 96.0462L109.3 95.7062L109.64 94.7862C109.8 94.3562 110.21 94.0762 110.66 94.0762C111.11 94.0762 111.52 94.3562 111.68 94.7862L112.02 95.7062L112.94 96.0462C113.37 96.2062 113.65 96.6162 113.65 97.0662C113.65 97.5162 113.37 97.9262 112.94 98.0862L112.02 98.4262L111.68 99.3462C111.52 99.7762 111.11 100.056 110.66 100.056Z" fill="#006549"/>
<path d="M61.2498 86.9566C60.7898 86.9566 60.3898 86.6766 60.2298 86.2466L59.8898 85.3266L58.9698 84.9866C58.5398 84.8266 58.2598 84.4166 58.2598 83.9666C58.2598 83.5166 58.5398 83.1066 58.9698 82.9466L59.8898 82.6066L60.2298 81.6866C60.3898 81.2566 60.7998 80.9766 61.2498 80.9766C61.6998 80.9766 62.1098 81.2566 62.2698 81.6866L62.6098 82.6066L63.5298 82.9466C63.9598 83.1066 64.2398 83.5166 64.2398 83.9666C64.2398 84.4166 63.9598 84.8266 63.5298 84.9866L62.6098 85.3266L62.2698 86.2466C62.1098 86.6766 61.6998 86.9566 61.2498 86.9566Z" fill="#006549"/>
<path d="M114.32 86.9566C113.86 86.9566 113.46 86.6766 113.3 86.2466L112.96 85.3266L112.04 84.9866C111.61 84.8266 111.33 84.4166 111.33 83.9666C111.33 83.5166 111.61 83.1066 112.04 82.9466L112.96 82.6066L113.3 81.6866C113.46 81.2566 113.87 80.9766 114.32 80.9766C114.77 80.9766 115.18 81.2566 115.34 81.6866L115.68 82.6066L116.6 82.9466C117.03 83.1066 117.31 83.5166 117.31 83.9666C117.31 84.4166 117.03 84.8266 116.6 84.9866L115.68 85.3266L115.34 86.2466C115.18 86.6766 114.77 86.9566 114.32 86.9566Z" fill="#006549"/>
<path d="M101.22 63.9761C100.76 63.9761 100.36 63.6961 100.2 63.2661L99.8605 62.3461L98.9405 62.0061C98.5105 61.8461 98.2305 61.4361 98.2305 60.9861C98.2305 60.5361 98.5105 60.1261 98.9405 59.9661L99.8605 59.6261L100.2 58.7061C100.36 58.2761 100.77 57.9961 101.22 57.9961C101.67 57.9961 102.08 58.2761 102.24 58.7061L102.58 59.6261L103.5 59.9661C103.93 60.1261 104.21 60.5361 104.21 60.9861C104.21 61.4361 103.93 61.8461 103.5 62.0061L102.58 62.3461L102.24 63.2661C102.08 63.6961 101.67 63.9761 101.22 63.9761Z" fill="#006549"/>
<path d="M88.2097 60.1753C87.7497 60.1753 87.3497 59.8953 87.1897 59.4653L86.8497 58.5453L85.9297 58.2053C85.4997 58.0453 85.2197 57.6353 85.2197 57.1853C85.2197 56.7353 85.4997 56.3253 85.9297 56.1653L86.8497 55.8253L87.1897 54.9053C87.3497 54.4753 87.7597 54.1953 88.2097 54.1953C88.6597 54.1953 89.0697 54.4753 89.2297 54.9053L89.5697 55.8253L90.4897 56.1653C90.9197 56.3253 91.1997 56.7353 91.1997 57.1853C91.1997 57.6353 90.9197 58.0453 90.4897 58.2053L89.5697 58.5453L89.2297 59.4653C89.0697 59.8953 88.6597 60.1753 88.2097 60.1753Z" fill="#006549"/>
<path d="M101.22 110.066C100.76 110.066 100.36 109.786 100.2 109.356L99.8605 108.436L98.9405 108.096C98.5105 107.936 98.2305 107.526 98.2305 107.076C98.2305 106.626 98.5105 106.216 98.9405 106.056L99.8605 105.716L100.2 104.796C100.36 104.366 100.77 104.086 101.22 104.086C101.67 104.086 102.08 104.366 102.24 104.796L102.58 105.716L103.5 106.056C103.93 106.216 104.21 106.626 104.21 107.076C104.21 107.526 103.93 107.936 103.5 108.096L102.58 108.436L102.24 109.356C102.08 109.786 101.67 110.066 101.22 110.066Z" fill="#006549"/>
<path d="M75.2 110.066C74.74 110.066 74.34 109.786 74.18 109.356L73.84 108.436L72.92 108.096C72.49 107.936 72.21 107.526 72.21 107.076C72.21 106.626 72.49 106.216 72.92 106.056L73.84 105.716L74.18 104.796C74.34 104.366 74.75 104.086 75.2 104.086C75.65 104.086 76.06 104.366 76.22 104.796L76.56 105.716L77.48 106.056C77.91 106.216 78.19 106.626 78.19 107.076C78.19 107.526 77.91 107.936 77.48 108.096L76.56 108.436L76.22 109.356C76.06 109.786 75.65 110.066 75.2 110.066Z" fill="#006549"/>
<path d="M88.2097 113.876C87.7497 113.876 87.3497 113.596 87.1897 113.166L86.8497 112.246L85.9297 111.906C85.4997 111.746 85.2197 111.336 85.2197 110.886C85.2197 110.436 85.4997 110.026 85.9297 109.866L86.8497 109.526L87.1897 108.606C87.3497 108.176 87.7597 107.896 88.2097 107.896C88.6597 107.896 89.0697 108.176 89.2297 108.606L89.5697 109.526L90.4897 109.866C90.9197 110.026 91.1997 110.436 91.1997 110.886C91.1997 111.336 90.9197 111.746 90.4897 111.906L89.5697 112.246L89.2297 113.166C89.0697 113.596 88.6597 113.876 88.2097 113.876Z" fill="#006549"/>
<path d="M83.4496 96.2562C83.1596 96.2562 82.8796 96.1462 82.6796 95.9362L74.2696 87.5262C73.8496 87.1062 73.8396 86.4362 74.2496 86.0062L77.6396 82.4162C77.8396 82.2062 78.1196 82.0762 78.4196 82.0762C78.7196 82.0762 78.9996 82.1862 79.2096 82.3962L83.5696 86.7562L102.93 67.3962C103.13 67.1962 103.41 67.0762 103.7 67.0762C103.99 67.0762 104.27 67.1862 104.47 67.3962L107.85 70.7762C108.28 71.2062 108.28 71.8962 107.85 72.3162L84.2396 95.9262C84.0396 96.1262 83.7596 96.2462 83.4696 96.2462L83.4496 96.2562ZM76.5596 86.7362L83.4496 93.6262L105.52 71.5562L103.68 69.7162L84.3196 89.0762C84.1196 89.2762 83.8396 89.3962 83.5496 89.3962C83.2596 89.3962 82.9796 89.2862 82.7796 89.0762L78.4396 84.7362L76.5496 86.7362H76.5596Z" fill="#006549"/>
<path d="M87.8403 118.985C78.4903 118.985 69.6903 115.345 63.0803 108.725C56.4703 102.115 52.8203 93.3153 52.8203 83.9653C52.8203 74.6153 56.4603 65.8153 63.0803 59.2053C69.6903 52.5953 78.4903 48.9453 87.8403 48.9453C97.1903 48.9453 105.99 52.5853 112.6 59.2053C119.21 65.8153 122.86 74.6153 122.86 83.9653C122.86 93.3153 119.22 102.115 112.6 108.725C105.99 115.335 97.1903 118.985 87.8403 118.985ZM87.8403 51.1253C79.0703 51.1253 70.8203 54.5453 64.6203 60.7453C58.4203 66.9453 55.0003 75.1953 55.0003 83.9653C55.0003 92.7353 58.4203 100.985 64.6203 107.185C70.8203 113.385 79.0703 116.805 87.8403 116.805C96.6103 116.805 104.86 113.385 111.06 107.185C117.26 100.985 120.68 92.7353 120.68 83.9653C120.68 75.1953 117.26 66.9453 111.06 60.7453C104.86 54.5453 96.6103 51.1253 87.8403 51.1253Z" fill="#006549"/>
<path d="M87.8403 104.026C76.7803 104.026 67.7803 95.0262 67.7803 83.9662C67.7803 72.9062 76.7803 63.9062 87.8403 63.9062C91.2903 63.9062 94.6903 64.7962 97.6803 66.4862C98.2003 66.7862 98.3903 67.4463 98.0903 67.9662C97.7903 68.4862 97.1303 68.6762 96.6103 68.3762C93.9503 66.8762 90.9103 66.0762 87.8403 66.0762C77.9803 66.0762 69.9603 74.0962 69.9603 83.9562C69.9603 93.8162 77.9803 101.836 87.8403 101.836C97.7003 101.836 105.72 93.8162 105.72 83.9562C105.72 82.3062 105.49 80.6662 105.05 79.0862C104.89 78.5062 105.22 77.9062 105.8 77.7462C106.38 77.5862 106.98 77.9162 107.14 78.4962C107.64 80.2662 107.89 82.0962 107.89 83.9562C107.89 95.0162 98.8903 104.016 87.8303 104.016L87.8403 104.026Z" fill="#006549"/>
<path d="M163.43 91.6562L153.99 100.936C153.99 100.936 151.9 103.046 151.77 106.066C151.69 108.096 151.77 127.346 151.77 127.346V136.966C151.77 137.086 151.71 137.196 151.6 137.256L87.88 174.046C87.74 174.126 87.57 174.126 87.43 174.046L23.99 137.416L23.49 137.166C23.51 137.026 23.54 136.906 23.54 136.746V107.926C23.54 109.146 23.05 109.686 21.84 110.876L11.66 121.356L2.22 112.076C2.22 112.076 0 110.746 0 106.946V145.636C0 148.806 1.69 151.736 4.44 153.316L83.23 198.806C85.97 200.386 89.35 200.386 92.1 198.806L170.88 153.316C173.62 151.736 175.31 148.806 175.31 145.636V107.796C175.31 105.156 174.96 103.276 172.18 100.666L163.43 91.6562Z" fill="#006549"/>
<path d="M175.31 54.345C175.31 51.175 173.62 48.245 170.87 46.665L92.09 1.185C89.35 -0.395 85.97 -0.395 83.22 1.185L4.43 46.665C1.69 48.245 0 51.175 0 54.345V93.185C0 96.565 2.22 98.315 2.22 98.315L11.66 107.595L20.01 99.005C22.55 96.575 23.54 95.185 23.54 91.435V63.015C23.6 62.915 23.65 62.825 23.71 62.725L87.43 25.935C87.57 25.855 87.74 25.855 87.88 25.935L151.32 62.565L151.77 62.795C151.77 62.795 151.77 62.825 151.77 62.835V91.655C151.77 87.845 153.99 86.525 153.99 86.525L163.43 77.245L173.61 87.725C174.82 88.915 175.31 89.455 175.31 90.675V54.345Z" fill="#FFB81C"/>
<path d="M112.21 132.217C111.28 130.287 109.11 129.307 107.09 129.877L92.9602 133.177C92.4602 130.917 90.4402 129.217 88.0302 129.217H88.0202L78.7602 129.237C77.6802 129.287 76.7302 128.837 75.9902 128.097L71.1202 123.247C69.7502 121.877 67.9202 121.127 65.9902 121.127H65.9702L54.2902 121.157V120.307C54.2902 119.607 54.0002 118.947 53.4902 118.457C52.9902 117.977 52.3302 117.717 51.6402 117.717L45.5902 117.737C44.8902 117.737 44.2302 118.007 43.7302 118.487C43.2202 118.977 42.9502 119.637 42.9502 120.337L43.0102 137.657C43.0102 138.867 43.8302 140.367 45.0002 141.317C45.0502 141.357 45.1002 141.387 45.1502 141.417L50.0002 144.127C50.8102 144.587 51.4802 144.747 52.0202 144.747C52.5202 144.747 52.9202 144.607 53.2102 144.437C53.9302 144.017 54.3702 143.207 54.3702 142.327V140.727L75.1102 148.557C77.1802 149.337 79.3602 149.727 81.5402 149.727C84.2202 149.727 86.9002 149.137 89.3602 147.977L110.16 138.127C111.23 137.617 112.04 136.727 112.43 135.607C112.82 134.487 112.76 133.287 112.24 132.217H112.21ZM52.1302 142.617C52.0502 142.657 51.7102 142.687 51.0202 142.287L46.2502 139.617C45.5002 138.977 45.1102 138.077 45.1002 137.647L45.0402 120.327C45.0402 120.157 45.1302 120.047 45.1902 119.987C45.2902 119.887 45.4302 119.827 45.5902 119.827L51.6402 119.807C51.7702 119.807 51.9302 119.857 52.0402 119.967C52.1102 120.027 52.1902 120.147 52.1902 120.307V122.207L52.2402 142.317C52.2402 142.437 52.1902 142.567 52.1302 142.607V142.617ZM110.42 134.897C110.21 135.477 109.79 135.947 109.23 136.217L88.4302 146.067C84.4902 147.937 79.9002 148.117 75.8202 146.577L54.3302 138.467L54.2902 123.257L65.9702 123.227H65.9802C67.3602 123.227 68.6502 123.757 69.6302 124.737L74.5002 129.587C75.6402 130.717 77.1402 131.337 78.7402 131.337H78.7602L88.0202 131.317C89.6402 131.317 90.9702 132.637 90.9702 134.257C90.9702 135.047 90.6702 135.787 90.1102 136.347C89.5502 136.907 88.8202 137.217 88.0302 137.217L74.9902 137.247C74.4102 137.247 73.9402 137.717 73.9402 138.307C73.9402 138.887 74.4102 139.357 74.9902 139.357L88.0302 139.327C89.3802 139.327 90.6502 138.797 91.6002 137.837C92.2902 137.137 92.7502 136.277 92.9502 135.337L107.6 131.917C108.68 131.617 109.81 132.127 110.3 133.137C110.57 133.697 110.6 134.327 110.4 134.907L110.42 134.897Z" fill="#006549"/>
</svg>
