<?xml version="1.0" standalone="no"?>
<!DOCTYPE svg PUBLIC "-//W3C//DTD SVG 20010904//EN"
 "http://www.w3.org/TR/2001/REC-SVG-20010904/DTD/svg10.dtd">
<svg version="1.0" xmlns="http://www.w3.org/2000/svg"
 width="700.000000pt" height="700.000000pt" viewBox="0 0 700.000000 700.000000"
 preserveAspectRatio="xMidYMid meet">
<metadata>
Created by potrace 1.14, written by Peter Selinger 2001-2017
</metadata>
<g transform="translate(0.000000,700.000000) scale(0.100000,-0.100000)"
fill="#000000" stroke="none">
<path d="M0 3500 l0 -3500 3500 0 3500 0 0 3500 0 3500 -3500 0 -3500 0 0
-3500z m3565 2807 c60 -16 2293 -1302 2344 -1350 70 -66 76 -94 79 -362 3
-223 2 -242 -15 -256 -10 -9 -285 -170 -611 -358 l-594 -342 -630 371 -630
371 -41 -24 c-23 -13 -299 -175 -613 -360 -314 -185 -578 -339 -587 -343 -16
-6 -17 13 -17 227 l0 234 29 60 c18 38 46 77 77 104 27 24 289 185 583 357
416 245 542 314 568 314 27 0 165 -77 637 -355 332 -195 610 -357 617 -360 15
-5 528 294 530 310 2 11 -1765 1035 -1785 1035 -6 0 -416 -234 -911 -520
l-900 -519 -5 -565 c-5 -549 -6 -566 -25 -585 -23 -22 -610 -361 -625 -361
-15 0 -14 1780 2 1833 26 87 27 88 1208 768 613 354 1128 650 1144 658 63 31
105 35 171 18z m2420 -3263 l0 -889 -28 -58 c-16 -31 -43 -68 -60 -81 -61 -46
-2287 -1325 -2324 -1335 -50 -14 -100 -13 -144 3 -61 22 -2299 1318 -2331
1350 -64 63 -68 84 -68 362 l0 251 601 346 c330 191 606 347 614 347 7 0 289
-162 626 -361 337 -199 618 -363 626 -366 7 -3 289 157 626 355 336 199 620
364 630 368 18 7 19 -3 15 -227 l-3 -234 -33 -67 c-18 -36 -49 -81 -70 -100
-20 -18 -251 -159 -512 -313 -616 -362 -621 -365 -646 -365 -11 0 -297 163
-635 361 -338 199 -619 362 -624 362 -12 0 -535 -306 -535 -313 0 -3 76 -48
168 -101 92 -52 493 -284 892 -514 399 -230 730 -418 737 -418 6 0 416 233
912 519 l900 519 1 545 c1 434 3 550 14 569 14 25 622 383 641 378 7 -3 10
-309 10 -893z"/>
</g>
</svg>
