<?xml version="1.0" standalone="no"?>
<!DOCTYPE svg PUBLIC "-//W3C//DTD SVG 20010904//EN"
 "http://www.w3.org/TR/2001/REC-SVG-20010904/DTD/svg10.dtd">
<svg version="1.0" xmlns="http://www.w3.org/2000/svg"
 width="140.000000pt" height="140.000000pt" viewBox="0 0 140.000000 140.000000"
 preserveAspectRatio="xMidYMid meet">
<metadata>
Created by potrace 1.14, written by Peter Selinger 2001-2017
</metadata>
<g transform="translate(0.000000,140.000000) scale(0.100000,-0.100000)"
fill="#000000" stroke="none">
<path d="M292 893 c-33 -16 -82 -66 -82 -84 0 -5 102 -9 245 -9 189 0 245 -3
245 -12 0 -7 -15 -75 -34 -150 l-33 -138 201 0 c220 0 236 4 272 58 18 26 94
304 94 342 0 6 -25 10 -55 10 -62 0 -53 18 -101 -186 l-27 -114 -32 0 -33 0
38 150 38 150 -58 0 -58 0 -37 -150 -37 -150 -29 0 c-16 0 -29 5 -29 11 0 5
14 65 30 132 17 67 32 130 34 140 4 16 -13 17 -257 17 -221 0 -267 -3 -295
-17z"/>
<path d="M185 758 c-2 -7 -11 -41 -20 -74 -42 -169 -5 -197 249 -192 l150 3
28 110 c15 61 28 118 28 128 0 15 -13 17 -130 17 -142 0 -145 -1 -152 -66 l-3
-29 76 -5 c74 -5 76 -6 68 -27 -8 -22 -14 -23 -96 -23 -118 0 -120 2 -99 84 9
36 16 70 16 76 0 15 -110 13 -115 -2z"/>
</g>
</svg>
