<svg xmlns="http://www.w3.org/2000/svg" width="28" height="28.02" viewBox="0 0 28 28.02"><g fill="currentColor"><path d="M7.4 6.32a.43.43 0 00-.7-.2c-.1 0-.1.1-.2.2l-1.5 3v15.2A1.54 1.54 0 006.5 26h1A1.54 1.54 0 009 24.52V9.32zm.6 18.2a.47.47 0 01-.5.5h-1a.47.47 0 01-.5-.5V9.62l1-2 1 2z"/><path d="M24.2 0a3.77 3.77 0 00-3 1.1A4 4 0 0020 4H1.5A1.54 1.54 0 000 5.52v21A1.54 1.54 0 001.5 28H24a4 4 0 004-4V4.22A4.15 4.15 0 0024.2 0zm2.1 25.9A2.84 2.84 0 0124 27H1.5a.47.47 0 01-.5-.5v-21a.47.47 0 01.5-.5H20v19a.5.5 0 001 0 3.19 3.19 0 011.1-2.4 3 3 0 012.6-.6 3.06 3.06 0 012.2 2.2 3.25 3.25 0 01-.6 2.72zm.7-4.6a4 4 0 00-2.1-1.2 3.78 3.78 0 00-3.4.8 1.21 1.21 0 00-.5.5V4a3 3 0 013-3h.2A3.23 3.23 0 0127 4.22z"/><path d="M10 18a.5.5 0 000 1 3 3 0 000-6 .5.5 0 000 1 2 2 0 010 4z"/><path d="M17.7 13.72a.3.3 0 000-.4l-1.5-2.6a.57.57 0 00-.7-.2l-1.6.9a7.24 7.24 0 00-1.9-1.1v-1.8a.47.47 0 00-.5-.5H10a.5.5 0 000 1h1v1.7a.51.51 0 00.4.5 4.45 4.45 0 012.1 1.2.47.47 0 00.6.1l1.5-.8 1 1.7-1.5.8a.6.6 0 00-.3.6 5.7 5.7 0 010 2.6.45.45 0 00.3.6l1.5.8-1 1.7-1.6-1a.47.47 0 00-.6.1 4.45 4.45 0 01-2.1 1.2.66.66 0 00-.4.5V23h-1a.47.47 0 00-.5.5.56.56 0 00.6.5h1.5a.47.47 0 00.5-.5v-1.8a5.24 5.24 0 001.9-1.1l1.6.9a.66.66 0 00.7-.2l1.5-2.6a.3.3 0 000-.4c0-.1-.1-.2-.2-.3l-1.6-.8a4.87 4.87 0 000-2.4l1.6-.8c.1-.08.2-.18.2-.28z"/></g></svg>