<svg version="1.1" id="Layer_1" xmlns="http://www.w3.org/2000/svg" x="0" y="0" viewBox="0 0 32 32" xml:space="preserve"><style>.st0{fill:#231f20}</style><path class="st0" d="M32 9c0-5-4.1-9-9-9-3.4 0-6.6 2-8.1 5.1-.5-.1-.9-.1-1.4-.1C6 5 0 11 0 18.5S6 32 13.5 32h10c.2 0 .4-.1.5-.3.1-.2 0-.4-.1-.5l-2-2c3.3-2.6 5.2-6.5 5.2-10.6 0-.5 0-.9-.1-1.4 3-1.6 5-4.8 5-8.2zm-6 9.5c0 4-2 7.8-5.2 10.1-.1.1-.2.2-.2.4 0 .1 0 .3.1.4l1.6 1.6h-8.8C6.6 31 1 25.4 1 18.5S6.6 6 13.5 6c.3 0 .7 0 1 .1C14.2 7 14 8 14 9c0 2.5 1 4.8 2.8 6.5l-1.6 1.6c-.2.2-.2.4-.2.6.1.2.3.3.5.3H23c1 0 2-.2 2.9-.5.1.3.1.7.1 1zM23 17h-6.3l1.2-1.2c.1-.1.2-.2.1-.4 0-.1-.1-.3-.2-.4-3.4-2.9-3.8-7.9-.9-11.3s7.9-3.7 11.3-.8 3.8 7.9.9 11.3C27.6 16 25.4 17 23 17z"/><path class="st0" d="M7 20c-1.1 0-2-.9-2-2s.9-2 2-2 2 .9 2 2-.9 2-2 2zm0-3c-.6 0-1 .4-1 1s.4 1 1 1 1-.4 1-1-.4-1-1-1zm5 3c-1.1 0-2-.9-2-2s.9-2 2-2 2 .9 2 2-.9 2-2 2zm0-3c-.6 0-1 .4-1 1s.4 1 1 1 1-.4 1-1-.4-1-1-1zm11.5-5c-.3 0-.5-.2-.5-.5v-.4c0-1 .6-1.9 1.5-2.3 1.3-.5 2-1.9 1.5-3.2-.3-.8-1-1.4-1.9-1.6-1.3-.3-2.7.6-2.9 1.9-.2.2-.2.4-.2.6 0 .3-.2.5-.5.5s-.5-.2-.5-.5C20 4.6 21.6 3 23.5 3S27 4.6 27 6.5c0 1.4-.9 2.7-2.2 3.2-.5.3-.8.8-.8 1.4v.4c0 .3-.2.5-.5.5zm0 3c-.3 0-.5-.2-.5-.5v-1c0-.3.2-.5.5-.5s.5.2.5.5v1c0 .3-.2.5-.5.5z"/></svg>