<svg xmlns="http://www.w3.org/2000/svg" viewBox="0 0 512 512"><g fill="currentColor"><path d="M128 85.333c14.114 0 25.6-11.486 25.6-25.6V25.6C153.6 11.486 142.114 0 128 0s-25.6 11.486-25.6 25.6v34.133c0 14.114 11.486 25.6 25.6 25.6zM119.467 25.6c0-4.702 3.831-8.533 8.533-8.533s8.533 3.831 8.533 8.533v34.133c0 4.702-3.831 8.533-8.533 8.533s-8.533-3.831-8.533-8.533V25.6zM8.533 85.333a8.536 8.536 0 008.533-8.533V59.733c0-12.442 13.158-25.6 25.6-25.6H76.8a8.536 8.536 0 008.533-8.533 8.536 8.536 0 00-8.533-8.533H42.667C20.736 17.067 0 37.803 0 59.733V76.8a8.536 8.536 0 008.533 8.533zm315.734 409.6h-281.6c-12.442 0-25.6-13.158-25.6-25.6V119.467h452.267c4.71 0 8.533-3.823 8.533-8.533s-3.823-8.533-8.533-8.533H8.533A8.536 8.536 0 000 110.934v358.4C0 491.264 20.736 512 42.667 512h281.6c4.71 0 8.533-3.823 8.533-8.533s-3.823-8.534-8.533-8.534z"/><path d="M469.333 315.733a8.536 8.536 0 008.533-8.533V145.067a8.536 8.536 0 00-8.533-8.533H42.667a8.536 8.536 0 00-8.533 8.533v298.667c0 18.825 15.309 34.133 34.133 34.133H307.2c4.71 0 8.533-3.823 8.533-8.533s-3.823-8.533-8.533-8.533H68.267c-9.412 0-17.067-7.654-17.067-17.067V153.6h409.6v153.6a8.536 8.536 0 008.533 8.533z"/><path d="M469.333 17.067H435.2a8.536 8.536 0 00-8.533 8.533 8.536 8.536 0 008.533 8.533h34.133c12.442 0 25.6 13.158 25.6 25.6v264.533c0 4.71 3.823 8.533 8.533 8.533s8.533-3.823 8.533-8.533V59.733c.001-21.93-20.735-42.666-42.666-42.666zM298.667 85.333c14.114 0 25.6-11.486 25.6-25.6V25.6c0-14.114-11.486-25.6-25.6-25.6s-25.6 11.486-25.6 25.6v34.133c0 14.114 11.486 25.6 25.6 25.6zM290.133 25.6c0-4.702 3.831-8.533 8.533-8.533s8.533 3.831 8.533 8.533v34.133c0 4.702-3.831 8.533-8.533 8.533s-8.533-3.831-8.533-8.533V25.6zm-51.2 170.667a8.536 8.536 0 00-8.533-8.533h-34.133a8.536 8.536 0 00-8.533 8.533V230.4a8.536 8.536 0 008.533 8.533H230.4a8.536 8.536 0 008.533-8.533v-34.133zm-17.066 25.6H204.8V204.8h17.067v17.067zM384 85.333c14.114 0 25.6-11.486 25.6-25.6V25.6C409.6 11.486 398.114 0 384 0s-25.6 11.486-25.6 25.6v34.133c0 14.114 11.486 25.6 25.6 25.6zM375.467 25.6c0-4.702 3.831-8.533 8.533-8.533s8.533 3.831 8.533 8.533v34.133c0 4.702-3.831 8.533-8.533 8.533s-8.533-3.831-8.533-8.533V25.6zM213.333 85.333c14.114 0 25.6-11.486 25.6-25.6V25.6c0-14.114-11.486-25.6-25.6-25.6s-25.6 11.486-25.6 25.6v34.133c0 14.114 11.486 25.6 25.6 25.6zM204.8 25.6c0-4.702 3.831-8.533 8.533-8.533s8.533 3.831 8.533 8.533v34.133c0 4.702-3.831 8.533-8.533 8.533s-8.533-3.831-8.533-8.533V25.6zm213.333 298.667c-51.755 0-93.867 42.112-93.867 93.867S366.379 512 418.133 512 512 469.888 512 418.133s-42.112-93.866-93.867-93.866zm0 170.666c-42.342 0-76.8-34.458-76.8-76.8s34.458-76.8 76.8-76.8 76.8 34.458 76.8 76.8-34.457 76.8-76.8 76.8zm-93.866-298.666a8.536 8.536 0 00-8.533-8.533H281.6a8.536 8.536 0 00-8.533 8.533V230.4a8.536 8.536 0 008.533 8.533h34.133a8.536 8.536 0 008.533-8.533v-34.133zm-17.067 25.6h-17.067V204.8H307.2v17.067zM238.933 281.6a8.536 8.536 0 00-8.533-8.533h-34.133a8.536 8.536 0 00-8.533 8.533v34.133a8.536 8.536 0 008.533 8.533H230.4a8.536 8.536 0 008.533-8.533V281.6zm-17.066 25.6H204.8v-17.067h17.067V307.2zm-76.8 51.2h-34.133a8.536 8.536 0 00-8.533 8.533v34.133a8.536 8.536 0 008.533 8.533h34.133a8.536 8.536 0 008.533-8.533v-34.133a8.536 8.536 0 00-8.533-8.533zm-8.534 34.133h-17.067v-17.067h17.067v17.067zM230.4 358.4h-34.133a8.536 8.536 0 00-8.533 8.533v34.133a8.536 8.536 0 008.533 8.533H230.4a8.536 8.536 0 008.533-8.533v-34.133a8.536 8.536 0 00-8.533-8.533zm-8.533 34.133H204.8v-17.067h17.067v17.067zM153.6 281.6a8.536 8.536 0 00-8.533-8.533h-34.133a8.536 8.536 0 00-8.533 8.533v34.133a8.536 8.536 0 008.533 8.533h34.133a8.536 8.536 0 008.533-8.533V281.6zm-17.067 25.6h-17.067v-17.067h17.067V307.2z"/><path d="M426.667 409.6V384c0-4.71-3.823-8.533-8.533-8.533S409.6 379.29 409.6 384v34.133a8.536 8.536 0 008.533 8.533h51.2c4.71 0 8.533-3.823 8.533-8.533s-3.823-8.533-8.533-8.533h-42.666zM409.6 196.267a8.536 8.536 0 00-8.533-8.533h-34.133a8.536 8.536 0 00-8.533 8.533V230.4a8.536 8.536 0 008.533 8.533h34.133a8.536 8.536 0 008.533-8.533v-34.133zm-17.067 25.6h-17.067V204.8h17.067v17.067zm8.534 85.333a8.536 8.536 0 008.533-8.533V281.6a8.536 8.536 0 00-8.533-8.533h-34.133a8.536 8.536 0 00-8.533 8.533v17.067c0 4.71 3.823 8.533 8.533 8.533s8.533-3.823 8.533-8.533v-8.533h17.067v8.533c-.001 4.71 3.822 8.533 8.533 8.533zm-102.4 68.267c4.71 0 8.533-3.823 8.533-8.533s-3.823-8.533-8.533-8.533H281.6a8.536 8.536 0 00-8.533 8.533v34.133a8.536 8.536 0 008.533 8.533h17.067c4.71 0 8.533-3.823 8.533-8.533s-3.823-8.533-8.533-8.533h-8.533v-17.067h8.533zM153.6 196.267a8.536 8.536 0 00-8.533-8.533h-34.133a8.536 8.536 0 00-8.533 8.533V230.4a8.536 8.536 0 008.533 8.533h34.133a8.536 8.536 0 008.533-8.533v-34.133zm-17.067 25.6h-17.067V204.8h17.067v17.067zm187.734 93.866V281.6a8.536 8.536 0 00-8.533-8.533H281.6a8.536 8.536 0 00-8.533 8.533v34.133a8.536 8.536 0 008.533 8.533h34.133c4.711.001 8.534-3.822 8.534-8.533zM307.2 307.2h-17.067v-17.067H307.2V307.2z"/></g></svg>