<svg width="33" height="25" viewBox="0 0 33 25" xmlns="http://www.w3.org/2000/svg"><g fill="currentColor" fill-rule="evenodd"><path d="M16.164 21.224a6.99 6.99 0 01-6.982-6.981 6.99 6.99 0 016.982-6.982 6.99 6.99 0 016.981 6.982 6.99 6.99 0 01-6.981 6.981m0-15.285c-4.579 0-8.304 3.725-8.304 8.304 0 4.578 3.725 8.303 8.304 8.303 4.578 0 8.303-3.725 8.303-8.303 0-4.579-3.725-8.304-8.303-8.304"/><path d="M16.164 18.171a3.933 3.933 0 01-3.929-3.928 3.933 3.933 0 013.929-3.929 3.933 3.933 0 013.928 3.929 3.933 3.933 0 01-3.928 3.928m0-9.11a5.187 5.187 0 00-5.181 5.182 5.187 5.187 0 005.18 5.18 5.187 5.187 0 005.182-5.18 5.187 5.187 0 00-5.181-5.181"/><path d="M28.875 19.687h2.06V8.797h-2.06v10.89zm2.06 3.179a.696.696 0 01-.695.696H2.087a.697.697 0 01-.695-.696v-1.787h2.757a.696.696 0 00.695-.696V8.102a.696.696 0 00-.695-.696H1.392V5.62c0-.383.312-.695.695-.695H30.24c.384 0 .696.312.696.695v1.787h-2.757a.696.696 0 00-.696.696v12.281c0 .385.312.696.696.696h2.757v1.787zM1.393 19.687h2.06V8.797h-2.06v10.89zm2.92-17.083c0-.02.016-.035.035-.035H6.35c.02 0 .035.016.035.035v.928H4.312v-.928zm8.463-.96a.384.384 0 01.36-.252h6.057c.16 0 .305.101.36.252l.694 1.888h-8.165l.694-1.888zM30.24 3.532h-8.512l-.869-2.368A1.783 1.783 0 0019.192 0h-6.056c-.742 0-1.412.468-1.668 1.164L10.6 3.532H7.707v-.928c0-.748-.609-1.357-1.357-1.357H4.347c-.748 0-1.357.609-1.357 1.357v.928h-.903A2.09 2.09 0 000 5.619v17.247a2.09 2.09 0 002.087 2.087H30.24a2.09 2.09 0 002.088-2.087V5.619a2.09 2.09 0 00-2.088-2.087z"/></g></svg>