<svg xmlns="http://www.w3.org/2000/svg" viewBox="0 0 704.5 696.1"><path d="M352.2 347.7c.1 0 .1 0 0 0h.5v.1c.1 0 .2 0 .4.1 1.6-12.3 7.6-61.4 9.6-123.8-1.3-2.7-3-4.7-5.1-5.6-8.2-3.5-18.6 1.9-28.5 9.7l-.1-.1c-10.3 8.6-23.2 13.3-36.6 13.3-31.6.1-57.3-25.5-57.4-57.2s25.5-57.3 57.2-57.4c13.8 0 26.1 3.6 36.2 13.3h.1c10.1 9.7 20.7 14.6 28.9 11.2 2.2-.9 3.9-3.1 5.3-6-2-62.7-8-112.6-9.6-125.2H20v328.6c5-.9 51.2-6.8 111-9.4 9 1.3 18.6 4 20.9 9.5 3.5 8.2-1.9 18.6-9.7 28.5l.2.1c-8.5 10.3-13.1 23.3-13.1 36.6 0 31.8 25.8 57.5 57.6 57.5 31.7 0 57.8-25.6 57.8-57.3 0-13.8-2.5-26.1-12.1-36.2v-.1c-9.7-10.1-15.8-20.9-12.4-29.1 2.3-5.5 12.2-8.5 21.1-9.8 60.4 2.7 105.5 8.3 110.5 8.9.1-.7.2-1.2.2-1.7.2.5.2 1.3.2 1.5z"/><path d="M684.5 347c-6.8 1.1-52.2 6.7-110.5 9.3-8.9-1.3-18.6-4-20.9-9.5-3.5-8.2 1.9-18.6 9.7-28.5l-.2-.1c8.5-10.3 13.1-23.3 13.1-36.6 0-31.8-25.8-57.5-57.6-57.5-31.7 0-57.8 25.6-57.8 57.3 0 13.8 2.5 26.1 12.2 36.2v.1c9.7 10.1 15.8 20.9 12.3 29.1-2.3 5.5-12.2 8.5-21.1 9.8-60.4-2.7-105.5-8.3-110.5-8.9-.1.7-.2 1.2-.2 1.7-.1-.7-.2-1.5-.2-1.7h-.6v-.1c-.1 0-.2 0-.4-.1-1.6 12.3-7.6 61.4-9.6 123.9 1.4 2.7 3 4.7 5.1 5.6 8.2 3.5 18.6-1.9 28.5-9.7l.1.1c10.3-8.6 23.2-13.3 36.6-13.3 31.6-.1 57.3 25.6 57.4 57.2.1 31.6-25.6 57.3-57.2 57.4-13.8 0-26.1-3.6-36.2-13.3h-.1c-10.1-9.7-20.7-14.6-28.9-11.1-2.2.9-3.9 3.1-5.4 6 2 63.7 8.2 114.2 9.7 125.7h332.6V347z"/></svg>