<svg xmlns="http://www.w3.org/2000/svg" viewBox="0 0 605.98 730.13"><path class="cls-1" d="M595.97 494.13c-5.85 5.2-12.19 10-17.38 15.77-3.15 3.52-6.31 8.61-6.39 13.05-.54 31.33.24 62.69-.42 94-.92 43-20.35 74.84-59.47 93.62-54.43 26.14-121.49-3.75-137.74-62.13-4-14.3-4.74-29.86-4.78-44.85-.35-130.3-.18-260.6-.23-390.9 0-29-11.54-51-39.07-62.84-37.51-16.16-82.82 12-83.31 52.72-.75 61.68-.27 123.37-.29 185.06 0 52.45.25 104.9-.12 157.35-.33 47.85-27 85.52-72.56 99.54-51.55 15.87-107.25-12.34-123.91-64.83-4-12.58-5-26.53-5.12-39.86q-.65-103.91.14-207.82c.05-9.43-1.86-17-10-22-20.81-12.68-26.5-30.88-25.14-54.88 2-35.85.5-71.89.56-107.85 0-4.23.44-8.46.69-13l14.82-2.38c0-6.71-.55-13 .26-19.11.35-2.62 3.49-6.91 5.44-6.95 22.33-.5 44.68-.32 67.75-.32.27 5.1.88 9 .61 12.86-.69 9.66-.27 18.05 14 14.76.27 3.86.64 6.7.64 9.55.07 45.52.31 91.05-.17 136.57-.06 5.1-2.86 12.35-6.79 14.87-22.72 14.6-28.37 34.5-27.52 61 2 62.94.61 126 .66 189 0 43.48 33.45 72.63 76.55 66.91 24.8-3.3 50.33-29.52 50.71-54.72.89-60.34.71-120.71.83-181.06.11-54.76-.22-109.52.14-164.27.3-46 23.42-79.82 65.14-96.6 50.45-20.26 114.14 11.74 127.03 64.44a150 150 0 014.09 35q.42 201.41.2 402.8c0 42 35.55 72.9 76.9 65.37 26-4.73 51.21-26.23 51.91-62.36.63-32.65.5-65.33-.16-98-.09-4.54-4.08-10.75-8.08-13.13-11.32-6.76-14.83-15.54-14.27-28.54 1.06-24.69.34-49.47.29-74.21 0-4.84-.13-8.89 6.63-9.85 2.36-.33 5.47-5 5.81-8 .85-7.49.51-15.15.25-22.73-.19-5.62 2.2-7.53 7.66-7.43 13.19.25 26.39.3 39.58 0 6.25-.13 9.38 2 8.77 8.53-.21 2.29.11 4.63 0 6.93-.81 12-1.89 24.06 14.91 25.87z" fill="currentColor"/><path class="cls-1" fill="currentColor" d="M73.82 25.04l-5.64-7.94-4.95-3.97-4.4 3.97-4.7 7.94v97.99h19.69V25.04zm490.1 259.81l-5.64-7.95-4.95-3.97-4.4 3.97-4.7 7.95v97.99h19.69v-97.99z"/></svg>