<svg xmlns="http://www.w3.org/2000/svg" width="27" height="32" viewBox="0 0 27 32"><g fill="currentColor"><path d="M25.5 0h-21A1.54 1.54 0 003 1.5V29H.5a.47.47 0 00-.5.5v.5a2 2 0 002 2h23a2 2 0 002-2V1.5A1.54 1.54 0 0025.5 0zM2 31a.94.94 0 01-1-1h22a1.69 1.69 0 00.3 1zm24-1a1 1 0 01-2 0v-.5a.47.47 0 00-.5-.5H4V1.5a.47.47 0 01.5-.5h21a.47.47 0 01.5.5z"/><path d="M13 9.5a.5.5 0 001 0 2.38 2.38 0 00-2-2.4v-.6a.5.5 0 00-1 0V7h-1v-.5a.5.5 0 00-1 0v.6a2.38 2.38 0 00-2 2.4v1A2.48 2.48 0 009 13v4a1.54 1.54 0 01-1-1.5.5.5 0 00-1 0A2.48 2.48 0 009 18v.5a.5.5 0 001 0V18h1v.5a.5.5 0 001 0V18a2.45 2.45 0 002-2.4v-1a2.38 2.38 0 00-2-2.4v-4a1.3 1.3 0 011 1.3zM11 8v4h-1V8zm-3 2.5v-1a1.5 1.5 0 011-1.4v3.8a1.5 1.5 0 01-1-1.4zm2 6.5v-4h1v4zm3-2.5v1a1.5 1.5 0 01-1 1.4v-3.8a1.5 1.5 0 011 1.4zM17.5 7h3a.5.5 0 000-1h-3a.5.5 0 000 1zm6 1h-6a.5.5 0 000 1h6a.5.5 0 000-1zm0 2h-6a.5.5 0 000 1h6a.5.5 0 000-1zm-6 5h3a.5.5 0 000-1h-3a.5.5 0 000 1zm6 1h-6a.5.5 0 000 1h6a.5.5 0 000-1zm0 2h-6a.5.5 0 000 1h6a.5.5 0 000-1zm-17 7h2a.5.5 0 000-1h-2a.5.5 0 000 1zm4 1h-4a.5.5 0 000 1h4a.5.5 0 000-1z"/></g></svg>