<svg xmlns="http://www.w3.org/2000/svg" width="28" height="28" viewBox="0 0 28 28"><g fill="currentColor"><path d="M27.5 22H24v-3.5a.5.5 0 00-1 0V22h-7.5a.47.47 0 00-.5.5v1a3.5 3.5 0 01-7 0V4a3.89 3.89 0 00-1.4-3h12.9a3.54 3.54 0 013.4 2.6.46.46 0 00.5.4h.1a.55.55 0 00.4-.6A4.5 4.5 0 0019.5 0H4a4 4 0 00-4 4v2.5a.47.47 0 00.5.5h5a.5.5 0 000-1H1V4a3 3 0 013-3 3 3 0 013 3v19.5a4.48 4.48 0 004.5 4.5h13a3.54 3.54 0 003.5-3.5v-2a.47.47 0 00-.5-.5zm-.5 2.5a2.48 2.48 0 01-2.5 2.5H14.3a4.4 4.4 0 001.7-3.5V23h11z"/><path d="M28 8.5a3.5 3.5 0 00-7 0 3.49 3.49 0 001 2.4v5.6a.55.55 0 00.3.5.44.44 0 00.5-.1l1.6-1.6 1.6 1.6c.1.1.2.2.4.1h.2a.55.55 0 00.3-.5v-5.6A3.19 3.19 0 0028 8.5zM24.5 6A2.5 2.5 0 1122 8.5 2.48 2.48 0 0124.5 6zm.4 8.1a.48.48 0 00-.7 0L23 15.3v-3.6a3.19 3.19 0 003 0v3.6z"/><path d="M24.5 10c-.1 0-.3-.1-.4-.1l-1-1a.49.49 0 01.7-.7l.5.5.7-1.4a.48.48 0 01.7-.2.45.45 0 01.3.6l-1 2a.55.55 0 01-.5.3zm-13-1A1.5 1.5 0 1113 7.5 1.54 1.54 0 0111.5 9zm0-2a.5.5 0 10.5.5.47.47 0 00-.5-.5zm0 7a1.5 1.5 0 111.5-1.5 1.54 1.54 0 01-1.5 1.5zm0-2a.5.5 0 10.5.5.47.47 0 00-.5-.5zm0 7a1.5 1.5 0 111.5-1.5 1.54 1.54 0 01-1.5 1.5zm0-2a.5.5 0 10.5.5.47.47 0 00-.5-.5zm8-9h-5a.5.5 0 010-1h5a.5.5 0 010 1zm0 5h-5a.5.5 0 010-1h5a.5.5 0 010 1zm1 5h-6a.5.5 0 010-1h6a.5.5 0 010 1z"/></g></svg>