<svg xmlns="http://www.w3.org/2000/svg" width="32" height="32" viewBox="0 0 32 32"><g fill="currentColor"><path d="M24.5 9a.5.5 0 00.5-.5v-6a.5.5 0 00-.5-.5h-7a.5.5 0 00-.5.5v6a.5.5 0 00.5.5zM18 3h6v5h-6zm8.5 1h2a.5.5 0 000-1h-2a.5.5 0 000 1zm0 2h2a.5.5 0 000-1h-2a.5.5 0 000 1zm0 2h2a.5.5 0 000-1h-2a.5.5 0 000 1z"/><path d="M29.5 22h-1.63L25 12.43A1.51 1.51 0 0126.5 11a5.5 5.5 0 000-11h-10a.47.47 0 00-.35.15l-.86.85H12.5a.5.5 0 00-.5.5V3h-1v-.5a.5.5 0 00-.5-.5h-3a3.5 3.5 0 00-3.45 3H.5a.5.5 0 000 1h3.55A3.5 3.5 0 007.5 9h3a.5.5 0 00.5-.5V8h1v1.5a.5.5 0 00.5.5h2.79l.86.85a.47.47 0 00.35.15h.5v2.5a.51.51 0 00.28.45l1.81.9 1.69 5.41A1.34 1.34 0 0119.5 22h-2a2.5 2.5 0 00-2.5 2.5v5a2.5 2.5 0 002.5 2.5h12a2.5 2.5 0 002.5-2.5v-5a2.5 2.5 0 00-2.5-2.5zM10 8H7.5a2.5 2.5 0 010-5H10v1H7.5a.5.5 0 000 1H10v1H7.5a.5.5 0 000 1H10v1zm1-1V4h1v3zm2 .5V2h2v7h-2zm3 1.79V1.71l.71-.71h9.79a4.5 4.5 0 010 9h-9.79zM21.73 20L20 14.35a.51.51 0 00-.26-.3L18 13.19V11h6.5a2.53 2.53 0 00-.5 1.5.59.59 0 000 .14L26.83 22h-5.41a2.34 2.34 0 00.31-2zm-4.23 3h12a1.5 1.5 0 011.5 1.5v.5H16v-.5a1.5 1.5 0 011.5-1.5zm12 8h-12a1.5 1.5 0 01-1.5-1.5V26h15v3.5a1.5 1.5 0 01-1.5 1.5z"/></g></svg>