<svg xmlns="http://www.w3.org/2000/svg" width="30" height="30" viewBox="0 0 30 30"><g fill="currentColor"><path d="M30 12.5a.43.43 0 000-.19.36.36 0 00-.11-.16L26 8.29V3.5a.5.5 0 00-.5-.5h-4.79L19.6 1.89a6.54 6.54 0 00-9.2 0L9.29 3H4.5a.5.5 0 00-.5.5v4.79L.15 12.15a.36.36 0 00-.11.16.43.43 0 000 .19v17a.41.41 0 000 .19.51.51 0 00.27.31.41.41 0 00.19 0h29a.41.41 0 00.19 0 .51.51 0 00.27-.27.41.41 0 000-.19zM4.15 16.85L8.29 21 1 28.29V13.71zm5.2 4.5l1.76-1.75a5.5 5.5 0 017.78 0l9.4 9.4H1.71zM21.71 21l4.14-4.15L29 13.71v14.58zm7.08-8.5L26 15.29V9.71zM11.11 2.6a5.53 5.53 0 017.78 0l.4.4h-8.58zM5 4h20v12.29l-4 4-1.4-1.4a6.51 6.51 0 00-9.2 0L9 20.29l-4-4zM4 15.29L1.21 12.5 4 9.71z"/><path d="M8.5 8h3a.5.5 0 000-1h-3a.5.5 0 000 1zm0 2h10a.5.5 0 000-1h-10a.5.5 0 000 1zm0 2h10a.5.5 0 000-1h-10a.5.5 0 000 1zm0 2h10a.5.5 0 000-1h-10a.5.5 0 000 1z"/></g></svg>