<?xml version="1.0" encoding="utf-8"?>
<!-- Generator: Adobe Illustrator 24.2.1, SVG Export Plug-In . SVG Version: 6.00 Build 0)  -->
<svg version="1.1" xmlns="http://www.w3.org/2000/svg" xmlns:xlink="http://www.w3.org/1999/xlink" x="0px" y="0px"
	 viewBox="0 0 38 38" style="enable-background:new 0 0 38 38;" xml:space="preserve">
<style type="text/css">
	.st0{fill:#57C0E8;}
</style>
<g id="Layer_2">
</g>
<g id="Layer_1">
	<path class="st0" d="M16.7,10.9c0-1.2,1-2.3,2.3-2.3c1.2,0,2.3,1,2.3,2.3c0,1.2-1,2.3-2.3,2.2C17.7,13.1,16.7,12.1,16.7,10.9
		 M5.9,9.6c0.2-0.5,0.8-0.7,1.2-0.5l8.4,3.9h-4.4l-4.8-2.2C5.9,10.6,5.7,10.1,5.9,9.6L5.9,9.6 M22.3,13l8.5-4c0.5-0.2,1,0,1.2,0.5
		l0,0c0.2,0.5,0,1-0.5,1.2l0,0L26.7,13H22.3z M35.6,22.4c-0.7,3.2-2.3,6.2-4.6,8.5c-1.2,1.2-2.6,2.2-4.1,3c0-0.1-0.1-0.3-0.1-0.4
		l0,0l-4.1-8.8V31l1.7,3.7c0.1,0.1,0.1,0.2,0.2,0.3c-0.9,0.3-1.8,0.5-2.8,0.7c0-0.1,0-0.2,0-0.2V15.8h10.5c0.5,0,0.9-0.4,0.9-0.9
		S32.8,14,32.3,14H5.7c-0.5,0-0.9,0.4-0.9,0.9s0.4,0.9,0.9,0.9H16v19.7c0,0.1,0,0.1,0,0.2c-1-0.2-1.9-0.4-2.8-0.8
		c0.1-0.1,0.2-0.2,0.2-0.4l0,0l1.7-3.7v-6.2L11,33.4c-0.1,0.1-0.1,0.3-0.1,0.5c-2.4-1.3-4.4-3.2-6-5.4C3,25.7,2,22.4,2,19
		c0-1.1,0.1-2.3,0.3-3.4s0.6-2.2,1-3.2c1-2,2.2-3.8,3.7-5.4c1.5-1.5,3.4-2.8,5.4-3.6c1-0.4,2.1-0.8,3.2-1c2.2-0.5,4.6-0.5,6.8,0
		c1.1,0.2,2.2,0.6,3.2,1c2,0.8,3.8,2.1,5.4,3.6c3.2,3.2,5,7.5,5,12C35.9,20.1,35.8,21.3,35.6,22.4 M18.5,35.9
		c0.1-0.1,0.1-0.3,0.1-0.5V24.9h0.6v10.6c0,0.2,0,0.3,0.1,0.5C19,35.9,18.8,35.9,18.5,35.9 M37.1,15.3c-0.5-2.4-1.4-4.6-2.8-6.6
		c-1.3-2-3-3.7-5-5c-3-2.1-6.6-3.2-10.3-3.2c-1.3,0-2.5,0.1-3.7,0.4c-2.4,0.5-4.6,1.4-6.6,2.8C7.7,4.4,6.8,5.1,6,6
		c-1.7,1.7-3,3.7-4,5.9c-0.5,1.1-0.8,2.3-1.1,3.5c-0.5,2.5-0.5,5,0,7.5c0.7,3.5,2.5,6.8,5,9.4c1.7,1.7,3.7,3,5.9,4
		c2.3,1,4.7,1.5,7.2,1.5s4.9-0.5,7.2-1.5c3.3-1.4,6.1-3.7,8.1-6.7c0.7-1,1.2-2,1.7-3.1c1-2.3,1.5-4.7,1.5-7.2
		C37.5,17.7,37.4,16.5,37.1,15.3"/>
</g>
</svg>
