<svg xmlns="http://www.w3.org/2000/svg" width="38" height="38" viewBox="0 0 38 38"><path d="M16.655 10.872a2.251 2.251 0 114.502 0 2.251 2.251 0 01-4.502 0M5.906 9.579a.938.938 0 011.246-.454l8.415 3.923h-4.438l-4.77-2.223a.936.936 0 01-.453-1.246m16.387 3.47l8.502-3.965a.939.939 0 011.248.455.937.937 0 01-.454 1.245l-4.859 2.265h-4.437zm13.278 9.361a16.861 16.861 0 01-4.609 8.55 16.946 16.946 0 01-4.092 3.016 1.29 1.29 0 00-.114-.401l-.002-.002-4.104-8.803v6.214l1.725 3.701c.051.108.114.205.188.292a16.7 16.7 0 01-2.759.705c.014-.075.021-.154.021-.233V15.751h10.493a.939.939 0 000-1.878H5.683a.939.939 0 000 1.878h10.318v19.698c0 .068.005.136.015.202a17.007 17.007 0 01-2.828-.762c.1-.103.186-.225.249-.363l.001-.002 1.737-3.724v-6.213l-4.118 8.831c-.07.147-.108.302-.12.456a16.902 16.902 0 01-5.963-5.416 16.832 16.832 0 01-2.888-9.456c0-1.149.116-2.295.343-3.41.223-1.086.555-2.153.986-3.174A16.987 16.987 0 017.04 7.04a17.028 17.028 0 015.378-3.624 16.766 16.766 0 013.174-.985 17.113 17.113 0 016.819 0c1.086.222 2.153.553 3.173.985a16.91 16.91 0 015.377 3.624 16.894 16.894 0 014.952 11.961 17.029 17.029 0 01-.342 3.409M18.536 35.908c.053-.143.082-.297.082-.458V24.878h.588v10.571c0 .162.029.318.084.462a27.27 27.27 0 01-.754-.003m18.588-20.635a18.443 18.443 0 00-2.784-6.617 18.67 18.67 0 00-4.996-4.996A18.417 18.417 0 0019.001.5c-1.255 0-2.51.126-3.728.376A18.345 18.345 0 008.658 3.66 18.45 18.45 0 005.92 5.919a18.562 18.562 0 00-3.966 5.88 18.493 18.493 0 00-1.079 3.474 18.657 18.657 0 00.001 7.456 18.449 18.449 0 005.044 9.354 18.557 18.557 0 005.881 3.964 18.417 18.417 0 007.202 1.454 18.463 18.463 0 007.201-1.454 18.6 18.6 0 008.138-6.701 18.66 18.66 0 001.706-3.143 18.49 18.49 0 001.454-7.202 18.733 18.733 0 00-.378-3.728"/></svg>