<svg width="44" height="44" viewBox="0 0 44 44" xmlns="http://www.w3.org/2000/svg" xmlns:xlink="http://www.w3.org/1999/xlink"><defs><circle id="path-1" cx="20" cy="20" r="20"/></defs><g transform="translate(2 2)" fill="none" fill-rule="evenodd"><use stroke="currentColor" stroke-width="2.5" xlink:href="#path-1"/><g fill="currentColor"><path d="M25.217 6l-5.48 7.446h2.633C22.108 22.01 11.606 25.279 8 25.696V27c7.801-.248 20.345-4.583 20.643-13.554H31L25.217 6"/><path d="M17.222 29h4.555v-4.828a25.775 25.775 0 01-4.555 1.64V29zm6.222-5.713V29H28V19c-.956 1.619-2.487 3.061-4.556 4.287zM11 29h4.556v-2.807c-1.698.334-3.272.485-4.556.5V29zm-2 2h20v-1H9z"/></g></g></svg>