<svg data-name="Layer 2" xmlns="http://www.w3.org/2000/svg" viewBox="0 0 813 853.48"><path d="M714.74 559.84c-10.2-25.29-20.41-50.58-30.87-76.49-3.37 1.67-6.37 3.18-9.37 4.81-39.72 21.59-75.52 48.13-104.77 83-30.63 36.46-50.83 78.33-63.93 123.82-13.15 45.69-19.36 92.51-22.45 139.82-.41 6.29-.93 12.56-1.39 18.72H333.42c0-3.16-.13-5.77 0-8.37 2.71-49 8-97.59 18-145.64 10.82-52 27.2-101.94 52.29-148.88 34.5-64.52 82.79-116.53 142.5-158.24a614.48 614.48 0 0176.06-45c1.76-.88 3.49-1.83 5.6-2.94l-31.74-78.89 216.88 85.15q-48.7 105.11-96.94 209.19zm-495.09-295.6l-32.3 78.46c1.92 1.09 3.71 2.19 5.57 3.14 46.53 23.74 90.05 52 127.79 88.3 15.92 15.31 30.15 32.39 45 48.81 1 1.05 1.35 3.87.63 5-32.84 52.07-55.27 108.44-70.36 167.91a23.53 23.53 0 01-1.28 2.65c-31-81.73-88.32-137.88-164.48-177.29-10.64 25.73-21.1 51-32.17 77.8-33-71.87-65.44-142.49-98-213.48zm113.46-91.89h-82.73c-.18-.46-.37-.91-.56-1.37L410.62.02l156.88 173h-85.48v6.62q0 87.5.09 175c0 4.24-1.21 7-4.57 9.68a506.32 506.32 0 00-67 64.31c-1 1.12-2 2.18-3.31 3.61-6.7-7.4-12.87-15-19.87-21.77q-24.82-23.9-50.39-47a10.74 10.74 0 01-4-8.93q.13-87.49.06-175z" fill="currentColor"/></svg>