<svg width="15" height="15" viewBox="0 0 15 15" xmlns="http://www.w3.org/2000/svg"><g fill="currentColor" fill-rule="evenodd"><path d="M13.069 3.622l-.214.067-1.138.102-.321.513-.233-.074-.906-.816-.131-.425-.176-.453-.57-.51-.67-.132-.016.308.658.642.322.379-.362.189-.295-.087-.441-.184.015-.356-.58-.238-.191.837-.584.132.058.467.76.146.131-.746.628.093.292.17h.469l.32.643.85.861-.063.335-.685-.087-1.184.598-.852 1.022-.11.453h-.307l-.57-.263-.553.263.137.584.241-.278.424-.013-.03.525.351.102.35.394.573-.161.654.103.759.205.379.044.642.73 1.24.729-.801 1.533-.847.394-.322.875-1.225.818-.13.472c3.132-.754 5.463-3.568 5.463-6.933a7.106 7.106 0 00-1.21-3.972"/><path d="M7.96 11.326l-.52-.964.477-.995-.478-.142-.535-.539-1.188-.266-.394-.825v.49H5.15L4.125 6.698v-1.14l-.75-1.22-1.19.213h-.803L.98 4.286l.515-.408-.514.119A7.091 7.091 0 000 7.595a7.14 7.14 0 007.138 7.14c.304 0 .602-.027.896-.063l-.074-.865s.328-1.284.328-1.328c0-.044-.329-1.153-.329-1.153M5.28 1.223l.322.134.422-.134.23.398-.973.255-.468-.273s.457-.295.468-.38zm2.16-.058l.729-.402.468.27-.677.517-.648.065-.291-.19.419-.26zM2.653 2.756L3.92 2.58l.584-.32.658.189 1.051-.058.36-.566.525.086 1.275-.12.351-.386.496-.331.7.105.256-.039a7.112 7.112 0 00-8.544 1.91h.003l1.017-.293z"/></g></svg>