<svg width="294" height="551" viewBox="0 0 294 551" xmlns="http://www.w3.org/2000/svg"><path d="M89.943 263.558l-77.26-46.135C4.796 212.713 0 204.433 0 195.523v-37.061c0-7.412 8.495-11.938 15.057-8.02l77.26 46.135c7.889 4.71 12.683 12.99 12.683 21.9v37.06c0 7.414-8.495 11.938-15.057 8.02m0-138.999l-77.26-46.135C4.796 73.713 0 65.433 0 56.523v-37.06c0-7.414 8.495-11.938 15.057-8.02l77.26 46.134c7.889 4.71 12.683 12.99 12.683 21.9v37.06c0 7.414-8.495 11.938-15.057 8.02m0 281.001l-77.26-46.135C4.796 354.713 0 346.433 0 337.521v-37.059c0-7.413 8.495-11.937 15.057-8.02l77.26 46.135c7.889 4.71 12.683 12.99 12.683 21.9v37.06c0 7.414-8.495 11.938-15.057 8.02m0 144l-77.26-46.133C4.796 498.712 0 490.432 0 481.521v-37.058c0-7.414 8.495-11.94 15.057-8.02l77.26 46.133c7.889 4.712 12.683 12.992 12.683 21.9v37.061c0 7.414-8.495 11.94-15.057 8.02m188.998-296.999l-77.26-46.135c-7.887-4.71-12.681-12.99-12.681-21.9v-37.061c0-7.412 8.495-11.938 15.057-8.02l77.26 46.135c7.889 4.71 12.683 12.99 12.683 21.9v37.06c0 7.414-8.495 11.938-15.059 8.02m0-137.999l-77.26-46.135c-7.887-4.71-12.681-12.99-12.681-21.9V9.462c0-7.414 8.495-11.938 15.057-8.02l77.26 46.134c7.889 4.71 12.683 12.99 12.683 21.9v37.06c0 7.414-8.495 11.938-15.059 8.02m0 281.002l-77.26-46.135c-7.887-4.71-12.681-12.99-12.681-21.902v-37.059c0-7.413 8.495-11.937 15.057-8.02l77.26 46.135c7.889 4.71 12.683 12.99 12.683 21.9v37.06c0 7.414-8.495 11.938-15.059 8.02m0 141l-77.26-46.133C193.794 485.712 189 477.432 189 468.521v-37.058c0-7.414 8.495-11.94 15.057-8.02l77.26 46.133c7.889 4.712 12.683 12.992 12.683 21.9v37.061c0 7.414-8.495 11.94-15.059 8.02" fill="currentColor" fill-rule="evenodd"/></svg>