<svg xmlns="http://www.w3.org/2000/svg" width="208" height="272" viewBox="0 0 208 272"><path d="M192 106V88h-8v-8a80 80 0 00-160 0v8h-8v18a25.9 25.9 0 00-16 23.86v36.28A26 26 0 0026 192h30V88h-8v-8a56 56 0 01112 0v8h-8v104h30a26 26 0 0018-7.23V208a48.05 48.05 0 01-48 48h-32.49a11.28 11.28 0 00-10.78-8h-9.46A11.28 11.28 0 0088 259.27v1.46A11.28 11.28 0 0099.27 272h9.46a11.28 11.28 0 0010.78-8H152a56.06 56.06 0 0056-56v-78.14A25.9 25.9 0 00192 106zm-80 154.73a3.26 3.26 0 01-3.27 3.27h-9.46a3.26 3.26 0 01-3.27-3.27v-1.46a3.26 3.26 0 013.27-3.27h9.46a3.26 3.26 0 013.27 3.27zM26 184a18 18 0 01-18-17.9v-36.24A18 18 0 0125.18 112H32v72zm22-71.63V184h-8v-72h8zM40 104H24v-8h24v8zm64-88a64.07 64.07 0 00-64 64v8h-8v-8a72 72 0 01144 0v8h-8v-8a64.07 64.07 0 00-64-64zm56 80h24v8h-24zm8 16.41V184h-8v-72h8zm32 53.73A18 18 0 01182 184h-6v-72h6.82A18 18 0 01200 129.86v36.28z" fill="currentColor"/></svg>