<svg version="1.1" id="Layer_2_1_" xmlns="http://www.w3.org/2000/svg" x="0" y="0" viewBox="0 0 619.1 800.8" xml:space="preserve"><style>.st1{fill:#fff}</style><path d="M219.8 800.8c22.3-49.3.3-76.1-.5-94.4-.8-17.5 1.9-35 2-52.5.1-10.6-5.4-18.8-14.4-25.1-21.4-15-45.5-21.2-71.5-23.1-19.8-1.4-39.5-5-59.1-8.3-10.5-1.8-16.6-9.3-19.9-18.8-5.7-16.3-5.2-32.7 2.3-48.1 5.7-11.8 1.8-22-6.6-28.3-9.5-7.1-6.3-12.5-2.4-19.6 1.1-2 2.1-4 3.2-6-16.1-7-18-11-13.5-27.4.8-2.9 1.1-5.9 2.3-8.6 3.4-7.4.2-10.6-7.1-12.8-13-4-27.1-8.3-33.4-21.2-5.1-10.4 10.4-30.1 13.3-32.9 17.4-16.1 30.5-35 41.3-55.4 4.3-8.2 6.8-17.6 8.2-26.8 1.8-12 1.6-24.2 2.4-36.3 1.8-30.2 5-60.2 13.5-89.4 14.5-49.7 42.5-90.1 89.5-116 42.4-23.5 88.6-37.4 136.9-45C340.5-.6 374.7-2 409 3.7c50.9 8.5 97.5 26.6 137.6 59.1 26.5 21.5 48 46.1 58.3 79 12.3 39.5 17.4 79.8 12.2 120.7-2.8 21.8-6.5 44-14.1 64.6-17 45.9-44.3 85.6-83 117.4-3.1 2.8-4.9 6.7-5 10.8.5 17.2 1.1 34.5 3.1 51.7 4.1 35.5 11 70.7 26.9 102.9 22.1 44.7 70.5 132 70.5 132s-103.6-215-395.7 58.9z" fill="currentColor"/><g id="gears"><g id="g10615"><path id="path10617" class="st1" d="M460.9 201.5c13.3-38.5-7-80.4-45.5-93.8-38.5-13.3-80.4 7-93.8 45.5-13.3 38.4 7 80.4 45.5 93.8 38.5 13.3 80.5-7 93.8-45.5zM422.1 188c-5.9 17-24.5 26-41.5 20.1-17-5.9-26-24.5-20.1-41.5 5.9-17 24.5-26 41.5-20.1 17 5.9 25.9 24.5 20.1 41.5z"/><g id="g10619"><path id="path10621" class="st1" d="M316.5 161.7c-4.9-3.3-8.9-6.1-8.9-6.1s4.4-12.6 4.5-12.6 5.1.1 11 .4l10.7.5-4.2 12-4.2 12-8.9-6.2z"/><path id="path10623" class="st1" d="M466.1 192.8c4.9 3.3 8.9 6.1 8.9 6.1s-4.4 12.6-4.5 12.6-5.1-.1-11-.4l-10.7-.5 4.2-12 4.2-12 8.9 6.2z"/><path id="path10625" class="st1" d="M315.7 188.2c-5.7-1.5-10.5-2.7-10.5-2.7l-.1-13.4c0-.1 4.8-1.7 10.4-3.4l10.2-3.2.2 12.7.2 12.7-10.4-2.7z"/><path id="path10627" class="st1" d="M466.9 166.3c5.7 1.5 10.5 2.7 10.5 2.7s.2 13.3.1 13.4-4.8 1.7-10.4 3.4l-10.2 3.2-.2-12.7-.2-12.7 10.4 2.7z"/><path id="path10629" class="st1" d="M324.1 213.4c-5.9.6-10.7 1.1-10.8 1s-4.7-12.5-4.7-12.5 3.9-3.2 8.6-6.8l8.5-6.5 4.5 11.8 4.5 11.8-10.6 1.2z"/><path id="path10631" class="st1" d="M458.6 141.1c5.9-.6 10.7-1.1 10.8-1s4.7 12.5 4.7 12.5-3.9 3.2-8.6 6.8l-8.5 6.4-4.5-11.9-4.5-11.8 10.6-1z"/><path id="path10633" class="st1" d="M340.5 234.3c-5.3 2.6-9.7 4.7-9.8 4.7s-8.7-10.1-8.7-10.2 2.6-4.4 5.8-9.3l5.8-9 8.3 9.6 8.3 9.6-9.7 4.6z"/><path id="path10635" class="st1" d="M442.2 120.4c5.3-2.6 9.7-4.7 9.8-4.7s8.7 10.1 8.7 10.2-2.6 4.4-5.8 9.3l-5.8 9-8.3-9.6-8.3-9.6 9.7-4.6z"/><path id="path10637" class="st1" d="M363.1 248.3c-4.1 4.2-7.5 7.7-7.6 7.7s-11.6-6.5-11.6-6.6 1-5 2.3-10.7l2.4-10.4 11 6.2 11.1 6.2-7.6 7.6z"/><path id="path10639" class="st1" d="M419.6 106.4c4.1-4.2 7.5-7.7 7.6-7.7s11.6 6.5 11.6 6.6-1 5-2.3 10.7l-2.4 10.4-11.1-6.2-11.1-6.2 7.7-7.6z"/><path id="path10641" class="st1" d="M389 253.7c-2.4 5.4-4.5 9.8-4.5 9.9s-13.1-2.1-13.2-2.2-.8-5-1.5-10.9l-1.3-10.6 12.5 2 12.5 2-4.5 9.8z"/><path id="path10643" class="st1" d="M393.7 101.1c2.4-5.4 4.5-9.8 4.5-9.9s13.1 2.2 13.2 2.2.8 5 1.5 10.9l1.3 10.6-12.5-2-12.5-2 4.5-9.8z"/><path id="path10645" class="st1" d="M415.3 249.9c-.5 5.9-.8 10.8-.8 10.8s-13.1 2.5-13.2 2.4-2.5-4.4-5.2-9.7l-4.9-9.5 12.4-2.4 12.4-2.4-.7 10.8z"/><path id="path10647" class="st1" d="M367.4 104.9c.4-5.9.8-10.8.8-10.8s13.1-2.5 13.2-2.4 2.5 4.4 5.2 9.7l4.9 9.5-12.4 2.4-12.4 2.4.7-10.8z"/><path id="path10649" class="st1" d="M438.6 237.3c1.6 5.7 2.9 10.4 2.9 10.4l-11.5 6.8s-3.8-3.3-8.2-7.3l-7.8-7.3 10.9-6.5 10.9-6.5 2.8 10.4z"/><path id="path10651" class="st1" d="M344.1 117.4c-1.6-5.7-2.9-10.4-2.9-10.4l11.5-6.8s3.8 3.3 8.2 7.3l7.8 7.3-10.9 6.5-10.9 6.5-2.8-10.4z"/><path id="path10653" class="st1" d="M456.4 217.5c3.5 4.8 6.3 8.8 6.3 8.8s-8.4 10.3-8.5 10.3-4.7-1.8-10.2-4.1l-9.9-4.1 8-9.8 8-9.8 6.3 8.7z"/><path id="path10655" class="st1" d="M326.5 137.1c-3.5-4.8-6.3-8.8-6.3-8.8s8.4-10.3 8.5-10.3 4.8 1.8 10.2 4.1l9.9 4.1-8 9.8-8 9.8-6.3-8.7z"/></g></g><g id="g10147"><path id="path10149" class="st1" d="M398.6 313.7c-11.5 33 6 69 39 80.5s69-6 80.5-39-6-69-39-80.5c-33-11.4-69 6-80.5 39zm19.6 6.8c7.7-22.2 31.9-33.9 54.1-26.2 22.2 7.7 33.9 31.9 26.2 54.1-7.7 22.2-31.9 33.9-54.1 26.2-22.2-7.7-33.9-31.9-26.2-54.1z"/><path id="path10151" class="st1" d="M394.8 322.8c-4.9-3.3-8.9-6.1-8.9-6.1s4.4-12.6 4.5-12.6 5.1.1 11 .4l10.7.5-4.2 12-4.2 12-8.9-6.2z"/><path id="path10153" class="st1" d="M521.8 346.1c4.9 3.3 8.9 6.1 8.9 6.1s-4.4 12.6-4.5 12.6-5.1-.1-11-.4l-10.7-.5 4.2-12 4.2-12 8.9 6.2z"/><path id="path10155" class="st1" d="M397.4 356.1c-5.9-.4-10.8-.8-10.8-.9s-2.5-13.1-2.4-13.2 4.4-2.5 9.7-5.2l9.5-4.9 2.4 12.4 2.4 12.5-10.8-.7z"/><path id="path10157" class="st1" d="M519.1 312.8c5.9.4 10.8.8 10.8.9 0 0 2.5 13.1 2.4 13.2 0 .1-4.4 2.5-9.7 5.2l-9.5 4.9-2.4-12.4-2.4-12.4 10.8.6z"/><path id="path10159" class="st1" d="M416.5 383.7c-5.3 2.6-9.7 4.7-9.8 4.6s-8.7-10.1-8.7-10.2 2.6-4.4 5.8-9.3l5.8-9 8.3 9.6 8.3 9.6-9.7 4.7z"/><path id="path10161" class="st1" d="M500.1 285.2c5.3-2.6 9.7-4.7 9.8-4.7s8.7 10.1 8.7 10.2-2.6 4.4-5.8 9.3l-5.8 9-8.3-9.6-8.3-9.6 9.7-4.6z"/><path id="path10163" class="st1" d="M446.7 398c-3.3 4.9-6.1 8.9-6.1 8.9s-12.6-4.4-12.6-4.5.1-5.1.4-11l.6-10.7 12 4.2 12 4.1-6.3 9z"/><path id="path10165" class="st1" d="M469.9 270.9c3.3-4.9 6.1-8.9 6.1-8.9s12.6 4.4 12.6 4.5-.1 5.1-.4 11l-.5 10.7-12-4.1-12-4.2 6.2-9z"/><path id="path10167" class="st1" d="M480 395.3c-.5 5.9-.8 10.8-.9 10.8s-13.1 2.5-13.2 2.4-2.5-4.4-5.2-9.7l-4.9-9.5 12.4-2.3 12.5-2.4-.7 10.7z"/><path id="path10169" class="st1" d="M436.6 273.6c.4-5.9.8-10.8.8-10.8s13.1-2.5 13.2-2.4 2.5 4.4 5.2 9.7l4.9 9.5-12.4 2.4-12.4 2.4.7-10.8z"/><path id="path10171" class="st1" d="M507.5 376.3c2.6 5.3 4.7 9.7 4.7 9.8s-10.1 8.7-10.2 8.7-4.4-2.6-9.3-5.8l-9-5.8 9.6-8.3 9.6-8.3 4.6 9.7z"/><path id="path10173" class="st1" d="M409.1 292.6c-2.6-5.3-4.7-9.7-4.7-9.8s10.1-8.7 10.2-8.7 4.4 2.6 9.3 5.8l9 5.8-9.6 8.3-9.6 8.3-4.6-9.7z"/></g><path id="path10175" class="st1" d="M199.9 336l5.8 1.7c.2 3.7.5 7.4 1.1 11 4.6 1 9.3 1.7 14 1.9 1.5-3.4 2.8-6.7 4-10.2l6-.1c2-.1 4-.4 6-.6 1.6 3.3 3.4 6.6 5.2 9.7 4.6-.8 9.2-2 13.6-3.6.1-3.7 0-7.3-.2-11l5.5-2.4 5.3-2.9c2.8 2.5 5.6 4.8 8.5 7 4-2.5 7.7-5.4 11.2-8.5-1.3-3.4-2.8-6.8-4.4-10.1 1.4-1.4 2.9-2.8 4.2-4.3l3.8-4.7c3.5 1.2 7 2.2 10.5 3.2 2.7-3.9 5.1-7.9 7.2-12.2-2.5-2.6-5.2-5.2-8-7.6l2.2-5.6 1.7-5.8c3.7-.2 7.4-.5 11-1.1 1-4.6 1.7-9.3 1.9-14-3.4-1.5-6.7-2.8-10.2-4l-.1-6c-.1-2-.4-4-.6-6 3.3-1.6 6.6-3.4 9.7-5.2-.8-4.6-2-9.2-3.5-13.7-3.6-.1-7.3 0-11 .2l-2.4-5.5-2.9-5.3c2.5-2.8 4.8-5.6 7-8.5-2.5-4-5.4-7.7-8.5-11.2-3.4 1.3-6.8 2.8-10.1 4.4-1.4-1.4-2.8-2.9-4.3-4.2l-4.7-3.8c1.2-3.5 2.2-7 3.2-10.5-3.9-2.7-7.9-5.1-12.1-7.1-2.6 2.5-5.2 5.2-7.6 8l-5.6-2.2-5.8-1.7c-.2-3.7-.5-7.4-1.1-11-4.6-1-9.3-1.7-14-1.9-1.5 3.4-2.8 6.7-4 10.2l-6 .1c-2 .1-4 .4-6 .6-1.6-3.3-3.4-6.6-5.2-9.7-4.6.8-9.2 2-13.6 3.6-.1 3.6 0 7.3.2 11l-5.5 2.4-5.3 2.9c-2.8-2.5-5.6-4.8-8.5-7-4 2.5-7.7 5.4-11.3 8.5 1.3 3.4 2.8 6.8 4.4 10.1-1.4 1.4-2.9 2.8-4.2 4.3l-3.8 4.7c-3.5-1.2-7-2.3-10.5-3.2-2.7 3.9-5.1 7.9-7.1 12.1 2.5 2.6 5.2 5.2 8 7.7l-2.2 5.6-1.7 5.8c-3.7.2-7.4.5-11 1.1-1 4.6-1.7 9.3-1.9 14 3.4 1.5 6.7 2.9 10.2 4l.1 6c.1 2 .4 4 .6 6-3.3 1.6-6.6 3.4-9.7 5.2.8 4.6 2 9.1 3.6 13.6 3.6.1 7.3 0 11-.2l2.4 5.5 2.9 5.3c-2.5 2.8-4.8 5.6-7 8.5 2.5 4 5.4 7.7 8.5 11.2 3.4-1.3 6.8-2.8 10.1-4.4 1.4 1.4 2.8 2.9 4.3 4.2l4.7 3.8c-1.2 3.5-2.2 7-3.2 10.5 3.9 2.7 7.9 5.1 12.2 7.1 2.6-2.5 5.2-5.2 7.6-8l5.4 2.3zm-23.7-51.3c-13.3-27.5-1.8-60.6 25.8-73.9 27.5-13.3 60.6-1.8 73.9 25.8 13.3 27.5 1.8 60.6-25.8 73.9-20.2 9.7-44.2 6.4-60.9-8.5-5.4-4.9-9.8-10.8-13-17.3z"/></g></svg>