<svg width="21" height="18" viewBox="0 0 21 18" xmlns="http://www.w3.org/2000/svg"><path d="M10.286 13.379c-2.43 0-4.405-1.965-4.405-4.38 0-2.413 1.976-4.378 4.405-4.378 2.429 0 4.405 1.965 4.405 4.379 0 2.414-1.976 4.379-4.405 4.379zM15.812.514A1.096 1.096 0 0014.916 0h-9.26c-.346 0-.723.216-.896.514L.13 8.486c-.173.298-.173.73 0 1.028l4.63 7.972c.173.298.55.514.895.514h9.26c.347 0 .724-.216.897-.514l4.63-7.972c.173-.298.173-.73 0-1.028L15.812.514z" fill="currentColor" fill-rule="evenodd"/></svg>