<svg width="23" height="23" viewBox="0 0 23 23" xmlns="http://www.w3.org/2000/svg"><path d="M8.243 18.879a4.121 4.121 0 11-8.243 0 4.121 4.121 0 018.243 0zm3.809-1.045c-.66 0-1.195-.536-1.195-1.195a5.203 5.203 0 00-5.197-5.197 1.195 1.195 0 010-2.39c4.183 0 7.587 3.404 7.587 7.587 0 .66-.536 1.195-1.195 1.195zm4.671 0c-.66 0-1.195-.536-1.195-1.195 0-5.441-4.426-9.868-9.868-9.868a1.195 1.195 0 010-2.39c6.76 0 12.258 5.5 12.258 12.258 0 .66-.535 1.195-1.195 1.195zm4.38 0a1.195 1.195 0 01-1.194-1.195c0-7.857-6.392-14.25-14.25-14.25A1.195 1.195 0 015.66 0C14.835 0 22.3 7.464 22.3 16.639c0 .66-.536 1.195-1.195 1.195z" fill="currentColor"/></svg>