<svg data-name="Layer 2" xmlns="http://www.w3.org/2000/svg" viewBox="0 0 686.52 766"><path d="M327.88 0h30.65c.37.43.66 1.13 1.11 1.26 40.91 11.21 66.09 37.22 69.22 79.89 2.81 38.18-15.41 66.09-49.42 83.86-3.19 1.67-6.67 6.4-6.76 9.8-.6 22.56-.31 45.14-.31 66.42 15.21 6.62 29.26 11.32 41.82 18.59s23.75 17.19 37 27c15.45-8.91 31.72-19.12 48.77-27.83 10.74-5.49 14.81-11.7 14.57-24.59-.79-43.71 33-81.12 74.56-84.95 47-4.32 86.46 23.78 95.69 68.14 9 43.2-17 86.49-59.9 99.51-29.85 9.06-56.69 1.17-81.48-16l-62.74 36.48c1.61 16.08 4.22 30.63 4.2 45.16 0 15-2.59 30.09-4.1 45.75l62.51 36.2c6.67-3.86 12.36-7.63 18.43-10.59 39-19 86.49-6.52 109.91 28.8 23.93 36.09 18.21 83.86-14.52 112.59-27.31 24-58.9 28.41-91.88 14.05-33.22-14.48-49.85-41.1-51.18-77.5-.24-6.54-1.16-16.1-5.35-18.92-18.71-12.56-38.72-23.18-54.62-32.39l-81.69 47c0 15.31.84 34-.29 52.64-.75 12.25 3 18.79 14 25 50.39 28.4 59 97 16.12 135.63-12.79 11.54-31.23 16.82-47.09 25h-23.8a65.68 65.68 0 00-7.84-2.93c-46.38-11-74.17-55-64.29-102 6.51-30.91 26.53-50.37 54-63v-73.78c-14.58-6.37-28.64-11.11-41.2-18.41s-23.7-17.19-36.49-26.71c-14.49 8.25-29.33 17.65-45 25.35-13.42 6.6-19.39 14.4-19.07 30.9.73 37.33-25.94 68.86-62.87 79.12-36.42 10.11-75.34-5.48-95.73-38.34-19.57-31.54-15.92-73.46 8-101.27 23.21-26.94 71.09-45.55 122.12-10.21 18.8-10.8 38.1-21.48 56.85-33.07 3.11-1.92 5.27-7.75 5.34-11.82.46-26.88.24-53.78.24-82.42-15.28-8.89-32.15-18.07-48.32-28.35-9.44-6-16.3-7.13-27-.51-30.72 18.93-70.46 15.88-97.15-6-28.05-23-38.4-53.18-30.07-88.18 10.68-44.92 51.57-71.08 97.92-64.62 40.83 5.69 71.27 42.77 71.7 86.4.05 5.86 1.72 14.44 5.72 17.05 18.84 12.34 38.75 23 54 31.85l81.9-47.13c0-15.66-.53-34.39.2-53.06.43-11.18-2.22-17.75-13.28-23.57-34.07-17.94-50.23-56.17-41.81-93.7 8.36-37.3 34.5-56.54 68.7-67.59zm15.36 466.47c46.48-.08 83.31-36.42 83.44-82.33.13-47.57-36.06-84.55-82.9-84.7-46.53-.15-84.07 36.21-84.21 81.57-.15 48.84 35.74 85.53 83.67 85.46zm27.95-379c.46-14.67-12.91-28.72-27.58-29s-28.5 13.42-28.47 28.05c0 14.22 12.47 27.29 26.7 28.07 14.7.78 28.89-12.33 29.35-27.14zm-28.4 563.94c-14.82.25-28.21 14.2-27.58 28.73.6 14.14 13.54 27 27.44 27.33 14.37.32 28.6-13.64 28.56-28-.03-14.78-13.77-28.33-28.42-28.08zm229.89-418c-.58 15.27 10.32 27.69 25.17 28.65 15.94 1 28.9-10.3 29.67-26 .74-15.2-10.22-27.52-25.28-28.43-16.49-.93-28.93 9.91-29.56 25.8zm27.36 325.05c15.85 0 27.68-11.91 27.45-27.7s-12.43-27.23-28.35-26.9c-15.15.32-26.19 11.6-26.39 27-.21 16.14 11.08 27.6 27.29 27.62zM113.48 234.84c.08-15.73-10.61-26.79-26.25-27.16-16.3-.38-28.31 11.09-28.34 27.07a26.79 26.79 0 0026.42 27.36c16 .49 28.09-11.19 28.17-27.27zm.07 296.65c.12-16.08-11.45-27.75-27.4-27.61-15.79.15-27.5 12.15-27.27 28 .23 15 11.63 26.36 26.76 26.65 16.23.26 27.78-10.91 27.91-27.04z" fill="currentColor"/></svg>