<svg version="1.1" id="Layer_1" xmlns="http://www.w3.org/2000/svg" xmlns:xlink="http://www.w3.org/1999/xlink" x="0" y="0" viewBox="0 0 80 80" xml:space="preserve"><style/><defs><path id="SVGID_1_" d="M2 8.2h73v65.3H2z"/></defs><clipPath id="SVGID_00000097485344973618154130000012476125768671572660_"><use xlink:href="#SVGID_1_" overflow="visible"/></clipPath><path d="M25.1 39.6c4.3 4.3 11.3 4.3 15.6 0 4.3-4.3 4.3-11.3 0-15.6-4.3-4.3-11.3-4.3-15.6 0-4.3 4.3-4.3 11.3 0 15.6M75 26.7v46.9H24.8V44.2c-.3.1-.6.2-.9.1-.1.2-4.3 5.4-6.1 7.2-1.9 1.9-10.3 9.4-10.3 9.4-1.1 1-.6 3.2-3.8 0-3.2-3.2-1-2.8 0-3.8 0 0 7.5-8.5 9.4-10.3 1.9-1.9 7-6 7.2-6.1-.1-.3 0-.6.1-.9-3.7-5.7-3-13.5 2-18.5.7-.7 1.6-1.4 2.4-2V8.2h31.7v3H27.8v6.6c5.2-1.9 11.3-.7 15.5 3.5 2.1 2.1 3.4 4.6 4 7.2h21.1v2.3H47.6c.1.9 0 1.9-.1 2.8h20.9v2.3H47c-.3 1-.6 1.9-1.1 2.8h22.5V41h-24c-.4.4-.7.9-1.1 1.3-.5.5-1 .9-1.6 1.3l26.6.2V46H36.8c-2.9.8-6.1.7-9-.3v24.9H72V26.7h3zm0-2.3L58.8 8.2v16.2H75zm-6.6 24.4h-37v2.3h36.9v-2.3zm0 5h-37v2.3h36.9v-2.3zm-37 12.4h36.9v-2.3H31.4v2.3zm0-7.3h36.9v2.3H31.4v-2.3z" clip-path="url(#SVGID_00000097485344973618154130000012476125768671572660_)" fill="currentColor"/></svg>