<svg width="14" height="12" viewBox="0 0 14 12" xmlns="http://www.w3.org/2000/svg"><path d="M4.414 11.36c5.261 0 8.139-4.36 8.139-8.139 0-.124 0-.249-.006-.368a5.86 5.86 0 001.43-1.483c-.51.226-1.063.38-1.644.451A2.859 2.859 0 0013.591.237a5.793 5.793 0 01-1.816.694 2.86 2.86 0 00-4.87 2.61A8.115 8.115 0 011.008.552a2.87 2.87 0 00-.385 1.436 2.85 2.85 0 001.275 2.38A2.81 2.81 0 01.605 4.01v.036c0 1.388.985 2.539 2.296 2.806a2.852 2.852 0 01-1.293.047 2.856 2.856 0 002.67 1.987 5.75 5.75 0 01-4.236 1.18 7.97 7.97 0 004.372 1.294z" fill="currentColor"/></svg>