<svg xmlns="http://www.w3.org/2000/svg" viewBox="0 0 585.66 495.81"><path d="M322.49 187.19c0-37.26 30.6-67.58 68.22-67.58h46.45l-17.43 56.33 124.43-87.65L419.73.63l17.43 56.32h-46.45c-72.49 0-131.46 58.42-131.46 130.23v87.3h63.24zm199.67 121.45c0 37.26-30.6 67.58-68.22 67.58h-46.45l17.43-56.33-124.43 87.65 124.43 87.65-17.43-56.32h46.45c72.47 0 131.47-58.42 131.47-130.23v-87.3h-63.25z"/><path d="M260.16 187.19c0-37.26-30.6-67.58-68.22-67.58h-46.45l17.43 56.33L38.49 88.28 162.92.63l-17.43 56.32h46.45c72.47 0 131.47 58.42 131.47 130.24v87.3h-63.25zM63.49 308.64c0 37.26 30.6 67.58 68.22 67.58h46.45l-17.43-56.33 124.43 87.65-124.43 87.65 17.43-56.32h-46.45C59.22 438.87.25 380.45.25 308.64v-87.3h63.24z"/></svg>