<svg xmlns="http://www.w3.org/2000/svg" width="32" height="32" viewBox="0 0 32 32"><g fill="currentColor"><path d="M6.55 24.76a.48.48 0 00-.43-.26H3.88a.48.48 0 00-.43.26l-1.12 2a.46.46 0 000 .48l1.12 2a.48.48 0 00.43.26h2.24a.48.48 0 00.43-.26l1.12-2a.46.46 0 000-.48zm-.73 3.74H4.18L3.34 27l.84-1.5h1.64l.84 1.5zm3.33-6.35l-2 2a.48.48 0 000 .7.48.48 0 00.7 0l2-2a.49.49 0 00-.7-.7zm4-4l-2 2a.48.48 0 000 .7.48.48 0 00.7 0l2-2a.49.49 0 00-.7-.7zM15.5 17a.47.47 0 00.35-.15l2-2a.49.49 0 10-.7-.7l-2 2a.48.48 0 000 .7.47.47 0 00.35.15zm4-4a.47.47 0 00.35-.15l2-2a.49.49 0 10-.7-.7l-2 2a.48.48 0 000 .7.47.47 0 00.35.15z"/><path d="M21.71 15l2.2-2.2A6.49 6.49 0 0032 6.5a6.41 6.41 0 00-.28-1.89.53.53 0 00-.36-.34.49.49 0 00-.47.14l-2.52 2.52-2.47-.83-.83-2.46 2.52-2.53a.49.49 0 00.14-.47.53.53 0 00-.34-.36A6.41 6.41 0 0025.5 0a6.49 6.49 0 00-6.3 8.09l-4.2 4.2-7.15-7.14a.48.48 0 00-.7 0L7 5.29 5.91 4.2 5 2.28a.55.55 0 00-.17-.2l-3-2a.5.5 0 00-.63.07l-1 1a.5.5 0 00-.07.63l2 3a.55.55 0 00.2.17l1.92 1L5.29 7l-.14.15a.48.48 0 000 .7L12.29 15l-7 7H5a5 5 0 105 5 2.45 2.45 0 000-.27l5-5 8.9 8.9a4.74 4.74 0 106.71-6.71zM6.21 7.5l.14-.15a.48.48 0 000-.7l-1.5-1.5a.45.45 0 00-.13-.1l-1.88-.94-1.7-2.55.42-.42 2.55 1.7.94 1.88a.45.45 0 00.1.13l1.5 1.5a.48.48 0 00.7 0l.15-.14L14.29 13 13 14.29zM9.1 26.19a.49.49 0 00-.1.41v.16A1.94 1.94 0 019 27a4 4 0 11-4-4h.4a.49.49 0 00.41-.14l7.54-7.55 2-2 4.76-4.76a.5.5 0 00.13-.49A5.44 5.44 0 0120 6.5 5.51 5.51 0 0125.5 1a6 6 0 01.74.05l-2.09 2.1a.48.48 0 00-.12.51l1 3a.48.48 0 00.31.31l3 1a.46.46 0 00.51-.12L31 5.76a6 6 0 010 .74 5.51 5.51 0 01-5.5 5.5 5.44 5.44 0 01-1.6-.24.5.5 0 00-.49.13l-2.76 2.76-6 6zM27.26 31a3.72 3.72 0 01-2.65-1.1l-8.9-8.9L21 15.71l8.9 8.9A3.74 3.74 0 0127.26 31z"/><path d="M18.85 20.15a.49.49 0 00-.7.7l7 7a.48.48 0 00.7 0 .48.48 0 000-.7zm2-2a.49.49 0 00-.7.7l7 7a.48.48 0 00.7 0 .48.48 0 000-.7z"/></g></svg>