<svg width="16" height="19" viewBox="0 0 16 19" xmlns="http://www.w3.org/2000/svg"><path d="M3.838 7.438h1.158l.001-4.002L6.365.006H5.1l-.727 2.548L3.634 0H2.381l1.456 3.438.001 4zm3.397-1.402c0 .295.22.537.488.537s.487-.242.487-.537V3.257c0-.295-.22-.536-.487-.536-.268 0-.488.241-.488.536v2.779zm-.961-2.073c0-.501.041-.893.124-1.175a1.31 1.31 0 01.452-.677c.216-.171.494-.257.832-.257.283 0 .527.056.73.165.204.11.361.252.47.428.112.177.187.358.228.544.04.188.061.471.061.854v1.32c0 .484-.02.84-.057 1.066a1.69 1.69 0 01-.242.635c-.122.195-.28.34-.472.434-.194.094-.416.14-.666.14a1.85 1.85 0 01-.71-.12.974.974 0 01-.452-.362 1.606 1.606 0 01-.23-.585c-.047-.228-.069-.571-.069-1.029V3.963zM9.993 6.91c.056.138.144.25.264.334.118.084.27.125.45.125a.7.7 0 00.423-.13c.122-.089.224-.22.308-.396l-.02.432h1.227V2.056h-.966v4.062a.403.403 0 01-.805 0V2.056H9.866v3.52c0 .449.008.748.021.9.014.15.049.294.106.434zm4.234 8.493l-.825.004-.003.112v.46a.45.45 0 01-.45.448h-.162a.45.45 0 01-.452-.447v-1.212h1.89v-.712c0-.52-.013-1.04-.056-1.337-.136-.94-1.455-1.09-2.122-.608a1.24 1.24 0 00-.462.622c-.094.27-.14.64-.14 1.11v1.563c0 2.6 3.159 2.233 2.782-.003zm-3.446.348l-.002-2.624c0-1-.749-1.598-1.764-.79l.005-1.95-1.1.002-.005 6.732.904-.013.082-.42c1.156 1.06 1.882.334 1.88-.937zM7.26 12.14H6.159v3.152c0 .456.027.684-.002.764-.09.245-.492.504-.649.027-.026-.084-.003-.336-.003-.77L5.5 12.142H4.405l.004 3.124c0 .479-.011.836.003.998.027.287.018.62.284.811.495.357 1.444-.053 1.682-.563l-.002.651.884.001v-5.022zM3.3 17.164v-5.903h1.32v-.874l-3.52-.005v.86l1.099.003v5.92H3.3zm12.532-6.212v5.604c0 1.344-1.165 2.444-2.59 2.444H2.591C1.165 19 0 17.9 0 16.556v-5.604c0-1.344 1.165-2.444 2.59-2.444h10.653c1.425 0 2.59 1.1 2.59 2.444zM9.482 12.6c-.265 0-.481.178-.481.395v2.946c0 .217.216.395.48.395.266 0 .483-.178.483-.395v-2.946c0-.217-.217-.395-.482-.395zm3.91 1.298H12.35l.005-.606c0-.269.22-.49.49-.49h.067c.271 0 .493.221.493.49l-.012.606z" fill="currentColor" fill-rule="evenodd"/></svg>