<?xml version="1.0" encoding="utf-8"?>
<!-- Generator: Adobe Illustrator 15.0.0, SVG Export Plug-In . SVG Version: 6.00 Build 0)  -->
<!DOCTYPE svg PUBLIC "-//W3C//DTD SVG 1.1//EN" "http://www.w3.org/Graphics/SVG/1.1/DTD/svg11.dtd">
<svg version="1.1" id="Layer_1" xmlns="http://www.w3.org/2000/svg" xmlns:xlink="http://www.w3.org/1999/xlink" x="0px" y="0px"
	 width="306px" height="92px" viewBox="0 0 306 92" enable-background="new 0 0 306 92" xml:space="preserve">
<g>
	<path fill="#414042" d="M296.621,81.117c0.746,0,1.41-0.055,1.41-0.996c0-0.758-0.652-0.898-1.266-0.898h-1.195v1.895H296.621z
		 M297.445,81.863l1.652,2.695h-0.984l-1.535-2.652h-1.008v2.652h-0.883v-6.125h2.211c1.375,0,2.055,0.535,2.055,1.742
		C298.953,81.273,298.301,81.75,297.445,81.863L297.445,81.863z M300.715,81.484c0-2.516-1.801-4.414-4.082-4.414
		c-2.309,0-4.105,1.898-4.105,4.414c0,2.559,1.797,4.438,4.105,4.438C298.914,85.922,300.715,84.043,300.715,81.484L300.715,81.484z
		 M301.727,81.484c0,3.074-2.348,5.324-5.094,5.324c-2.77,0-5.117-2.25-5.117-5.324c0-3.051,2.348-5.301,5.117-5.301
		C299.379,76.184,301.727,78.434,301.727,81.484L301.727,81.484z M261.461,31.113h5.547l-10.852,12.989L245.66,31.113h5.609V18.914
		h-27.156v12.199h6.59l18.148,22.09l-18.141,21.68h-6.598v12.512h27.156V74.883h-5.609l10.586-12.418l10.594,12.418h-5.379v12.512
		h26.668V74.883h-6.539L263.652,53.34l18.195-22.227h6.281V18.914h-26.668V31.113z M161.867,31.141h7.027v43.758h-7.027v12.496
		h55.074V70.809h-12.906v4.09h-21.688V60.012l21.688,0.113V48.187h-21.688V31.141h21.688v4.793h12.906V18.828h-55.074V31.141z
		 M147.094,39.676c0-4.715-4.207-8.535-9.395-8.535h-15.094v17.074h15.094c3.028,0,5.711-1.309,7.43-3.328
		c0.012-0.012,0.019-0.024,0.031-0.039c0.149-0.176,0.289-0.352,0.422-0.536c0.039-0.058,0.078-0.121,0.117-0.179
		C146.578,42.836,147.094,41.312,147.094,39.676L147.094,39.676z M158.645,31.305c1.234,2.558,1.863,5.343,1.863,8.277
		c0,3.051-0.637,5.895-1.891,8.461c-1.258,2.57-3.059,4.805-5.359,6.641c-2.227,1.773-4.84,3.144-7.77,4.086
		c-2.883,0.925-6.004,1.394-9.273,1.394h-13.61v14.672h7.438v12.559h-27.277V74.852h6.437l-0.004-43.711H94.867V18.828h42.395
		c3.074,0,6.043,0.512,8.828,1.52c2.781,1.007,5.281,2.449,7.43,4.281C155.699,26.52,157.422,28.766,158.645,31.305L158.645,31.305z
		 M87.723,74.922h7.925v12.473H64.051V74.922h8.308V60.43H52.426l10.121-12.219h9.812V23.012l-41.671,51.91h7.152v12.469
		l-33.231-0.09V74.828l7.805,0.094L69.887,4h17.84L87.723,74.922"/>
</g>
</svg>
