<?xml version="1.0" encoding="utf-8"?>
<!-- Generator: Adobe Illustrator 15.0.0, SVG Export Plug-In . SVG Version: 6.00 Build 0)  -->
<!DOCTYPE svg PUBLIC "-//W3C//DTD SVG 1.1//EN" "http://www.w3.org/Graphics/SVG/1.1/DTD/svg11.dtd">
<svg version="1.1" id="Layer_1" xmlns="http://www.w3.org/2000/svg" xmlns:xlink="http://www.w3.org/1999/xlink" x="0px" y="0px"
	 width="180px" height="45px" viewBox="0 0 180 45" enable-background="new 0 0 180 45" xml:space="preserve">
<g>
	<g>
		<path fill="#494949" d="M44.431,26.621v1.148c0,4.275-0.066,8.139-4.54,11.111c-4.474,2.919-9.937,2.866-15.663,2.866
			C10.807,41.749,1,41.227,1,26.936V16.815C1,3.878,9.752,2,24.229,2c13.556,0,19.873,1.094,20.136,12.833v1.513H30.808v-1.513
			c-0.458-3.496-3.551-3.757-8.026-3.757c-7.503,0-8.227,1.825-8.227,7.407v6.107c0,5.842,0.33,8.081,8.227,8.081
			c5.462,0,8.094-0.31,8.094-4.899v-1.148L44.431,26.621L44.431,26.621z"/>
	</g>
	<rect x="48.047" y="2.312" fill="#494949" width="11.318" height="39.125"/>
	<path fill="#494949" d="M85.702,23.573c0-4.245-1.994-4.518-5.973-4.518c-4.185,0-5.493,0.764-5.629,4.518H85.702z M97.506,31.898
		c0,4.299-1.783,6.75-4.871,8.164c-3.09,1.36-7.483,1.687-12.7,1.687c-14.208,0-17.642-3.916-17.642-14.584
		c0-10.992,3.155-14.639,17.642-14.639c13.524,0,17.571,2.992,17.571,14.639v1.577H74.1c0,5.009,0.96,6.479,5.834,6.479
		c3.639,0,5.97-0.328,5.97-3.32h11.602V31.898z"/>
	<path fill="#494949" d="M135.221,29.996c0,5.333-1.171,8.27-3.986,9.848c-2.742,1.635-7.07,1.905-13.449,1.905
		c-13.938,0-17.232-3.315-17.232-14.584c0-9.685,2.471-14.639,17.232-14.639c10.361,0,17.438,0.872,17.438,11.047H123.41
		c0.07-1.525-0.137-2.449-0.958-3.047c-0.827-0.598-2.197-0.817-4.666-0.817c-4.188,0-5.425,0.926-5.425,7.456
		c0,6.692,0.959,7.399,5.425,7.399c5.353,0,5.624-1.03,5.624-4.568H135.221z"/>
	<path fill="#494949" d="M149.883,27.165c0,6.207,0.688,7.399,6.385,7.399c5.492,0,6.043-1.192,6.043-7.399
		c0-6.203-0.551-7.456-6.043-7.456C150.57,19.709,149.883,20.962,149.883,27.165 M174.113,27.165
		c0,11.755-3.088,14.584-18.055,14.584c-14.756,0-17.981-3.155-17.981-14.584c0-11.699,2.952-14.639,17.981-14.639
		C171.164,12.526,174.113,15.084,174.113,27.165"/>
</g>
<g>
	<g>
		<path fill="#E05206" d="M44.431,24.621v1.148c0,4.275-0.066,8.139-4.54,11.111c-4.474,2.919-9.937,2.866-15.663,2.866
			C10.807,39.749,1,39.227,1,24.936V14.815C1,1.878,9.752,0,24.229,0c13.556,0,19.873,1.094,20.136,12.833v1.513H30.808v-1.513
			c-0.458-3.496-3.551-3.757-8.026-3.757c-7.503,0-8.227,1.825-8.227,7.407v6.107c0,5.842,0.33,8.081,8.227,8.081
			c5.462,0,8.094-0.31,8.094-4.899v-1.148L44.431,24.621L44.431,24.621z"/>
	</g>
	<rect x="48.047" y="0.312" fill="#E05206" width="11.318" height="39.125"/>
	<path fill="#E05206" d="M85.702,21.573c0-4.245-1.994-4.518-5.973-4.518c-4.185,0-5.493,0.764-5.629,4.518H85.702z M97.506,29.898
		c0,4.299-1.783,6.75-4.871,8.164c-3.09,1.36-7.483,1.687-12.7,1.687c-14.208,0-17.642-3.916-17.642-14.584
		c0-10.992,3.155-14.639,17.642-14.639c13.524,0,17.571,2.992,17.571,14.639v1.577H74.1c0,5.009,0.96,6.479,5.834,6.479
		c3.639,0,5.97-0.328,5.97-3.32h11.602V29.898z"/>
	<path fill="#E05206" d="M135.221,27.996c0,5.333-1.171,8.27-3.986,9.848c-2.742,1.635-7.07,1.905-13.449,1.905
		c-13.938,0-17.232-3.315-17.232-14.584c0-9.685,2.471-14.639,17.232-14.639c10.361,0,17.438,0.872,17.438,11.047H123.41
		c0.07-1.525-0.137-2.449-0.958-3.047c-0.827-0.598-2.197-0.817-4.666-0.817c-4.188,0-5.425,0.926-5.425,7.456
		c0,6.692,0.959,7.399,5.425,7.399c5.353,0,5.624-1.03,5.624-4.568H135.221z"/>
	<path fill="#E05206" d="M149.883,25.165c0,6.207,0.688,7.399,6.385,7.399c5.492,0,6.043-1.192,6.043-7.399
		c0-6.203-0.551-7.456-6.043-7.456C150.57,17.709,149.883,18.962,149.883,25.165 M174.113,25.165
		c0,11.755-3.088,14.584-18.055,14.584c-14.756,0-17.981-3.155-17.981-14.584c0-11.699,2.952-14.639,17.981-14.639
		C171.164,10.526,174.113,13.084,174.113,25.165"/>
	<path fill="#E05206" d="M175.677,10.894c0.54,0,1.026-0.04,1.026-0.683c0-0.519-0.477-0.616-0.921-0.616h-0.873v1.299H175.677z
		 M174.909,13.249h-0.642V9.06h1.607c0.999,0,1.494,0.366,1.494,1.191c0,0.748-0.473,1.074-1.098,1.153l1.201,1.845h-0.716
		l-1.114-1.818h-0.735L174.909,13.249L174.909,13.249z M175.686,14.18c1.658,0,2.967-1.287,2.967-3.035
		c0-1.719-1.309-3.018-2.967-3.018c-1.679,0-2.983,1.298-2.983,3.018C172.7,12.893,174.007,14.18,175.686,14.18 M171.962,11.145
		c0-2.085,1.709-3.623,3.724-3.623c1.996,0,3.703,1.538,3.703,3.623c0,2.104-1.707,3.641-3.703,3.641
		C173.671,14.786,171.962,13.249,171.962,11.145"/>
</g>
</svg>
