<?xml version="1.0" encoding="utf-8"?>
<!-- Generator: Adobe Illustrator 15.0.0, SVG Export Plug-In . SVG Version: 6.00 Build 0)  -->
<!DOCTYPE svg PUBLIC "-//W3C//DTD SVG 1.1//EN" "http://www.w3.org/Graphics/SVG/1.1/DTD/svg11.dtd">
<svg version="1.1" id="Layer_1" xmlns="http://www.w3.org/2000/svg" xmlns:xlink="http://www.w3.org/1999/xlink" x="0px" y="0px"
	 width="512px" height="512px" viewBox="0 0 512 512" enable-background="new 0 0 512 512" xml:space="preserve">
<path id="user-13-icon" fill="#595959" d="M499.383,402.573H373.649c-0.005-136.843-68.406-71.803-68.406-191.713
	c0-43.285,28.338-66.779,64.725-66.779c53.764,0,91.18,51.333,40.269,147.32c-16.726,31.532,17.811,39.026,54.913,47.585
	C502.236,347.54,499.383,367.094,499.383,402.573z M295.137,322.59c-46.669-10.764-90.111-20.19-69.072-59.855
	c64.04-120.737,16.975-185.308-50.651-185.308c-68.958,0-114.866,67.046-50.65,185.308c21.669,39.907-23.408,49.321-69.074,59.855
	c-46.649,10.76-43.061,35.354-43.061,79.984H338.2C338.197,357.944,341.786,333.35,295.137,322.59z"/>
</svg>
