<?xml version="1.0" encoding="utf-8"?>
<!-- Generator: Adobe Illustrator 15.0.0, SVG Export Plug-In . SVG Version: 6.00 Build 0)  -->
<!DOCTYPE svg PUBLIC "-//W3C//DTD SVG 1.1//EN" "http://www.w3.org/Graphics/SVG/1.1/DTD/svg11.dtd">
<svg version="1.1" id="Layer_1" xmlns="http://www.w3.org/2000/svg" xmlns:xlink="http://www.w3.org/1999/xlink" x="0px" y="0px"
	 width="134.5px" height="45px" viewBox="0 0 134.5 45" enable-background="new 0 0 134.5 45" xml:space="preserve">
<g>
	<path fill="#222222" d="M1.144,41.919V1.96h9.982c3.345,0,7.37,0.106,10.349,1.864c3.554,2.131,4.129,6.021,4.129,9.856v17.741
		c-0.053,3.997-1.253,6.928-3.919,8.631c-2.405,1.6-5.332,1.866-8.153,1.866H1.144z M9.614,34.726
		c6.168,0.428,7.675-2.13,7.517-7.459V14.214c-0.053-4.688-3.021-4.955-7.517-5.062V34.726z"/>
	<path fill="#222222" d="M52.606,29.185c0,9.005-3.083,13.693-12.387,13.693s-12.543-4.688-12.543-13.693V12.936
		c0-7.673,4.495-11.935,12.543-11.935c8.049,0,12.387,4.262,12.387,11.935V29.185z M44.134,13.575c0-2.451-0.935-5.382-3.968-5.382
		c-2.926,0-4.02,2.931-4.02,5.382v16.408c0,2.291,1.094,5.701,4.073,5.701c2.98,0,3.915-3.41,3.915-5.701V13.575z"/>
	<path fill="#222222" d="M77.988,9.952c-0.201,1.149-0.312,2.401-0.312,3.783v16.409c0,8.15,3.293,12.733,11.76,12.733
		c9.407,0,13.275-4.794,13.275-11.668v-4.901H94.24v3.623c0,2.45-0.988,5.753-4.125,5.753c-2.403,0-4.019-1.331-4.019-3.569
		l0.052-19.766c0-2.61,1.405-4.208,4.281-4.156c1.725,0,3.652,1.759,3.652,5.168v2.558h8.472v-3.357
		c0-8.152-4.704-11.562-12.542-11.562c-4.883,0-8.453,1.833-10.211,4.214C78.578,6.872,77.988,9.952,77.988,9.952"/>
	<polygon fill="#222222" points="77.316,9.225 77.316,1.96 53.485,1.96 53.485,9.225 61.426,9.225 61.426,41.919 69.169,41.919 
		69.169,9.225 	"/>
	<path fill="#222222" d="M129.283,29.185c0,9.005-3.083,13.693-12.387,13.693c-9.303,0-12.543-4.688-12.543-13.693V12.936
		c0-7.673,4.496-11.935,12.543-11.935c8.049,0,12.387,4.262,12.387,11.935V29.185z M120.812,13.575c0-2.451-0.935-5.382-3.967-5.382
		c-2.927,0-4.021,2.931-4.021,5.382v16.408c0,2.291,1.094,5.701,4.072,5.701c2.98,0,3.915-3.41,3.915-5.701V13.575z"/>
	<path fill="#222222" d="M127.618,3.908c0-1.667,1.352-2.896,2.947-2.896c1.583,0,2.934,1.229,2.934,2.896
		c0,1.682-1.351,2.91-2.934,2.91C128.97,6.818,127.618,5.59,127.618,3.908 M130.565,6.334c1.313,0,2.351-1.029,2.351-2.426
		c0-1.375-1.037-2.412-2.351-2.412c-1.327,0-2.363,1.037-2.363,2.412C128.202,5.305,129.238,6.334,130.565,6.334 M129.952,5.59
		h-0.507V2.241h1.274c0.792,0,1.183,0.292,1.183,0.953c0,0.599-0.377,0.86-0.868,0.921l0.952,1.475h-0.567l-0.885-1.452h-0.582V5.59
		z M130.559,3.708c0.43,0,0.813-0.03,0.813-0.545c0-0.414-0.376-0.491-0.729-0.491h-0.69v1.037H130.559z"/>
</g>
</svg>
