<?xml version="1.0" encoding="utf-8"?>
<!-- Generator: Adobe Illustrator 15.0.0, SVG Export Plug-In . SVG Version: 6.00 Build 0)  -->
<!DOCTYPE svg PUBLIC "-//W3C//DTD SVG 1.1//EN" "http://www.w3.org/Graphics/SVG/1.1/DTD/svg11.dtd">
<svg version="1.1" id="Layer_1" xmlns="http://www.w3.org/2000/svg" xmlns:xlink="http://www.w3.org/1999/xlink" x="0px" y="0px"
	 width="134.5px" height="45px" viewBox="0 0 134.5 45" enable-background="new 0 0 134.5 45" xml:space="preserve">
<g>
	<g>
		<path fill="#494949" d="M4.655,42.768V4.017h9.68c3.244,0,7.147,0.104,10.036,1.808c3.446,2.067,4.004,5.838,4.004,9.559v17.204
			c-0.051,3.877-1.216,6.717-3.801,8.371c-2.332,1.551-5.17,1.809-7.908,1.809H4.655z M12.868,35.793
			c5.982,0.414,7.443-2.066,7.291-7.232v-12.66c-0.051-4.546-2.93-4.805-7.291-4.908V35.793z"/>
		<path fill="#494949" d="M54.56,30.418c0,8.732-2.989,13.279-12.012,13.279c-9.022,0-12.163-4.547-12.163-13.279V14.662
			c0-7.441,4.358-11.574,12.163-11.574S54.56,7.221,54.56,14.662V30.418z M46.346,15.281c0-2.376-0.908-5.218-3.849-5.218
			c-2.837,0-3.897,2.842-3.897,5.218v15.915c0,2.221,1.06,5.527,3.948,5.527c2.89,0,3.798-3.307,3.798-5.527V15.281z"/>
		<path fill="#494949" d="M79.175,11.768c-0.195,1.115-0.304,2.329-0.304,3.669V31.35c0,7.904,3.193,12.348,11.406,12.348
			c9.122,0,12.872-4.65,12.872-11.316v-4.752h-8.215v3.514c0,2.377-0.959,5.58-4,5.58c-2.332,0-3.897-1.293-3.897-3.461l0.05-19.17
			c0-2.53,1.363-4.08,4.152-4.029c1.672,0,3.542,1.705,3.542,5.012v2.48h8.216v-3.256c0-7.904-4.562-11.211-12.162-11.211
			c-4.736,0-8.199,1.777-9.902,4.087C79.747,8.782,79.175,11.768,79.175,11.768"/>
		<polygon fill="#494949" points="78.523,11.062 78.523,4.017 55.413,4.017 55.413,11.062 63.112,11.062 63.112,42.768 
			70.621,42.768 70.621,11.062 		"/>
		<path fill="#494949" d="M128.918,30.418c0,8.732-2.99,13.279-12.012,13.279c-9.022,0-12.164-4.547-12.164-13.279V14.662
			c0-7.441,4.359-11.574,12.164-11.574c7.804,0,12.012,4.133,12.012,11.574V30.418z M120.703,15.281
			c0-2.376-0.909-5.218-3.848-5.218c-2.839,0-3.899,2.842-3.899,5.218v15.915c0,2.221,1.061,5.527,3.95,5.527
			c2.888,0,3.797-3.307,3.797-5.527V15.281z"/>
	</g>
	<g>
		<path fill="#E05206" d="M4.655,40.162V1.413h9.68c3.244,0,7.147,0.104,10.036,1.808c3.446,2.067,4.004,5.838,4.004,9.559v17.205
			c-0.051,3.875-1.216,6.717-3.801,8.371c-2.332,1.549-5.17,1.807-7.908,1.807H4.655z M12.868,33.189
			c5.982,0.412,7.443-2.066,7.291-7.234V13.296c-0.051-4.546-2.93-4.805-7.291-4.908V33.189z"/>
		<path fill="#E05206" d="M54.56,27.814c0,8.73-2.989,13.279-12.012,13.279c-9.022,0-12.163-4.549-12.163-13.279V12.058
			c0-7.441,4.358-11.575,12.163-11.575S54.56,4.616,54.56,12.058V27.814z M46.346,12.676c0-2.376-0.908-5.218-3.849-5.218
			c-2.837,0-3.897,2.842-3.897,5.218V28.59c0,2.221,1.06,5.527,3.948,5.527c2.89,0,3.798-3.307,3.798-5.527V12.676z"/>
		<path fill="#E05206" d="M79.175,9.163c-0.195,1.115-0.304,2.329-0.304,3.669v15.914c0,7.904,3.193,12.348,11.406,12.348
			c9.122,0,12.872-4.65,12.872-11.316v-4.752h-8.215v3.514c0,2.375-0.959,5.578-4,5.578c-2.332,0-3.897-1.293-3.897-3.461
			l0.05-19.169c0-2.53,1.363-4.08,4.152-4.029c1.672,0,3.542,1.705,3.542,5.012v2.481h8.216v-3.256
			c0-7.904-4.562-11.211-12.162-11.211c-4.736,0-8.199,1.777-9.902,4.087C79.747,6.177,79.175,9.163,79.175,9.163"/>
		<polygon fill="#E05206" points="78.523,8.458 78.523,1.413 55.413,1.413 55.413,8.458 63.112,8.458 63.112,40.162 70.621,40.162 
			70.621,8.458 		"/>
		<path fill="#E05206" d="M128.918,27.814c0,8.73-2.99,13.279-12.012,13.279c-9.022,0-12.164-4.549-12.164-13.279V12.058
			c0-7.441,4.359-11.575,12.164-11.575c7.804,0,12.012,4.133,12.012,11.575V27.814z M120.703,12.676
			c0-2.376-0.909-5.218-3.848-5.218c-2.839,0-3.899,2.842-3.899,5.218V28.59c0,2.221,1.061,5.527,3.95,5.527
			c2.888,0,3.797-3.307,3.797-5.527V12.676z"/>
		<path fill="#E05206" d="M127.301,3.301c0-1.617,1.312-2.807,2.86-2.807c1.535,0,2.845,1.19,2.845,2.807
			c0,1.632-1.31,2.823-2.845,2.823C128.613,6.125,127.301,4.933,127.301,3.301 M130.161,5.655c1.273,0,2.279-0.998,2.279-2.354
			c0-1.332-1.006-2.338-2.279-2.338c-1.287,0-2.292,1.006-2.292,2.338C127.869,4.657,128.874,5.655,130.161,5.655 M129.566,4.933
			h-0.491V1.685h1.234c0.769,0,1.146,0.285,1.146,0.925c0,0.58-0.365,0.835-0.84,0.895l0.922,1.429h-0.55l-0.857-1.408h-0.564V4.933
			z M130.153,3.107c0.418,0,0.79-0.03,0.79-0.528c0-0.402-0.365-0.476-0.707-0.476h-0.67v1.004H130.153z"/>
	</g>
</g>
</svg>
