<?xml version="1.0" encoding="utf-8"?>
<!-- Generator: Adobe Illustrator 15.0.0, SVG Export Plug-In . SVG Version: 6.00 Build 0)  -->
<!DOCTYPE svg PUBLIC "-//W3C//DTD SVG 1.1//EN" "http://www.w3.org/Graphics/SVG/1.1/DTD/svg11.dtd">
<svg version="1.1" id="Layer_1" xmlns="http://www.w3.org/2000/svg" xmlns:xlink="http://www.w3.org/1999/xlink" x="0px" y="0px"
	 width="180px" height="45px" viewBox="0 0 180 45" enable-background="new 0 0 180 45" xml:space="preserve">
<linearGradient id="SVGID_1_" gradientUnits="userSpaceOnUse" x1="19.5483" y1="3.4766" x2="19.5483" y2="31.6685">
	<stop  offset="0" style="stop-color:#178FCF"/>
	<stop  offset="1" style="stop-color:#0F5EA1"/>
</linearGradient>
<path fill-rule="evenodd" clip-rule="evenodd" fill="url(#SVGID_1_)" d="M37.702,28.967c-6.256-7.839-12.028-16.161-17.994-24.291
	c-5.724,8.87-11.276,17.913-16.793,26.992c-1.529-2.953-2.389-5.323-2.399-8.999C0.486,12.888,8.711,3.424,19.107,3.477
	C32.166,3.541,41.576,14.609,37.702,28.967z"/>
<path fill-rule="evenodd" clip-rule="evenodd" d="M36.352,31.668c-2.997,5.543-9.177,10.562-17.693,10.044
	c-6.747-0.409-10.988-3.671-14.396-7.646c4.637-7.868,12.312-13.183,22.193-15.744C29.882,22.641,33.067,27.203,36.352,31.668z"/>
<g>
	<g>
		<path d="M50.215,28.817h-7.411L55.041,9.044h8.725l12.193,19.773h-7.604l-2.219-3.52H52.261L50.215,28.817z M63.529,21.143
			l-4.352-7.31l-4.524,7.31H63.529z"/>
		<path d="M78.172,9.024h19.885c1.615,0,2.715,0.135,4.094,0.904c2.391,1.346,2.95,3.578,2.93,6.001v1.423
			c0.021,1.886-0.539,3.771-2.434,5.098c-1.918,1.347-3.771,1.135-6.205,1.135H85.303v5.232h-7.131V9.024z M85.217,13.698v5.232
			h10.211c0.798,0,1.422-0.039,1.982-0.52c0.431-0.366,0.646-0.75,0.646-1.308V15.91c0-0.615-0.129-1.442-0.56-1.788
			c-0.495-0.404-1.035-0.424-1.702-0.424H85.217z"/>
		<path d="M108.133,9.044h23.827v4.616h-17.128v3.328h16.289v3.885h-16.224v3.289h17.495v4.655h-24.26V9.044z"/>
		<path d="M156.213,18.988l10.986,9.887h-8.877l-7.324-7.31l-7.26,7.252h-8.898l10.924-9.944l-10.708-9.829h8.876l7.132,7.174
			l6.893-7.174h8.683L156.213,18.988z"/>
		<path d="M169.678,9.092h3.741v0.666h-1.39v2.164h-0.981V9.758h-1.37V9.092z"/>
		<path d="M175.241,9.092l1.118,1.847l1.109-1.847h1.545v2.83h-0.967v-2.1l-1.303,2.1h-0.695l-1.354-2.037v2.037h-0.967v-2.83
			H175.241z"/>
	</g>
	<g>
		<path d="M42.24,33.582h6.591v1.313h-2.448v4.268h-1.727v-4.268H42.24V33.582z"/>
		<path d="M60.741,33.582c0.7,0,1.205,0.022,1.759,0.43c0.743,0.547,0.679,1.525,0.679,1.971v0.652c0,0.623,0.027,1.627-0.554,2.083
			c-0.419,0.326-1.07,0.445-1.776,0.445h-3.166c-0.657,0-1.15-0.081-1.694-0.499c-0.5-0.385-0.435-1.482-0.435-2.002v-0.68
			c0-0.521-0.016-1.532,0.582-2.027c0.478-0.389,0.967-0.373,1.602-0.373H60.741z M58.286,34.896c-0.146,0-0.505-0.021-0.706,0.12
			c-0.271,0.175-0.304,0.451-0.304,0.771v1.141c0,0.276-0.006,0.487,0.169,0.694c0.119,0.142,0.521,0.228,0.694,0.228h2.308
			c0.25,0,0.483-0.065,0.619-0.169c0.195-0.146,0.244-0.351,0.244-0.601v-1.458c0-0.231-0.055-0.411-0.233-0.562
			c-0.173-0.153-0.386-0.165-0.641-0.165H58.286z"/>
		<path d="M75.245,33.582c0.7,0,1.205,0.022,1.759,0.43c0.743,0.547,0.679,1.525,0.679,1.971v0.652c0,0.623,0.027,1.627-0.555,2.083
			c-0.417,0.326-1.07,0.445-1.775,0.445h-3.166c-0.658,0-1.151-0.081-1.694-0.499c-0.5-0.385-0.435-1.482-0.435-2.002v-0.68
			c0-0.521-0.016-1.532,0.581-2.027c0.478-0.389,0.966-0.373,1.602-0.373H75.245z M72.79,34.896c-0.146,0-0.504-0.021-0.705,0.12
			c-0.271,0.175-0.304,0.451-0.304,0.771v1.141c0,0.276-0.005,0.487,0.168,0.694c0.119,0.142,0.521,0.228,0.695,0.228h2.307
			c0.25,0,0.484-0.065,0.619-0.169c0.195-0.146,0.244-0.351,0.244-0.601v-1.458c0-0.231-0.054-0.411-0.232-0.562
			c-0.174-0.153-0.386-0.165-0.642-0.165H72.79z"/>
		<path d="M84.547,33.582h1.635v4.268h4.174v1.313h-5.81V33.582z"/>
		<path d="M108.963,37.085v-1.156h3.748v1.759c0,0.537-0.097,0.9-0.619,1.227c-0.353,0.223-1.063,0.271-1.742,0.271h-2.45
			c-0.704,0-1.177-0.081-1.741-0.499c-0.511-0.38-0.504-1.433-0.504-1.95v-0.928c0-1.082,0.243-1.59,0.592-1.854
			c0.473-0.357,1.438-0.373,1.757-0.373h2.684c0.124,0,1.063,0.054,1.352,0.25c0.531,0.359,0.642,0.717,0.642,1.275v0.359h-1.636
			c0.027-0.195,0.012-0.299-0.146-0.414c-0.153-0.114-0.453-0.157-0.745-0.157h-1.774c-0.146,0-0.507-0.021-0.711,0.115
			c-0.212,0.142-0.305,0.326-0.305,0.575v1.33c0,0.276,0.027,0.483,0.205,0.695c0.121,0.142,0.484,0.242,0.657,0.242h2.15
			c0.257,0,0.45-0.054,0.592-0.22c0.126-0.153,0.169-0.295,0.146-0.549H108.963z"/>
		<path d="M126.256,35.825c0,0.353-0.065,0.661-0.338,0.853c-0.229,0.157-0.623,0.276-0.673,0.276c0.086,0,0.607,0.157,0.814,0.45
			c0.157,0.223,0.196,0.414,0.196,0.69v1.068h-1.686v-0.992c0-0.164-0.069-0.276-0.195-0.376c-0.108-0.08-0.2-0.107-0.342-0.107
			h-2.801v1.482l-1.656-0.007v-5.581h5.013c0.427,0,0.737,0.016,1.086,0.266c0.4,0.295,0.581,0.664,0.581,1.163V35.825z
			 M121.232,34.896v1.479h2.746c0.203,0,0.36-0.012,0.502-0.146c0.108-0.104,0.162-0.212,0.162-0.371v-0.411
			c0-0.162-0.012-0.293-0.126-0.412c-0.124-0.131-0.266-0.138-0.445-0.138H121.232z"/>
		<path d="M138.333,33.582c0.7,0,1.206,0.022,1.759,0.43c0.743,0.547,0.678,1.525,0.678,1.971v0.652
			c0,0.623,0.027,1.627-0.554,2.083c-0.418,0.326-1.068,0.445-1.774,0.445h-3.165c-0.659,0-1.152-0.081-1.694-0.499
			c-0.499-0.385-0.437-1.482-0.437-2.002v-0.68c0-0.521-0.016-1.532,0.583-2.027c0.477-0.389,0.965-0.373,1.602-0.373H138.333z
			 M135.879,34.896c-0.148,0-0.506-0.021-0.706,0.12c-0.272,0.175-0.304,0.451-0.304,0.771v1.141c0,0.276-0.007,0.487,0.166,0.694
			c0.121,0.142,0.521,0.228,0.695,0.228h2.309c0.249,0,0.483-0.065,0.618-0.169c0.198-0.146,0.245-0.351,0.245-0.601v-1.458
			c0-0.231-0.054-0.411-0.234-0.562c-0.173-0.153-0.385-0.165-0.639-0.165H135.879z"/>
		<path d="M147.635,33.582h1.705v3.395c0,0.238,0.016,0.416,0.164,0.607c0.174,0.216,0.428,0.266,0.727,0.266h1.796
			c0.306,0,0.521,0.018,0.756-0.195c0.173-0.158,0.218-0.336,0.218-0.569v-3.503h1.688v3.664c0,0.538-0.093,0.912-0.428,1.332
			c-0.545,0.666-1.885,0.585-2.146,0.585h-2.188c-0.389,0-1.237,0.045-1.741-0.438c-0.468-0.45-0.549-1.232-0.549-1.604V33.582z"/>
		<path d="M161.575,33.575h5.012c0.407,0,0.685,0.04,1.03,0.257c0.604,0.38,0.745,1.01,0.74,1.693v0.403
			c0.005,0.53-0.137,1.063-0.616,1.437c-0.481,0.381-0.949,0.322-1.562,0.322h-2.807v1.476h-1.798V33.575z M163.35,34.896v1.479
			h2.574c0.2,0,0.357-0.012,0.499-0.146c0.11-0.104,0.164-0.212,0.164-0.371v-0.335c0-0.176-0.033-0.407-0.142-0.506
			c-0.126-0.113-0.261-0.12-0.43-0.12H163.35z"/>
	</g>
</g>
</svg>
