<?xml version="1.0" encoding="utf-8"?>
<!-- Generator: Adobe Illustrator 15.0.0, SVG Export Plug-In . SVG Version: 6.00 Build 0)  -->
<!DOCTYPE svg PUBLIC "-//W3C//DTD SVG 1.1//EN" "http://www.w3.org/Graphics/SVG/1.1/DTD/svg11.dtd">
<svg version="1.1" id="Layer_1" xmlns="http://www.w3.org/2000/svg" xmlns:xlink="http://www.w3.org/1999/xlink" x="0px" y="0px"
	 width="180px" height="45px" viewBox="0 0 180 45" enable-background="new 0 0 180 45" xml:space="preserve">
<path fill="#494949" d="M49.463,10.629H51c1.771,0,2.771-0.756,2.771-2.697c0-1.661-0.896-2.494-2.562-2.494h-1.745V10.629z
	 M45.77,2.763h6.824c3.022,0,4.866,1.562,4.866,4.643c0,2.394-0.97,4.007-3.047,4.435v0.05c2.511,0.329,2.896,1.691,2.949,5.496
	c0.021,1.893,0.125,2.88,0.817,3.226v0.156h-4c-0.355-0.502-0.433-1.186-0.459-1.888l-0.104-3.463
	c-0.052-1.407-0.693-2.264-2.173-2.264h-1.979v7.615H45.77V2.763z"/>
<path fill="#494949" d="M66.305,12.447c-0.074-2.069-0.334-3.228-1.793-3.228c-1.411,0-1.822,1.436-1.822,2.699v0.528H66.305z
	 M62.689,14.513v1.086c0,1.589,0.441,3.152,1.744,3.152c1.178,0,1.667-0.883,1.871-2.546h3.182c-0.13,3.152-1.671,4.918-4.996,4.918
	c-5.13,0-5.338-3.888-5.338-7.265c0-3.63,0.719-7.011,5.489-7.011c4.126,0,5.049,2.723,5.049,6.886v0.779H62.689z"/>
<path fill="#494949" d="M77.92,12.092c0-1.312-0.26-2.721-1.589-2.721c-1.744,0-2.03,1.514-2.03,4.64c0,3.354,0.312,4.74,1.905,4.74
	c1.177,0,1.714-0.987,1.714-3.178h3.385c0,3.559-1.515,5.55-5.255,5.55c-3.541,0-5.282-1.693-5.282-7.139
	c0-5.572,2.33-7.135,5.585-7.135c3.261,0,4.953,2.043,4.953,5.243H77.92z"/>
<path fill="#494949" d="M87.869,18.751c1.432,0,1.891-1.386,1.891-4.767c0-3.379-0.458-4.767-1.891-4.767
	c-1.749,0-1.901,1.994-1.901,4.767C85.968,16.759,86.12,18.751,87.869,18.751 M87.869,6.848c4.251-0.074,5.428,2.42,5.428,7.137
	c0,4.637-1.38,7.139-5.428,7.139c-4.261,0.069-5.438-2.425-5.438-7.139C82.431,9.343,83.816,6.848,87.869,6.848"/>
<path fill="#494949" d="M102.018,19.18h-0.053c-0.744,1.338-2.021,1.944-3.511,1.944c-2.203,0-3.512-1.186-3.512-3.862V7.202h3.537
	v9.35c0,1.368,0.459,1.896,1.512,1.896c1.203,0,1.87-0.732,1.87-2.243V7.202h3.541v13.566h-3.385V19.18z"/>
<rect x="107.633" y="2.763" fill="#494949" width="3.537" height="18.006"/>
<g>
	<path fill="#494949" d="M120.04,12.447c-0.077-2.069-0.333-3.228-1.797-3.228c-1.411,0-1.818,1.436-1.818,2.699v0.528H120.04z
		 M116.425,14.513v1.086c0,1.589,0.433,3.152,1.745,3.152c1.178,0,1.662-0.883,1.87-2.546h3.178
		c-0.13,3.152-1.666,4.918-5.001,4.918c-5.125,0-5.329-3.888-5.329-7.265c0-3.63,0.715-7.011,5.485-7.011
		c4.126,0,5.049,2.723,5.049,6.886v0.779H116.425z"/>
	<path fill="#494949" d="M127.6,16.331v0.454c0,1.182,0.641,1.966,1.848,1.966c1.074,0,1.793-0.533,1.793-1.615
		c0-0.883-0.589-1.285-1.281-1.537l-2.489-0.883c-1.948-0.684-2.944-1.868-2.944-3.781c0-2.243,1.438-4.087,5.074-4.087
		c3.203,0,4.719,1.411,4.719,3.859v0.554h-3.178c0-1.361-0.412-2.043-1.566-2.043c-0.897,0-1.663,0.504-1.663,1.466
		c0,0.651,0.355,1.208,1.536,1.586l2.127,0.706c2.229,0.728,3.052,1.845,3.052,3.883c0,2.849-2.151,4.265-5.13,4.265
		c-3.975,0-5.075-1.714-5.075-4.312v-0.48H127.6z"/>
	<path fill="#494949" d="M7.192,39.458c2.177,0,2.537-1.835,2.537-6.68c0-4.814-0.36-6.685-2.537-6.685
		c-2.178,0-2.538,1.87-2.538,6.685C4.654,37.623,5.014,39.458,7.192,39.458 M11.802,44l-2.177-2.222
		c-0.333,0.125-0.715,0.226-1.13,0.277c-0.381,0.052-0.817,0.078-1.302,0.078c-5.538,0-6.23-3.884-6.23-9.355
		c0-5.473,0.692-9.36,6.23-9.36c5.537,0,6.23,3.888,6.23,9.36c0,3.047-0.208,5.593-1.413,7.307l1.975,1.971L11.802,44z"/>
	<path fill="#494949" d="M22.313,40.189h-0.047c-0.745,1.338-2.026,1.939-3.512,1.939c-2.208,0-3.515-1.182-3.515-3.856V28.215
		h3.538v9.353c0,1.363,0.462,1.891,1.51,1.891c1.209,0,1.875-0.73,1.875-2.242v-9.001H25.7v13.563h-3.386V40.189z"/>
	<path fill="#494949" d="M34.236,34.995c-0.488,0.354-1.073,0.58-1.515,0.68c-1.437,0.302-2,0.987-2,2.199
		c0,1.03,0.39,1.887,1.333,1.887c0.948,0,2.182-0.605,2.182-2.095V34.995z M27.777,32.371v-0.325c0-3.13,2.177-4.186,4.84-4.186
		c4.209,0,5.006,1.715,5.006,4.161v7.134c0,1.259,0.078,1.844,0.433,2.623h-3.387c-0.229-0.429-0.329-0.956-0.433-1.411h-0.052
		c-0.817,1.411-1.818,1.767-3.51,1.767c-2.46,0-3.334-2.069-3.334-3.884c0-2.551,1.053-3.579,3.485-4.237l2-0.529
		c1.053-0.277,1.411-0.68,1.411-1.588c0-1.039-0.463-1.663-1.64-1.663c-1.079,0-1.641,0.702-1.641,1.767v0.372H27.777z"/>
	<path fill="#494949" d="M46.515,33.103c0-1.312-0.255-2.719-1.593-2.719c-1.74,0-2.021,1.512-2.021,4.637
		c0,3.351,0.307,4.74,1.899,4.74c1.178,0,1.715-0.986,1.715-3.173h3.386c0,3.55-1.515,5.546-5.256,5.546
		c-3.541,0-5.281-1.692-5.281-7.139c0-5.568,2.329-7.135,5.589-7.135c3.255,0,4.949,2.043,4.949,5.242H46.515z"/>
</g>
<polygon fill="#494949" points="54.896,23.772 54.896,33.28 54.948,33.28 58.512,28.215 62.408,28.215 58.438,33.558 63.001,41.778 
	59.101,41.778 56.152,36.202 54.896,37.817 54.896,41.778 51.359,41.778 51.359,23.772 "/>
<g>
	<path fill="#494949" d="M70.179,33.458c-0.078-2.065-0.338-3.226-1.801-3.226c-1.406,0-1.813,1.438-1.813,2.692v0.533H70.179z
		 M66.564,35.522v1.088c0,1.588,0.437,3.15,1.74,3.15c1.182,0,1.666-0.883,1.874-2.545h3.179c-0.13,3.151-1.664,4.918-5.001,4.918
		c-5.13,0-5.329-3.884-5.329-7.266c0-3.631,0.714-7.008,5.485-7.008c4.126,0,5.047,2.723,5.047,6.883v0.779H66.564z"/>
	<path fill="#494949" d="M74.764,28.215h3.386V29.8h0.047c0.749-1.334,2.025-1.939,3.515-1.939c2.204,0,3.517,1.186,3.517,3.856
		v10.062h-3.542v-9.355c0-1.359-0.458-1.889-1.515-1.889c-1.203,0-1.87,0.729-1.87,2.244v9h-3.537V28.215z"/>
	<path fill="#494949" d="M92.734,39.458c1.541,0,1.85-1.51,1.85-4.463c0-2.949-0.309-4.461-1.85-4.461
		c-1.559,0-1.869,1.512-1.869,4.461C90.865,37.948,91.176,39.458,92.734,39.458 M87.327,23.772h3.538v5.698h0.051
		c0.745-1.083,1.642-1.61,2.979-1.61c2.894,0,4.227,2.09,4.227,7.135c0,5.043-1.333,7.139-4.227,7.139
		c-1.389,0-2.363-0.532-3.134-1.793h-0.052v1.438h-3.382V23.772z"/>
	<path fill="#494949" d="M106.966,40.189h-0.058c-0.739,1.338-2.021,1.939-3.51,1.939c-2.204,0-3.512-1.182-3.512-3.856V28.215
		h3.538v9.353c0,1.363,0.462,1.891,1.515,1.891c1.204,0,1.87-0.73,1.87-2.242v-9.001h3.538v13.563h-3.382V40.189z"/>
	<path fill="#494949" d="M115.04,37.342v0.454c0,1.182,0.637,1.965,1.849,1.965c1.074,0,1.787-0.531,1.787-1.609
		c0-0.884-0.584-1.291-1.276-1.541l-2.489-0.884c-1.948-0.68-2.949-1.866-2.949-3.784c0-2.242,1.438-4.082,5.075-4.082
		c3.208,0,4.724,1.411,4.724,3.856v0.554h-3.183c0-1.357-0.407-2.038-1.563-2.038c-0.896,0-1.666,0.503-1.666,1.46
		c0,0.658,0.358,1.212,1.541,1.588l2.125,0.705c2.227,0.732,3.053,1.84,3.053,3.889c0,2.849-2.151,4.26-5.135,4.26
		c-3.97,0-5.074-1.72-5.074-4.312v-0.48H115.04z"/>
	<path fill="#494949" d="M123.572,23.772h3.543V29.6h0.047c0.666-1.159,1.875-1.739,3.364-1.739c2.198,0,3.511,1.186,3.511,3.856
		v10.062h-3.542v-9.355c0-1.359-0.459-1.889-1.51-1.889c-1.204,0-1.87,0.729-1.87,2.244v9h-3.543V23.772z"/>
	<path fill="#494949" d="M171.949,34.276l-10.369-5.889c1.801-0.648,3.221-2.061,3.861-3.84l10.858,1.927
		C175.564,29.454,174.037,32.133,171.949,34.276 M149.155,36.315l7.139-8.3c0.304,0.165,0.624,0.294,0.949,0.407l13.009,7.381
		c-2.982,2.355-6.762,3.768-10.885,3.768C155.555,39.571,152.025,38.358,149.155,36.315 M142.644,27.228l10.373-5.888
		c-0.064,0.355-0.099,0.719-0.099,1.091c0,1.632,0.627,3.117,1.653,4.243l-7.109,8.264C145.216,32.87,143.531,30.22,142.644,27.228
		 M152.385,6.737l3.736,10.222c-0.342,0.195-0.667,0.42-0.965,0.675l-13.016,7.387c-0.129-0.841-0.198-1.706-0.198-2.59
		C141.942,15.413,146.237,9.384,152.385,6.737 M163.615,5.812V17.66c-1.139-0.974-2.619-1.576-4.248-1.576
		c-0.41,0-0.805,0.043-1.194,0.112l-3.728-10.2c1.56-0.452,3.213-0.698,4.922-0.698C160.831,5.298,162.256,5.477,163.615,5.812
		 M157.936,26.319l-1.281-0.728c-0.914-0.758-1.489-1.896-1.489-3.161c0-1.264,0.575-2.394,1.489-3.151l1.238-0.706l0.324-0.117
		c0.363-0.104,0.753-0.155,1.15-0.155c2.322,0,4.205,1.849,4.205,4.13c0,2.286-1.883,4.139-4.205,4.139
		C158.861,26.569,158.381,26.475,157.936,26.319 M176.79,22.431c0,0.649-0.044,1.29-0.112,1.914l-10.858-1.923
		c0-0.056-0.009-0.112-0.014-0.173V6.512C172.239,9.032,176.79,15.21,176.79,22.431 M159.367,3.085
		c-10.866,0-19.671,8.663-19.671,19.346c0,10.689,8.805,19.352,19.671,19.352c10.867,0,19.67-8.662,19.67-19.352
		C179.037,11.748,170.234,3.085,159.367,3.085"/>
	<path fill="#494949" d="M159.367,21.587c-0.476,0-0.856,0.376-0.856,0.844c0,0.468,0.381,0.849,0.856,0.849
		c0.473,0,0.857-0.381,0.857-0.849C160.225,21.963,159.84,21.587,159.367,21.587"/>
</g>
<path fill="#E05206" d="M49.463,9.629H51c1.771,0,2.771-0.756,2.771-2.697c0-1.661-0.896-2.494-2.562-2.494h-1.745V9.629z
	 M45.77,1.763h6.824c3.022,0,4.866,1.562,4.866,4.643c0,2.394-0.97,4.007-3.047,4.435v0.05c2.511,0.329,2.896,1.691,2.949,5.496
	c0.021,1.893,0.125,2.88,0.817,3.226v0.156h-4c-0.355-0.502-0.433-1.186-0.459-1.888l-0.104-3.463
	c-0.052-1.407-0.693-2.264-2.173-2.264h-1.979v7.615H45.77V1.763z"/>
<path fill="#E05206" d="M66.305,11.447C66.23,9.378,65.971,8.22,64.512,8.22c-1.411,0-1.822,1.436-1.822,2.699v0.528H66.305z
	 M62.689,13.513v1.086c0,1.589,0.441,3.152,1.744,3.152c1.178,0,1.667-0.883,1.871-2.546h3.182c-0.13,3.152-1.671,4.918-4.996,4.918
	c-5.13,0-5.338-3.888-5.338-7.265c0-3.63,0.719-7.011,5.489-7.011c4.126,0,5.049,2.723,5.049,6.886v0.779H62.689z"/>
<path fill="#E05206" d="M77.92,11.092c0-1.312-0.26-2.721-1.589-2.721c-1.744,0-2.03,1.514-2.03,4.64c0,3.354,0.312,4.74,1.905,4.74
	c1.177,0,1.714-0.987,1.714-3.178h3.385c0,3.559-1.515,5.55-5.255,5.55c-3.541,0-5.282-1.693-5.282-7.139
	c0-5.572,2.33-7.135,5.585-7.135c3.261,0,4.953,2.043,4.953,5.243H77.92z"/>
<path fill="#E05206" d="M87.869,17.751c1.432,0,1.891-1.386,1.891-4.767c0-3.379-0.458-4.767-1.891-4.767
	c-1.749,0-1.901,1.994-1.901,4.767C85.968,15.759,86.12,17.751,87.869,17.751 M87.869,5.848c4.251-0.074,5.428,2.42,5.428,7.137
	c0,4.637-1.38,7.139-5.428,7.139c-4.261,0.069-5.438-2.425-5.438-7.139C82.431,8.343,83.816,5.848,87.869,5.848"/>
<path fill="#E05206" d="M102.018,18.18h-0.053c-0.744,1.338-2.021,1.944-3.511,1.944c-2.203,0-3.512-1.186-3.512-3.862V6.202h3.537
	v9.35c0,1.368,0.459,1.896,1.512,1.896c1.203,0,1.87-0.732,1.87-2.243V6.202h3.541v13.566h-3.385V18.18z"/>
<rect x="107.633" y="1.763" fill="#E05206" width="3.537" height="18.006"/>
<g>
	<path fill="#E05206" d="M120.04,11.447c-0.077-2.069-0.333-3.228-1.797-3.228c-1.411,0-1.818,1.436-1.818,2.699v0.528H120.04z
		 M116.425,13.513v1.086c0,1.589,0.433,3.152,1.745,3.152c1.178,0,1.662-0.883,1.87-2.546h3.178
		c-0.13,3.152-1.666,4.918-5.001,4.918c-5.125,0-5.329-3.888-5.329-7.265c0-3.63,0.715-7.011,5.485-7.011
		c4.126,0,5.049,2.723,5.049,6.886v0.779H116.425z"/>
	<path fill="#E05206" d="M127.6,15.331v0.454c0,1.182,0.641,1.966,1.848,1.966c1.074,0,1.793-0.533,1.793-1.615
		c0-0.883-0.589-1.285-1.281-1.537l-2.489-0.883c-1.948-0.684-2.944-1.868-2.944-3.781c0-2.243,1.438-4.087,5.074-4.087
		c3.203,0,4.719,1.411,4.719,3.859v0.554h-3.178c0-1.361-0.412-2.043-1.566-2.043c-0.897,0-1.663,0.504-1.663,1.466
		c0,0.651,0.355,1.208,1.536,1.586l2.127,0.706c2.229,0.728,3.052,1.845,3.052,3.883c0,2.849-2.151,4.265-5.13,4.265
		c-3.975,0-5.075-1.714-5.075-4.312v-0.48H127.6z"/>
	<path fill="#E05206" d="M7.192,38.458c2.177,0,2.537-1.835,2.537-6.68c0-4.814-0.36-6.685-2.537-6.685
		c-2.178,0-2.538,1.87-2.538,6.685C4.654,36.623,5.014,38.458,7.192,38.458 M11.802,43l-2.177-2.222
		c-0.333,0.125-0.715,0.226-1.13,0.277c-0.381,0.052-0.817,0.078-1.302,0.078c-5.538,0-6.23-3.884-6.23-9.355
		c0-5.473,0.692-9.36,6.23-9.36c5.537,0,6.23,3.888,6.23,9.36c0,3.047-0.208,5.593-1.413,7.307l1.975,1.971L11.802,43z"/>
	<path fill="#E05206" d="M22.313,39.189h-0.047c-0.745,1.338-2.026,1.939-3.512,1.939c-2.208,0-3.515-1.182-3.515-3.856V27.215
		h3.538v9.353c0,1.363,0.462,1.891,1.51,1.891c1.209,0,1.875-0.73,1.875-2.242v-9.001H25.7v13.563h-3.386V39.189z"/>
	<path fill="#E05206" d="M34.236,33.995c-0.488,0.354-1.073,0.58-1.515,0.68c-1.437,0.302-2,0.987-2,2.199
		c0,1.03,0.39,1.887,1.333,1.887c0.948,0,2.182-0.605,2.182-2.095V33.995z M27.777,31.371v-0.325c0-3.13,2.177-4.186,4.84-4.186
		c4.209,0,5.006,1.715,5.006,4.161v7.134c0,1.259,0.078,1.844,0.433,2.623h-3.387c-0.229-0.429-0.329-0.956-0.433-1.411h-0.052
		c-0.817,1.411-1.818,1.767-3.51,1.767c-2.46,0-3.334-2.069-3.334-3.884c0-2.551,1.053-3.579,3.485-4.237l2-0.529
		c1.053-0.277,1.411-0.68,1.411-1.588c0-1.039-0.463-1.663-1.64-1.663c-1.079,0-1.641,0.702-1.641,1.767v0.372H27.777z"/>
	<path fill="#E05206" d="M46.515,32.103c0-1.312-0.255-2.719-1.593-2.719c-1.74,0-2.021,1.512-2.021,4.637
		c0,3.351,0.307,4.74,1.899,4.74c1.178,0,1.715-0.986,1.715-3.173h3.386c0,3.55-1.515,5.546-5.256,5.546
		c-3.541,0-5.281-1.692-5.281-7.139c0-5.568,2.329-7.135,5.589-7.135c3.255,0,4.949,2.043,4.949,5.242H46.515z"/>
</g>
<polygon fill="#E05206" points="54.896,22.772 54.896,32.28 54.948,32.28 58.512,27.215 62.408,27.215 58.438,32.558 63.001,40.778 
	59.101,40.778 56.152,35.202 54.896,36.817 54.896,40.778 51.359,40.778 51.359,22.772 "/>
<g>
	<path fill="#E05206" d="M70.179,32.458c-0.078-2.065-0.338-3.226-1.801-3.226c-1.406,0-1.813,1.438-1.813,2.692v0.533H70.179z
		 M66.564,34.522v1.088c0,1.588,0.437,3.15,1.74,3.15c1.182,0,1.666-0.883,1.874-2.545h3.179c-0.13,3.151-1.664,4.918-5.001,4.918
		c-5.13,0-5.329-3.884-5.329-7.266c0-3.631,0.714-7.008,5.485-7.008c4.126,0,5.047,2.723,5.047,6.883v0.779H66.564z"/>
	<path fill="#E05206" d="M74.764,27.215h3.386V28.8h0.047c0.749-1.334,2.025-1.939,3.515-1.939c2.204,0,3.517,1.186,3.517,3.856
		v10.062h-3.542v-9.355c0-1.359-0.458-1.889-1.515-1.889c-1.203,0-1.87,0.729-1.87,2.244v9h-3.537V27.215z"/>
	<path fill="#E05206" d="M92.734,38.458c1.541,0,1.85-1.51,1.85-4.463c0-2.949-0.309-4.461-1.85-4.461
		c-1.559,0-1.869,1.512-1.869,4.461C90.865,36.948,91.176,38.458,92.734,38.458 M87.327,22.772h3.538v5.698h0.051
		c0.745-1.083,1.642-1.61,2.979-1.61c2.894,0,4.227,2.09,4.227,7.135c0,5.043-1.333,7.139-4.227,7.139
		c-1.389,0-2.363-0.532-3.134-1.793h-0.052v1.438h-3.382V22.772z"/>
	<path fill="#E05206" d="M106.966,39.189h-0.058c-0.739,1.338-2.021,1.939-3.51,1.939c-2.204,0-3.512-1.182-3.512-3.856V27.215
		h3.538v9.353c0,1.363,0.462,1.891,1.515,1.891c1.204,0,1.87-0.73,1.87-2.242v-9.001h3.538v13.563h-3.382V39.189z"/>
	<path fill="#E05206" d="M115.04,36.342v0.454c0,1.182,0.637,1.965,1.849,1.965c1.074,0,1.787-0.531,1.787-1.609
		c0-0.884-0.584-1.291-1.276-1.541l-2.489-0.884c-1.948-0.68-2.949-1.866-2.949-3.784c0-2.242,1.438-4.082,5.075-4.082
		c3.208,0,4.724,1.411,4.724,3.856v0.554h-3.183c0-1.357-0.407-2.038-1.563-2.038c-0.896,0-1.666,0.503-1.666,1.46
		c0,0.658,0.358,1.212,1.541,1.588l2.125,0.705c2.227,0.732,3.053,1.84,3.053,3.889c0,2.849-2.151,4.26-5.135,4.26
		c-3.97,0-5.074-1.72-5.074-4.312v-0.48H115.04z"/>
	<path fill="#E05206" d="M123.572,22.772h3.543V28.6h0.047c0.666-1.159,1.875-1.739,3.364-1.739c2.198,0,3.511,1.186,3.511,3.856
		v10.062h-3.542v-9.355c0-1.359-0.459-1.889-1.51-1.889c-1.204,0-1.87,0.729-1.87,2.244v9h-3.543V22.772z"/>
	<path fill="#E05206" d="M134.154,24.496c0.268,0,0.516-0.017,0.516-0.337c0-0.26-0.243-0.304-0.465-0.304h-0.436v0.641H134.154z
		 M133.77,25.674h-0.32v-2.087h0.805c0.502,0,0.748,0.182,0.748,0.589c0,0.377-0.237,0.537-0.549,0.571l0.605,0.927h-0.359
		l-0.562-0.909h-0.367V25.674z M134.158,26.137c0.832,0,1.489-0.645,1.489-1.511c0-0.857-0.657-1.507-1.489-1.507
		c-0.844,0-1.502,0.649-1.502,1.507C132.656,25.492,133.314,26.137,134.158,26.137 M132.289,24.626c0-1.039,0.856-1.81,1.869-1.81
		c1,0,1.857,0.771,1.857,1.81c0,1.048-0.857,1.81-1.857,1.81C133.146,26.436,132.289,25.674,132.289,24.626"/>
	<path fill="#E05206" d="M134.154,3.765c0.268,0,0.516-0.017,0.516-0.337c0-0.258-0.243-0.308-0.465-0.308h-0.436v0.645H134.154z
		 M133.77,4.94h-0.32V2.851h0.805c0.502,0,0.748,0.183,0.748,0.596c0,0.373-0.237,0.535-0.549,0.571l0.605,0.922h-0.359
		l-0.562-0.905h-0.367V4.94z M134.158,5.401c0.832,0,1.489-0.639,1.489-1.509c0-0.859-0.657-1.505-1.489-1.505
		c-0.844,0-1.502,0.646-1.502,1.505C132.656,4.763,133.314,5.401,134.158,5.401 M132.289,3.893c0-1.042,0.856-1.808,1.869-1.808
		c1,0,1.857,0.766,1.857,1.808c0,1.048-0.857,1.813-1.857,1.813C133.146,5.706,132.289,4.94,132.289,3.893"/>
	<path fill="#E05206" d="M171.949,33.276l-10.369-5.889c1.801-0.648,3.221-2.061,3.861-3.84l10.858,1.927
		C175.564,28.454,174.037,31.133,171.949,33.276 M149.155,35.315l7.139-8.3c0.304,0.165,0.624,0.294,0.949,0.407l13.009,7.381
		c-2.982,2.355-6.762,3.768-10.885,3.768C155.555,38.571,152.025,37.358,149.155,35.315 M142.644,26.228l10.373-5.888
		c-0.064,0.355-0.099,0.719-0.099,1.091c0,1.632,0.627,3.117,1.653,4.243l-7.109,8.264C145.216,31.87,143.531,29.22,142.644,26.228
		 M152.385,5.737l3.736,10.222c-0.342,0.195-0.667,0.42-0.965,0.675l-13.016,7.387c-0.129-0.841-0.198-1.706-0.198-2.59
		C141.942,14.413,146.237,8.384,152.385,5.737 M163.615,4.812V16.66c-1.139-0.974-2.619-1.576-4.248-1.576
		c-0.41,0-0.805,0.043-1.194,0.112l-3.728-10.2c1.56-0.452,3.213-0.698,4.922-0.698C160.831,4.298,162.256,4.477,163.615,4.812
		 M157.936,25.319l-1.281-0.728c-0.914-0.758-1.489-1.896-1.489-3.161c0-1.264,0.575-2.394,1.489-3.151l1.238-0.706l0.324-0.117
		c0.363-0.104,0.753-0.155,1.15-0.155c2.322,0,4.205,1.849,4.205,4.13c0,2.286-1.883,4.139-4.205,4.139
		C158.861,25.569,158.381,25.475,157.936,25.319 M176.79,21.431c0,0.649-0.044,1.29-0.112,1.914l-10.858-1.923
		c0-0.056-0.009-0.112-0.014-0.173V5.512C172.239,8.032,176.79,14.21,176.79,21.431 M159.367,2.085
		c-10.866,0-19.671,8.663-19.671,19.346c0,10.689,8.805,19.352,19.671,19.352c10.867,0,19.67-8.662,19.67-19.352
		C179.037,10.748,170.234,2.085,159.367,2.085"/>
	<path fill="#E05206" d="M159.367,20.587c-0.476,0-0.856,0.376-0.856,0.844c0,0.468,0.381,0.849,0.856,0.849
		c0.473,0,0.857-0.381,0.857-0.849C160.225,20.963,159.84,20.587,159.367,20.587"/>
</g>
</svg>
