<?xml version="1.0" encoding="utf-8"?>
<!-- Generator: Adobe Illustrator 15.0.2, SVG Export Plug-In . SVG Version: 6.00 Build 0)  -->
<!DOCTYPE svg PUBLIC "-//W3C//DTD SVG 1.1//EN" "http://www.w3.org/Graphics/SVG/1.1/DTD/svg11.dtd">
<svg version="1.1" id="Layer_1" xmlns="http://www.w3.org/2000/svg" xmlns:xlink="http://www.w3.org/1999/xlink" x="0px" y="0px"
	 width="180px" height="45px" viewBox="0 0 180 45" enable-background="new 0 0 180 45" xml:space="preserve">
<g>
	<path fill="#222222" d="M29.921,2.124c1.599,9.544,3.486,18.97,5.198,28.456h0.117l5.481-22.51c0,0-0.284-1.488-1.083-4.917
		l7.998-1.829c4.857,22.857,4.857,23.031,5.94,29.022h0.116c0.63-3.941,2.4-11.939,5.028-23.482c0.628-2.74,0.683-3.481,0.858-4.74
		h7.197c-1.435,5.419-3.65,12.277-5.478,19.178c-2.467,9.335-4.474,18.461-5.265,21.616h-6.915l-5.481-23.54h-0.118l-6.227,23.54
		h-6.798c-0.445-1.911-2.199-10.294-4.302-19.217c-1.926-8.18-4.177-16.794-5.354-21.577H29.921"/>
	<path fill="#222222" d="M71.092,32.296c0.541,3.082,2.303,5.823,5.175,5.823c1.896,0,3.659-0.949,5.392-2.491l2.413,3.083
		c-2.275,2.799-5.444,4.89-9.671,4.89c-6.396,0-11.403-5.998-11.403-14.622c0-8.171,4.947-15.54,11.619-15.54
		c3.361,0,5.961,1.541,7.479,3.94c1.298,2.058,1.843,6.114,2.056,9.826L71.092,32.296 M74.911,25.49
		c2.008-0.735,2.334-1.426,2.334-2.568c0-2.286-1.03-4.684-3.147-4.684c-2.606,0-3.799,3.828-3.799,7.651
		c0,0.517,0,0.975,0.053,1.316L74.911,25.49z"/>
	<path fill="#222222" d="M115.91,32.296c0.536,3.082,2.298,5.823,5.17,5.823c1.896,0,3.658-0.949,5.391-2.491l2.415,3.083
		c-2.28,2.799-5.448,4.89-9.673,4.89c-6.396,0-11.402-5.998-11.402-14.622c0-8.171,4.946-15.54,11.623-15.54
		c3.361,0,5.957,1.541,7.479,3.94c1.294,2.058,1.838,6.114,2.058,9.826L115.91,32.296 M119.79,25.49
		c2.014-0.735,2.338-1.426,2.338-2.568c0-2.286-1.035-4.684-3.15-4.684c-2.606,0-3.804,3.828-3.804,7.651
		c0,0.517,0,0.975,0.058,1.316L119.79,25.49z"/>
	<path fill="#222222" d="M86.114,42.918c0.284-1.716,0.459-6.175,0.459-10.516V13.55c0-2.34-0.175-9.598-0.459-11.426h8.115v30.278
		c0,4.341,0.166,8.8,0.459,10.516H86.114"/>
	<path fill="#222222" d="M97.029,42.918c0.281-1.716,0.457-6.175,0.457-10.516V13.55c0-2.34-0.176-9.598-0.457-11.426h8.113v30.278
		c0,4.341,0.166,8.8,0.458,10.516H97.029"/>
	<path fill="#222222" d="M138.924,14.121c0.399,1.258,0.683,3.375,0.683,4.117h0.117c2.057-3.029,4.623-4.799,8.797-4.799v6.739
		c-0.282-0.053-0.975-0.228-1.883-0.228c-1.833,0-3.256,0.746-4.349,2.116c-2.048,2.631-2.107,7.139-2.107,10.337
		c0,4.341,0.165,8.8,0.459,10.516h-8.914c0.281-1.716,0.458-6.175,0.458-10.516v-7.766c0-4.341-0.4-8.799-0.917-10.516H138.924"/>
	<path fill="#222222" d="M150.476,9.278c0-1.993,1.6-3.348,3.421-3.348c1.822,0,3.422,1.354,3.422,3.348
		c0,1.998-1.6,3.353-3.422,3.353C152.075,12.631,150.476,11.276,150.476,9.278 M156.505,9.278c0-1.563-1.168-2.704-2.608-2.704
		c-1.464,0-2.609,1.141-2.609,2.704c0,1.568,1.146,2.708,2.609,2.708C155.337,11.986,156.505,10.846,156.505,9.278z M153.273,11.149
		h-0.681V7.367h1.439c0.931,0,1.432,0.311,1.432,1.11c0,0.682-0.426,0.961-1.005,1.015l1.024,1.657h-0.713l-0.96-1.629h-0.537
		V11.149z M153.958,8.987c0.456,0,0.825-0.058,0.825-0.562c0-0.451-0.443-0.525-0.813-0.525h-0.696v1.087H153.958z"/>
</g>
</svg>
