<?xml version="1.0" encoding="utf-8"?>
<!-- Generator: Adobe Illustrator 15.0.0, SVG Export Plug-In . SVG Version: 6.00 Build 0)  -->
<!DOCTYPE svg PUBLIC "-//W3C//DTD SVG 1.1//EN" "http://www.w3.org/Graphics/SVG/1.1/DTD/svg11.dtd">
<svg version="1.1" id="Layer_1" xmlns="http://www.w3.org/2000/svg" xmlns:xlink="http://www.w3.org/1999/xlink" x="0px" y="0px"
	 width="180px" height="45px" viewBox="0 0 180 45" enable-background="new 0 0 180 45" xml:space="preserve">
<path fill="#222222" d="M31.488,43.133L23.254,5.201l-2.403-0.382l0.014-2.831h14.228v2.831L32.595,5.3l5.364,26.834l-0.148,0.45
	l5.39-20.685L41.55,4.39l9.31-2.254l7.059,30.187l3.906-16.217c0,0,1.352-4.632,1.352-6.457c0-3.448-1.203-4.071-4.431-4.848V1.948
	l12.432,0.04V5.14c-3.48,0.629-4.723,5.125-5.75,9.46L59.87,37.728l0.902,5.286l-9.913-0.028l-5.855-24.78l-5.256,19.824
	l1.201,5.104H31.488z"/>
<path fill="#222222" d="M85.958,35.951C83.56,40.916,80.309,44,74.601,44c-7.247,0-10.956-7.019-10.956-14.383
	c0-7.133,4.107-14.607,11.926-14.607c7.02,0,9.473,6.503,10.101,12.27l-13.694,4.678c0.854,2.741,2.567,6.106,6.161,6.106
	c2.855,0,4.166-1.768,5.763-3.938L85.958,35.951z M75.457,27.052c1.997-0.573,3.082-1.428,3.082-3.253
	c0-3.537-0.913-5.936-3.767-5.936c-3.366,0-3.653,5.137-3.653,7.534c0,0.971,0.057,1.939,0.171,2.852L75.457,27.052z"/>
<path fill="#222222" d="M94.554,1.223v38.792l2.681,0.346v2.624H84.396v-2.624l2.681-0.346V9.099c0-1.483-1.141-1.653-2.681-1.653
	V4.819L94.554,1.223z"/>
<path fill="#222222" d="M108.057,1.223v38.792l2.684,0.346v2.624H97.899v-2.624l2.683-0.346V9.099c0-1.483-1.143-1.653-2.683-1.653
	V4.819L108.057,1.223z"/>
<path fill="#222222" d="M131.764,35.803c-2.396,4.965-5.648,8.046-11.355,8.046c-7.248,0-10.956-7.019-10.956-14.379
	c0-7.136,4.107-14.61,11.927-14.61c7.02,0,9.473,6.506,10.1,12.27l-13.695,4.678c0.855,2.738,2.568,6.105,6.162,6.105
	c2.854,0,4.166-1.767,5.766-3.934L131.764,35.803z M121.264,26.9c1.997-0.57,3.082-1.428,3.082-3.253
	c0-3.537-0.912-5.933-3.768-5.933c-3.365,0-3.65,5.135-3.65,7.53c0,0.972,0.057,1.942,0.17,2.855L121.264,26.9z"/>
<path fill="#222222" d="M130.572,18.387l9.017-3.595c1.198,2.855,1.712,5.936,1.999,9.017h0.111c0.856-3.022,2.74-9.017,7.248-9.017
	c2.625,0,4.166,1.542,4.166,4.28c0,1.943-1.254,4.052-4.508,4.052c-1.541,0-2.283-0.283-3.082-0.456
	c-1.255,0.857-3.023,4.339-3.023,11.699c0,2.227,0.027,4.052,0.027,5.649l2.711,0.346v2.624h-12.896v-2.624l2.682-0.346V28.316
	c0-8.273-2.637-7.302-4.451-7.302V18.387z"/>
<path fill="#222222" d="M153.357,12.892c0-1.221,0.996-2.22,2.232-2.22c1.23,0,2.221,1,2.221,2.22c0,1.237-0.99,2.233-2.221,2.233
	C154.354,15.125,153.357,14.128,153.357,12.892z M157.542,12.892c0-1.076-0.872-1.952-1.952-1.952c-1.085,0-1.959,0.875-1.959,1.952
	c0,1.092,0.874,1.968,1.959,1.968C156.67,14.859,157.542,13.983,157.542,12.892z M156.697,14.141h-0.361l-0.712-1.15h-0.558v1.15
	h-0.305v-2.488h1.084c0.21,0,0.42,0.012,0.607,0.12c0.186,0.108,0.279,0.327,0.279,0.537c0,0.49-0.344,0.672-0.787,0.682
	L156.697,14.141z M155.531,12.753c0.35,0,0.892,0.059,0.892-0.447c0-0.388-0.338-0.432-0.647-0.432h-0.709v0.879H155.531z"/>
</svg>
