<?xml version="1.0" encoding="utf-8"?>
<!-- Generator: Adobe Illustrator 15.0.0, SVG Export Plug-In . SVG Version: 6.00 Build 0)  -->
<!DOCTYPE svg PUBLIC "-//W3C//DTD SVG 1.1//EN" "http://www.w3.org/Graphics/SVG/1.1/DTD/svg11.dtd">
<svg version="1.1" id="Layer_1" xmlns="http://www.w3.org/2000/svg" xmlns:xlink="http://www.w3.org/1999/xlink" x="0px" y="0px"
	 width="46px" height="16.179px" viewBox="0 0 46 16.179" enable-background="new 0 0 46 16.179" xml:space="preserve">
<g>
	<path fill="#595959" d="M5.875,12.374c1.924,0.134,1.939-0.667,1.891-2.33V5.97C7.75,4.506,7.278,4.423,5.875,4.389V12.374z
		 M3.002,14.62V2.144h3.117c1.044,0,2.3,0.033,3.23,0.581c1.109,0.666,1.29,1.88,1.29,3.078v5.54
		c-0.018,1.248-0.393,2.163-1.225,2.694C8.663,14.535,7.75,14.62,6.87,14.62H3.002z"/>
	<path fill="#595959" d="M16.425,10.893c0,0.716-0.064,1.779-0.996,1.779c-0.931,0-1.045-1.063-1.045-1.779V5.771
		c0-0.766,0.114-1.682,1.029-1.682c0.948,0,1.012,0.916,1.012,1.682V10.893z M30.479,9.745v1.13c0,0.768-0.081,1.797-1.061,1.797
		c-0.75,0-1.027-0.414-1.027-1.114l0.015-6.17c0-0.816,0.214-1.314,1.11-1.299c0.538,0,0.915,0.549,0.915,1.614v0.8h2.871V5.452
		c0-2.543-1.468-3.607-3.916-3.607c-1.524,0-2.573,0.429-3.188,1.314V2.144h-7.441v1.234c-0.612-0.996-1.736-1.533-3.327-1.533
		c-2.513,0-3.917,1.33-3.917,3.726v5.073c0,2.811,1.012,4.274,3.917,4.274c2.904,0,3.866-1.464,3.866-4.274V5.57
		c0-0.331-0.028-0.641-0.079-0.933h1.794v9.982h2.87V4.638h1.751c-0.062,0.359-0.097,0.75-0.097,1.183v5.123
		c0,2.544,1.028,3.975,3.672,3.975c2.936,0,4.144-1.495,4.144-3.644V9.745H30.479z"/>
	<path fill="#595959" d="M38.944,5.771c0-0.766-0.064-1.682-1.012-1.682c-0.913,0-1.026,0.916-1.026,1.682v5.122
		c0,0.716,0.113,1.779,1.043,1.779c0.931,0,0.995-1.063,0.995-1.779V5.771z M41.817,10.644c0,2.811-0.963,4.274-3.868,4.274
		c-2.904,0-3.916-1.464-3.916-4.274V5.57c0-2.396,1.403-3.726,3.916-3.726c2.515,0,3.868,1.33,3.868,3.726V10.644z"/>
	<path fill="#595959" d="M42.214,2.689c0.136,0,0.255-0.01,0.255-0.171c0-0.13-0.117-0.154-0.227-0.154h-0.217v0.325H42.214z
		 M42.025,3.277h-0.158V2.231h0.398c0.245,0,0.369,0.092,0.369,0.295c0,0.19-0.117,0.271-0.272,0.291l0.299,0.46h-0.178
		l-0.275-0.454h-0.183V3.277z M42.218,3.51c0.409,0,0.732-0.321,0.732-0.758c0-0.429-0.323-0.753-0.732-0.753
		c-0.415,0-0.739,0.324-0.739,0.753C41.479,3.188,41.803,3.51,42.218,3.51 M41.299,2.752c0-0.521,0.42-0.905,0.919-0.905
		c0.492,0,0.916,0.385,0.916,0.905c0,0.525-0.424,0.909-0.916,0.909C41.719,3.661,41.299,3.277,41.299,2.752"/>
</g>
</svg>
