<?xml version="1.0" encoding="utf-8"?>
<!-- Generator: Adobe Illustrator 15.0.0, SVG Export Plug-In . SVG Version: 6.00 Build 0)  -->
<!DOCTYPE svg PUBLIC "-//W3C//DTD SVG 1.1//EN" "http://www.w3.org/Graphics/SVG/1.1/DTD/svg11.dtd">
<svg version="1.1" id="Layer_1" xmlns="http://www.w3.org/2000/svg" xmlns:xlink="http://www.w3.org/1999/xlink" x="0px" y="0px"
	 width="180px" height="45px" viewBox="0 0 180 45" enable-background="new 0 0 180 45" xml:space="preserve">
<g>
	<path fill="#494949" d="M133.318,40.98l-0.006-0.004c0,0-57.495,0.002-57.605,0.002c-0.354,0-0.645,0.286-0.645,0.642v2.733
		c0,0.356,0.291,0.644,0.645,0.644c0.155,0,57.387,0.004,57.505,0.004c0.356,0,0.646-0.29,0.646-0.646
		c0-0.082,0.008-2.734,0.008-2.74C133.866,41.294,133.625,41.028,133.318,40.98"/>
	<path fill="#494949" d="M25.042,39.895c-0.597,0-0.701,0.471-0.701,0.699c0,0.23,0.012,3.476,0.012,3.719
		c0,0.238,0.118,0.694,0.638,0.694h15c0.562,0,0.948-0.299,0.948-0.916c0-0.618,0.008-3.086,0.008-3.48
		c0-0.398-0.237-0.728-0.815-0.728c-0.58,0-3.457-0.003-3.849-0.003c-0.275,0-0.365-0.255-0.283-0.433
		c0.076-0.18,3.237-6.758,3.191-6.667c-0.043,0.09,0.145-0.163,0.276-0.163c0.13,0,13.987-0.008,14.171-0.008
		c0.146,0,0.306,0.102,0.358,0.18c0.057,0.104,3.182,6.523,3.243,6.688c0.063,0.172-0.073,0.385-0.269,0.385
		c-0.2,0-2.721,0.021-3.684,0.021c-0.595,0-0.701,0.464-0.701,0.699c0,0.229-0.004,3.486-0.004,3.729
		c0,0.239,0.117,0.695,0.641,0.695c0.585,0,18.35-0.002,18.885-0.002c0.565,0,0.663-0.51,0.663-0.702
		c0-0.188,0.006-3.45,0.006-3.811c0-0.363-0.285-0.609-0.663-0.609c-0.377,0-2.331,0-2.894,0c-0.562,0-0.754-0.301-0.91-0.545
		c-0.155-0.244-18.526-36.97-18.526-36.97s-0.16-0.237-0.299-0.237c-0.134,0-1.479-0.007-1.628-0.007s-0.369,0.153-0.416,0.244
		c-0.046,0.09-19.028,37.525-19.028,37.525S26.001,39.895,25.042,39.895 M51.116,27.086c0,0.141-0.114,0.256-0.254,0.256h-8.545
		c-0.141,0-0.254-0.115-0.254-0.256c0-0.105,0.117-0.287,0.117-0.287s4.086-8.442,4.163-8.574c0.008-0.016,0.023-0.027,0.038-0.043
		c0.043-0.079,0.125-0.135,0.221-0.135c0.124,0,0.224,0.087,0.246,0.206c0.252,0.51,3.935,8.091,4.219,8.683
		C51.096,26.979,51.116,27.029,51.116,27.086"/>
	<path fill="#494949" d="M71.431,16.891c-0.452,0-0.816,0.366-0.816,0.815v1.609c0,0.45,0.365,0.812,0.816,0.812h2.765l0.003,13.477
		c0,0.179-0.215,0.379-0.469,0.379h-2.321c-0.453,0-0.816,0.365-0.816,0.814v1.609c0,0.449,0.363,0.813,0.816,0.813h11.867
		c0.448,0,0.814-0.364,0.814-0.813v-1.609c0-0.449-0.366-0.814-0.814-0.814h-2.234c-0.234,0-0.456-0.182-0.456-0.391
		c0-0.217,0.005-2.809,0.005-2.961c0-0.156,0.188-0.285,0.307-0.285c0.12,0,7.815-0.069,8.438-0.069
		c2.043,0,7.509-1.304,7.509-6.302c0-5.416-5.024-7.077-7.634-7.063C87.388,16.91,71.431,16.891,71.431,16.891 M82.082,26.93
		c0,0-0.854,0-1.088-0.055c-0.231-0.059-0.404-0.143-0.404-0.293c0-0.146-0.002-5.943-0.002-6.143s0.163-0.306,0.37-0.306
		c0.206,0,4.451-0.006,5.231-0.006c0.779,0,2.838,0.918,2.838,3.154c0,3.356-3.451,3.611-3.451,3.611l-1.021,0.021h-2.446
		L82.082,26.93z"/>
	<path fill="#494949" d="M115.15,33.982h-5.799c-0.236,0-0.461-0.183-0.461-0.392c0-0.217,0.011-4.076,0.011-4.233
		c0-0.154,0.187-0.285,0.306-0.285c0.049,0,2.594-0.006,2.594-0.006c0.439,0,0.572,0.191,0.592,0.474
		c0.017,0.288,0.028,0.796,0.028,0.796c0.017,0.583,0.299,0.795,0.962,0.795h0.975c0.853,0,1.003-0.332,1.003-1.097
		c0-0.297,0-5.517-0.031-6.041c-0.029-0.524-0.252-0.656-0.718-0.656h-1.361c-0.616,0-0.797,0.372-0.812,0.718s0,0.524-0.027,1.037
		c-0.035,0.505-0.48,0.581-0.915,0.581h-2.144c-0.662,0-0.722-0.494-0.722-0.899c0-0.402-0.011-3.104-0.011-3.609
		c0-0.512,0.322-0.663,0.552-0.663h4.946c1.484,0,1.918,1.212,2.384,1.905c0.464,0.687,0.892,2.183,0.892,2.183
		c0.123,0.414,0.549,0.556,0.967,0.454c0.422-0.112,1.455-0.506,1.455-0.506c0.316-0.184,0.448-0.319,0.316-0.947
		c-0.193-0.896-1.263-5.8-1.263-5.8c-0.181-0.675-0.493-0.888-1.169-0.888c-0.674,0-17.958-0.013-17.958-0.013
		c-0.453,0-0.818,0.366-0.818,0.815v1.609c0,0.45,0.365,0.812,0.818,0.812h2.764l0.003,13.478c0,0.178-0.215,0.379-0.468,0.379
		h-2.32c-0.452,0-0.814,0.364-0.814,0.813v1.609c0,0.448,0.362,0.813,0.814,0.813h18.586c0.968,0,1.279-0.251,1.572-0.813
		c0,0,2.113-4.788,2.299-5.195c0.181-0.401,0.181-0.608-0.097-0.938c-0.268-0.338-0.739-0.812-0.895-0.97
		c-0.156-0.157-0.584-0.25-0.832,0.045c-0.25,0.293-2.246,2.876-2.811,3.484C116.98,33.439,116.291,33.982,115.15,33.982"/>
	<path fill="#494949" d="M138.014,26.816l5.342-6.208c0.324-0.432,0.63-0.462,1.058-0.462h1.096c0.447,0,0.812-0.365,0.812-0.816
		v-1.608c0-0.449-0.365-0.812-0.812-0.812h-6.938c-0.452,0-0.813,0.362-0.813,0.812v1.644c0,0.45,0.356,0.819,1.057,0.819
		l-2.97,3.375c-0.235,0.236-0.46,0.125-0.583-0.031c-0.125-0.162-2.308-2.88-2.308-2.88c-0.233-0.326,0.192-0.487,0.483-0.487h0.925
		c0.45,0,0.815-0.366,0.815-0.819v-1.604c0-0.446-0.365-0.824-0.815-0.824l-11.134-0.007c-0.453,0-0.815,0.363-0.815,0.813v1.606
		c0,0.453,0.362,0.814,0.815,0.814h0.55c0.639,0,0.727,0.031,1.055,0.462l6.361,8.117c0,0-3.993,4.65-4.272,4.967
		c-0.221,0.264-0.458,0.312-1.301,0.312h-2.416c-0.447,0-0.812,0.361-0.812,0.811v1.607c0,0.453,0.365,0.816,0.812,0.816h9.724
		c0.448,0,0.814-0.363,0.814-0.816v-1.607c0-0.448-0.366-0.811-0.814-0.811h-0.364c-0.273,0-0.541-0.336-0.312-0.604l1.369-1.6
		l6.83,8.7c0.091,0.138,0.111,0.479-0.397,0.479c-0.507,0-1.438,0.002-1.472,0.002c-0.355,0-0.643,0.291-0.643,0.643v2.734
		c0,0.354,0.287,0.643,0.643,0.643c0.155,0,14.297,0.004,14.415,0.004c0.354,0,0.644-0.288,0.644-0.646
		c0-0.08,0.006-2.733,0.006-2.739c0-0.32-0.237-0.584-0.545-0.634l-0.008-0.004l-2.656-0.039c-0.686,0-1.293-0.101-1.662-0.573
		L138.014,26.816z"/>
</g>
<path fill="#E05206" d="M133.318,38.996l-0.006-0.004c0,0-57.495,0.002-57.605,0.002c-0.354,0-0.645,0.287-0.645,0.643v2.734
	c0,0.355,0.291,0.642,0.645,0.642c0.155,0,57.387,0.005,57.505,0.005c0.356,0,0.646-0.289,0.646-0.646
	c0-0.081,0.008-2.734,0.008-2.74C133.866,39.311,133.625,39.045,133.318,38.996"/>
<path fill="#E05206" d="M25.042,37.909c-0.597,0-0.701,0.471-0.701,0.702c0,0.229,0.012,3.475,0.012,3.716
	c0,0.239,0.118,0.694,0.638,0.694h15c0.562,0,0.948-0.299,0.948-0.914c0-0.617,0.008-3.086,0.008-3.48
	c0-0.4-0.237-0.729-0.815-0.729c-0.58,0-3.457-0.004-3.849-0.004c-0.275,0-0.365-0.255-0.283-0.432
	c0.076-0.18,3.237-6.759,3.191-6.668c-0.043,0.091,0.145-0.163,0.276-0.163c0.13,0,13.987-0.006,14.171-0.006
	c0.146,0,0.306,0.101,0.358,0.179c0.057,0.104,3.182,6.523,3.243,6.688c0.063,0.171-0.073,0.385-0.269,0.385
	c-0.2,0-2.721,0.021-3.684,0.021c-0.595,0-0.701,0.465-0.701,0.699c0,0.229-0.004,3.487-0.004,3.729
	c0,0.239,0.117,0.694,0.641,0.694c0.585,0,18.35-0.002,18.885-0.002c0.565,0,0.663-0.509,0.663-0.701
	c0-0.188,0.006-3.45,0.006-3.812c0-0.362-0.285-0.608-0.663-0.608c-0.377,0-2.331,0-2.894,0c-0.562,0-0.754-0.301-0.91-0.545
	C68.156,37.109,49.785,0.383,49.785,0.383s-0.16-0.236-0.299-0.236c-0.134,0-1.479-0.007-1.628-0.007s-0.369,0.153-0.416,0.243
	c-0.046,0.091-19.028,37.525-19.028,37.525S26.001,37.909,25.042,37.909 M51.116,25.104c0,0.14-0.114,0.257-0.254,0.257h-8.545
	c-0.141,0-0.254-0.117-0.254-0.257c0-0.106,0.117-0.287,0.117-0.287s4.086-8.443,4.163-8.575c0.008-0.015,0.023-0.027,0.038-0.043
	c0.043-0.079,0.125-0.134,0.221-0.134c0.124,0,0.224,0.087,0.246,0.206c0.252,0.509,3.935,8.09,4.219,8.683
	C51.096,24.996,51.116,25.047,51.116,25.104"/>
<path fill="#E05206" d="M71.431,14.907c-0.452,0-0.816,0.366-0.816,0.813v1.609c0,0.45,0.365,0.812,0.816,0.812h2.765l0.003,13.477
	c0,0.179-0.215,0.379-0.469,0.379h-2.321c-0.453,0-0.816,0.367-0.816,0.814v1.608c0,0.45,0.363,0.814,0.816,0.814h11.867
	c0.448,0,0.814-0.364,0.814-0.814v-1.608c0-0.447-0.366-0.814-0.814-0.814h-2.234c-0.234,0-0.456-0.182-0.456-0.391
	c0-0.218,0.005-2.809,0.005-2.961c0-0.156,0.188-0.285,0.307-0.285c0.12,0,7.815-0.07,8.438-0.07c2.043,0,7.509-1.303,7.509-6.3
	c0-5.416-5.024-7.077-7.634-7.064C87.388,14.927,71.431,14.907,71.431,14.907 M82.082,24.946c0,0-0.854,0-1.088-0.057
	c-0.231-0.059-0.404-0.141-0.404-0.293c0-0.145-0.002-5.942-0.002-6.142s0.163-0.307,0.37-0.307c0.206,0,4.451-0.007,5.231-0.007
	c0.779,0,2.838,0.919,2.838,3.155c0,3.357-3.451,3.61-3.451,3.61l-1.021,0.021h-2.446L82.082,24.946z"/>
<path fill="#E05206" d="M115.15,31.998h-5.799c-0.236,0-0.461-0.182-0.461-0.391c0-0.218,0.011-4.075,0.011-4.234
	c0-0.153,0.187-0.285,0.306-0.285c0.049,0,2.594-0.006,2.594-0.006c0.439,0,0.572,0.193,0.592,0.475
	c0.017,0.287,0.028,0.795,0.028,0.795c0.017,0.584,0.299,0.797,0.962,0.797h0.975c0.853,0,1.003-0.332,1.003-1.098
	c0-0.297,0-5.516-0.031-6.041c-0.029-0.523-0.252-0.656-0.718-0.656h-1.361c-0.616,0-0.797,0.372-0.812,0.718
	c-0.016,0.343,0,0.523-0.027,1.037c-0.035,0.506-0.48,0.58-0.915,0.58h-2.144c-0.662,0-0.722-0.493-0.722-0.899
	c0-0.403-0.011-3.104-0.011-3.61c0-0.512,0.322-0.663,0.552-0.663h4.946c1.484,0,1.918,1.212,2.384,1.906
	c0.464,0.688,0.892,2.183,0.892,2.183c0.123,0.414,0.549,0.555,0.967,0.453c0.422-0.111,1.455-0.505,1.455-0.505
	c0.316-0.183,0.448-0.32,0.316-0.948c-0.193-0.896-1.263-5.8-1.263-5.8c-0.181-0.675-0.493-0.887-1.169-0.887
	c-0.674,0-17.958-0.013-17.958-0.013c-0.453,0-0.818,0.366-0.818,0.813v1.609c0,0.45,0.365,0.812,0.818,0.812h2.764l0.003,13.477
	c0,0.179-0.215,0.379-0.468,0.379h-2.32c-0.452,0-0.814,0.367-0.814,0.813v1.609c0,0.45,0.362,0.814,0.814,0.814h18.586
	c0.968,0,1.279-0.252,1.572-0.814c0,0,2.113-4.787,2.299-5.195c0.181-0.399,0.181-0.608-0.097-0.938
	c-0.268-0.339-0.739-0.812-0.895-0.971c-0.155-0.154-0.584-0.25-0.832,0.045c-0.25,0.294-2.246,2.876-2.811,3.484
	C116.98,31.455,116.291,31.998,115.15,31.998"/>
<path fill="#E05206" d="M138.014,24.832l5.342-6.208c0.324-0.431,0.63-0.462,1.058-0.462h1.096c0.447,0,0.812-0.365,0.812-0.815
	v-1.607c0-0.45-0.365-0.812-0.812-0.812h-6.938c-0.452,0-0.813,0.362-0.813,0.812v1.643c0,0.449,0.356,0.819,1.057,0.819
	l-2.97,3.373c-0.235,0.237-0.46,0.125-0.583-0.03c-0.125-0.163-2.308-2.881-2.308-2.881c-0.233-0.325,0.192-0.486,0.483-0.486h0.925
	c0.45,0,0.815-0.365,0.815-0.818v-1.605c0-0.446-0.365-0.824-0.815-0.824l-11.134-0.007c-0.453,0-0.815,0.362-0.815,0.814v1.605
	c0,0.452,0.362,0.814,0.815,0.814h0.55c0.639,0,0.727,0.032,1.055,0.463l6.361,8.117c0,0-3.993,4.648-4.272,4.966
	c-0.221,0.264-0.458,0.312-1.301,0.312h-2.416c-0.447,0-0.812,0.363-0.812,0.812v1.607c0,0.453,0.365,0.817,0.812,0.817h9.724
	c0.448,0,0.814-0.364,0.814-0.817v-1.607c0-0.447-0.366-0.812-0.814-0.812h-0.364c-0.273,0-0.541-0.335-0.312-0.604l1.369-1.599
	l6.83,8.7c0.091,0.138,0.111,0.479-0.397,0.479c-0.507,0-1.438,0.002-1.472,0.002c-0.355,0-0.643,0.291-0.643,0.643v2.734
	c0,0.354,0.287,0.642,0.643,0.642c0.155,0,14.297,0.005,14.415,0.005c0.354,0,0.644-0.287,0.644-0.646
	c0-0.081,0.006-2.734,0.006-2.74c0-0.32-0.237-0.585-0.545-0.635l-0.008-0.004l-2.656-0.038c-0.686,0-1.293-0.101-1.662-0.574
	L138.014,24.832z"/>
<path fill="#E05206" d="M147.286,24.857c0.358,0,0.681-0.021,0.681-0.455c0-0.344-0.314-0.412-0.611-0.412h-0.582v0.867H147.286z
	 M146.773,26.438h-0.426V23.63h1.067c0.662,0,0.995,0.247,0.995,0.8c0,0.499-0.315,0.721-0.729,0.771l0.8,1.236h-0.477l-0.74-1.219
	h-0.49V26.438z M147.288,27.066c1.104,0,1.972-0.865,1.972-2.036c0-1.152-0.865-2.027-1.972-2.027c-1.11,0-1.985,0.875-1.985,2.027
	C145.303,26.201,146.178,27.066,147.288,27.066 M144.816,25.03c0-1.399,1.131-2.435,2.472-2.435c1.328,0,2.462,1.034,2.462,2.435
	c0,1.407-1.134,2.441-2.462,2.441C145.947,27.473,144.816,26.438,144.816,25.03"/>
</svg>
