<?xml version="1.0" encoding="utf-8"?>
<!-- Generator: Adobe Illustrator 15.0.0, SVG Export Plug-In . SVG Version: 6.00 Build 0)  -->
<!DOCTYPE svg PUBLIC "-//W3C//DTD SVG 1.1//EN" "http://www.w3.org/Graphics/SVG/1.1/DTD/svg11.dtd">
<svg version="1.1" id="Layer_1" xmlns="http://www.w3.org/2000/svg" xmlns:xlink="http://www.w3.org/1999/xlink" x="0px" y="0px"
	 width="180px" height="45px" viewBox="0 0 180 45" enable-background="new 0 0 180 45" xml:space="preserve">
<path fill="#222222" d="M49.53,10.408h1.531c1.764,0,2.76-0.751,2.76-2.687c0-1.652-0.893-2.484-2.553-2.484H49.53V10.408z
	 M45.852,2.573h6.795c3.011,0,4.847,1.556,4.847,4.626c0,2.38-0.966,3.989-3.035,4.416v0.052c2.5,0.327,2.884,1.682,2.937,5.472
	c0.021,1.885,0.125,2.868,0.814,3.213v0.155h-3.983c-0.354-0.5-0.432-1.182-0.458-1.88l-0.104-3.449
	c-0.052-1.402-0.691-2.256-2.166-2.256h-1.97v7.585h-3.678V2.573z"/>
<path fill="#222222" d="M66.304,12.219c-0.073-2.062-0.332-3.217-1.785-3.217c-1.405,0-1.815,1.431-1.815,2.691v0.526H66.304z
	 M62.703,14.276v1.083c0,1.582,0.44,3.139,1.738,3.139c1.173,0,1.66-0.879,1.862-2.536h3.17c-0.13,3.14-1.665,4.899-4.977,4.899
	c-5.109,0-5.317-3.871-5.317-7.235c0-3.613,0.716-6.986,5.468-6.986c4.109,0,5.027,2.717,5.027,6.861v0.776H62.703z"/>
<path fill="#222222" d="M77.873,11.865c0-1.307-0.259-2.708-1.582-2.708c-1.738,0-2.023,1.505-2.023,4.618
	c0,3.343,0.311,4.722,1.898,4.722c1.173,0,1.707-0.983,1.707-3.166h3.372c0,3.544-1.509,5.528-5.235,5.528
	c-3.527,0-5.26-1.685-5.26-7.11c0-5.55,2.32-7.107,5.562-7.107c3.248,0,4.934,2.036,4.934,5.223H77.873z"/>
<path fill="#222222" d="M87.782,18.497c1.428,0,1.885-1.379,1.885-4.747c0-3.369-0.457-4.748-1.885-4.748
	c-1.742,0-1.893,1.984-1.893,4.748S86.04,18.497,87.782,18.497 M87.782,6.639c4.233-0.069,5.407,2.415,5.407,7.111
	c0,4.618-1.376,7.11-5.407,7.11c-4.243,0.069-5.417-2.415-5.417-7.11C82.366,9.127,83.746,6.639,87.782,6.639"/>
<path fill="#222222" d="M101.874,18.924h-0.052c-0.742,1.333-2.014,1.936-3.497,1.936c-2.194,0-3.496-1.181-3.496-3.846V6.992h3.522
	v9.314c0,1.363,0.457,1.889,1.504,1.889c1.2,0,1.863-0.729,1.863-2.234V6.992h3.527v13.515h-3.372V18.924z"/>
<rect x="107.467" y="2.573" fill="#222222" width="3.522" height="17.934"/>
<g>
	<path fill="#222222" d="M119.825,12.219c-0.077-2.062-0.332-3.217-1.788-3.217c-1.406,0-1.812,1.431-1.812,2.691v0.526H119.825z
		 M116.226,14.276v1.083c0,1.582,0.43,3.139,1.737,3.139c1.173,0,1.655-0.879,1.862-2.536h3.165c-0.129,3.14-1.66,4.899-4.98,4.899
		c-5.104,0-5.308-3.871-5.308-7.235c0-3.613,0.712-6.986,5.463-6.986c4.11,0,5.028,2.717,5.028,6.861v0.776H116.226z"/>
	<path fill="#222222" d="M127.354,16.087v0.452c0,1.178,0.639,1.958,1.841,1.958c1.07,0,1.787-0.531,1.787-1.608
		c0-0.879-0.588-1.28-1.278-1.53l-2.479-0.879c-1.939-0.683-2.932-1.865-2.932-3.77c0-2.233,1.432-4.071,5.054-4.071
		c3.19,0,4.7,1.407,4.7,3.848v0.551h-3.166c0-1.354-0.408-2.035-1.561-2.035c-0.893,0-1.655,0.5-1.655,1.458
		c0,0.65,0.354,1.207,1.53,1.582l2.117,0.703c2.222,0.724,3.04,1.837,3.04,3.868c0,2.837-2.143,4.248-5.109,4.248
		c-3.958,0-5.055-1.707-5.055-4.294v-0.479H127.354z"/>
	<path fill="#222222" d="M7.426,39.121c2.173,0,2.527-1.827,2.527-6.652c0-4.797-0.354-6.658-2.527-6.658
		c-2.17,0-2.525,1.861-2.525,6.658C4.9,37.294,5.256,39.121,7.426,39.121 M12.019,43.646l-2.168-2.212
		c-0.331,0.125-0.714,0.225-1.124,0.275c-0.384,0.052-0.816,0.078-1.301,0.078c-5.517,0-6.204-3.869-6.204-9.318
		c0-5.45,0.688-9.323,6.204-9.323s6.206,3.873,6.206,9.323c0,3.035-0.207,5.57-1.406,7.279l1.966,1.961L12.019,43.646z"/>
	<path fill="#222222" d="M22.488,39.851h-0.047c-0.742,1.332-2.019,1.932-3.498,1.932c-2.2,0-3.5-1.177-3.5-3.842V27.924h3.522
		v9.313c0,1.359,0.461,1.884,1.505,1.884c1.203,0,1.867-0.727,1.867-2.233v-8.964h3.523v13.51h-3.373V39.851z"/>
	<path fill="#222222" d="M34.365,34.677c-0.488,0.353-1.07,0.577-1.51,0.676c-1.431,0.303-1.992,0.984-1.992,2.191
		c0,1.026,0.389,1.881,1.328,1.881c0.945,0,2.174-0.604,2.174-2.089V34.677z M27.931,32.062v-0.323c0-3.116,2.169-4.169,4.821-4.169
		c4.19,0,4.984,1.706,4.984,4.144v7.106c0,1.255,0.078,1.837,0.431,2.613h-3.371c-0.229-0.428-0.328-0.953-0.431-1.406h-0.052
		c-0.815,1.406-1.811,1.76-3.497,1.76c-2.449,0-3.321-2.062-3.321-3.869c0-2.538,1.048-3.564,3.471-4.221l1.992-0.525
		c1.048-0.277,1.407-0.678,1.407-1.583c0-1.034-0.461-1.655-1.635-1.655c-1.073,0-1.635,0.697-1.635,1.758v0.371H27.931z"/>
	<path fill="#222222" d="M46.593,32.792c0-1.308-0.254-2.708-1.586-2.708c-1.733,0-2.014,1.505-2.014,4.618
		c0,3.337,0.307,4.723,1.894,4.723c1.173,0,1.707-0.984,1.707-3.161h3.373c0,3.535-1.509,5.523-5.236,5.523
		c-3.526,0-5.26-1.687-5.26-7.11c0-5.546,2.319-7.106,5.567-7.106c3.242,0,4.929,2.034,4.929,5.222H46.593z"/>
</g>
<polygon fill="#222222" points="54.942,23.499 54.942,32.969 54.993,32.969 58.542,27.924 62.423,27.924 58.469,33.245 
	63.014,41.434 59.129,41.434 56.192,35.88 54.942,37.487 54.942,41.434 51.418,41.434 51.418,23.499 "/>
<g>
	<path fill="#222222" d="M70.163,33.145c-0.078-2.057-0.337-3.211-1.793-3.211c-1.401,0-1.807,1.431-1.807,2.682v0.529H70.163z
		 M66.562,35.202v1.083c0,1.582,0.436,3.14,1.733,3.14c1.178,0,1.66-0.882,1.867-2.537h3.165c-0.129,3.14-1.655,4.899-4.98,4.899
		c-5.109,0-5.308-3.869-5.308-7.236c0-3.617,0.712-6.98,5.463-6.98c4.11,0,5.028,2.713,5.028,6.854v0.777H66.562z"/>
	<path fill="#222222" d="M74.73,27.924h3.373v1.578h0.047c0.745-1.328,2.019-1.932,3.501-1.932c2.195,0,3.502,1.182,3.502,3.842
		v10.021h-3.527v-9.319c0-1.354-0.457-1.879-1.51-1.879c-1.198,0-1.863,0.724-1.863,2.233v8.965H74.73V27.924z"/>
	<path fill="#222222" d="M92.629,39.121c1.535,0,1.842-1.504,1.842-4.444c0-2.938-0.307-4.441-1.842-4.441
		c-1.553,0-1.862,1.504-1.862,4.441C90.767,37.617,91.076,39.121,92.629,39.121 M87.244,23.499h3.522v5.675h0.052
		c0.74-1.077,1.635-1.604,2.967-1.604c2.88,0,4.208,2.083,4.208,7.106c0,5.022-1.328,7.11-4.208,7.11
		c-1.386,0-2.355-0.531-3.123-1.785h-0.051v1.432h-3.367V23.499z"/>
	<path fill="#222222" d="M106.803,39.851h-0.057c-0.736,1.332-2.012,1.932-3.496,1.932c-2.194,0-3.497-1.177-3.497-3.842V27.924
		h3.522v9.313c0,1.359,0.462,1.884,1.51,1.884c1.198,0,1.862-0.727,1.862-2.233v-8.964h3.522v13.51h-3.367V39.851z"/>
	<path fill="#222222" d="M114.844,37.013v0.454c0,1.178,0.636,1.958,1.843,1.958c1.069,0,1.78-0.531,1.78-1.604
		c0-0.881-0.581-1.286-1.271-1.535l-2.479-0.88c-1.94-0.677-2.937-1.858-2.937-3.769c0-2.233,1.432-4.066,5.055-4.066
		c3.193,0,4.703,1.404,4.703,3.842v0.552h-3.169c0-1.354-0.405-2.03-1.557-2.03c-0.892,0-1.66,0.5-1.66,1.452
		c0,0.657,0.357,1.208,1.535,1.583l2.117,0.703c2.216,0.729,3.04,1.832,3.04,3.872c0,2.838-2.144,4.243-5.115,4.243
		c-3.953,0-5.053-1.712-5.053-4.295v-0.479H114.844z"/>
	<path fill="#222222" d="M123.344,23.499h3.527v5.805h0.048c0.663-1.157,1.867-1.733,3.351-1.733c2.19,0,3.497,1.182,3.497,3.842
		v10.021h-3.527v-9.319c0-1.354-0.457-1.879-1.505-1.879c-1.198,0-1.863,0.724-1.863,2.233v8.965h-3.527V23.499z"/>
	<path fill="#222222" d="M133.883,25.217c0.268,0,0.514-0.018,0.514-0.338c0-0.258-0.242-0.301-0.462-0.301h-0.437v0.639H133.883z
		 M133.498,26.389h-0.318V24.31h0.803c0.5,0,0.746,0.182,0.746,0.587c0,0.375-0.237,0.535-0.548,0.569l0.603,0.923h-0.357
		l-0.56-0.906h-0.368V26.389z M133.887,26.85c0.829,0,1.483-0.643,1.483-1.504c0-0.854-0.654-1.501-1.483-1.501
		c-0.841,0-1.496,0.646-1.496,1.501C132.391,26.207,133.046,26.85,133.887,26.85 M132.023,25.346c0-1.036,0.854-1.803,1.863-1.803
		c0.996,0,1.851,0.767,1.851,1.803c0,1.043-0.854,1.802-1.851,1.802C132.878,27.147,132.023,26.389,132.023,25.346"/>
	<path fill="#222222" d="M133.883,4.57c0.268,0,0.514-0.018,0.514-0.336c0-0.259-0.242-0.311-0.462-0.311h-0.437V4.57H133.883z
		 M133.498,5.737h-0.318V3.655h0.803c0.5,0,0.746,0.181,0.746,0.596c0,0.37-0.237,0.533-0.548,0.568l0.603,0.918h-0.357l-0.56-0.901
		h-0.368V5.737z M133.887,6.199c0.829,0,1.483-0.638,1.483-1.504c0-0.858-0.654-1.497-1.483-1.497c-0.841,0-1.496,0.638-1.496,1.497
		C132.391,5.561,133.046,6.199,133.887,6.199 M132.023,4.694c0-1.039,0.854-1.798,1.863-1.798c0.996,0,1.851,0.759,1.851,1.798
		c0,1.043-0.854,1.807-1.851,1.807C132.878,6.501,132.023,5.737,132.023,4.694"/>
	<path fill="#222222" d="M171.527,33.96L161.2,28.097c1.794-0.647,3.208-2.054,3.847-3.825l10.814,1.918
		C175.127,29.156,173.605,31.825,171.527,33.96 M148.824,35.991l7.111-8.266c0.302,0.164,0.62,0.293,0.943,0.404l12.958,7.353
		c-2.97,2.346-6.735,3.752-10.841,3.752C155.197,39.234,151.684,38.026,148.824,35.991 M142.339,26.94l10.331-5.864
		c-0.064,0.353-0.099,0.715-0.099,1.086c0,1.626,0.625,3.105,1.647,4.226l-7.081,8.23C144.899,32.559,143.223,29.92,142.339,26.94
		 M152.041,6.531l3.722,10.181c-0.341,0.194-0.665,0.418-0.962,0.672l-12.962,7.358c-0.13-0.837-0.198-1.7-0.198-2.58
		C141.641,15.173,145.918,9.166,152.041,6.531 M163.227,5.612v11.799c-1.134-0.971-2.609-1.57-4.23-1.57
		c-0.409,0-0.801,0.044-1.189,0.112l-3.714-10.159c1.554-0.449,3.201-0.699,4.903-0.699C160.454,5.095,161.872,5.277,163.227,5.612
		 M157.568,26.035l-1.275-0.725c-0.91-0.755-1.483-1.889-1.483-3.148s0.573-2.384,1.483-3.139l1.233-0.703l0.323-0.116
		c0.361-0.104,0.75-0.155,1.146-0.155c2.312,0,4.188,1.841,4.188,4.114c0,2.277-1.876,4.123-4.188,4.123
		C158.492,26.285,158.014,26.189,157.568,26.035 M176.348,22.163c0,0.647-0.043,1.285-0.111,1.905l-10.814-1.914
		c0-0.056-0.009-0.112-0.014-0.172V6.308C171.816,8.817,176.348,14.97,176.348,22.163 M158.996,2.896
		c-10.823,0-19.594,8.624-19.594,19.266c0,10.647,8.771,19.275,19.594,19.275c10.824,0,19.591-8.628,19.591-19.275
		C178.587,11.521,169.82,2.896,158.996,2.896"/>
	<path fill="#222222" d="M158.996,21.321c-0.475,0-0.854,0.375-0.854,0.841s0.379,0.845,0.854,0.845
		c0.471,0,0.854-0.379,0.854-0.845S159.467,21.321,158.996,21.321"/>
</g>
</svg>
