<svg width="26" height="26" viewBox="0 0 26 26" fill="none" xmlns="http://www.w3.org/2000/svg">
<path fill-rule="evenodd" clip-rule="evenodd" d="M2.5376 10.4814C2.5376 6.06317 6.11932 2.48145 10.5376 2.48145C14.9559 2.48145 18.5376 6.06317 18.5376 10.4814C18.5376 14.8997 14.9559 18.4814 10.5376 18.4814C6.11932 18.4814 2.5376 14.8997 2.5376 10.4814ZM10.5376 0.481445C5.01475 0.481445 0.537598 4.9586 0.537598 10.4814C0.537598 16.0043 5.01475 20.4814 10.5376 20.4814C12.893 20.4814 15.0583 19.6671 16.7671 18.3046L23.759 25.2284C24.1515 25.617 24.7846 25.6139 25.1732 25.2214C25.5618 24.829 25.5587 24.1958 25.1663 23.8072L18.1993 16.9082C19.6587 15.1702 20.5376 12.9285 20.5376 10.4814C20.5376 4.9586 16.0604 0.481445 10.5376 0.481445Z" fill="black"/>
</svg>
