<svg width="263" height="45" viewBox="0 0 263 45" fill="none" xmlns="http://www.w3.org/2000/svg">
<path d="M73.8704 22.9307H88.1912V17.509H79.7246V14.0965H87.5303V8.67486H79.7246V5.99591H88.1912V0.574219H73.8704V22.9307Z" fill="white"/>
<path d="M96.2802 0.574219L89.5447 22.9307H95.6822L96.8153 18.7847H102.921L104.054 22.9307H110.16L103.393 0.574219H96.2802ZM101.442 13.6501H98.2001L99.8368 7.62241L101.442 13.6501Z" fill="white"/>
<path d="M151.738 13.7457L148.622 0.574219H141.95L138.771 13.7776L135.686 0.574219H129.832L135.277 22.9307H142.201L145.254 8.99378L148.307 22.9307H155.232L160.614 0.574219H154.791L151.738 13.7457Z" fill="#1D201F"/>
<path d="M182.835 22.9307H197.124V17.509H188.689V14.0965H196.495V8.67486H188.689V5.99591H197.124V0.574219H182.835V22.9307Z" fill="#1D201F"/>
<path d="M212.61 13.1398L206.692 0.574219H199.957V22.9307H205.622V10.9392L211.508 22.9307H218.275V0.574219H212.61V13.1398Z" fill="#1D201F"/>
<path d="M250.127 0.574219V8.99378H244.556V0.574219H238.67V22.9307H244.556V14.4155H250.127V22.9307H256.013V0.574219H250.127Z" fill="#1D201F"/>
<path d="M61.2177 6.09158L70.8174 6.05969V0.574219H61.2492C56.1503 0.606111 53.0973 3.25317 53.0973 7.6543V15.8506C53.0973 20.2836 56.1818 22.9307 61.3436 22.9307C61.4065 22.9307 61.4695 22.9307 61.501 22.9307H70.8174V18.402V17.4452V13.8095V10.7797V9.05756H62.4137V13.7776H65.6556V17.4452H61.501C61.438 17.4452 61.3751 17.4452 61.3436 17.4452C59.6754 17.4452 58.983 16.7436 58.983 15.0214V8.38783C58.9515 7.01646 59.3607 6.12348 61.2177 6.09158Z" fill="white"/>
<path d="M228.661 6.09158L236.152 6.05969V0.574219H228.661C223.563 0.606111 220.51 3.25317 220.51 7.6543V15.8506C220.51 20.2836 223.594 22.9307 228.756 22.9307C228.819 22.9307 228.882 22.9307 228.913 22.9307H236.152V17.4452H228.913C228.85 17.4452 228.787 17.4452 228.756 17.4452C227.088 17.4452 226.395 16.7436 226.395 15.0214V8.38783C226.395 7.01646 226.804 6.12348 228.661 6.09158Z" fill="#1D201F"/>
<path d="M176.036 15.4679C178.617 14.3836 180.065 12.183 180.065 9.15324V7.6543C180.065 3.22128 176.98 0.574219 171.819 0.574219C171.756 0.574219 171.693 0.574219 171.661 0.574219H168.388H164.454H162.534V22.9307H168.388V16.2333V14.543L169.584 16.2333L174.242 22.9307H181.261L176.036 15.4679ZM171.661 6.05969C171.724 6.05969 171.787 6.05969 171.819 6.05969C173.487 6.05969 174.179 6.76132 174.179 8.45161V8.41972V8.4835V8.45161C174.179 9.79109 173.77 10.6841 171.913 10.716V10.7479H168.388V6.05969H171.661Z" fill="#1D201F"/>
<path d="M125.174 15.4679C127.755 14.3836 129.202 12.183 129.202 9.15324V7.6543C129.202 3.22128 126.118 0.574219 120.956 0.574219C120.893 0.574219 120.83 0.574219 120.799 0.574219H117.494H113.56H111.64V22.9307H117.494V16.2333V14.543L118.69 16.2333L123.348 22.9307H130.367L125.174 15.4679ZM120.799 6.05969C120.862 6.05969 120.925 6.05969 120.956 6.05969C122.624 6.05969 123.317 6.76132 123.317 8.45161V8.41972V8.4835V8.45161C123.317 9.79109 122.907 10.6841 121.05 10.716V10.7479H117.494V6.05969H120.799Z" fill="white"/>
<path d="M0.284231 13.2034C-0.345257 15.8824 0.126859 18.4018 1.60616 20.3473C2.73923 21.7824 4.91097 23.5046 8.93969 23.5046H32.514C36.9519 23.4727 40.1938 20.8894 41.4213 16.3607L41.4527 16.297L45.3241 0H12.1186C7.52334 0.0318923 3.74641 2.39192 2.07827 6.28278C1.795 6.98441 1.60616 7.59036 1.54321 7.8455L0.284231 13.2034Z" fill="#1D201F"/>
<path d="M35.8493 4.81592L33.5517 14.5112C33.4573 14.8939 33.1425 15.1809 32.7333 15.2128H31.0652L33.5517 4.84781H29.9321L27.666 14.4155C27.5715 14.7982 27.1939 15.2128 26.8162 15.2447H25.148L27.6345 4.8797H12.3065C9.56819 4.91159 7.45941 6.28296 6.57812 8.38785H23.1651L20.7101 18.7528H20.8675H24.2982H26.6273H30.2154H32.6389C33.8664 18.7528 36.0696 18.5296 36.9824 15.1171L39.4374 4.8797H35.8493V4.81592Z" fill="#EB8900"/>
<path d="M11.4567 11.0668L10.9216 13.2993H16.1464L15.8631 14.5112C15.7687 14.8939 15.4224 15.2128 15.0133 15.2128H9.91442C8.87577 15.2128 8.56103 14.7663 8.81282 13.7139L9.82 9.56787H6.20045L5.06737 14.3517C4.40641 17.0626 5.91718 18.6891 9.09609 18.6891H9.19051H9.88295H18.444L20.4269 10.3971H12.275C11.8658 10.3971 11.5511 10.6841 11.4567 11.0668Z" fill="#EB8900"/>
<path d="M260.608 0.574219C261.93 0.574219 263 1.65856 263 2.99803C263 4.33751 261.93 5.42184 260.608 5.42184C259.286 5.42184 258.216 4.33751 258.216 2.99803C258.216 1.65856 259.286 0.574219 260.608 0.574219ZM260.608 5.03914C261.709 5.03914 262.622 4.11426 262.622 2.99803C262.622 1.8818 261.709 0.956926 260.608 0.956926C259.506 0.956926 258.593 1.8818 258.593 2.99803C258.593 4.11426 259.506 5.03914 260.608 5.03914ZM261.174 3.31695L261.678 4.43318H261.08L260.639 3.38074H260.136V4.43318H259.569V1.56288H260.765C261.3 1.56288 261.678 1.84991 261.678 2.42397V2.55154C261.647 2.96614 261.458 3.18938 261.174 3.31695ZM260.608 2.07316H260.104V2.90235H260.608C260.891 2.90235 261.08 2.77479 261.08 2.51965V2.45586C261.08 2.20072 260.923 2.07316 260.608 2.07316Z" fill="#1D201F"/>
<path d="M134.207 31.1587H142.075L141.446 33.9971H136.725L136.095 36.8674H139.998L139.4 39.7377H135.466L134.364 44.7767H131.248L134.207 31.1587Z" fill="#1D201F"/>
<path d="M149.849 30.9038C153.721 30.9038 155.893 33.9655 155.043 37.8563C154.161 41.8429 150.668 44.9683 146.796 44.9683C142.925 44.9683 140.753 41.8429 141.635 37.8563C142.484 33.9655 145.978 30.9038 149.849 30.9038ZM147.457 41.9385C149.377 41.9385 151.297 40.1845 151.801 37.8563C152.273 35.6239 151.108 33.9336 149.188 33.9336C147.269 33.9336 145.349 35.6239 144.877 37.8563C144.373 40.1845 145.537 41.9385 147.457 41.9385Z" fill="#1D201F"/>
<path d="M158.536 31.1587H163.006C164.328 31.1587 164.926 31.2544 165.429 31.4776C166.751 32.0836 167.381 33.4549 166.94 35.4323C166.625 36.8674 165.65 38.462 164.202 39.1637V39.1955C164.202 39.1955 164.328 39.4507 164.517 40.0247L165.964 44.7767H162.471L161.18 40.1842H159.701L158.694 44.7767H155.546L158.536 31.1587ZM161.715 37.3139C162.723 37.3139 163.478 36.7079 163.698 35.6236C163.919 34.6031 163.698 33.9971 162.125 33.9971H161.054L160.33 37.3139H161.715Z" fill="#1D201F"/>
<path d="M176.571 30.9038C179.845 30.9038 181.104 32.7217 181.104 32.7217L179.058 35.2093C179.058 35.2093 178.019 33.9655 176.225 33.9655C173.55 33.9655 172.039 35.7833 171.598 37.8244C171.032 40.4077 172.385 41.9704 174.368 41.9704C175.879 41.9704 177.169 40.9818 177.169 40.9818L177.39 39.9293H175.564L176.194 37.0909H180.789L179.121 44.7769H176.508L176.603 44.3942C176.666 44.1072 176.76 43.8202 176.76 43.8202H176.729C176.729 43.8202 175.218 45.0002 173.109 45.0002C169.836 45.0002 167.381 42.385 168.357 37.9201C169.175 33.9655 172.669 30.9038 176.571 30.9038Z" fill="#1D201F"/>
<path d="M184.377 31.1587H192.403L191.805 33.9971H186.895L186.36 36.4847H190.263L189.633 39.355H185.73L185.164 41.9064H190.326L189.696 44.7767H181.418L184.377 31.1587Z" fill="#1D201F"/>
<path d="M202.947 41.9064H198.949L197.565 44.7767H194.323L201.656 31.1587H204.961L206.346 44.7767H203.104L202.947 41.9064ZM202.601 34.2522C202.601 34.2522 202.003 35.7512 201.562 36.6123L200.24 39.2593H202.758L202.632 36.6123C202.601 35.7512 202.632 34.2522 202.632 34.2522H202.601Z" fill="#1D201F"/>
<path d="M210.658 31.1587H213.774L212.609 36.6123H217.268L218.432 31.1587H221.58L218.621 44.7767H215.474L216.638 39.4507H211.98L210.815 44.7767H207.668L210.658 31.1587Z" fill="#1D201F"/>
<path d="M224.507 31.1587H232.533L231.935 33.9971H227.025L226.49 36.4847H230.393L229.763 39.355H225.86L225.294 41.9064H230.455L229.826 44.7767H221.548L224.507 31.1587Z" fill="#1D201F"/>
<path d="M239.048 41.9064H235.051L233.666 44.7767H230.424L237.758 31.1587H241.062L242.447 44.7767H239.205L239.048 41.9064ZM238.702 34.2522C238.702 34.2522 238.104 35.7512 237.663 36.6123L236.341 39.2593H238.859L238.733 36.6123C238.702 35.7512 238.733 34.2522 238.733 34.2522H238.702Z" fill="#1D201F"/>
<path d="M246.759 31.1587H251.323C255.352 31.1587 257.398 33.6463 256.453 37.9517C255.509 42.2253 252.393 44.8086 248.333 44.8086H243.769L246.759 31.1587ZM248.837 41.9064C251.008 41.9064 252.645 40.535 253.212 37.9199C253.778 35.3366 252.676 33.9971 250.568 33.9971H249.277L247.546 41.9064H248.837Z" fill="#1D201F"/>
</svg>
