<svg viewBox="0 0 465 42" fill="none" xmlns="http://www.w3.org/2000/svg">
<path d="M130.586 40.2559H155.906V30.7378H140.937V24.747H154.737V15.2289H140.937V10.5259H155.906V1.00781H130.586V40.2559Z" fill="white"/>
<path d="M170.208 1.00781L158.299 40.2559H169.15L171.154 32.9773H181.949L183.953 40.2559H194.749L182.784 1.00781H170.208ZM179.334 23.9632H173.602L176.496 13.3813L179.334 23.9632Z" fill="white"/>
<path d="M268.261 24.1311L262.752 1.00781H250.954L245.334 24.1871L239.88 1.00781H229.529L239.157 40.2559H251.399L256.797 15.7888L262.195 40.2559H274.438L283.954 1.00781H273.659L268.261 24.1311Z" fill="#EB8900"/>
<path d="M323.242 40.2559H348.507V30.7378H333.593V24.747H347.394V15.2289H333.593V10.5259H348.507V1.00781H323.242V40.2559Z" fill="#EB8900"/>
<path d="M375.884 23.0673L365.422 1.00781H353.514V40.2559H363.53V19.2041L373.937 40.2559H385.901V1.00781H375.884V23.0673Z" fill="#EB8900"/>
<path d="M442.219 1.00781V15.7888H432.369V1.00781H421.963V40.2559H432.369V25.3069H442.219V40.2559H452.625V1.00781H442.219Z" fill="#EB8900"/>
<path d="M108.215 10.6939L125.188 10.6379V1.00781H108.27C99.2553 1.0638 93.8574 5.71086 93.8574 13.4373V27.8264C93.8574 35.6088 99.311 40.2559 108.437 40.2559C108.549 40.2559 108.66 40.2559 108.716 40.2559H125.188V32.3055V30.6258V24.2431V18.9242V15.9008H110.329V24.1871H116.061V30.6258H108.716C108.604 30.6258 108.493 30.6258 108.437 30.6258C105.488 30.6258 104.264 29.3941 104.264 26.3707V14.725C104.208 12.3175 104.932 10.7498 108.215 10.6939Z" fill="white"/>
<path d="M404.267 10.6939L417.511 10.6379V1.00781H404.267C395.251 1.0638 389.854 5.71086 389.854 13.4373V27.8264C389.854 35.6088 395.307 40.2559 404.433 40.2559C404.545 40.2559 404.656 40.2559 404.712 40.2559H417.511V30.6258H404.712C404.6 30.6258 404.489 30.6258 404.433 30.6258C401.484 30.6258 400.26 29.3941 400.26 26.3707V14.725C400.26 12.3175 400.983 10.7498 404.267 10.6939Z" fill="#EB8900"/>
<path d="M311.221 27.1545C315.784 25.2509 318.344 21.3877 318.344 16.0688V13.4373C318.344 5.65487 312.89 1.00781 303.764 1.00781C303.653 1.00781 303.541 1.00781 303.486 1.00781H297.698H290.742H287.348V40.2559H297.698V28.4983V25.5308L299.813 28.4983L308.049 40.2559H320.459L311.221 27.1545ZM303.486 10.6379C303.597 10.6379 303.708 10.6379 303.764 10.6379C306.713 10.6379 307.938 11.8696 307.938 14.837V14.781V14.893V14.837C307.938 17.1885 307.214 18.7562 303.931 18.8122V18.8682H297.698V10.6379H303.486Z" fill="#EB8900"/>
<path d="M221.292 27.1545C225.855 25.2509 228.415 21.3877 228.415 16.0688V13.4373C228.415 5.65487 222.962 1.00781 213.835 1.00781C213.724 1.00781 213.613 1.00781 213.557 1.00781H207.714H200.758H197.363V40.2559H207.714V28.4983V25.5308L209.829 28.4983L218.065 40.2559H230.474L221.292 27.1545ZM213.557 10.6379C213.668 10.6379 213.78 10.6379 213.835 10.6379C216.785 10.6379 218.009 11.8696 218.009 14.837V14.781V14.893V14.837C218.009 17.1885 217.285 18.7562 214.002 18.8122V18.8682H207.714V10.6379H213.557Z" fill="white"/>
<path d="M0.480955 23.1793C-0.632017 27.8824 0.202712 32.3055 2.8182 35.7208C4.82155 38.2403 8.6613 41.2636 15.7843 41.2636H57.4652C65.3116 41.2077 71.0434 36.6726 73.2137 28.7222L73.2694 28.6102L80.1142 0H21.4048C13.2801 0.0559887 6.60231 4.19915 3.65293 11.0298C3.15209 12.2615 2.8182 13.3253 2.7069 13.7732L0.480955 23.1793Z" fill="#EB8900"/>
<path d="M63.3626 8.45435L59.3003 25.4749C59.1333 26.1468 58.5768 26.6507 57.8534 26.7066H54.904L59.3003 8.51033H52.9007L48.894 25.3069C48.727 25.9788 48.0592 26.7066 47.3914 26.7626H44.4421L48.8383 8.56632H21.7374C16.896 8.62231 13.1675 11.0298 11.6094 14.7251H40.9362L36.5956 32.9214H36.8739H42.9396H47.0576H53.4015H57.6864C59.8567 32.9214 63.7522 32.5295 65.366 26.5387L69.7066 8.56632H63.3626V8.45435Z" fill="black"/>
<path d="M20.2346 19.4281L19.2886 23.3473H28.5263L28.0254 25.4749C27.8585 26.1467 27.2463 26.7066 26.5229 26.7066H17.5078C15.6714 26.7066 15.1149 25.9228 15.5601 24.0752L17.3409 16.7966H10.9413L8.93794 25.1949C7.76932 29.954 10.4405 32.8094 16.061 32.8094H16.2279H17.4522H32.5886L36.0945 18.2523H21.6815C20.958 18.2523 20.4016 18.7562 20.2346 19.4281Z" fill="black"/>
<path d="M460.749 1.00781C463.086 1.00781 464.978 2.91143 464.978 5.26295C464.978 7.61447 463.086 9.51809 460.749 9.51809C458.412 9.51809 456.52 7.61447 456.52 5.26295C456.52 2.91143 458.412 1.00781 460.749 1.00781ZM460.749 8.84622C462.696 8.84622 464.31 7.22255 464.31 5.26295C464.31 3.30335 462.696 1.67968 460.749 1.67968C458.801 1.67968 457.187 3.30335 457.187 5.26295C457.187 7.22255 458.801 8.84622 460.749 8.84622ZM461.75 5.82284L462.641 7.78244H461.584L460.804 5.93481H459.914V7.78244H458.912V2.74346H461.027C461.973 2.74346 462.641 3.24736 462.641 4.25515V4.47911C462.585 5.20696 462.251 5.59888 461.75 5.82284ZM460.749 3.63928H459.858V5.09498H460.749C461.25 5.09498 461.584 4.87103 461.584 4.42312V4.31114C461.584 3.86323 461.305 3.63928 460.749 3.63928Z" fill="#EB8900"/>
</svg>
