<svg width="57" height="64" viewBox="0 0 57 64" fill="none" xmlns="http://www.w3.org/2000/svg">
<path d="M8.8346 41.2126C8.43794 41.0119 7.93928 40.9116 7.3613 40.9116C6.77764 40.9116 6.32998 40.9562 6.09766 41.0175V44.991C6.39232 45.0691 6.76064 45.0969 7.2083 45.0969C7.85995 45.0969 8.40961 44.9687 8.8346 44.7291C9.46359 44.3724 9.81491 43.7538 9.81491 42.9123C9.81491 42.0875 9.45792 41.5246 8.8346 41.2126Z" fill="#949E9B"/>
<path d="M15.8839 40.9116C15.1926 40.9116 14.6656 40.9729 14.3086 41.0509V49.1206C14.6486 49.1819 15.1416 49.1986 15.6629 49.1986C18.5302 49.1986 20.0885 47.6215 20.0885 44.8629C20.1055 42.4442 18.7229 40.9116 15.8839 40.9116Z" fill="#949E9B"/>
<path d="M30.1121 36.6982H8.83418H6.00089H3.48494C1.55831 36.6982 0 38.2364 0 40.1256V49.9898C0 51.8846 1.55831 53.4172 3.48494 53.4172H6.00089H8.83418H30.1121C32.0388 53.4172 33.5971 51.8846 33.5971 49.9898V40.1256C33.6027 38.2364 32.0388 36.6982 30.1121 36.6982ZM10.3585 45.0354C9.96749 45.4422 9.44617 45.7376 8.83984 45.9271C8.33552 46.0831 7.77453 46.1611 7.18521 46.1611C6.78288 46.1611 6.41455 46.1444 6.10856 46.072V50.1681H6.01223H4.75992V40.0587C5.11124 40.003 5.5249 39.9473 6.00656 39.9083C6.40322 39.8804 6.84521 39.8581 7.3382 39.8581C7.90486 39.8581 8.40352 39.9138 8.83984 40.0197C9.42917 40.1646 9.89949 40.3931 10.2508 40.7052C10.8231 41.1901 11.1631 41.9313 11.1631 42.8452C11.1575 43.7759 10.8798 44.506 10.3585 45.0354ZM19.9973 48.7804C19.0283 49.739 17.4247 50.2517 15.4017 50.2517C14.4441 50.2517 13.6451 50.2071 12.9651 50.1291V40.0755C13.7811 39.9529 14.7557 39.8637 15.8154 39.8637C17.742 39.8637 19.1133 40.304 20.0256 41.1399C20.9493 41.9758 21.4933 43.1573 21.4933 44.8125C21.4933 46.4788 20.972 47.8442 19.9973 48.7804ZM28.8428 41.0452H24.5872V44.4447H28.5198V45.537H24.5872V50.1625H23.2443V39.9361H28.8428V41.0452Z" fill="#949E9B"/>
<path d="M55.9735 17.2874L38.4921 2.78649L35.6815 0.367816C35.4038 0.133751 35.0468 0 34.6785 0H8.90128C7.29764 0 6 1.27621 6 2.85336V32.7635C6 33.0979 6.27766 33.3709 6.61766 33.3709H8.22129C8.56129 33.3709 8.83895 33.0979 8.83895 32.7635V2.78649H34.1005V16.7022C34.1005 18.2793 35.3981 19.5556 37.0018 19.5556H54.1715V61.2135H8.83895V57.3514C8.83895 57.0171 8.56129 56.744 8.22129 56.744H6.61766C6.27766 56.744 6 57.0171 6 57.3514V61.1466C6 62.7238 7.29764 64 8.90128 64H54.0978C55.7015 64 56.9991 62.7238 56.9991 61.1466V19.5556V19.4664C56.9991 18.6249 56.6251 17.8279 55.9735 17.2874Z" fill="#949E9B"/>
</svg>
