<?xml version="1.0" encoding="UTF-8"?>
<svg width="10px" height="22px" viewBox="0 0 10 22" version="1.1" xmlns="http://www.w3.org/2000/svg" xmlns:xlink="http://www.w3.org/1999/xlink">
    <!-- Generator: Sketch 50.2 (55047) - http://www.bohemiancoding.com/sketch -->
    <title>Shape</title>
    <desc>Created with Sketch.</desc>
    <defs></defs>
    <g id="hp" stroke="none" stroke-width="1" fill="none" fill-rule="evenodd">
        <g transform="translate(-455.000000, -491.000000)" fill="#000000" fill-rule="nonzero" id="hero">
            <g transform="translate(0.000000, 109.000000)">
                <g id="button" transform="translate(214.000000, 369.000000)">
                    <path d="M256.325464,23.0558715 L246.344195,23.0599826 L238.314343,23.0599826 L240.838635,20.5217838 C240.962245,20.3978642 241.03005,20.2299952 241.03005,20.0538062 C241.03005,19.8776171 240.962245,19.7109227 240.838635,19.5867095 L240.445855,19.1924376 C240.322343,19.068518 240.157758,19 239.982245,19 C239.806636,19 239.641953,19.0680285 239.518441,19.1919482 L235.19132,23.5329522 C235.06732,23.6573613 234.999515,23.8230768 235.000003,23.9993638 C234.999515,24.1766295 235.06732,24.342443 235.19132,24.4666562 L239.518441,28.8080518 C239.641953,28.9318736 239.806538,29 239.982245,29 C240.157758,29 240.322343,28.9317757 240.445855,28.8080518 L240.838635,28.4137799 C240.962245,28.2900561 241.03005,28.1248299 241.03005,27.9486409 C241.03005,27.7725497 240.962245,27.6160352 240.838635,27.4922134 L238.285856,24.9398217 L256.334439,24.9398217 C256.696098,24.9398217 257,24.6270861 257,24.2644304 L257,23.7067921 C257,23.3441363 256.687122,23.0558715 256.325464,23.0558715 Z" id="Shape" transform="translate(246.000000, 24.000000) rotate(-90.000000) translate(-246.000000, -24.000000) "></path>
                </g>
            </g>
        </g>
    </g>
</svg>