<svg version="1.1" id="Layer_1" xmlns="http://www.w3.org/2000/svg" x="0" y="0" viewBox="0 0 38 38" xml:space="preserve"><style>.st0{fill:#57c0e8}</style><path class="st0" d="M19 37.7C8.7 37.7.4 29.3.4 19 .4 8.7 8.7.4 19 .4S37.7 8.8 37.7 19c0 10.3-8.4 18.7-18.7 18.7zm0-35.8C9.5 1.9 1.9 9.5 1.9 19c0 9.5 7.7 17.2 17.1 17.2 9.5 0 17.2-7.7 17.2-17.2S28.5 1.9 19 1.9z"/><path class="st0" d="M10.7 25.4h3.8v7.2h-3.8zm5.9-2h3.8v9.2h-3.8zm5.9-3.1h3.8v12.3h-3.8zm3.9-9.4h3.5c.2 0 .5 0 .6-.2s0-.4-.2-.5C28 8 25.8 5.9 23.6 3.8c-.3-.3-.6-.3-.9 0-2.2 2.1-4.4 4.2-6.6 6.2l-.1.1c-.1.1-.2.3-.1.4.1.2.2.2.5.2h4.3c0 .4-.1.7-.1 1.1-.2 1.4-.7 2.7-1.5 4-1.3 2.1-3.3 3.8-6.1 4.6-1.5.5-3 .7-4.5.6-.4 0-.6.1-.7.3 0 .2.1.4.4.5 1.3.3 2.6.5 3.9.5 5.9-.2 10.2-2.5 12.8-7 .8-1.4 1.2-2.9 1.4-4.4 0 .1 0 0 .1 0z"/></svg>