<svg xmlns="http://www.w3.org/2000/svg" width="28" height="28.02" viewBox="0 0 28 28.02">
  <title>blueprint-gear</title>
  <g>
    <path d="M7.4,6.32a.43.43,0,0,0-.7-.2c-.1,0-.1.1-.2.2L5,9.32v15.2A1.54,1.54,0,0,0,6.5,26h1A1.54,1.54,0,0,0,9,24.52V9.32ZM8,24.52a.47.47,0,0,1-.5.5h-1a.47.47,0,0,1-.5-.5V9.62l1-2,1,2Z" fill="#231f20"/>
    <path d="M24.2,0a3.77,3.77,0,0,0-3,1.1A4,4,0,0,0,20,4H1.5A1.54,1.54,0,0,0,0,5.52v21A1.54,1.54,0,0,0,1.5,28H24a4,4,0,0,0,4-4V4.22A4.15,4.15,0,0,0,24.2,0Zm2.1,25.9A2.84,2.84,0,0,1,24,27H1.5a.47.47,0,0,1-.5-.5v-21A.47.47,0,0,1,1.5,5H20V24a.5.5,0,0,0,1,0,3.19,3.19,0,0,1,1.1-2.4,3,3,0,0,1,2.6-.6,3.06,3.06,0,0,1,2.2,2.2A3.25,3.25,0,0,1,26.3,25.92Zm.7-4.6a4,4,0,0,0-2.1-1.2,3.78,3.78,0,0,0-3.4.8,1.21,1.21,0,0,0-.5.5V4a3,3,0,0,1,3-3h.2A3.23,3.23,0,0,1,27,4.22Z" fill="#231f20"/>
    <path d="M10,18a.5.5,0,0,0,0,1,3,3,0,0,0,0-6,.5.5,0,0,0,0,1,2,2,0,0,1,0,4Z" fill="#231f20"/>
    <path d="M17.7,13.72a.3.3,0,0,0,0-.4l-1.5-2.6a.57.57,0,0,0-.7-.2l-1.6.9a7.24,7.24,0,0,0-1.9-1.1V8.52a.47.47,0,0,0-.5-.5H10a.5.5,0,0,0,0,1h1v1.7a.51.51,0,0,0,.4.5,4.45,4.45,0,0,1,2.1,1.2.47.47,0,0,0,.6.1l1.5-.8,1,1.7-1.5.8a.6.6,0,0,0-.3.6,5.7,5.7,0,0,1,0,2.6.45.45,0,0,0,.3.6l1.5.8-1,1.7-1.6-1a.47.47,0,0,0-.6.1,4.45,4.45,0,0,1-2.1,1.2.66.66,0,0,0-.4.5V23h-1a.47.47,0,0,0-.5.5.56.56,0,0,0,.6.5h1.5a.47.47,0,0,0,.5-.5v-1.8a5.24,5.24,0,0,0,1.9-1.1l1.6.9a.66.66,0,0,0,.7-.2l1.5-2.6a.3.3,0,0,0,0-.4c0-.1-.1-.2-.2-.3l-1.6-.8a4.87,4.87,0,0,0,0-2.4l1.6-.8C17.6,13.92,17.7,13.82,17.7,13.72Z" fill="#231f20"/>
  </g>
</svg>
