<?xml version="1.0" encoding="utf-8"?>
<!-- Generator: Adobe Illustrator 22.1.0, SVG Export Plug-In . SVG Version: 6.00 Build 0)  -->
<svg version="1.1" id="Layer_1" xmlns="http://www.w3.org/2000/svg" xmlns:xlink="http://www.w3.org/1999/xlink" x="0px" y="0px"
	 viewBox="0 0 32 32" style="enable-background:new 0 0 32 32;" xml:space="preserve">
<style type="text/css">
	.st0{fill:#231F20;}
</style>
<title>bubble-question</title>
<g>
	<path class="st0" d="M32,9c0-5-4.1-9-9-9c-3.4,0-6.6,2-8.1,5.1C14.4,5,14,5,13.5,5C6,5,0,11,0,18.5S6,32,13.5,32h10
		c0.2,0,0.4-0.1,0.5-0.3c0.1-0.2,0-0.4-0.1-0.5l-2-2c3.3-2.6,5.2-6.5,5.2-10.6c0-0.5,0-0.9-0.1-1.4C30,15.6,32,12.4,32,9z M26,18.5
		c0,4-2,7.8-5.2,10.1c-0.1,0.1-0.2,0.2-0.2,0.4c0,0.1,0,0.3,0.1,0.4l1.6,1.6h-8.8C6.6,31,1,25.4,1,18.5S6.6,6,13.5,6
		c0.3,0,0.7,0,1,0.1C14.2,7,14,8,14,9c0,2.5,1,4.8,2.8,6.5l-1.6,1.6C15,17.3,15,17.5,15,17.7c0.1,0.2,0.3,0.3,0.5,0.3H23
		c1,0,2-0.2,2.9-0.5C26,17.8,26,18.2,26,18.5z M23,17h-6.3l1.2-1.2c0.1-0.1,0.2-0.2,0.1-0.4c0-0.1-0.1-0.3-0.2-0.4
		c-3.4-2.9-3.8-7.9-0.9-11.3S24.8,0,28.2,2.9s3.8,7.9,0.9,11.3C27.6,16,25.4,17,23,17z"/>
	<path class="st0" d="M7,20c-1.1,0-2-0.9-2-2s0.9-2,2-2s2,0.9,2,2S8.1,20,7,20z M7,17c-0.6,0-1,0.4-1,1s0.4,1,1,1s1-0.4,1-1
		S7.6,17,7,17z"/>
	<path class="st0" d="M12,20c-1.1,0-2-0.9-2-2s0.9-2,2-2s2,0.9,2,2S13.1,20,12,20z M12,17c-0.6,0-1,0.4-1,1s0.4,1,1,1s1-0.4,1-1
		S12.6,17,12,17z"/>
	<path class="st0" d="M23.5,12c-0.3,0-0.5-0.2-0.5-0.5v-0.4c0-1,0.6-1.9,1.5-2.3c1.3-0.5,2-1.9,1.5-3.2c-0.3-0.8-1-1.4-1.9-1.6
		c-1.3-0.3-2.7,0.6-2.9,1.9C21,6.1,21,6.3,21,6.5C21,6.8,20.8,7,20.5,7S20,6.8,20,6.5C20,4.6,21.6,3,23.5,3S27,4.6,27,6.5
		c0,1.4-0.9,2.7-2.2,3.2C24.3,10,24,10.5,24,11.1v0.4C24,11.8,23.8,12,23.5,12z"/>
	<path class="st0" d="M23.5,15c-0.3,0-0.5-0.2-0.5-0.5v-1c0-0.3,0.2-0.5,0.5-0.5s0.5,0.2,0.5,0.5v1C24,14.8,23.8,15,23.5,15z"/>
</g>
</svg>
