<?xml version="1.0" encoding="UTF-8"?>
<svg width="33px" height="25px" viewBox="0 0 33 25" version="1.1" xmlns="http://www.w3.org/2000/svg" xmlns:xlink="http://www.w3.org/1999/xlink">
    <!-- Generator: Sketch 50.2 (55047) - http://www.bohemiancoding.com/sketch -->
    <title>camera</title>
    <desc>Created with Sketch.</desc>
    <defs></defs>
    <g id="solutions" stroke="none" stroke-width="1" fill="none" fill-rule="evenodd">
        <g id="solutions-industry-highlight" transform="translate(-858.000000, -3351.000000)" fill="#9D9FA1">
            <g id="product-line" transform="translate(0.000000, 2999.000000)">
                <g id="neotek" transform="translate(732.000000, 223.000000)">
                    <g id="camera" transform="translate(126.000000, 129.000000)">
                        <path d="M16.16373,21.2239506 C12.3142216,21.2239506 9.18236042,18.0920894 9.18236042,14.2425811 C9.18236042,10.3930096 12.3141585,7.26114839 16.16373,7.26114839 C20.0133015,7.26114839 23.1450995,10.3930096 23.1450995,14.2425811 C23.1450995,18.0921526 20.0133015,21.2239506 16.16373,21.2239506 M16.16373,5.93919004 C11.5852724,5.93919004 7.86033893,9.66412354 7.86033893,14.2426442 C7.86033893,18.8211649 11.5852724,22.5459721 16.16373,22.5459721 C20.7421875,22.5459721 24.467121,18.8211649 24.467121,14.2426442 C24.467121,9.66412354 20.7423138,5.93919004 16.16373,5.93919004" id="Fill-1"></path>
                        <path d="M16.16373,18.1709763 C13.9975923,18.1709763 12.2352968,16.4088072 12.2352968,14.2426063 C12.2352968,12.0765318 13.9975923,10.3141732 16.16373,10.3141732 C18.3298677,10.3141732 20.0921631,12.0765318 20.0921631,14.2426063 C20.0922262,16.4088072 18.3299308,18.1709763 16.16373,18.1709763 M16.16373,9.0617318 C13.306969,9.0617318 10.9827923,11.3858453 10.9827923,14.2426063 C10.9827923,17.0993673 13.306969,19.4234809 16.16373,19.4234809 C19.020491,19.4234809 21.3446676,17.0993042 21.3446676,14.2426063 C21.3446676,11.3859716 19.020491,9.0617318 16.16373,9.0617318" id="Fill-3"></path>
                        <path d="M28.8748485,19.6874369 L30.9359215,19.6874369 L30.9359215,8.79771265 L28.8748485,8.79771265 L28.8748485,19.6874369 Z M30.9358584,22.8658952 C30.9359215,23.2495959 30.6237583,23.5616329 30.2401207,23.5616329 L2.08746548,23.5616329 C1.70376482,23.5616329 1.3916647,23.2495328 1.3916647,22.8658952 L1.3916647,21.0791016 L4.14853852,21.0791016 C4.53280745,21.0791016 4.8443393,20.7675066 4.8443393,20.3833008 L4.8443393,8.10191187 C4.8443393,7.71770609 4.53280745,7.40611109 4.14853852,7.40611109 L1.3916647,7.40611109 L1.3916647,5.61931742 C1.3916647,5.23561675 1.70382796,4.92351664 2.08746548,4.92351664 L21.2375194,4.92351664 C21.2393504,4.92351664 21.2410552,4.92370605 21.2428231,4.92370605 C21.2443385,4.92370605 21.2459801,4.92351664 21.2474955,4.92351664 L30.2401207,4.92351664 C30.6238214,4.92351664 30.9359215,5.23567989 30.9359215,5.61931742 L30.9359215,7.40611109 L28.1790477,7.40611109 C27.7947156,7.40611109 27.4832469,7.71770609 27.4832469,8.10191187 L27.4832469,20.3833008 C27.4832469,20.7675066 27.7947788,21.0791016 28.1790477,21.0791016 L30.9359215,21.0791016 L30.9359215,22.8658952 L30.9358584,22.8658952 Z M1.3916647,19.6874369 L3.45273774,19.6874369 L3.45273774,8.79771265 L1.3916647,8.79771265 L1.3916647,19.6874369 Z M4.31244949,2.60394919 C4.31244949,2.58481782 4.32804502,2.56915915 4.34723953,2.56915915 L6.35003452,2.56915915 C6.36922902,2.56915915 6.38482456,2.58481782 6.38482456,2.60394919 L6.38482456,3.53191507 L4.31244949,3.53191507 L4.31244949,2.60394919 Z M12.7747003,1.64384513 C12.8300739,1.49300411 12.9752324,1.3916647 13.1359232,1.3916647 L19.1915367,1.3916647 C19.3522276,1.3916647 19.497386,1.49300411 19.5527596,1.64384513 L20.2459717,3.53191507 L12.0814882,3.53191507 L12.7747003,1.64384513 Z M30.2401207,3.53191507 L21.7284946,3.53191507 L20.8591856,1.16417194 C20.6035325,0.467802903 19.9334296,0 19.1915999,0 L13.1359863,0 C12.3941566,0 11.7240537,0.467866043 11.4684006,1.16417194 L10.5990285,3.53185193 L7.70684604,3.53185193 L7.70684604,2.60394919 C7.70684604,1.8558055 7.09824135,1.24707452 6.34997138,1.24707452 L4.34717639,1.24707452 C3.5990327,1.24707452 2.99030172,1.8558055 2.99030172,2.60394919 L2.99030172,3.53191507 L2.08746548,3.53191507 C0.936426623,3.53191507 0,4.4683417 0,5.61938056 L0,22.8658952 C0,24.0169341 0.936426623,24.9533607 2.08746548,24.9533607 L30.2401207,24.9533607 C31.3911596,24.9533607 32.3275862,24.0169341 32.3275862,22.8658952 L32.3275862,5.61938056 C32.3275862,4.4683417 31.3911596,3.53191507 30.2401207,3.53191507 Z" id="Fill-5"></path>
                    </g>
                </g>
            </g>
        </g>
    </g>
</svg>