<?xml version="1.0" encoding="utf-8"?>
<!-- Generator: Adobe Illustrator 24.0.1, SVG Export Plug-In . SVG Version: 6.00 Build 0)  -->
<svg version="1.1" id="Layer_2_1_" xmlns="http://www.w3.org/2000/svg" xmlns:xlink="http://www.w3.org/1999/xlink" x="0px" y="0px"
	 viewBox="0 0 704.5 696.1" style="enable-background:new 0 0 704.5 696.1;" xml:space="preserve">
<g>
	<path d="M352.2,347.7C352.3,347.7,352.3,347.7,352.2,347.7l0.5,0c0,0,0,0,0,0.1c0.1,0,0.2,0,0.4,0.1c1.6-12.3,7.6-61.4,9.6-123.8
		c-1.3-2.7-3-4.7-5.1-5.6c-8.2-3.5-18.6,1.9-28.5,9.7l-0.1-0.1c-10.3,8.6-23.2,13.3-36.6,13.3c-31.6,0.1-57.3-25.5-57.4-57.2
		s25.5-57.3,57.2-57.4c13.8,0,26.1,3.6,36.2,13.3h0.1c10.1,9.7,20.7,14.6,28.9,11.2c2.2-0.9,3.9-3.1,5.3-6
		c-2-62.7-8-112.6-9.6-125.2H20v328.6c5-0.9,51.2-6.8,111-9.4c9,1.3,18.6,4,20.9,9.5c3.5,8.2-1.9,18.6-9.7,28.5l0.2,0.1
		c-8.5,10.3-13.1,23.3-13.1,36.6c0,31.8,25.8,57.5,57.6,57.5c31.7,0,57.8-25.6,57.8-57.3c0-13.8-2.5-26.1-12.1-36.2v-0.1
		c-9.7-10.1-15.8-20.9-12.4-29.1c2.3-5.5,12.2-8.5,21.1-9.8c60.4,2.7,105.5,8.3,110.5,8.9c0.1-0.7,0.2-1.2,0.2-1.7
		C352.2,346.7,352.2,347.5,352.2,347.7z"/>
	<path d="M684.5,347c-6.8,1.1-52.2,6.7-110.5,9.3c-8.9-1.3-18.6-4-20.9-9.5c-3.5-8.2,1.9-18.6,9.7-28.5l-0.2-0.1
		c8.5-10.3,13.1-23.3,13.1-36.6c0-31.8-25.8-57.5-57.6-57.5c-31.7,0-57.8,25.6-57.8,57.3c0,13.8,2.5,26.1,12.2,36.2v0.1
		c9.7,10.1,15.8,20.9,12.3,29.1c-2.3,5.5-12.2,8.5-21.1,9.8c-60.4-2.7-105.5-8.3-110.5-8.9c-0.1,0.7-0.2,1.2-0.2,1.7
		c-0.1-0.7-0.2-1.5-0.2-1.7c0,0-0.1,0-0.1,0h-0.5c0,0,0,0,0-0.1c-0.1,0-0.2,0-0.4-0.1c-1.6,12.3-7.6,61.4-9.6,123.9
		c1.4,2.7,3,4.7,5.1,5.6c8.2,3.5,18.6-1.9,28.5-9.7l0.1,0.1c10.3-8.6,23.2-13.3,36.6-13.3c31.6-0.1,57.3,25.6,57.4,57.2
		c0.1,31.6-25.6,57.3-57.2,57.4c-13.8,0-26.1-3.6-36.2-13.3h-0.1c-10.1-9.7-20.7-14.6-28.9-11.1c-2.2,0.9-3.9,3.1-5.4,6
		c2,63.7,8.2,114.2,9.7,125.7h332.6V347z"/>
</g>
</svg>
