<svg id="Layer_1" data-name="Layer 1" xmlns="http://www.w3.org/2000/svg" viewBox="0 0 37.32 38.5"><defs><style>.cls-1{fill:#404041;fill-rule:evenodd;}</style></defs><title>cordless</title><path id="Combined-Shape" class="cls-1" d="M13.8,31.6a6.9,6.9,0,1,1-6.9-6.9A6.9,6.9,0,0,1,13.8,31.6Zm6.37-1.75a2,2,0,0,1-2-2,8.71,8.71,0,0,0-8.7-8.7,2,2,0,0,1,0-4,12.71,12.71,0,0,1,12.7,12.7A2,2,0,0,1,20.17,29.85Zm7.82,0a2,2,0,0,1-2-2A16.54,16.54,0,0,0,9.47,11.33a2,2,0,0,1,0-4A20.54,20.54,0,0,1,30,27.85,2,2,0,0,1,28,29.85Zm7.33,0a2,2,0,0,1-2-2A23.87,23.87,0,0,0,9.47,4a2,2,0,0,1,0-4A27.88,27.88,0,0,1,37.32,27.85,2,2,0,0,1,35.32,29.85Z" transform="translate(0)"/></svg>