<svg xmlns="http://www.w3.org/2000/svg" width="38" height="38"  viewBox="0 0 38 38">
  <path d="M1 7.8h36v18H1v-18zm0 22.4V28h36v2.2H1zm13.6-6.7c-1.5-1.8-2.3-4-2.3-6.8 0-2.7.8-5 2.3-6.8H7.8c0 1.2-.4 2.3-1.3 3.2-.9.9-1.9 1.3-3.2 1.3V20c.9 0 1.7.3 2.4 1s1 1.5 1 2.4h7.9zM7.8 19c-1.5 0-2.2-.7-2.2-2.2 0-1.5.7-2.2 2.2-2.2 1.5 0 2.2.8 2.2 2.2 0 1.5-.8 2.2-2.2 2.2zm14.2.4c.2-.2.3-.6.3-1.1 0-.2 0-.4-.1-.6-.1-.3-.2-.5-.3-.6-.2-.2-.4-.3-.5-.4-.3-.2-.5-.3-.7-.4 0 0-.2 0-.5-.1 0 0-.1-.1-.3-.1h-.3V14s.1.1.2.1.2.1.2.1c.3.2.4.5.5.9H22c0-.2-.1-.5-.3-.9-.1-.3-.4-.6-.6-.8-.3-.2-.6-.3-1-.4-.2-.1-.4-.1-.5-.1v-.6h-1.3v.6c-.1 0-.2 0-.4.1-.5.1-.8.2-1 .4-.3.2-.5.5-.6.7-.2.4-.3.7-.3 1 0 .2 0 .4.1.6 0 .2.1.4.3.5.2.2.4.4.6.5.3.2.6.3.8.4 0 0 .1.1.3.1h.3v2.5c-.3-.1-.5-.2-.6-.3-.2-.1-.4-.3-.4-.5-.1-.3-.1-.5-.1-.6h-1.4c0 .3.1.7.3 1.1.2.3.4.5.7.8.4.3.7.4 1.1.5.3.1.5.1.6.1v.6h1.3v-.6c.1 0 .4 0 .6-.1.5-.1.8-.2 1-.4-.1-.3.2-.6.5-.9zm-4.4-5c0-.1.2-.2.4-.3.2-.1.3-.1.4-.1v1.8c-.2 0-.4-.2-.6-.4-.2-.2-.3-.4-.3-.6 0 0 0-.2.1-.4zm2.6 3.1c.2.1.3.2.4.3.1.1.2.4.2.6 0 .2 0 .3-.1.4-.1.2-.2.3-.3.4l-.6.3-.1.1h-.2v-2.2h.3c.3 0 .3.1.4.1zm14.6 2.6v-5.6c-1.2 0-2.3-.4-3.2-1.3-.9-.9-1.3-1.9-1.3-3.2h-6.8c1.5 1.8 2.3 4 2.3 6.8 0 2.7-.8 5-2.3 6.8h7.9c0-.9.3-1.7 1-2.4.6-.7 1.4-1.1 2.4-1.1zM30.2 19c-1.5 0-2.2-.7-2.2-2.2 0-1.5.7-2.2 2.2-2.2 1.5 0 2.2.8 2.2 2.2.1 1.5-.6 2.2-2.2 2.2z" />
</svg>
