<svg xmlns="http://www.w3.org/2000/svg" width="28" height="28" viewBox="0 0 28 28">
  <title>document-ribbon</title>
  <g>
    <path d="M27.5,22H24V18.5a.5.5,0,0,0-1,0V22H15.5a.47.47,0,0,0-.5.5v1a3.5,3.5,0,0,1-7,0V4A3.89,3.89,0,0,0,6.6,1H19.5a3.54,3.54,0,0,1,3.4,2.6.46.46,0,0,0,.5.4h.1a.55.55,0,0,0,.4-.6A4.5,4.5,0,0,0,19.5,0H4A4,4,0,0,0,0,4V6.5A.47.47,0,0,0,.5,7h5a.5.5,0,0,0,0-1H1V4A3,3,0,0,1,4,1,3,3,0,0,1,7,4V23.5A4.48,4.48,0,0,0,11.5,28h13A3.54,3.54,0,0,0,28,24.5v-2A.47.47,0,0,0,27.5,22ZM27,24.5A2.48,2.48,0,0,1,24.5,27H14.3A4.4,4.4,0,0,0,16,23.5V23H27Z" fill="#e35205"/>
    <path d="M28,8.5a3.5,3.5,0,0,0-7,0,3.49,3.49,0,0,0,1,2.4v5.6a.55.55,0,0,0,.3.5.44.44,0,0,0,.5-.1l1.6-1.6L26,16.9c.1.1.2.2.4.1h.2a.55.55,0,0,0,.3-.5V10.9A3.19,3.19,0,0,0,28,8.5ZM24.5,6A2.5,2.5,0,1,1,22,8.5,2.48,2.48,0,0,1,24.5,6Zm.4,8.1a.48.48,0,0,0-.7,0h0L23,15.3V11.7a3.19,3.19,0,0,0,3,0v3.6Z" fill="#e35205"/>
    <path d="M24.5,10c-.1,0-.3-.1-.4-.1l-1-1a.49.49,0,0,1,.7-.7l.5.5L25,7.3a.48.48,0,0,1,.7-.2.45.45,0,0,1,.3.6l-1,2a.55.55,0,0,1-.5.3Z" fill="#e35205"/>
    <path d="M11.5,9A1.5,1.5,0,1,1,13,7.5,1.54,1.54,0,0,1,11.5,9Zm0-2a.5.5,0,1,0,.5.5A.47.47,0,0,0,11.5,7Z" fill="#e35205"/>
    <path d="M11.5,14A1.5,1.5,0,1,1,13,12.5,1.54,1.54,0,0,1,11.5,14Zm0-2a.5.5,0,1,0,.5.5A.47.47,0,0,0,11.5,12Z" fill="#e35205"/>
    <path d="M11.5,19A1.5,1.5,0,1,1,13,17.5,1.54,1.54,0,0,1,11.5,19Zm0-2a.5.5,0,1,0,.5.5A.47.47,0,0,0,11.5,17Z" fill="#e35205"/>
    <path d="M19.5,8h-5a.5.5,0,0,1,0-1h5a.5.5,0,0,1,0,1Z" fill="#e35205"/>
    <path d="M19.5,13h-5a.5.5,0,0,1,0-1h5a.5.5,0,0,1,0,1Z" fill="#e35205"/>
    <path d="M20.5,18h-6a.5.5,0,0,1,0-1h6a.5.5,0,0,1,0,1Z" fill="#e35205"/>
  </g>
</svg>
