<svg xmlns="http://www.w3.org/2000/svg" width="32" height="32" viewBox="0 0 32 32">
  <title>drill_1</title>
  <g>
    <path d="M24.5,9a.5.5,0,0,0,.5-.5v-6a.5.5,0,0,0-.5-.5h-7a.5.5,0,0,0-.5.5v6a.5.5,0,0,0,.5.5ZM18,3h6V8H18Z" fill="#231f20"/>
    <path d="M26.5,4h2a.5.5,0,0,0,0-1h-2a.5.5,0,0,0,0,1Z" fill="#231f20"/>
    <path d="M26.5,6h2a.5.5,0,0,0,0-1h-2a.5.5,0,0,0,0,1Z" fill="#231f20"/>
    <path d="M26.5,8h2a.5.5,0,0,0,0-1h-2a.5.5,0,0,0,0,1Z" fill="#231f20"/>
    <path d="M29.5,22H27.87L25,12.43A1.51,1.51,0,0,1,26.5,11a5.5,5.5,0,0,0,0-11h-10a.47.47,0,0,0-.35.15L15.29,1H12.5a.5.5,0,0,0-.5.5V3H11V2.5a.5.5,0,0,0-.5-.5h-3A3.5,3.5,0,0,0,4.05,5H.5a.5.5,0,0,0,0,1H4.05A3.5,3.5,0,0,0,7.5,9h3a.5.5,0,0,0,.5-.5V8h1V9.5a.5.5,0,0,0,.5.5h2.79l.86.85a.47.47,0,0,0,.35.15H17v2.5a.51.51,0,0,0,.28.45l1.81.9,1.69,5.41A1.34,1.34,0,0,1,19.5,22h-2A2.5,2.5,0,0,0,15,24.5v5A2.5,2.5,0,0,0,17.5,32h12A2.5,2.5,0,0,0,32,29.5v-5A2.5,2.5,0,0,0,29.5,22ZM10,8H7.5a2.5,2.5,0,0,1,0-5H10V4H7.5a.5.5,0,0,0,0,1H10V6H7.5a.5.5,0,0,0,0,1H10V8Zm1-1V4h1V7Zm2,.5V2h2V9H13Zm3,1.79V1.71L16.71,1H26.5a4.5,4.5,0,0,1,0,9H16.71ZM21.73,20,20,14.35a.51.51,0,0,0-.26-.3L18,13.19V11h6.5a2.53,2.53,0,0,0-.5,1.5.59.59,0,0,0,0,.14L26.83,22H21.42A2.34,2.34,0,0,0,21.73,20ZM17.5,23h12A1.5,1.5,0,0,1,31,24.5V25H16v-.5A1.5,1.5,0,0,1,17.5,23Zm12,8h-12A1.5,1.5,0,0,1,16,29.5V26H31v3.5A1.5,1.5,0,0,1,29.5,31Z" fill="#231f20"/>
  </g>
</svg>
