<?xml version="1.0" encoding="UTF-8"?>
<svg width="9px" height="16px" viewBox="0 0 9 16" version="1.1" xmlns="http://www.w3.org/2000/svg" xmlns:xlink="http://www.w3.org/1999/xlink">
    <!-- Generator: Sketch 50.2 (55047) - http://www.bohemiancoding.com/sketch -->
    <title>Fill 1</title>
    <desc>Created with Sketch.</desc>
    <defs></defs>
    <g id="hp" stroke="none" stroke-width="1" fill="none" fill-rule="evenodd">
        <g transform="translate(-1207.000000, -3680.000000)" fill="#000000" id="footer">
            <g transform="translate(0.000000, 3294.000000)">
                <g transform="translate(0.000000, 317.000000)" id="social-icons">
                    <g transform="translate(897.000000, 60.000000)">
                        <path d="M318.324567,9.00332907 L316.249726,9 C313.918712,9 312.412309,10.5455198 312.412309,12.9376216 L312.412309,14.7531288 L310.326149,14.7531288 C310.14588,14.7531288 309.9999,14.8992749 309.9999,15.0795439 L309.9999,17.710007 C309.9999,17.890276 310.146046,18.0362556 310.326149,18.0362556 L312.412309,18.0362556 L312.412309,24.6737513 C312.412309,24.8540204 312.558289,25 312.738558,25 L315.460404,25 C315.640673,25 315.786652,24.8538539 315.786652,24.6737513 L315.786652,18.0362556 L318.22586,18.0362556 C318.40613,18.0362556 318.552109,17.890276 318.552109,17.710007 L318.553108,15.0795439 C318.553108,14.9929882 318.518652,14.9100944 318.457564,14.8488395 C318.396642,14.7875847 318.313415,14.7531288 318.226693,14.7531288 L315.786652,14.7531288 L315.786652,13.2141007 C315.786652,12.4743818 315.962927,12.0988629 316.926692,12.0988629 L318.324234,12.0983636 C318.504337,12.0983636 318.650317,11.9522175 318.650317,11.7721149 L318.650317,9.32957773 C318.650317,9.14964161 318.504503,9.00366197 318.324567,9.00332907" id="Fill-1"></path>
                    </g>
                </g>
            </g>
        </g>
    </g>
</svg>