<svg width="44" height="44" viewBox="0 0 44 44" xmlns="http://www.w3.org/2000/svg" xmlns:xlink="http://www.w3.org/1999/xlink">
  <defs>
    <circle id="a" cx="20" cy="20" r="20"/>
  </defs>
  <g transform="translate(2 2)" fill="none" fill-rule="evenodd">
    <use stroke="currentColor" stroke-width="2.5" xlink:href="#a"/>
    <path d="M32 20.85c-.411 5.857-5.032 10.57-10.847 11.125L20.85 32v-5.04a7.027 7.027 0 0 0 6.074-5.86l.035-.25H32zm-24 0h5.04a7.027 7.027 0 0 0 5.86 6.075l.25.035V32c-5.857-.411-10.57-5.032-11.125-10.847L8 20.85h5.04zm17.242 0a5.325 5.325 0 0 1-4.16 4.35l-.231.042v-4.391h4.391zm-6.093 0v4.392a5.323 5.323 0 0 1-4.391-4.391h4.391zm1.702-6.092a5.325 5.325 0 0 1 4.348 4.16l.043.231h-4.391v-4.391zm0-6.758c5.856.411 10.569 5.032 11.124 10.847l.025.302h-5.04a7.027 7.027 0 0 0-5.859-6.074l-.25-.035V8zm-1.702 0v5.04a7.027 7.027 0 0 0-6.074 5.86l-.035.25H8C8.418 13.191 13.192 8.417 19.15 8zm0 6.758v4.391h-4.391a5.323 5.323 0 0 1 4.391-4.391z" fill="currentColor"/>
  </g>
</svg>
