<svg id="Layer_2" data-name="Layer 2" xmlns="http://www.w3.org/2000/svg" viewBox="0 0 813 853.48"><defs><style>.cls-1{fill:#e65300;}</style></defs><title>flexible</title><path class="cls-1" d="M714.24,559.82c-10.2-25.29-20.41-50.58-30.87-76.49C680,485,677,486.51,674,488.14c-39.72,21.59-75.52,48.13-104.77,83-30.63,36.46-50.83,78.33-63.93,123.82-13.15,45.69-19.36,92.51-22.45,139.82-.41,6.29-.93,12.56-1.39,18.72H332.92c0-3.16-.13-5.77,0-8.37,2.71-49,8-97.59,18-145.64,10.82-52,27.2-101.94,52.29-148.88C437.71,486.09,486,434.08,545.71,392.37a614.48,614.48,0,0,1,76.06-45c1.76-.88,3.49-1.83,5.6-2.94l-31.74-78.89,216.88,85.15Q763.81,455.8,715.57,559.88Z" transform="translate(0.5 0.02)"/><path class="cls-1" d="M219.15,264.22l-32.3,78.46c1.92,1.09,3.71,2.19,5.57,3.14,46.53,23.74,90.05,52,127.79,88.3,15.92,15.31,30.15,32.39,45,48.81,1,1.05,1.35,3.87.63,5C333,540,310.57,596.37,295.48,655.84a23.53,23.53,0,0,1-1.28,2.65c-31-81.73-88.32-137.88-164.48-177.29-10.64,25.73-21.1,51-32.17,77.8-33-71.87-65.44-142.49-98-213.48Z" transform="translate(0.5 0.02)"/><path class="cls-1" d="M332.61,172.33H249.88c-.18-.46-.37-.91-.56-1.37L410.12,0,567,173H481.52v6.62q0,87.5.09,175c0,4.24-1.21,7-4.57,9.68a506.32,506.32,0,0,0-67,64.31c-1,1.12-2,2.18-3.31,3.61-6.7-7.4-12.87-15-19.87-21.77q-24.82-23.9-50.39-47a10.74,10.74,0,0,1-4-8.93q.13-87.49.06-175Z" transform="translate(0.5 0.02)"/></svg>