<?xml version="1.0" encoding="UTF-8"?>
<svg width="294px" height="551px" viewBox="0 0 294 551" version="1.1" xmlns="http://www.w3.org/2000/svg" xmlns:xlink="http://www.w3.org/1999/xlink">
    <!-- Generator: Sketch 50.2 (55047) - http://www.bohemiancoding.com/sketch -->
    <title>pattern</title>
    <desc>Created with Sketch.</desc>
    <defs></defs>
    <g id="Page-1" stroke="none" stroke-width="1" fill="none" fill-rule="evenodd">
        <g id="pattern" fill="#000000">
            <path d="M89.9433962,263.557555 L12.6832075,217.422986 C4.79632075,212.713011 0,204.433032 0,195.52227 L0,158.461858 C0,151.050156 8.49509434,146.524477 15.0566038,150.442172 L92.3167925,196.576742 C100.20566,201.286716 105,209.566695 105,218.477457 L105,255.537869 C105,262.951471 96.5049057,267.47525 89.9433962,263.557555" id="Fill-1"></path>
            <path d="M89.9433962,124.557558 L12.6832075,78.4230975 C4.79632075,73.7131342 0,65.4331745 0,56.5224332 L0,19.4621089 C0,12.0485241 8.49509434,7.52475541 15.0566038,11.4424417 L92.3167925,57.5769025 C100.20566,62.2868658 105,70.5668255 105,79.4775668 L105,116.537891 C105,123.951476 96.5049057,128.475245 89.9433962,124.557558" id="Fill-4"></path>
            <path d="M89.9433962,405.557558 L12.6832075,359.423097 C4.79632075,354.713134 0,346.433175 0,337.520533 L0,300.462109 C0,293.048524 8.49509434,288.524755 15.0566038,292.442442 L92.3167925,338.576903 C100.20566,343.286866 105,351.566825 105,360.477567 L105,397.537891 C105,404.951476 96.5049057,409.475245 89.9433962,405.557558" id="Fill-7"></path>
            <path d="M89.9433962,549.55675 L12.6832075,503.424074 C4.79632075,498.712198 0,490.432218 0,481.521454 L0,444.462937 C0,437.049334 8.49509434,432.523654 15.0566038,436.44325 L92.3167925,482.575926 C100.20566,487.287802 105,495.567782 105,504.476646 L105,541.537063 C105,548.950666 96.5049057,553.476346 89.9433962,549.55675" id="Fill-10"></path>
            <path d="M278.941415,252.557555 L201.681226,206.422986 C193.79434,201.713011 189,193.433032 189,184.52227 L189,147.461858 C189,140.050156 197.495094,135.524477 204.056604,139.442172 L281.316792,185.576742 C289.20566,190.286716 294,198.566695 294,207.477457 L294,244.537869 C294,251.951471 285.504906,256.47525 278.941415,252.557555" id="Fill-13"></path>
            <path d="M278.941415,114.557558 L201.681226,68.4230975 C193.79434,63.7131342 189,55.4331745 189,46.5224332 L189,9.4621089 C189,2.04852409 197.495094,-2.47524459 204.056604,1.44244169 L281.316792,47.5769025 C289.20566,52.2868658 294,60.5668255 294,69.4775668 L294,106.537891 C294,113.951476 285.504906,118.475245 278.941415,114.557558" id="Fill-16"></path>
            <path d="M278.941415,395.557558 L201.681226,349.423097 C193.79434,344.713134 189,336.433175 189,327.520533 L189,290.462109 C189,283.048524 197.495094,278.524755 204.056604,282.442442 L281.316792,328.576903 C289.20566,333.286866 294,341.566825 294,350.477567 L294,387.537891 C294,394.951476 285.504906,399.475245 278.941415,395.557558" id="Fill-19"></path>
            <path d="M278.941415,536.55675 L201.681226,490.424074 C193.79434,485.712198 189,477.432218 189,468.521454 L189,431.462937 C189,424.049334 197.495094,419.523654 204.056604,423.44325 L281.316792,469.575926 C289.20566,474.287802 294,482.567782 294,491.476646 L294,528.537063 C294,535.950666 285.504906,540.476346 278.941415,536.55675" id="Fill-22"></path>
        </g>
    </g>
</svg>