<svg xmlns="http://www.w3.org/2000/svg" width="208" height="272" viewBox="0 0 208 272">
  <title>headset</title>
  <path d="M192,106V88h-8V80A80,80,0,0,0,24,80v8H16v18A25.9,25.9,0,0,0,0,129.86v36.28A26,26,0,0,0,26,192H56V88H48V80a56,56,0,0,1,112,0v8h-8V192h30a26,26,0,0,0,18-7.23V208a48.05,48.05,0,0,1-48,48H119.51a11.28,11.28,0,0,0-10.78-8H99.27A11.28,11.28,0,0,0,88,259.27v1.46A11.28,11.28,0,0,0,99.27,272h9.46a11.28,11.28,0,0,0,10.78-8H152a56.06,56.06,0,0,0,56-56V129.86A25.9,25.9,0,0,0,192,106ZM112,260.73a3.26,3.26,0,0,1-3.27,3.27H99.27A3.26,3.26,0,0,1,96,260.73v-1.46A3.26,3.26,0,0,1,99.27,256h9.46a3.26,3.26,0,0,1,3.27,3.27ZM26,184a18,18,0,0,1-18-17.9V129.86A18,18,0,0,1,25.18,112H32v72Zm22-71.63V184H40V112h8ZM40,104H24V96H48v8Zm64-88A64.07,64.07,0,0,0,40,80v8H32V80a72,72,0,0,1,144,0v8h-8V80A64.07,64.07,0,0,0,104,16Zm56,80h24v8H160Zm8,16.41V184h-8V112h8Zm32,53.73A18,18,0,0,1,182,184h-6V112h6.82A18,18,0,0,1,200,129.86v36.28Z" fill="#e35205"/>
</svg>
