<?xml version="1.0" encoding="UTF-8"?>
<svg width="14px" height="15px" viewBox="0 0 14 15" version="1.1" xmlns="http://www.w3.org/2000/svg" xmlns:xlink="http://www.w3.org/1999/xlink">
    <!-- Generator: Sketch 50.2 (55047) - http://www.bohemiancoding.com/sketch -->
    <title>Page 1</title>
    <desc>Created with Sketch.</desc>
    <defs></defs>
    <g id="hp" stroke="none" stroke-width="1" fill="none" fill-rule="evenodd">
        <g transform="translate(-1255.000000, -3680.000000)" fill="#383739" id="footer">
            <g transform="translate(0.000000, 3294.000000)">
                <g transform="translate(0.000000, 317.000000)" id="social-icons">
                    <g transform="translate(897.000000, 60.000000)">
                        <path d="M358,10.5 C358,11.3285 358.696654,12 359.556189,12 C360.415724,12 361.112378,11.3285 361.112378,10.5 C361.112378,9.6715 360.415724,9 359.556189,9 C358.696654,9 358,9.6715 358,10.5 Z M367.427392,13.001 C366.299674,13.001 365.737371,13.519 365.262214,13.87 L365.262214,13 L362.166436,13 L362.166436,24 L365.262214,24 L365.262214,17.075 C365.262214,17.075 365.149131,15.696 366.864051,15.696 C367.897361,15.696 368.374592,16.263 368.374592,17.075 L368.374592,24 L371.636364,24 L371.636364,17.172 C371.636364,13.422 368.504274,13.001 367.427392,13.001 Z M358.033199,24 L361.112378,24 L361.112378,13 L358.033199,13 L358.033199,24 Z" id="Page-1"></path>
                    </g>
                </g>
            </g>
        </g>
    </g>
</svg>