<?xml version="1.0" encoding="UTF-8"?>
<svg width="12px" height="12px" viewBox="0 0 12 12" version="1.1" xmlns="http://www.w3.org/2000/svg" xmlns:xlink="http://www.w3.org/1999/xlink">
    <!-- Generator: Sketch 50.2 (55047) - http://www.bohemiancoding.com/sketch -->
    <title>Fill 1</title>
    <desc>Created with Sketch.</desc>
    <defs></defs>
    <g id="solutions" stroke="none" stroke-width="1" fill="none" fill-rule="evenodd">
        <g id="solutions-product-highlight" transform="translate(-744.000000, -4483.000000)" fill="#6D6E70">
            <g id="find-a-distributor" transform="translate(0.000000, 4250.000000)">
                <g id="input---zip" transform="translate(487.000000, 213.000000)">
                    <path d="M268.870437,20.1292205 C268.741894,20.0004577 268.548146,19.9645622 268.381731,20.0366825 L257.264994,24.8847705 C257.094737,24.9589765 256.988917,25.1319774 257.000882,25.3177119 C257.012737,25.5030073 257.139305,25.6614086 257.317794,25.7135504 L261.936458,27.0630894 L263.285888,31.6817535 C263.338139,31.8605724 263.496321,31.9871397 263.681836,31.9989951 C263.691276,31.999983 263.700607,31.999983 263.710047,31.999983 C263.884805,31.999983 264.044194,31.896907 264.114887,31.7351028 L268.963304,20.6183653 C269.035754,20.4516214 268.99909,20.2575442 268.870437,20.1292205" id="Fill-1"></path>
                </g>
            </g>
        </g>
    </g>
</svg>