<?xml version="1.0" encoding="UTF-8"?>
<svg width="21px" height="18px" viewBox="0 0 21 18" version="1.1" xmlns="http://www.w3.org/2000/svg" xmlns:xlink="http://www.w3.org/1999/xlink">
    <!-- Generator: Sketch 50.2 (55047) - http://www.bohemiancoding.com/sketch -->
    <title>Fill 1</title>
    <desc>Created with Sketch.</desc>
    <defs></defs>
    <g id="hp" stroke="none" stroke-width="1" fill="none" fill-rule="evenodd">
        <g transform="translate(-735.000000, -1265.000000)" fill="#000000" id="intro">
            <g transform="translate(0.000000, 690.000000)">
                <g id="link" transform="translate(735.000000, 534.000000)">
                    <path d="M10.2856764,54.3787302 C7.85672675,54.3787302 5.88063594,52.4144084 5.88063594,49.9999247 C5.88063594,47.5855916 7.85672675,45.6211945 10.2856764,45.6211945 C12.7146261,45.6211945 14.6907169,47.5855916 14.6907169,49.9999247 C14.6907169,52.4144836 12.7146261,54.3787302 10.2856764,54.3787302 Z M15.8115086,41.5140514 C15.6386016,41.2161258 15.2619005,41 14.9159351,41 L5.65549347,41 C5.30952806,41 4.932827,41.2161258 4.75992,41.5140514 L0.129737027,49.4859486 C-0.0432456758,49.7837989 -0.0432456758,50.2161258 0.129737027,50.5139761 L4.75992,58.4860239 C4.932827,58.7837989 5.30952806,59 5.65549347,59 L14.9159351,59 C15.2619005,59 15.6386016,58.7837989 15.8115086,58.4860239 L20.4416915,50.5139761 C20.6146742,50.2161258 20.6146742,49.7837989 20.4416915,49.4859486 L15.8115086,41.5140514 Z" id="Fill-1" transform="translate(10.285714, 50.000000) rotate(-360.000000) translate(-10.285714, -50.000000) "></path>
                </g>
            </g>
        </g>
    </g>
</svg>