<?xml version="1.0" encoding="utf-8"?>
<!-- Generator: Adobe Illustrator 25.2.3, SVG Export Plug-In . SVG Version: 6.00 Build 0)  -->
<svg version="1.1" id="Layer_1" xmlns="http://www.w3.org/2000/svg" xmlns:xlink="http://www.w3.org/1999/xlink" x="0px" y="0px"
	 viewBox="0 0 98 98" style="enable-background:new 0 0 98 98;" xml:space="preserve">
<g id="Layer_2_1_">
</g>
<g id="Layer_1_1_">
	<g>
		<g>
			<path class="st0" d="M49,13.8c-19.2,0-35.2,15.8-35.2,35.2s16,35.2,35.2,35.2s35.2-16,35.2-35.2S68.2,13.8,49,13.8z M47.4,26.4
				v9.4c-5.8,0.8-10.6,5.6-11.4,11.4h-9.4C27.4,36,36.4,27.2,47.4,26.4z M47.4,71.6c-11.2-0.8-20-9.8-20.8-20.8H36
				c0.8,6,5.4,10.6,11.4,11.4V71.6z M47.6,59c-4.2-0.8-7.6-4.2-8.2-8.2h8.2V59z M47.6,47.4h-8.2c0.8-4.2,4-7.6,8.2-8.2V47.4z
				 M50.6,39.2c4.2,0.8,7.4,4,8.2,8.2h-8.2V39.2z M50.4,50.6h8.2c-0.8,4.2-4,7.6-8.2,8.2V50.6z M50.6,71.6v-9.4
				c5.8-0.8,10.6-5.6,11.4-11.4h9.4C70.6,62,61.6,70.8,50.6,71.6z M62,47.4c-0.8-5.8-5.6-10.6-11.4-11.4v-9.4
				c11.2,0.8,20,9.8,20.8,20.8C71.4,47.4,62,47.4,62,47.4z"/>
			<path class="st0" d="M49,6.6C25.6,6.6,6.6,25.6,6.6,49s19,42.4,42.4,42.4s42.4-19,42.4-42.4S72.4,6.6,49,6.6z M49,89
				C27,89,9,71,9,49S27,9,49,9s40,18,40,40S71,89,49,89z"/>
		</g>
		<circle class="st0" cx="49" cy="49" r="13"/>
	</g>
</g>
</svg>
