<svg version="1.1" id="Layer_1" xmlns="http://www.w3.org/2000/svg" x="0" y="0" viewBox="0 0 38 38" xml:space="preserve"><style>.st0{fill:#57c0e8}</style><path class="st0" d="M19 33.1c-7.8 0-14.1-6.3-14.1-14.1S11.2 4.9 19 4.9 33.1 11.2 33.1 19 26.8 33.1 19 33.1zm0-24.2C13.4 8.9 8.9 13.4 8.9 19S13.4 29.1 19 29.1 29.1 24.6 29.1 19 24.6 8.9 19 8.9z"/><path class="st0" d="M5.9 18.5h25.3v1H5.9z"/><path class="st0" d="M18.5 6.3h1v25.4h-1z"/><circle class="st0" cx="19" cy="19" r="6.2"/><path class="st0" d="M19 37.7C8.7 37.7.4 29.3.4 19 .4 8.7 8.7.4 19 .4S37.7 8.8 37.7 19c0 10.3-8.4 18.7-18.7 18.7zm0-35.8C9.5 1.9 1.9 9.5 1.9 19c0 9.5 7.7 17.2 17.1 17.2 9.5 0 17.2-7.7 17.2-17.2S28.5 1.9 19 1.9z"/></svg>