<?xml version="1.0" encoding="utf-8"?>
<!-- Generator: Adobe Illustrator 24.2.1, SVG Export Plug-In . SVG Version: 6.00 Build 0)  -->
<svg version="1.1" id="Layer_1" xmlns="http://www.w3.org/2000/svg" xmlns:xlink="http://www.w3.org/1999/xlink" x="0px" y="0px"
	 viewBox="0 0 38 38" style="enable-background:new 0 0 38 38;" xml:space="preserve">
<style type="text/css">
	.st0{fill:#57C0E8;}
</style>
<path class="st0" d="M19,33.1c-7.8,0-14.1-6.3-14.1-14.1c0-7.8,6.3-14.1,14.1-14.1c7.8,0,14.1,6.3,14.1,14.1
	C33.1,26.8,26.8,33.1,19,33.1z M19,8.9C13.4,8.9,8.9,13.4,8.9,19S13.4,29.1,19,29.1S29.1,24.6,29.1,19S24.6,8.9,19,8.9z"/>
<rect x="5.9" y="18.5" class="st0" width="25.3" height="1"/>
<rect x="18.5" y="6.3" class="st0" width="1" height="25.4"/>
<circle class="st0" cx="19" cy="19" r="6.2"/>
<path class="st0" d="M19,37.7C8.7,37.7,0.4,29.3,0.4,19C0.4,8.7,8.7,0.4,19,0.4c10.3,0,18.7,8.4,18.7,18.6
	C37.7,29.3,29.3,37.7,19,37.7z M19,1.9C9.5,1.9,1.9,9.5,1.9,19c0,9.5,7.7,17.2,17.1,17.2c9.5,0,17.2-7.7,17.2-17.2
	C36.2,9.5,28.5,1.9,19,1.9z"/>
</svg>
