<?xml version="1.0" encoding="utf-8"?>
<!-- Generator: Adobe Illustrator 25.4.1, SVG Export Plug-In . SVG Version: 6.00 Build 0)  -->
<svg version="1.1" id="Layer_1" xmlns="http://www.w3.org/2000/svg" xmlns:xlink="http://www.w3.org/1999/xlink" x="0px" y="0px"
	 viewBox="0 0 80 80" style="enable-background:new 0 0 80 80;" xml:space="preserve">
<style type="text/css">
	.st0{clip-path:url(#SVGID_00000035512874678025697110000004375554569100289468_);fill:#FFFFFF;}
</style>
<g id="Layer_2">
</g>
<g>
	<defs>
		<rect id="SVGID_1_" x="2" y="8.2" width="73" height="65.3"/>
	</defs>
	<clipPath id="SVGID_00000097485344973618154130000012476125768671572660_">
		<use xlink:href="#SVGID_1_"  style="overflow:visible;"/>
	</clipPath>
	<path style="clip-path:url(#SVGID_00000097485344973618154130000012476125768671572660_);fill:#FFFFFF;" d="M25.1,39.6
		c4.3,4.3,11.3,4.3,15.6,0c4.3-4.3,4.3-11.3,0-15.6c-4.3-4.3-11.3-4.3-15.6,0C20.8,28.3,20.8,35.3,25.1,39.6 M75,26.7v46.9H24.8
		V44.2c-0.3,0.1-0.6,0.2-0.9,0.1c-0.1,0.2-4.3,5.4-6.1,7.2c-1.9,1.9-10.3,9.4-10.3,9.4c-1.1,1-0.6,3.2-3.8,0c-3.2-3.2-1-2.8,0-3.8
		c0,0,7.5-8.5,9.4-10.3c1.9-1.9,7-6,7.2-6.1c-0.1-0.3,0-0.6,0.1-0.9c-3.7-5.7-3-13.5,2-18.5c0.7-0.7,1.6-1.4,2.4-2c0,0,0,0,0,0V8.2
		h31.7v3H27.8v6.6c5.2-1.9,11.3-0.7,15.5,3.5c2.1,2.1,3.4,4.6,4,7.2h21.1v2.3H47.6c0.1,0.9,0,1.9-0.1,2.8h20.9v2.3H47
		c-0.3,1-0.6,1.9-1.1,2.8h22.5v2.3H44.4c-0.4,0.4-0.7,0.9-1.1,1.3c-0.5,0.5-1,0.9-1.6,1.3l26.6,0.2V46H36.8c-2.9,0.8-6.1,0.7-9-0.3
		v24.9H72V26.7H75z M75,24.4L58.8,8.2v16.2H75z M68.4,48.8H31.4v2.3h36.9V48.8z M68.4,53.8H31.4v2.3h36.9V53.8z M31.4,66.2h36.9
		v-2.3H31.4V66.2z M31.4,58.9h36.9v2.3H31.4V58.9z"/>
</g>
</svg>
