<?xml version="1.0" encoding="UTF-8"?>
<svg width="14px" height="12px" viewBox="0 0 14 12" version="1.1" xmlns="http://www.w3.org/2000/svg" xmlns:xlink="http://www.w3.org/1999/xlink">
    <!-- Generator: Sketch 57.1 (83088) - https://sketch.com -->
    <title>Twitter_Social_Icon_Circle_White</title>
    <desc>Created with Sketch.</desc>
    <g id="Page-1" stroke="none" stroke-width="1" fill="none" fill-rule="evenodd">
        <g id="Twitter_Social_Icon_Circle_White" fill="#FFFFFF" fill-rule="nonzero">
            <path d="M4.41355932,11.3601695 C9.67542373,11.3601695 12.5525424,7 12.5525424,3.22118644 C12.5525424,3.09661017 12.5525424,2.9720339 12.5466102,2.85338983 C13.1042373,2.45 13.590678,1.94576271 13.9762712,1.37033898 C13.4661017,1.59576271 12.9144068,1.75 12.3330508,1.82118644 C12.9262712,1.46525424 13.3771186,0.907627119 13.590678,0.237288136 C13.0389831,0.563559322 12.4279661,0.800847458 11.7754237,0.931355932 C11.2533898,0.373728814 10.5118644,0.0296610169 9.68728814,0.0296610169 C8.10932203,0.0296610169 6.8279661,1.31101695 6.8279661,2.88898305 C6.8279661,3.11440678 6.85169492,3.33389831 6.90508475,3.54152542 C4.52627119,3.42288136 2.42033898,2.28389831 1.00847458,0.551694915 C0.765254237,0.972881356 0.622881356,1.46525424 0.622881356,1.98728814 C0.622881356,2.9779661 1.12711864,3.8559322 1.89830508,4.36610169 C1.42966102,4.35423729 0.990677966,4.22372881 0.605084746,4.01016949 C0.605084746,4.0220339 0.605084746,4.03389831 0.605084746,4.04576271 C0.605084746,5.43389831 1.58983051,6.58474576 2.90084746,6.85169492 C2.66355932,6.91694915 2.40847458,6.95254237 2.14745763,6.95254237 C1.96355932,6.95254237 1.78559322,6.93474576 1.60762712,6.89915254 C1.96949153,8.03813559 3.02542373,8.86271186 4.27711864,8.88644068 C3.29830508,9.65169492 2.06440678,10.1084746 0.723728814,10.1084746 C0.492372881,10.1084746 0.266949153,10.0966102 0.0415254237,10.0669492 C1.29322034,10.8855932 2.8,11.3601695 4.41355932,11.3601695 L4.41355932,11.3601695 Z" id="Shape"></path>
        </g>
    </g>
</svg>