<svg id="Object" xmlns="http://www.w3.org/2000/svg" viewBox="0 0 585.66 495.81">
  <title>versatile</title>
  <path d="M435.08,326c0-37.26,30.6-67.58,68.22-67.58h46.45l-17.43,56.33,124.43-87.65L532.32,139.44l17.43,56.32H503.3c-72.49,0-131.46,58.42-131.46,130.23v87.3h63.24Z"
    transform="translate(-112.59 -138.81)" />
  <path d="M634.75,447.45c0,37.26-30.6,67.58-68.22,67.58H520.08l17.43-56.33L413.08,546.35,537.51,634l-17.43-56.32h46.45C639,577.68,698,519.26,698,447.45v-87.3H634.75Z"
    transform="translate(-112.59 -138.81)" />
  <path d="M372.75,326c0-37.26-30.6-67.58-68.22-67.58H258.08l17.43,56.33L151.08,227.09l124.43-87.65-17.43,56.32h46.45C377,195.76,436,254.18,436,326v87.3H372.75Z"
    transform="translate(-112.59 -138.81)" />
  <path d="M176.08,447.45c0,37.26,30.6,67.58,68.22,67.58h46.45L273.32,458.7l124.43,87.65L273.32,634l17.43-56.32H244.3c-72.49,0-131.46-58.42-131.46-130.23v-87.3h63.24Z"
    transform="translate(-112.59 -138.81)" />
</svg>
