<?xml version="1.0" encoding="utf-8"?>
<!-- Generator: Adobe Illustrator 24.2.1, SVG Export Plug-In . SVG Version: 6.00 Build 0)  -->
<svg version="1.1" id="Layer_1" xmlns="http://www.w3.org/2000/svg" xmlns:xlink="http://www.w3.org/1999/xlink" x="0px" y="0px"
	 viewBox="0 0 38 38" style="enable-background:new 0 0 38 38;" xml:space="preserve">
<style type="text/css">
	.st0{fill:#57C0E8;}
</style>
<g>
	<path class="st0" d="M19,8.6c4.8,0.2,8.9,2,12.5,5.7c0.7,0.7,0.8,2,0.2,2.8c-0.6,0.9-1.6,0.9-2.4,0.1c-2.3-2.3-4.9-3.8-7.8-4.5
		c-3.6-0.9-6.9,0.2-10.1,2.2c-1,0.6-1.9,1.5-2.8,2.3C7.8,18,6.9,18,6.2,17.1c-0.6-0.9-0.5-2.1,0.4-2.9C10.2,10.6,14.4,8.8,19,8.6z"
		/>
	<path class="st0" d="M19,14c3.5,0.1,6.4,1.4,9,4.2c0.7,0.8,0.8,2,0.2,2.9c-0.6,0.8-1.6,0.8-2.4,0c-1.4-1.5-3-2.5-4.8-2.9
		c-3.2-0.8-5.9,0.4-8.4,2.7c-0.1,0.1-0.2,0.3-0.4,0.4c-0.8,0.7-1.7,0.6-2.3-0.2c-0.6-0.8-0.5-2,0.2-2.8C12.6,15.4,15.6,14,19,14z"/>
	<path class="st0" d="M19,19.2c2,0.1,3.8,0.9,5.3,2.5c0.7,0.8,0.8,2,0.2,2.8c-0.6,0.8-1.6,0.9-2.3,0.1c-1.1-1.1-2.3-1.8-3.8-1.5
		c-1,0.2-1.8,0.8-2.6,1.6c-0.6,0.6-1.3,0.6-1.9,0.2c-0.6-0.4-0.9-1.2-0.7-2c0.1-0.4,0.3-0.8,0.5-1.1C15.2,20.2,17,19.3,19,19.2z"/>
	<path class="st0" d="M20.9,26.8c0,1-0.8,1.8-1.9,1.9c-1.1,0-2-0.8-2-1.8c0-1.1,0.8-1.9,1.9-1.9C20.1,24.9,20.9,25.7,20.9,26.8z"/>
</g>
<path class="st0" d="M19,37.7C8.7,37.7,0.4,29.3,0.4,19C0.4,8.7,8.7,0.4,19,0.4c10.3,0,18.7,8.4,18.7,18.6
	C37.7,29.3,29.3,37.7,19,37.7z M19,1.9C9.5,1.9,1.9,9.5,1.9,19c0,9.5,7.7,17.2,17.1,17.2c9.5,0,17.2-7.7,17.2-17.2
	C36.2,9.5,28.5,1.9,19,1.9z"/>
</svg>
