<svg version="1.1" id="Layer_1" xmlns="http://www.w3.org/2000/svg" x="0" y="0" viewBox="0 0 38 38" xml:space="preserve"><style>.st0{fill:#57c0e8}</style><path class="st0" d="M19 8.6c4.8.2 8.9 2 12.5 5.7.7.7.8 2 .2 2.8-.6.9-1.6.9-2.4.1-2.3-2.3-4.9-3.8-7.8-4.5-3.6-.9-6.9.2-10.1 2.2-1 .6-1.9 1.5-2.8 2.3-.8.8-1.7.8-2.4-.1-.6-.9-.5-2.1.4-2.9 3.6-3.6 7.8-5.4 12.4-5.6z"/><path class="st0" d="M19 14c3.5.1 6.4 1.4 9 4.2.7.8.8 2 .2 2.9-.6.8-1.6.8-2.4 0-1.4-1.5-3-2.5-4.8-2.9-3.2-.8-5.9.4-8.4 2.7-.1.1-.2.3-.4.4-.8.7-1.7.6-2.3-.2-.6-.8-.5-2 .2-2.8 2.5-2.9 5.5-4.3 8.9-4.3z"/><path class="st0" d="M19 19.2c2 .1 3.8.9 5.3 2.5.7.8.8 2 .2 2.8-.6.8-1.6.9-2.3.1-1.1-1.1-2.3-1.8-3.8-1.5-1 .2-1.8.8-2.6 1.6-.6.6-1.3.6-1.9.2-.6-.4-.9-1.2-.7-2 .1-.4.3-.8.5-1.1 1.5-1.6 3.3-2.5 5.3-2.6z"/><path class="st0" d="M20.9 26.8c0 1-.8 1.8-1.9 1.9-1.1 0-2-.8-2-1.8 0-1.1.8-1.9 1.9-1.9 1.2-.1 2 .7 2 1.8z"/><path class="st0" d="M19 37.7C8.7 37.7.4 29.3.4 19 .4 8.7 8.7.4 19 .4S37.7 8.8 37.7 19c0 10.3-8.4 18.7-18.7 18.7zm0-35.8C9.5 1.9 1.9 9.5 1.9 19c0 9.5 7.7 17.2 17.1 17.2 9.5 0 17.2-7.7 17.2-17.2S28.5 1.9 19 1.9z"/></svg>