<svg xmlns="http://www.w3.org/2000/svg" width="32" height="32" viewBox="0 0 32 32">
  <title>wrench-screwdriver</title>
  <g>
    <path d="M6.55,24.76a.48.48,0,0,0-.43-.26H3.88a.48.48,0,0,0-.43.26l-1.12,2a.46.46,0,0,0,0,.48l1.12,2a.48.48,0,0,0,.43.26H6.12a.48.48,0,0,0,.43-.26l1.12-2a.46.46,0,0,0,0-.48ZM5.82,28.5H4.18L3.34,27l.84-1.5H5.82L6.66,27Z" fill="#231f20"/>
    <path d="M9.15,22.15l-2,2a.48.48,0,0,0,0,.7.48.48,0,0,0,.7,0l2-2a.49.49,0,0,0-.7-.7Z" fill="#231f20"/>
    <path d="M13.15,18.15l-2,2a.48.48,0,0,0,0,.7.48.48,0,0,0,.7,0l2-2a.49.49,0,0,0-.7-.7Z" fill="#231f20"/>
    <path d="M15.5,17a.47.47,0,0,0,.35-.15l2-2a.49.49,0,1,0-.7-.7l-2,2a.48.48,0,0,0,0,.7A.47.47,0,0,0,15.5,17Z" fill="#231f20"/>
    <path d="M19.5,13a.47.47,0,0,0,.35-.15l2-2a.49.49,0,1,0-.7-.7l-2,2a.48.48,0,0,0,0,.7A.47.47,0,0,0,19.5,13Z" fill="#231f20"/>
    <path d="M21.71,15l2.2-2.2A6.49,6.49,0,0,0,32,6.5a6.41,6.41,0,0,0-.28-1.89.53.53,0,0,0-.36-.34.49.49,0,0,0-.47.14L28.37,6.93,25.9,6.1l-.83-2.46,2.52-2.53a.49.49,0,0,0,.14-.47.53.53,0,0,0-.34-.36A6.41,6.41,0,0,0,25.5,0a6.49,6.49,0,0,0-6.3,8.09L15,12.29,7.85,5.15a.48.48,0,0,0-.7,0L7,5.29,5.91,4.2,5,2.28a.55.55,0,0,0-.17-.2l-3-2a.5.5,0,0,0-.63.07l-1,1a.5.5,0,0,0-.07.63l2,3a.55.55,0,0,0,.2.17l1.92,1L5.29,7l-.14.15a.48.48,0,0,0,0,.7L12.29,15l-7,7L5,22a5,5,0,1,0,5,5,2.45,2.45,0,0,0,0-.27l5-5,8.9,8.9a4.74,4.74,0,1,0,6.71-6.71ZM6.21,7.5l.14-.15a.48.48,0,0,0,0-.7l-1.5-1.5a.45.45,0,0,0-.13-.1L2.84,4.11,1.14,1.56l.42-.42,2.55,1.7.94,1.88a.45.45,0,0,0,.1.13l1.5,1.5a.48.48,0,0,0,.7,0l.15-.14L14.29,13,13,14.29ZM9.1,26.19A.49.49,0,0,0,9,26.6l0,.16A1.94,1.94,0,0,1,9,27a4,4,0,1,1-4-4l.24,0,.16,0a.49.49,0,0,0,.41-.14l7.54-7.55,2-2,4.76-4.76a.5.5,0,0,0,.13-.49A5.44,5.44,0,0,1,20,6.5,5.51,5.51,0,0,1,25.5,1a6,6,0,0,1,.74.05l-2.09,2.1a.48.48,0,0,0-.12.51l1,3a.48.48,0,0,0,.31.31l3,1a.46.46,0,0,0,.51-.12L31,5.76A6,6,0,0,1,31,6.5,5.51,5.51,0,0,1,25.5,12a5.44,5.44,0,0,1-1.6-.24.5.5,0,0,0-.49.13l-2.76,2.76-6,6ZM27.26,31a3.72,3.72,0,0,1-2.65-1.1L15.71,21,21,15.71l8.9,8.9A3.74,3.74,0,0,1,27.26,31Z" fill="#231f20"/>
    <path d="M18.85,20.15a.49.49,0,0,0-.7.7l7,7a.48.48,0,0,0,.7,0,.48.48,0,0,0,0-.7Z" fill="#231f20"/>
    <path d="M20.85,18.15a.49.49,0,0,0-.7.7l7,7a.48.48,0,0,0,.7,0,.48.48,0,0,0,0-.7Z" fill="#231f20"/>
  </g>
</svg>
