<svg version="1.2" xmlns="http://www.w3.org/2000/svg" viewBox="0 0 721 86" width="721" height="86">
	<title>cleco-updated-logo-svg</title>
	<style>
		.s0 { fill: none } 
		.s1 { fill: #000000 } 
	</style>
	<g id="Layer">
		<path id="Layer" class="s0" d="m172 22.9h0.5-0.5z"/>
		<path id="Layer" class="s1" d="m48 47.7c0 7.3-4.1 7.8-12.7 7.8-12.4 0-12.9-3.6-12.9-12.8v-9.7c0-8.9 1.1-11.8 12.9-11.8 7 0 11.9 0.4 12.6 6v2.4h21.3v-2.4c-0.4-18.6-10.4-20.4-31.7-20.4-22.8 0-36.6 3-36.6 23.5v16.1c0 22.7 15.4 23.5 36.6 23.5 9 0 17.6 0.1 24.6-4.6 7-4.7 7.2-10.8 7.2-17.6v-1.8h-21.3z"/>
		<path id="Layer" class="s1" d="m75 7.2h17.8v62.1h-17.8z"/>
		<path id="Layer" fill-rule="evenodd" class="s1" d="m152.8 46.7v2.5h-36.8c0 8 1.5 10.3 9.2 10.3 5.7 0 9.4-0.5 9.4-5.3h18.3c0 6.9-2.8 10.7-7.7 13-4.9 2.2-11.8 2.7-20 2.7-22.4 0-27.8-6.3-27.8-23.2 0-17.4 5-23.2 27.8-23.2 21.3 0 27.7 4.7 27.6 23.2zm-18.5-5.7c0-6.8-3.1-7.2-9.4-7.2-6.6 0-8.7 1.2-8.9 7.2z"/>
		<path id="Layer" class="s1" d="m212.2 41c0-16.2-11.1-17.5-27.4-17.5-23.2 0-27.1 7.9-27.1 23.2 0 17.9 5.2 23.2 27.1 23.2 10.1 0 16.9-0.4 21.2-3 4.4-2.5 6.3-7.2 6.3-15.7h-18.6c0 5.6-0.4 7.3-8.9 7.3-7 0-8.5-1.1-8.5-11.8 0-10.4 1.9-11.8 8.5-11.8 3.9 0 6.1 0.3 7.3 1.3 1.3 1 1.6 2.4 1.5 4.8z"/>
		<path id="Layer" fill-rule="evenodd" class="s1" d="m273.5 46.7c0 18.7-4.8 23.2-28.4 23.2-23.2 0-28.3-5.1-28.3-23.2 0-18.5 4.6-23.2 28.3-23.2 23.7 0 28.4 4 28.4 23.2zm-18.6 0c0-9.8-0.9-11.8-9.5-11.8-8.9 0-10 1.9-10 11.8 0 9.9 1 11.8 10 11.8 8.6 0 9.5-1.9 9.5-11.8z"/>
		<path id="Layer" class="s1" d="m312.6-1.6h3.2v85.3h-3.2z"/>
		<path id="Layer" class="s1" d="m387.6 26h-32.4v7.3h11.8v32.3h8.7v-32.3h11.9z"/>
		<path id="Layer" fill-rule="evenodd" class="s1" d="m410.7 44.3v15.1c0 2.6 0.3 5.2 1 6.4h-8c-0.3-0.9-0.5-1.9-0.6-2.8-2.5 2.6-6.1 3.5-9.6 3.5-5.4 0-9.7-2.7-9.7-8.6 0.2-13.1 19.4-6.1 19.1-12.5 0-3.3-2.3-3.9-5.1-3.9-3 0-4.9 1.2-5.2 4.3h-7.9c0.5-7.3 7.1-9.6 13.5-9.6 5.7 0 12.6 1.2 12.6 8.1zm-7.7 7.2c-1.3 1.2-4.1 1.3-6.5 1.7-2.5 0.4-4.7 1.3-4.7 4.2 0 2.9 2.3 3.7 4.8 3.7 6.2 0 6.4-4.8 6.4-6.6z"/>
		<path id="Layer" class="s1" d="m450.4 36.2c-4 0-6.9 2.3-8.6 4.8-1.6-3.5-4.8-4.8-8.4-4.8-3.8 0-6.7 1.7-8.8 4.7h-0.1v-3.9h-7.4v28.6h7.9v-16.7c0-5.6 3.8-6.6 5.3-6.6 5 0 4.8 3.8 4.8 7.1v16.1h7.9v-16c0-3.5 0.8-7.3 5.3-7.3 4.5 0 4.8 3.2 4.8 7v16.2h7.9v-19c-0.1-7.4-4.5-10.2-10.6-10.2z"/>
		<path id="Layer" fill-rule="evenodd" class="s1" d="m494.3 53.2h-20.7c0.2 5.1 2.6 7.3 7 7.3 3.2 0 5.7-1.9 6.2-3.7h6.9c-2.2 6.8-6.9 9.6-13.4 9.6-9 0-14.6-6.2-14.6-15.1 0-8.6 5.9-15.1 14.6-15.1 9.8 0 14.6 8.1 14 17zm-7.9-5c-0.8-4-2.5-6.1-6.3-6.1-5.1 0-6.3 3.9-6.5 6.1z"/>
		<path id="Layer" class="s1" d="m524.3 28.3h-7.9v8.6h-4.8v5.3h4.8v16.9c0 5.8 4.2 6.8 9 6.8 1.6 0 3.3-0.1 4.6-0.3v-6.1c-0.7 0.2-1.6 0.2-2.4 0.2-2.7 0-3.3-0.7-3.3-3.3v-14.2h5.8v-5.3h-5.8z"/>
		<path id="Layer" class="s1" d="m550.2 36.2c-2.9 0-6.4 1.5-8.4 4.8h-0.2v-15h-7.9v39.5h7.9v-15c0-5.8 1.8-8.2 6.1-8.2 3.7 0 5 2.3 5 7v16.2h7.9v-17.6c0.1-7-2-11.7-10.4-11.7z"/>
		<path id="Layer" fill-rule="evenodd" class="s1" d="m593.9 53.2h-20.7c0.2 5.1 2.6 7.3 7 7.3 3.2 0 5.7-1.9 6.2-3.7h6.9c-2.2 6.8-6.9 9.6-13.4 9.6-9 0-14.6-6.2-14.6-15.1 0-8.6 5.9-15.1 14.6-15.1 9.7 0 14.5 8.1 14 17zm-8-5c-0.8-4-2.5-6.1-6.3-6.1-5.1 0-6.3 3.9-6.5 6.1z"/>
		<path id="Layer" class="s1" d="m623.4 26h-8.7v39.6h27.9v-7.3h-19.2z"/>
		<path id="Layer" class="s1" d="m646.9 36.9h7.9v28.6h-7.9z"/>
		<path id="Layer" class="s1" d="m646.9 26h7.9v6.5h-7.9z"/>
		<path id="Layer" class="s1" d="m677.4 36.2c-3.3 0-6.8 1.5-8.8 4.8h-0.2v-4h-7.4v28.6h7.9v-15c0-5.8 1.8-8.2 6.1-8.2 3.7 0 5 2.3 5 7v16.2h7.9v-17.7c-0.1-7-2.2-11.7-10.5-11.7z"/>
		<path id="Layer" fill-rule="evenodd" class="s1" d="m721 53.2h-20.7c0.2 5.1 2.6 7.3 7 7.3 3.2 0 5.7-1.9 6.2-3.7h6.9c-2.2 6.8-6.9 9.6-13.4 9.6-9 0-14.6-6.2-14.6-15.1 0-8.6 5.9-15.1 14.6-15.1 9.8 0 14.6 8.1 14 17zm-7.9-5c-0.8-4-2.5-6.1-6.3-6.1-5.1 0-6.3 3.9-6.5 6.1z"/>
	</g>
</svg>