<svg width="16" height="16" viewBox="0 0 16 16" fill="none" xmlns="http://www.w3.org/2000/svg">
<path fill-rule="evenodd" clip-rule="evenodd" d="M7.99935 0.666626C12.0494 0.666626 15.3327 3.94987 15.3327 7.99996C15.3327 12.05 12.0494 15.3333 7.99935 15.3333C3.94926 15.3333 0.666016 12.05 0.666016 7.99996C0.666016 3.94987 3.94926 0.666626 7.99935 0.666626ZM2.04312 7.27153C2.23746 7.5203 2.77789 7.8386 3.60488 8.09831C3.93049 8.20056 4.28709 8.29044 4.66972 8.36677C4.66726 8.24521 4.66602 8.12291 4.66602 7.99996C4.66602 5.78153 5.06972 3.77816 5.76905 2.42816C3.77544 3.2269 2.31021 5.06461 2.04312 7.27153ZM4.75211 9.74051C3.68157 9.55443 2.76364 9.2728 2.06799 8.91047C2.39159 11.0361 3.83052 12.7951 5.76905 13.5718C5.25846 12.5861 4.90546 11.2522 4.75211 9.74051ZM6.11862 9.91818C6.7167 9.97206 7.34662 9.99996 7.99938 9.99996C8.64158 9.99996 9.27432 9.96356 9.88287 9.89606C9.58216 12.2944 8.75068 14 7.99935 14C7.25033 14 6.42166 12.3049 6.11862 9.91818ZM9.99021 8.53631C9.35719 8.61829 8.68473 8.66663 7.99938 8.66663C7.30322 8.66663 6.63496 8.63215 6.00956 8.56677C6.00283 8.38033 5.99935 8.19127 5.99935 7.99996C5.99935 4.65595 7.06175 1.99996 7.99935 1.99996C8.93695 1.99996 9.99935 4.65595 9.99935 7.99996C9.99935 8.18086 9.99624 8.35975 9.99021 8.53631ZM11.2522 9.68456C11.1019 11.2192 10.7465 12.574 10.2296 13.5718C12.2024 12.7814 13.6577 10.9737 13.9468 8.79759C13.24 9.16521 12.3091 9.47262 11.2522 9.68456ZM13.9517 7.24008C13.638 7.5922 12.6485 8.01047 11.3302 8.30272C11.3318 8.20228 11.3327 8.10134 11.3327 7.99996C11.3327 5.78153 10.929 3.77816 10.2296 2.42816C12.2138 3.2231 13.6745 5.04715 13.9517 7.24008Z" fill="black"/>
</svg>
