<svg enable-background="new 0 0 20 20"  viewBox="0 0 20 20" xmlns="http://www.w3.org/2000/svg"><path fill-rule="evenodd" clip-rule="evenodd" d="M10.0007 0.805237C15.0633 0.805237 19.1673 4.77102 19.1673 9.66306C19.1673 14.5551 15.0633 18.5209 10.0007 18.5209C4.93804 18.5209 0.833984 14.5551 0.833984 9.66306C0.833984 4.77102 4.93804 0.805237 10.0007 0.805237ZM2.55536 8.78322C2.7983 9.0837 3.47383 9.46816 4.50754 9.78184C4.91456 9.90535 5.36032 10.0139 5.83861 10.1061C5.83553 9.95929 5.83398 9.81157 5.83398 9.66306C5.83398 6.98345 6.33862 4.56361 7.21278 2.93297C4.72075 3.89776 2.88922 6.1175 2.55536 8.78322ZM5.9416 11.7654C4.60343 11.5407 3.45602 11.2005 2.58645 10.7629C2.99095 13.3303 4.78962 15.455 7.21278 16.3931C6.57454 15.2026 6.13329 13.5913 5.9416 11.7654ZM7.64974 11.98C8.39733 12.0451 9.18473 12.0788 10.0007 12.0788C10.8034 12.0788 11.5944 12.0349 12.355 11.9533C11.9792 14.8503 10.9398 16.9104 10.0007 16.9104C9.06438 16.9104 8.02854 14.8629 7.64974 11.98ZM12.4892 10.3109C11.6979 10.4099 10.8574 10.4683 10.0007 10.4683C9.13047 10.4683 8.29516 10.4267 7.51341 10.3477C7.505 10.1225 7.50065 9.89414 7.50065 9.66306C7.50065 5.62388 8.82865 2.41575 10.0007 2.41575C11.1726 2.41575 12.5007 5.62388 12.5007 9.66306C12.5007 9.88156 12.4968 10.0976 12.4892 10.3109ZM14.0667 11.6979C13.8789 13.5516 13.4346 15.1879 12.7885 16.3931C15.2544 15.4385 17.0736 13.255 17.435 10.6265C16.5515 11.0705 15.3879 11.4418 14.0667 11.6979ZM17.4411 8.74519C17.0489 9.17051 15.812 9.67574 14.1642 10.0287C14.1663 9.90743 14.1673 9.78551 14.1673 9.66306C14.1673 6.98345 13.6627 4.56361 12.7885 2.93297C15.2687 3.89316 17.0946 6.0964 17.4411 8.74519Z"/></svg>
