<svg version="1.1" id="Layer_1" xmlns="http://www.w3.org/2000/svg" xmlns:xlink="http://www.w3.org/1999/xlink" x="0px" y="0px"
	 viewBox="0 0 314 28" enable-background="new 0 0 314 28" xml:space="preserve">
<path fill-rule="evenodd" clip-rule="evenodd" fill="#FFFFFE" d="M88.421,28h17.684v-6.422H95.677v-4.064h9.613v-6.422h-9.613V7.895
	h10.428V1.474H88.421V28z"/>
<path fill-rule="evenodd" clip-rule="evenodd" fill="#FFFFFE" d="M122.054,16.978h-3.97l1.999-7.167L122.054,16.978z M115.75,1.474
	L107.579,28h7.444l1.374-4.903h7.418L125.187,28h7.444l-8.21-26.526H115.75z"/>
<path fill-rule="evenodd" clip-rule="evenodd" fill="#1D201F" d="M182.396,17.091l-3.721-15.618h-7.969l-3.797,15.656L163.21,1.474
	h-7L162.71,28h8.277l3.681-16.555L178.312,28h8.279l6.462-26.526h-7L182.396,17.091z"/>
<path fill-rule="evenodd" clip-rule="evenodd" fill="#1D201F" d="M219.579,28h17.684v-6.422h-10.427v-4.064h9.613v-6.422h-9.613
	V7.895h10.427V1.474h-17.684V28z"/>
<path fill-rule="evenodd" clip-rule="evenodd" fill="#1D201F" d="M256.958,16.386l-7.149-14.912h-8.125V28h6.833V13.761L255.636,28
	h8.153V1.474h-6.831V16.386z"/>
<path fill-rule="evenodd" clip-rule="evenodd" fill="#1D201F" d="M301.005,1.474v9.997h-6.641V1.474h-6.996V28h6.996V17.889h6.641
	V28H308V1.474H301.005z"/>
<path fill-rule="evenodd" clip-rule="evenodd" fill="#FFFFFE" d="M74.325,8.009V7.984h11.148V1.474H74.325
	c-5.94,0.04-9.483,3.168-9.483,8.392v9.738c0,5.258,3.587,8.397,9.595,8.397c0.065,0,0.131-0.001,0.199-0.002V28h10.838V11.556
	h-9.792v5.609h3.783v4.333h-4.829v0.005c-0.068,0-0.138,0.001-0.199,0.001c-1.957,0-2.755-0.835-2.755-2.881v-7.888
	C71.682,9.125,72.139,8.046,74.325,8.009z"/>
<path fill-rule="evenodd" clip-rule="evenodd" fill="#1D201F" d="M275.233,8.009V7.984h9.188V1.474h-9.188
	c-6.244,0.04-9.97,3.168-9.97,8.392v9.738c0,5.258,3.771,8.397,10.086,8.397c0.068,0,0.138-0.001,0.207-0.002V28h8.865v-6.501
	h-8.865v0.005c-0.069,0-0.142,0.001-0.207,0.001c-2.057,0-2.895-0.835-2.895-2.881v-7.888
	C272.454,9.125,272.934,8.046,275.233,8.009z"/>
<path fill-rule="evenodd" clip-rule="evenodd" fill="#1D201F" d="M206.802,7.975V7.97c0.068,0,0.139-0.001,0.2-0.001
	c1.974,0,2.783,0.828,2.79,2.852c0-0.014,0.001-0.026,0.001-0.039v0.068c0-0.01-0.001-0.018-0.001-0.029
	c-0.007,1.588-0.479,2.65-2.678,2.687v0.024h-4.206V7.975H206.802z M211.969,19.147c3.042-1.281,4.757-3.888,4.757-7.495V9.87
	c0-5.258-3.637-8.397-9.724-8.397c-0.066,0-0.133,0.001-0.2,0.002V1.474H196V28h6.907v-9.972l1.397,2.017L209.818,28h8.287
	L211.969,19.147z"/>
<path fill-rule="evenodd" clip-rule="evenodd" fill="#FFFFFE" d="M146.099,7.212V7.207c0.069,0,0.143-0.001,0.206-0.001
	c2.022,0,2.853,0.831,2.861,2.863c0-0.014,0.001-0.026,0.001-0.039v0.069c0-0.01-0.001-0.019-0.001-0.029
	c-0.008,1.594-0.492,2.66-2.745,2.697v0.024h-4.312V7.212H146.099z M151.396,18.427c3.119-1.286,4.875-3.903,4.875-7.524V9.115
	c0-5.278-3.726-8.429-9.966-8.429c-0.067,0-0.137,0.001-0.206,0.002V0.686h-11.071v26.628h7.081v-10.01l1.431,2.024l5.653,7.986
	h8.491L151.396,18.427z"/>
<path fill-rule="evenodd" clip-rule="evenodd" fill="#1D201F" d="M0.294,15.743c-0.773,3.192-0.206,6.208,1.596,8.49
	C3.246,25.951,5.885,28,10.751,28h28.525c5.358-0.021,9.291-3.126,10.789-8.521l0.025-0.093L54.773,0h-40.14
	C9.049,0.037,4.506,2.833,2.472,7.498C2.115,8.331,1.909,9.071,1.83,9.372L0.294,15.743z"/>
<path fill-rule="evenodd" clip-rule="evenodd" fill="#EB8900" d="M42.822,5.895l-2.798,11.324c-0.103,0.453-0.512,0.793-1.005,0.803
	h-2.014l2.996-12.127h-4.343l-2.761,11.172c-0.116,0.449-0.56,0.944-1.043,0.955h-2.01l2.997-12.127H14.322
	c-3.316,0.021-5.855,1.64-6.954,4.11h20.098l-2.985,12.101h14.447c1.494-0.006,4.147-0.252,5.276-4.233l2.953-11.977H42.822z"/>
<path fill-rule="evenodd" clip-rule="evenodd" fill="#EB8900" d="M13.792,12.809l-0.632,2.72h6.277l-0.343,1.463
	c-0.102,0.484-0.522,0.848-1.025,0.848l-6.142-0.014c-1.244,0-1.627-0.527-1.323-1.819l1.193-5.036H7.445l-1.372,5.832
	c-0.78,3.32,1.033,5.302,4.85,5.302c0.041,0,0.083,0,0.126,0h11.163l2.376-10.137h-9.83C14.283,11.994,13.891,12.345,13.792,12.809z
	"/>
<path fill-rule="evenodd" clip-rule="evenodd" fill="#1D201F" d="M311.943,1.244h-0.405v0.691h0.405
	c0.242,0,0.377-0.097,0.377-0.331V1.562C312.32,1.34,312.185,1.244,311.943,1.244z M312.387,2.28l0.404,0.926h-0.486l-0.362-0.871
	h-0.405v0.871h-0.471V0.829h0.969c0.432,0,0.755,0.234,0.755,0.705V1.63C312.791,1.976,312.629,2.183,312.387,2.28z M311.929,3.703
	c0.901,0,1.641-0.76,1.641-1.685c0-0.926-0.74-1.686-1.641-1.686c-0.901,0-1.643,0.76-1.643,1.686
	C310.286,2.943,311.028,3.703,311.929,3.703z M311.929,0c1.077,0,1.966,0.912,1.966,2.017c0,1.105-0.889,2.017-1.966,2.017
	c-1.077,0-1.966-0.912-1.966-2.017C309.963,0.912,310.852,0,311.929,0z"/>
</svg>
