<svg width="57" height="64" viewBox="0 0 57 64" fill="none" xmlns="http://www.w3.org/2000/svg">
<g clip-path="url(#clip0_3058_52605)">
<path d="M8.83509 41.2121C8.43843 41.0114 7.93977 40.9111 7.36178 40.9111C6.77813 40.9111 6.33047 40.9557 6.09814 41.017V44.9905C6.39281 45.0686 6.76113 45.0964 7.20879 45.0964C7.86044 45.0964 8.4101 44.9683 8.83509 44.7286C9.46407 44.3719 9.8154 43.7533 9.8154 42.9118C9.8154 42.087 9.45841 41.5242 8.83509 41.2121Z" fill="#949E9B"/>
<path d="M15.8839 40.9111C15.1926 40.9111 14.6656 40.9724 14.3086 41.0505V49.1201C14.6486 49.1814 15.1416 49.1981 15.6629 49.1981C18.5302 49.1981 20.0885 47.621 20.0885 44.8624C20.1055 42.4437 18.7228 40.9111 15.8839 40.9111Z" fill="#949E9B"/>
<path d="M30.1121 36.698H8.83418H6.00089H3.48494C1.55831 36.698 0 38.2361 0 40.1254V49.9895C0 51.8843 1.55831 53.4169 3.48494 53.4169H6.00089H8.83418H30.1121C32.0388 53.4169 33.5971 51.8843 33.5971 49.9895V40.1254C33.6027 38.2361 32.0388 36.698 30.1121 36.698ZM10.3585 45.0352C9.96749 45.442 9.44617 45.7374 8.83984 45.9268C8.33552 46.0829 7.77453 46.1609 7.18521 46.1609C6.78288 46.1609 6.41455 46.1442 6.10856 46.0717V50.1679H6.01223H4.75992V40.0585C5.11124 40.0028 5.5249 39.947 6.00656 39.908C6.40322 39.8802 6.84521 39.8579 7.3382 39.8579C7.90486 39.8579 8.40352 39.9136 8.83984 40.0195C9.42917 40.1644 9.89949 40.3929 10.2508 40.705C10.8231 41.1898 11.1631 41.931 11.1631 42.845C11.1575 43.7757 10.8798 44.5057 10.3585 45.0352ZM19.9973 48.7802C19.0283 49.7388 17.4247 50.2515 15.4017 50.2515C14.4441 50.2515 13.6451 50.2069 12.9651 50.1289V40.0752C13.7811 39.9526 14.7557 39.8634 15.8154 39.8634C17.742 39.8634 19.1133 40.3037 20.0256 41.1397C20.9493 41.9756 21.4933 43.1571 21.4933 44.8122C21.4933 46.4786 20.972 47.8439 19.9973 48.7802ZM28.8428 41.0449H24.5872V44.4444H28.5198V45.5367H24.5872V50.1623H23.2443V39.9359H28.8428V41.0449Z" fill="#949E9B"/>
<path d="M55.9743 17.2874L38.4929 2.78649L35.6823 0.367816C35.4047 0.133751 35.0477 0 34.6794 0H8.90214C7.2985 0 6.00085 1.27621 6.00085 2.85336V32.7635C6.00085 33.0979 6.27852 33.3709 6.61851 33.3709H8.22215C8.56214 33.3709 8.8398 33.0979 8.8398 32.7635V2.78649H34.1014V16.7022C34.1014 18.2793 35.399 19.5556 37.0026 19.5556H54.1723V61.2135H8.8398V57.3514C8.8398 57.0171 8.56214 56.744 8.22215 56.744H6.61851C6.27852 56.744 6.00085 57.0171 6.00085 57.3514V61.1466C6.00085 62.7238 7.2985 64 8.90214 64H54.0987C55.7023 64 57 62.7238 57 61.1466V19.5556V19.4664C57 18.6249 56.626 17.8279 55.9743 17.2874Z" fill="#949E9B"/>
</g>
<defs>
<clipPath id="clip0_3058_52605">
<rect width="57" height="64" fill="white"/>
</clipPath>
</defs>
</svg>
