<svg width="14" height="14" viewBox="0 0 14 14" fill="none" xmlns="http://www.w3.org/2000/svg">
<path fill-rule="evenodd" clip-rule="evenodd" d="M7.00016 13.4167C3.45634 13.4167 0.583496 10.5438 0.583496 7C0.583496 3.45617 3.45634 0.583332 7.00016 0.583332C10.544 0.583332 13.4168 3.45617 13.4168 7C13.4168 10.5438 10.544 13.4167 7.00016 13.4167ZM7.00016 12.25C9.89966 12.25 12.2502 9.89949 12.2502 7C12.2502 4.1005 9.89966 1.75 7.00016 1.75C4.10067 1.75 1.75016 4.1005 1.75016 7C1.75016 9.89949 4.10067 12.25 7.00016 12.25ZM6.24594 4.25415L5.42099 5.07911L7.34184 6.99997L5.42099 8.92082L6.24594 9.74578L8.99175 6.99997L6.24594 4.25415Z" fill="black"/>
</svg>
