<svg xmlns="http://www.w3.org/2000/svg" width="27" height="32" viewBox="0 0 27 32">
  <title>document-dollar-sign</title>
  <g>
    <path d="M25.5,0H4.5A1.54,1.54,0,0,0,3,1.5V29H.5a.47.47,0,0,0-.5.5V30a2,2,0,0,0,2,2H25a2,2,0,0,0,2-2V1.5A1.54,1.54,0,0,0,25.5,0ZM2,31a.94.94,0,0,1-1-1H23a1.69,1.69,0,0,0,.3,1Zm24-1a1,1,0,0,1-2,0v-.5a.47.47,0,0,0-.5-.5H4V1.5A.47.47,0,0,1,4.5,1h21a.47.47,0,0,1,.5.5Z" fill="#e35205"/>
    <path d="M13,9.5a.5.5,0,0,0,1,0,2.38,2.38,0,0,0-2-2.4V6.5a.5.5,0,0,0-1,0V7H10V6.5a.5.5,0,0,0-1,0v.6A2.38,2.38,0,0,0,7,9.5v1A2.48,2.48,0,0,0,9,13v4a1.54,1.54,0,0,1-1-1.5.5.5,0,0,0-1,0A2.48,2.48,0,0,0,9,18v.5a.5.5,0,0,0,1,0V18h1v.5a.5.5,0,0,0,1,0V18a2.45,2.45,0,0,0,2-2.4v-1a2.38,2.38,0,0,0-2-2.4v-4A1.3,1.3,0,0,1,13,9.5ZM11,8v4H10V8ZM8,10.5v-1A1.5,1.5,0,0,1,9,8.1v3.8A1.5,1.5,0,0,1,8,10.5ZM10,17V13h1v4Zm3-2.5v1a1.5,1.5,0,0,1-1,1.4V13.1A1.5,1.5,0,0,1,13,14.5Z" fill="#e35205"/>
    <path d="M17.5,7h3a.5.5,0,0,0,0-1h-3a.5.5,0,0,0,0,1Z" fill="#e35205"/>
    <path d="M23.5,8h-6a.5.5,0,0,0,0,1h6a.5.5,0,0,0,0-1Z" fill="#e35205"/>
    <path d="M23.5,10h-6a.5.5,0,0,0,0,1h6a.5.5,0,0,0,0-1Z" fill="#e35205"/>
    <path d="M17.5,15h3a.5.5,0,0,0,0-1h-3a.5.5,0,0,0,0,1Z" fill="#e35205"/>
    <path d="M23.5,16h-6a.5.5,0,0,0,0,1h6a.5.5,0,0,0,0-1Z" fill="#e35205"/>
    <path d="M23.5,18h-6a.5.5,0,0,0,0,1h6a.5.5,0,0,0,0-1Z" fill="#e35205"/>
    <path d="M6.5,25h2a.5.5,0,0,0,0-1h-2a.5.5,0,0,0,0,1Z" fill="#e35205"/>
    <path d="M10.5,26h-4a.5.5,0,0,0,0,1h4a.5.5,0,0,0,0-1Z" fill="#e35205"/>
  </g>
</svg>
