<?xml version="1.0" encoding="utf-8"?>
<!-- Generator: Adobe Illustrator 26.0.3, SVG Export Plug-In . SVG Version: 6.00 Build 0)  -->
<svg version="1.1" id="Layer_1" xmlns="http://www.w3.org/2000/svg" xmlns:xlink="http://www.w3.org/1999/xlink" x="0px" y="0px"
	 viewBox="0 0 38 38" style="enable-background:new 0 0 38 38;" xml:space="preserve">
<style type="text/css">
	.st0{fill:#57BFE8;}
</style>
<path class="st0" d="M21.9,1.3c-0.1-0.5-0.6-0.9-1.1-0.8c-0.5,0.1-0.8,0.5-0.8,1c0.1,1.1,0.2,2.1,0.3,3.2c0,0.4,0.3,0.7,0.7,0.8
	c0.4,0.1,0.7,0,1-0.3c0.2-0.2,0.2-0.5,0.2-0.8C22.2,3.4,22.1,2.3,21.9,1.3 M29.7,4.6c-0.3-0.2-0.7-0.2-1,0.1
	c-0.9,0.6-1.7,1.2-2.6,1.9c-0.5,0.4-0.6,0.9-0.3,1.3c0.3,0.5,0.9,0.5,1.4,0.2c0.8-0.6,1.7-1.2,2.5-1.8C30,6,30.2,5.8,30.2,5.3
	C30.2,5,30,4.8,29.7,4.6 M15.7,2.6c-0.2,0.4-0.1,0.7,0.1,1c0.6,0.9,1.2,1.7,1.9,2.5C18,6.6,18.6,6.7,19,6.4c0.4-0.3,0.5-0.9,0.2-1.4
	c-0.6-0.8-1.2-1.7-1.8-2.5c-0.2-0.3-0.4-0.4-0.8-0.4C16.2,2.1,15.9,2.2,15.7,2.6 M25.9,1.4C25.5,1.3,25,1.5,24.8,2
	c-0.5,1-0.9,2-1.3,3c-0.2,0.5,0,1,0.5,1.2c0,0,0,0,0,0c0.5,0.2,1,0,1.2-0.5c0,0,0,0,0,0c0.5-1,0.9-2,1.3-3c0-0.1,0.1-0.2,0.1-0.3
	C26.6,2,26.3,1.6,25.9,1.4 M14.1,31.8c0.4-0.9,0.2-1.8-0.5-2.5c-1.8-1.8-3.7-3.5-5.6-5.3c-0.5-0.5-1.2-0.7-1.8-0.5
	c-0.9,0.2-1.5,0.7-1.8,1.5c-0.3,0.9,0,1.7,0.7,2.4c1.8,1.7,3.6,3.4,5.4,5.1c0.4,0.4,0.9,0.6,1.5,0.6C12.9,33.2,13.7,32.7,14.1,31.8
	 M10.9,16.2c-0.4,0.9-0.3,1.8,0.4,2.5c0.7,0.7,1.4,1.3,2.1,2c1.4,1.4,2.9,2.7,4.3,4.1c1.1,1,2.7,0.9,3.5-0.4
	c0.6-0.9,0.5-2.1-0.4-2.9c-2.1-2-4.2-4-6.2-5.9c-0.4-0.4-1-0.7-1.6-0.7C12,14.9,11.2,15.3,10.9,16.2 M7.2,20.1
	C6.8,21,7,21.9,7.7,22.6c2.1,2,4.3,4.1,6.5,6.1c0.9,0.8,2.3,0.8,3.1-0.1c0,0,0,0,0,0c0.8-0.9,0.8-2.3-0.1-3.2c-2.1-2-4.3-4-6.4-6
	c-0.4-0.4-1-0.6-1.6-0.6C8.3,18.7,7.5,19.3,7.2,20.1 M18.2,37.5c-2.2-0.1-4-1.1-5.2-3.1c-0.2-0.3-0.2-0.5,0.2-0.7
	c1.3-0.6,2-1.8,1.8-3.2c0-0.3,0-0.5,0.4-0.4c2,0.1,3.5-1.5,3.3-3.5c-0.1-0.5,0.2-0.4,0.5-0.4c1.7,0.1,3-1.1,3.2-2.5
	c0.2-1-0.1-1.9-0.8-2.6c-2.4-2.3-4.8-4.6-7.2-6.9c-1.9-1.8-3.7-3.5-5.6-5.3C7.9,8,7.9,6.6,8.7,5.7c0.8-0.9,2.2-1,3.1-0.2
	c1.8,1.7,3.6,3.4,5.4,5.1c1.5,1.4,3.1,2.9,4.6,4.3c0.4,0.4,1,0.8,1.5,1c1,0.5,1.9,0.3,2.8-0.5c0.6-0.6,0.9-1.3,1.4-1.9
	c0.4-0.7,0.8-1.4,1.2-2c0.9-1.4,2.5-1.7,3.8-0.9c1.3,0.8,1.6,2.4,0.8,3.7c-1.5,2.5-3,4.9-4.5,7.4c-0.2,0.4-0.2,0.6,0,1
	c0.5,1,1,2,1.4,3c1.3,3,0.1,6.5-2.8,7.9c-2.2,1.1-4.5,2.2-6.7,3.2C20,37.3,19.1,37.5,18.2,37.5"/>
</svg>
