<svg xmlns="http://www.w3.org/2000/svg" width="30" height="30" viewBox="0 0 30 30">
  <title>envelope</title>
  <g>
    <path d="M30,12.5a.43.43,0,0,0,0-.19.36.36,0,0,0-.11-.16L26,8.29V3.5a.5.5,0,0,0-.5-.5H20.71L19.6,1.89a6.54,6.54,0,0,0-9.2,0L9.29,3H4.5a.5.5,0,0,0-.5.5V8.29L.15,12.15a.36.36,0,0,0-.11.16.43.43,0,0,0,0,.19v17a.41.41,0,0,0,0,.19A.51.51,0,0,0,.31,30,.41.41,0,0,0,.5,30h29a.41.41,0,0,0,.19,0,.51.51,0,0,0,.27-.27.41.41,0,0,0,0-.19ZM4.15,16.85h0L8.29,21,1,28.29V13.71Zm5.2,4.5h0l1.76-1.75a5.5,5.5,0,0,1,7.78,0l9.4,9.4H1.71ZM21.71,21l4.14-4.15h0L29,13.71V28.29Zm7.08-8.5L26,15.29V9.71ZM11.11,2.6a5.53,5.53,0,0,1,7.78,0l.4.4H10.71ZM5,4H25V16.29l-4,4-1.4-1.4a6.51,6.51,0,0,0-9.2,0L9,20.29l-4-4ZM4,15.29,1.21,12.5,4,9.71Z" fill="#231f20"/>
    <path d="M8.5,8h3a.5.5,0,0,0,0-1h-3a.5.5,0,0,0,0,1Z" fill="#231f20"/>
    <path d="M8.5,10h10a.5.5,0,0,0,0-1H8.5a.5.5,0,0,0,0,1Z" fill="#231f20"/>
    <path d="M8.5,12h10a.5.5,0,0,0,0-1H8.5a.5.5,0,0,0,0,1Z" fill="#231f20"/>
    <path d="M8.5,14h10a.5.5,0,0,0,0-1H8.5a.5.5,0,0,0,0,1Z" fill="#231f20"/>
  </g>
</svg>
