<?xml version="1.0" encoding="UTF-8"?>
<svg width="44px" height="44px" viewBox="0 0 44 44" version="1.1" xmlns="http://www.w3.org/2000/svg" xmlns:xlink="http://www.w3.org/1999/xlink">
    <!-- Generator: Sketch 57.1 (83088) - https://sketch.com -->
    <title>icon - strong</title>
    <desc>Created with Sketch.</desc>
    <defs>
        <circle id="path-1" cx="20" cy="20" r="20"></circle>
    </defs>
    <g id="comp" stroke="none" stroke-width="1" fill="none" fill-rule="evenodd">
        <g id="enhanced-rightangle-overview-v8" transform="translate(-962.000000, -1568.000000)">
            <g id="overview-|-features" transform="translate(0.000000, 985.000000)">
                <g id="text" transform="translate(835.000000, 212.000000)">
                    <g id="explore-the-features" transform="translate(0.000000, 327.000000)">
                        <g id="icon---strong" transform="translate(129.000000, 46.000000)">
                            <use id="Oval" stroke="currentColor" stroke-width="2.5" xlink:href="#path-1"></use>
                            <g id="Group" fill="currentColor">
                                <g transform="translate(8.000000, 6.000000)">
                                    <path d="M17.216947,0 L11.737492,7.44574041 L14.3697632,7.44574041 C14.1075154,16.0107968 3.60617888,19.2788242 0,19.69643 L0,21 C7.80105505,20.7523051 20.3454214,16.4173694 20.6430346,7.44574041 L23,7.44574041 L17.216947,0" id="Fill-19"></path>
                                    <path d="M9.22196826,23 L13.7774845,23 L13.7774845,18.1723582 C12.2806876,18.883302 10.7280688,19.4200054 9.22196826,19.8115085 L9.22196826,23 Z M15.4444838,17.2866362 L15.4444838,23 L20,23 L20,13 C19.0439108,14.6187147 17.5126356,16.0610379 15.4444838,17.2866362 Z M3,23 L7.55551621,23 L7.55551621,20.1927938 C5.85786949,20.5272923 4.28445417,20.6784082 3,20.6929282 L3,23 L3,23 Z" id="Fill-20"></path>
                                    <polygon id="Fill-21" points="1 25 21 25 21 24 1 24"></polygon>
                                </g>
                            </g>
                        </g>
                    </g>
                </g>
            </g>
        </g>
    </g>
</svg>
