<svg width="44" height="44" viewBox="0 0 44 44" xmlns="http://www.w3.org/2000/svg" xmlns:xlink="http://www.w3.org/1999/xlink">
  <defs>
    <circle id="a" cx="20" cy="20" r="20"/>
  </defs>
  <g transform="translate(2 2)" fill="none" fill-rule="evenodd">
    <use stroke="currentColor" stroke-width="2.5" xlink:href="#a"/>
    <path d="M6 16.11l2.009 1.877a16.566 16.566 0 0 1 12.06-5.237c4.623 0 8.903 1.859 12.056 5.232l2.01-1.88A19.322 19.322 0 0 0 20.07 10 19.318 19.318 0 0 0 6 16.11m3.878 3.907l2.038 1.848a11.013 11.013 0 0 1 8.154-3.615c3.1 0 6.07 1.316 8.15 3.61l2.037-1.848A13.78 13.78 0 0 0 20.07 15.5c-3.875 0-7.59 1.649-10.192 4.517m3.862 3.94l2.108 1.767c2.103-2.511 6.346-2.511 8.446.002l2.111-1.761A8.242 8.242 0 0 0 20.07 21a8.236 8.236 0 0 0-6.33 2.957m9.08 5.293c0 1.52-1.23 2.75-2.75 2.75s-2.75-1.23-2.75-2.75 1.23-2.75 2.75-2.75 2.75 1.23 2.75 2.75" fill="currentColor"/>
  </g>
</svg>
