<?xml version="1.0" encoding="UTF-8"?>
<svg width="15px" height="15px" viewBox="0 0 15 15" version="1.1" xmlns="http://www.w3.org/2000/svg" xmlns:xlink="http://www.w3.org/1999/xlink">
    <!-- Generator: Sketch 50.2 (55047) - http://www.bohemiancoding.com/sketch -->
    <title>globe</title>
    <desc>Created with Sketch.</desc>
    <defs></defs>
    <g id="Symbols" stroke="none" stroke-width="1" fill="none" fill-rule="evenodd">
        <g id="alt-nav" transform="translate(-111.000000, 0.000000)" fill="#383739">
            <g id="alt-nav---v3" transform="translate(111.000000, 0.000000)">
                <g id="nav---version-534">
                    <g id="utility">
                        <g id="location-/-language">
                            <g id="globe">
                                <path d="M13.0685909,3.62172727 L12.8549545,3.68945455 L11.7172273,3.79081818 L11.3958636,4.304 L11.1626818,4.22990909 L10.2572273,3.41354545 L10.1258636,2.989 L9.94995455,2.53627273 L9.38086364,2.02581818 L8.7095,1.89445455 L8.69404545,2.20172727 L9.35177273,2.84354545 L9.67359091,3.22263636 L9.31177273,3.41172727 L9.01722727,3.32490909 L8.57586364,3.14081818 L8.59086364,2.78490909 L8.01177273,2.54672727 L7.8195,3.38354545 L7.23586364,3.51581818 L7.29359091,3.98263636 L8.05404545,4.129 L8.18540909,3.38309091 L8.81313636,3.47581818 L9.10495455,3.64672727 L9.57359091,3.64672727 L9.89359091,4.28854545 L10.7431364,5.15036364 L10.6808636,5.48536364 L9.99586364,5.39809091 L8.81222727,5.99581818 L7.95995455,7.01809091 L7.8495,7.47081818 L7.54313636,7.47081818 L6.97313636,7.20809091 L6.4195,7.47081818 L6.55722727,8.05490909 L6.79813636,7.77718182 L7.22177273,7.764 L7.19222727,8.289 L7.54313636,8.39127273 L7.89359091,8.78490909 L8.46586364,8.624 L9.1195,8.72718182 L9.87859091,8.93172727 L10.2576818,8.97581818 L10.9004091,9.70536364 L12.1408636,10.4349091 L11.3385909,11.9676364 L10.4917727,12.3617273 L10.1704091,13.2371818 L8.94495455,14.0553636 L8.81495455,14.5271818 C11.9472273,13.7726364 14.2776818,10.959 14.2776818,7.594 C14.2767727,6.12445455 13.8313182,4.75672727 13.0685909,3.62172727" id="Fill-1"></path>
                                <path d="M7.95940909,11.3259091 L7.43940909,10.3618182 L7.91668182,9.36727273 L7.43940909,9.22454545 L6.9035,8.68636364 L5.71622727,8.42 L5.32213636,7.59545455 L5.32213636,8.085 L5.1485,8.085 L4.12531818,6.69772727 L4.12531818,5.55818182 L3.37577273,4.33863636 L2.18440909,4.55090909 L1.38213636,4.55090909 L0.978954545,4.28636364 L1.4935,3.87818182 L0.980318182,3.99681818 C0.360772727,5.05409091 -0.000136363636,6.28090909 -0.000136363636,7.595 C-0.000136363636,11.5372727 3.19622727,14.7345455 7.1385,14.7345455 C7.44213636,14.7345455 7.74031818,14.7077273 8.03440909,14.6722727 L7.95986364,13.8072727 C7.95986364,13.8072727 8.28804545,12.5227273 8.28804545,12.4790909 C8.28759091,12.435 7.95940909,11.3259091 7.95940909,11.3259091" id="Fill-3"></path>
                                <path d="M5.2805,1.22313636 L5.60231818,1.35722727 L6.02368182,1.22313636 L6.25322727,1.62086364 L5.2805,1.87631818 L4.81277273,1.60268182 C4.81231818,1.60268182 5.27004545,1.30813636 5.2805,1.22313636 Z M7.44004545,1.1645 L8.16868182,0.763136364 L8.63731818,1.03359091 L7.95959091,1.5495 L7.31231818,1.6145 L7.02095455,1.42540909 L7.44004545,1.1645 Z M2.65277273,2.75677273 L3.92095455,2.57995455 L4.5055,2.2595 L5.16322727,2.44904545 L6.21413636,2.39086364 L6.57413636,1.82495455 L7.09913636,1.91131818 L8.37413636,1.79177273 L8.7255,1.4045 L9.22095455,1.07359091 L9.92186364,1.17904545 L10.1768636,1.14040909 C9.25413636,0.705863636 8.22640909,0.4545 7.13822727,0.4545 C4.92231818,0.4545 2.94095455,1.4645 1.63277273,3.05040909 L1.63640909,3.05040909 L2.65277273,2.75677273 Z" id="Fill-6"></path>
                            </g>
                        </g>
                    </g>
                </g>
            </g>
        </g>
    </g>
</svg>
