<?xml version="1.0" encoding="UTF-8"?>
<svg width="9px" height="12px" viewBox="0 0 9 12" version="1.1" xmlns="http://www.w3.org/2000/svg" xmlns:xlink="http://www.w3.org/1999/xlink">
    <!-- Generator: Sketch 50.2 (55047) - http://www.bohemiancoding.com/sketch -->
    <title>Fill 1</title>
    <desc>Created with Sketch.</desc>
    <defs></defs>
    <g id="distributors" stroke="none" stroke-width="1" fill="none" fill-rule="evenodd">
        <g transform="translate(-524.000000, -1149.000000)" fill="#383739" id="grid">
            <g transform="translate(0.000000, 1034.000000)">
                <g id="1.-Tool-Smith-Co." transform="translate(110.000000, 82.000000)">
                    <g id="distance" transform="translate(414.000000, 6.000000)">
                        <path d="M4.59995721,33.2002 C3.71778023,33.2002 3,32.4824198 3,31.6002428 C3,30.7179802 3.71778023,30.0002 4.59995721,30.0002 C5.4821342,30.0002 6.19991442,30.7179802 6.19991442,31.6002428 C6.20000005,32.4824198 5.48221982,33.2002 4.59995721,33.2002 M4.41771737,27.0002 C1.98190601,27.0002 0,28.982106 0,31.418163 C0,32.0535814 0.130055674,32.6602622 0.386359915,33.2215034 C1.49091207,35.6385249 3.60864582,38.1903916 4.23153758,38.9147243 C4.27820534,38.9690063 4.34624202,39.0002 4.41784018,39.0002 C4.48943835,39.0002 4.55747503,38.9690063 4.60414279,38.9147243 C5.22678893,38.1905144 7.34452268,35.6387705 8.44944326,33.2215034 C8.70587031,32.6602622 8.83580318,32.0535814 8.83580318,31.418163 C8.83555756,28.982106 6.85365155,27.0002 4.41771737,27.0002" id="Fill-1"></path>
                    </g>
                </g>
            </g>
        </g>
    </g>
</svg>