<svg width="13px" height="14px" viewBox="0 0 13 14" version="1.1" xmlns="http://www.w3.org/2000/svg">
	<!-- Generator: Sketch 51.1 (57501) - http://www.bohemiancoding.com/sketch -->
	<desc>Created with Sketch.</desc>
	<defs></defs>
	<g id="news-+-media" stroke="none" stroke-width="1" fill="none" fill-rule="evenodd">
		<g id="news-media-single-story" transform="translate(-580.000000, -2592.000000)" fill="#383739">
			<g id="share" transform="translate(320.000000, 2589.000000)">
				<path
					d="M270.111111,12.3333333 C269.576622,12.3333333 269.085689,12.5150222 268.692289,12.8174222 L264.632911,10.3818889 C264.653289,10.2572889 264.666667,10.1302 264.666667,10 C264.666667,9.86948889 264.653289,9.74271111 264.632911,9.61795556 L268.692289,7.18242222 C269.085689,7.48513333 269.576622,7.66666667 270.111111,7.66666667 C271.399578,7.66666667 272.444444,6.6218 272.444444,5.33333333 C272.444444,4.04486667 271.399578,3 270.111111,3 C268.822644,3 267.777778,4.04486667 267.777778,5.33333333 C267.777778,5.46353333 267.791156,5.59062222 267.811844,5.71522222 L263.752467,8.15075556 C263.359067,7.84835556 262.868133,7.66666667 262.333333,7.66666667 C261.044867,7.66666667 260,8.71153333 260,10 C260,11.2884667 261.044867,12.3333333 262.333333,12.3333333 C262.868133,12.3333333 263.359067,12.1518 263.752467,11.8490889 L267.811844,14.2846222 C267.791156,14.4093778 267.777778,14.5361556 267.777778,14.6666667 C267.777778,15.9551333 268.822644,17 270.111111,17 C271.399578,17 272.444444,15.9551333 272.444444,14.6666667 C272.444444,13.3782 271.399578,12.3333333 270.111111,12.3333333"
					id="Fill-1"></path>
			</g>
		</g>
	</g>
</svg>
