<?xml version="1.0" encoding="UTF-8"?>
<svg width="23px" height="23px" viewBox="0 0 23 23" version="1.1" xmlns="http://www.w3.org/2000/svg" xmlns:xlink="http://www.w3.org/1999/xlink">
    <!-- Generator: Sketch 61 (89581) - https://sketch.com -->
    <title>signal</title>
    <desc>Created with Sketch.</desc>
    <g id="comp" stroke="none" stroke-width="1" fill="none" fill-rule="evenodd">
        <g id="celltek-rightangle-overview-v8" transform="translate(-697.000000, -563.000000)" fill="#FFFFFF" fill-rule="nonzero">
            <g id="hero" transform="translate(-81.000000, 164.000000)">
                <g id="tagline">
                    <g transform="translate(0.000000, 368.000000)" id="signal">
                        <g transform="translate(778.000000, 31.000000)">
                            <path d="M8.24266337,18.878967 C8.24266337,21.1551537 6.39721964,23 4.1216304,23 C1.84544373,23 0,21.1551537 0,18.878967 C0,16.6027804 1.84544373,14.7579341 4.1216304,14.7579341 C6.39721964,14.7579341 8.24266337,16.6027804 8.24266337,18.878967 Z M12.0518408,17.8337134 C11.3922844,17.8337134 10.8569922,17.2984212 10.8569922,16.6388648 C10.8569922,13.7730203 8.5258425,11.4418706 5.65999803,11.4418706 C4.99984415,11.4418706 4.46514938,10.9065784 4.46514938,10.247022 C4.46514938,9.58686809 4.99984415,9.05217333 5.65999803,9.05217333 C9.84316313,9.05217333 13.2466895,12.4556997 13.2466895,16.6388648 C13.2466895,17.2984212 12.7113973,17.8337134 12.0518408,17.8337134 Z M16.7233406,17.8337134 C16.0637841,17.8337134 15.5284919,17.2984212 15.5284919,16.6388648 C15.5284919,11.1975241 11.1015777,6.77060984 5.65963957,6.77060984 C5.00008312,6.77060984 4.46479093,6.23531765 4.46479093,5.5757612 C4.46479093,4.91560732 5.00008312,4.38091255 5.65963957,4.38091255 C12.4194958,4.38091255 17.9181892,9.88020344 17.9181892,16.6388648 C17.9181892,17.2984212 17.382897,17.8337134 16.7233406,17.8337134 Z M21.1036557,17.8337134 C20.4440993,17.8337134 19.9088071,17.2984212 19.9088071,16.6388648 C19.9088071,8.78213753 13.5169643,2.38969729 5.65963957,2.38969729 C5.00008312,2.38969729 4.46479093,1.85500252 4.46479093,1.19484864 C4.46479093,0.535292192 5.00008312,0 5.65963957,0 C14.8342849,0 22.2985044,7.46421948 22.2985044,16.6388648 C22.2985044,17.2984212 21.7632122,17.8337134 21.1036557,17.8337134 Z" id="Combined-Shape"></path>
                        </g>
                    </g>
                </g>
            </g>
        </g>
    </g>
</svg>