<?xml version="1.0" encoding="UTF-8"?>
<svg width="16px" height="19px" viewBox="0 0 16 19" version="1.1" xmlns="http://www.w3.org/2000/svg" xmlns:xlink="http://www.w3.org/1999/xlink">
    <!-- Generator: Sketch 50.2 (55047) - http://www.bohemiancoding.com/sketch -->
    <title>Fill 1</title>
    <desc>Created with Sketch.</desc>
    <defs></defs>
    <g id="hp" stroke="none" stroke-width="1" fill="none" fill-rule="evenodd">
        <g transform="translate(-1304.000000, -3679.000000)" fill="#383739" id="footer">
            <g transform="translate(0.000000, 3294.000000)">
                <g transform="translate(0.000000, 317.000000)" id="social-icons">
                    <g transform="translate(897.000000, 60.000000)">
                        <path d="M410.838444,15.4384778 L411.996178,15.4384778 L411.997444,11.4358111 L413.365444,8.00694444 L412.0992,8.00694444 L411.371922,10.5537889 L410.6343,7.99997778 L409.381144,7.99997778 L410.836544,11.4377111 L410.838444,15.4384778 Z M414.2348,14.0356444 C414.2348,14.3312 414.454778,14.5725 414.722678,14.5725 C414.990789,14.5725 415.209922,14.3312 415.209922,14.0356444 L415.209922,11.2574222 C415.209922,10.9622889 414.990789,10.7209889 414.722678,10.7209889 C414.454778,10.7209889 414.2348,10.9622889 414.2348,11.2574222 L414.2348,14.0356444 Z M413.273611,11.9625333 C413.273611,11.4615667 413.315411,11.0703778 413.398378,10.7883333 C413.481978,10.5073444 413.632078,10.2814556 413.849522,10.1110889 C414.066333,9.93987778 414.343944,9.85416667 414.681511,9.85416667 C414.965456,9.85416667 415.208656,9.9099 415.411744,10.0190444 C415.615678,10.1288222 415.773167,10.2713222 415.882522,10.4471778 C415.993567,10.6236667 416.069356,10.8050111 416.109678,10.9905778 C416.150844,11.1786778 416.171111,11.4624111 416.171111,11.8451556 L416.171111,13.1650222 C416.171111,13.6491 416.151478,14.0052444 416.1139,14.2313444 C416.076533,14.4580778 415.996311,14.6683444 415.871967,14.8655222 C415.749522,15.0605889 415.5914,15.2064667 415.399711,15.2995667 C415.205911,15.3935111 414.984244,15.4395333 414.733867,15.4395333 C414.454144,15.4395333 414.218544,15.4009 414.024322,15.3202556 C413.829467,15.2400333 413.678944,15.1190667 413.5717,14.9584111 C413.4634,14.7975444 413.387189,14.6016333 413.341167,14.3732111 C413.294933,14.145 413.272978,13.8017333 413.272978,13.3442556 L413.273611,11.9625333 Z M416.992544,14.9100667 C417.049122,15.0481333 417.137367,15.1600222 417.257278,15.2444667 C417.3755,15.3276444 417.526656,15.3694444 417.707789,15.3694444 C417.866544,15.3694444 418.007144,15.3265889 418.129589,15.2381333 C418.251611,15.1501 418.354422,15.0185778 418.438444,14.8431444 L418.417544,15.2750778 L419.644733,15.2750778 L419.644733,10.0562 L418.678689,10.0562 L418.678689,14.1179778 C418.678689,14.3379556 418.497556,14.5180333 418.2761,14.5180333 C418.055911,14.5180333 417.874144,14.3379556 417.874144,14.1179778 L417.874144,10.0562 L416.865878,10.0562 L416.865878,13.5762667 C416.865878,14.0246667 416.874111,14.3236 416.887411,14.4751778 C416.901133,14.6257 416.935756,14.7701 416.992544,14.9100667 Z M421.2268,23.4026444 L420.401567,23.4072889 C420.400933,23.4398 420.399878,23.4778 420.399456,23.5187556 L420.399456,23.9796111 C420.399456,24.2259778 420.195733,24.4267444 419.948311,24.4267444 L419.7866,24.4267444 C419.538544,24.4267444 419.335033,24.2259778 419.335033,23.9796111 L419.335033,23.9283111 L419.335033,23.4216444 L419.335033,22.7678333 L421.225322,22.7678333 L421.225322,22.0563889 C421.225322,21.5364222 421.212022,21.0166667 421.168956,20.7194222 C421.033422,19.7791333 419.713767,19.6298778 419.047078,20.1112111 C418.837867,20.2615222 418.678056,20.4627111 418.585167,20.7331444 C418.491222,21.0033667 418.444778,21.3728111 418.444778,21.8421111 L418.444778,23.4064444 C418.4452,26.0069111 421.603844,25.6393667 421.2268,23.4026444 Z M417.781467,23.7505556 L417.778933,21.1268667 C417.7783,20.1270444 417.030333,19.5285444 416.0151,20.3375222 L416.019533,18.3868556 L414.919856,18.3885444 L414.914578,25.1208778 L415.818978,25.1077889 L415.901311,24.6885222 C417.056722,25.7485111 417.783156,25.0220778 417.781467,23.7505556 Z M414.2595,20.1407667 L413.158556,20.1407667 L413.158556,23.2930778 C413.158556,23.7488667 413.186211,23.9768667 413.156867,24.0573 C413.067356,24.3017667 412.664978,24.5614333 412.508122,24.0836889 C412.481522,24.0000889 412.504956,23.7478111 412.504533,23.3146111 L412.5001,20.1407667 L411.405278,20.1407667 L411.408656,23.2647889 C411.4095,23.7435889 411.397889,24.1005778 411.412456,24.2631333 C411.439267,24.5496111 411.429767,24.8835889 411.695556,25.0744333 C412.190822,25.4312111 413.140189,25.0212333 413.377689,24.5111889 L413.375578,25.1620444 L414.259711,25.1631 L414.2595,20.1407667 Z M410.301167,25.1643667 L410.300322,19.2614889 L411.620822,19.2619111 L411.620822,18.3872778 L408.100756,18.382 L408.100756,19.2418556 L409.199589,19.2450222 L409.199589,25.1643667 L410.301167,25.1643667 Z M422.833356,18.9522111 L422.833356,24.5559444 C422.833356,25.9000889 421.6676,26.9999778 420.243022,26.9999778 L409.590567,26.9999778 C408.165356,26.9999778 407.000022,25.9000889 407.000022,24.5559444 L407.000022,18.9522111 C407.000022,17.6080667 408.165356,16.5079667 409.590567,16.5079667 L420.243022,16.5079667 C421.6676,16.5079667 422.833356,17.6080667 422.833356,18.9522111 Z M416.481656,20.5999333 C416.217133,20.5999333 416.000744,20.7779 416.000744,20.9953444 L416.000744,23.9409778 C416.000744,24.1582111 416.217133,24.3355444 416.481656,24.3355444 C416.747233,24.3355444 416.963833,24.1582111 416.963833,23.9409778 L416.963833,20.9953444 C416.963833,20.7776889 416.747233,20.5999333 416.481656,20.5999333 Z M420.3927,21.8978444 L419.350022,21.8978444 L419.354878,21.2921667 C419.354878,21.0232111 419.575911,20.8028111 419.845922,20.8028111 L419.912422,20.8028111 C420.183067,20.8028111 420.404733,21.0232111 420.404733,21.2921667 L420.3927,21.8978444 Z" id="Fill-1"></path>
                    </g>
                </g>
            </g>
        </g>
    </g>
</svg>