<?xml version="1.0" encoding="UTF-8"?>
<svg width="80px" height="82px" viewBox="0 0 80 82" version="1.1" xmlns="http://www.w3.org/2000/svg" xmlns:xlink="http://www.w3.org/1999/xlink">
    <!-- Generator: Sketch 61 (89581) - https://sketch.com -->
    <title>circle - 360</title>
    <desc>Created with Sketch.</desc>
    <defs>
        <circle id="path-1" cx="24.6072307" cy="24.6072307" r="24.6072307"></circle>
        <filter x="-54.9%" y="-54.9%" width="209.7%" height="209.7%" filterUnits="objectBoundingBox" id="filter-2">
            <feMorphology radius="1" operator="dilate" in="SourceAlpha" result="shadowSpreadOuter1"></feMorphology>
            <feOffset dx="0" dy="4" in="shadowSpreadOuter1" result="shadowOffsetOuter1"></feOffset>
            <feGaussianBlur stdDeviation="6" in="shadowOffsetOuter1" result="shadowBlurOuter1"></feGaussianBlur>
            <feColorMatrix values="0 0 0 0 0   0 0 0 0 0   0 0 0 0 0  0 0 0 0.250273164 0" type="matrix" in="shadowBlurOuter1" result="shadowMatrixOuter1"></feColorMatrix>
            <feOffset dx="0" dy="0" in="SourceAlpha" result="shadowOffsetOuter2"></feOffset>
            <feGaussianBlur stdDeviation="8" in="shadowOffsetOuter2" result="shadowBlurOuter2"></feGaussianBlur>
            <feColorMatrix values="0 0 0 0 0.341176471   0 0 0 0 0.752941176   0 0 0 0 0.909803922  0 0 0 1 0" type="matrix" in="shadowBlurOuter2" result="shadowMatrixOuter2"></feColorMatrix>
            <feMerge>
                <feMergeNode in="shadowMatrixOuter1"></feMergeNode>
                <feMergeNode in="shadowMatrixOuter2"></feMergeNode>
            </feMerge>
        </filter>
    </defs>
    <g id="comp" stroke="none" stroke-width="1" fill="none" fill-rule="evenodd">
        <g id="celltek-overview-v5" transform="translate(-434.000000, -1660.000000)">
            <g id="overview-|-features" transform="translate(0.000000, 985.000000)">
                <g id="360-product" transform="translate(65.000000, 144.000000)">
                    <g id="360" transform="translate(141.737649, 512.979557)">
                        <g id="circle---360" transform="translate(243.040886, 33.541738)">
                            <g id="Oval">
                                <use fill="black" fill-opacity="1" filter="url(#filter-2)" xlink:href="#path-1"></use>
                                <use fill="#57C0E8" fill-rule="evenodd" xlink:href="#path-1"></use>
                            </g>
                            <path d="M36.9108461,24.6072307 L29.0889344,30.1943105 C28.8642282,30.354815 28.5519531,30.3027692 28.3914486,30.0780629 C28.3308769,29.9932625 28.2983154,29.8916553 28.2983154,29.7874438 L28.2983154,19.4270177 C28.2983154,19.1508753 28.522173,18.9270177 28.7983154,18.9270177 C28.9025268,18.9270177 29.0041341,18.9595793 29.0889344,19.020151 L36.9108461,24.6072307 L36.9108461,24.6072307 Z" id="Triangle-2" fill="#FFFFFF"></path>
                            <path d="M22.1465077,24.6072307 L14.324596,30.1943105 C14.0998897,30.354815 13.7876147,30.3027692 13.6271102,30.0780629 C13.5665385,29.9932625 13.5339769,29.8916553 13.5339769,29.7874438 L13.5339769,19.4270177 C13.5339769,19.1508753 13.7578345,18.9270177 14.0339769,18.9270177 C14.1381884,18.9270177 14.2397956,18.9595793 14.324596,19.020151 L22.1465077,24.6072307 L22.1465077,24.6072307 Z" id="Triangle-2" fill="#FFFFFF" transform="translate(17.840242, 24.607231) rotate(-180.000000) translate(-17.840242, -24.607231) "></path>
                        </g>
                    </g>
                </g>
            </g>
        </g>
    </g>
</svg>