<?xml version="1.0" encoding="UTF-8"?>
<svg width="319px" height="71px" viewBox="0 0 319 71" version="1.1" xmlns="http://www.w3.org/2000/svg" xmlns:xlink="http://www.w3.org/1999/xlink">
    <!-- Generator: Sketch 50.2 (55047) - http://www.bohemiancoding.com/sketch -->
    <title>clecotools-logo</title>
    <desc>Created with Sketch.</desc>
    <defs></defs>
    <g id="clecotools-logo" stroke="none" stroke-width="1" fill="none" fill-rule="evenodd">
        <g fill="#E05206" fill-rule="nonzero" id="Group">
            <g>
                <path d="M77.6420112,43.702275 L77.6420112,45.739975 C77.6420112,53.3281 77.5240223,60.1867 69.5258101,65.462 C61.5275978,70.643225 51.7613408,70.54915 41.5249162,70.54915 C17.532067,70.554475 0,69.627925 0,44.2614 L0,26.296625 C0,3.33345 15.6460335,0 41.5267039,0 C65.7608939,0 77.0538547,1.94185 77.5240223,22.778575 L77.5240223,25.46415 L53.2880447,25.46415 L53.2880447,22.778575 C52.4692737,16.573175 46.9398883,16.1099 38.9398883,16.1099 C25.5267039,16.1099 24.2324022,19.349275 24.2324022,29.257325 L24.2324022,40.09725 C24.2324022,50.4668 24.8223464,54.441025 38.9398883,54.441025 C48.7043575,54.441025 53.4096089,53.890775 53.4096089,45.7453 L53.4096089,43.7076 L77.6420112,43.702275 Z" id="Shape"></path>
                <rect id="Rectangle-path" x="84.1063687" y="0.5538" width="20.2332961" height="69.446875"></rect>
                <path d="M151.42257,38.292075 C151.42257,30.7572 147.857877,30.272625 140.744581,30.272625 C133.263017,30.272625 130.924693,31.628725 130.681564,38.292075 L151.42257,38.292075 Z M172.524693,53.06895 C172.524693,60.699675 169.337207,65.0502 163.81676,67.56005 C158.292737,69.97405 150.43933,70.554475 141.112849,70.554475 C115.713073,70.554475 109.574078,63.603575 109.574078,44.667875 C109.574078,25.157075 115.214302,18.68365 141.112849,18.68365 C165.289832,18.68365 172.524693,23.99445 172.524693,44.667875 L172.524693,47.46705 L130.681564,47.46705 C130.681564,56.358025 132.397765,58.967275 141.111061,58.967275 C147.616536,58.967275 151.783687,58.385075 151.783687,53.074275 L172.524693,53.074275 L172.524693,53.06895 Z" id="Shape"></path>
                <path d="M239.948156,49.6929 C239.948156,59.158975 237.854749,64.37215 232.822346,67.1731 C227.920447,70.075225 220.18324,70.554475 208.779441,70.554475 C183.862346,70.554475 177.973631,64.67035 177.973631,44.667875 C177.973631,27.477 182.391061,18.68365 208.779441,18.68365 C227.301899,18.68365 239.95352,20.23145 239.95352,38.292075 L218.83352,38.292075 C218.958659,35.5852 218.588603,33.9451 217.120894,32.88365 C215.642458,31.8222 213.193296,31.433475 208.779441,31.433475 C201.292514,31.433475 199.081117,33.077125 199.081117,44.667875 C199.081117,56.546175 200.795531,57.8011 208.779441,57.8011 C218.34905,57.8011 218.83352,55.97285 218.83352,49.6929 L239.948156,49.6929 Z" id="Shape"></path>
                <path d="M266.159553,44.667875 C266.159553,55.6853 267.389497,57.8011 277.574078,57.8011 C287.392179,57.8011 288.377207,55.6853 288.377207,44.667875 C288.377207,33.65755 287.392179,31.433475 277.574078,31.433475 C267.387709,31.433475 266.159553,33.65755 266.159553,44.667875 M309.475754,44.667875 C309.475754,65.533 303.955307,70.554475 277.198659,70.554475 C250.819218,70.554475 245.053855,64.95435 245.053855,44.667875 C245.053855,23.90215 250.331173,18.68365 277.198659,18.68365 C304.203799,18.68365 309.475754,23.2241 309.475754,44.667875" id="Shape"></path>
                <path d="M312.271732,19.33685 C313.237095,19.33685 314.105922,19.26585 314.105922,18.124525 C314.105922,17.2033 313.253184,17.031125 312.459441,17.031125 L310.898771,17.031125 L310.898771,19.33685 L312.271732,19.33685 Z M310.898771,23.516975 L309.751061,23.516975 L309.751061,16.0815 L312.623911,16.0815 C314.409832,16.0815 315.294749,16.73115 315.294749,18.195525 C315.294749,19.523225 314.449162,20.101875 313.331844,20.2421 L315.478883,23.516975 L314.198883,23.516975 L312.207374,20.290025 L310.893408,20.290025 L310.898771,23.516975 Z M312.287821,25.1695 C315.251844,25.1695 317.591955,22.885075 317.591955,19.782375 C317.591955,16.73115 315.251844,14.425425 312.287821,14.425425 C309.286257,14.425425 306.955084,16.729375 306.955084,19.782375 C306.949721,22.885075 309.286257,25.1695 312.287821,25.1695 Z M305.630391,19.782375 C305.630391,16.0815 308.685587,13.35155 312.287821,13.35155 C315.856089,13.35155 318.907709,16.0815 318.907709,19.782375 C318.907709,23.516975 315.856089,26.24515 312.287821,26.24515 C308.685587,26.24515 305.630391,23.516975 305.630391,19.782375 Z" id="Shape"></path>
            </g>
        </g>
    </g>
</svg>