<svg width="319" height="71" viewBox="0 0 319 71" xmlns="http://www.w3.org/2000/svg"><g fill="#E05206"><path d="M77.642 43.702v2.038c0 7.588-.118 14.447-8.116 19.722-7.998 5.181-17.765 5.087-28.001 5.087C17.532 70.554 0 69.628 0 44.261V26.297C0 3.333 15.646 0 41.527 0 65.76 0 77.054 1.942 77.524 22.779v2.685H53.288V22.78c-.819-6.206-6.348-6.67-14.348-6.67-13.413 0-14.708 3.24-14.708 13.148v10.84c0 10.37.59 14.344 14.708 14.344 9.764 0 14.47-.55 14.47-8.696v-2.037l24.232-.006zM84.106.554h20.233v69.447H84.106zm67.317 37.738c0-7.535-3.565-8.02-10.678-8.02-7.482 0-9.82 1.357-10.063 8.02h20.74zm21.102 14.777c0 7.63-3.188 11.981-8.708 14.491-5.524 2.414-13.378 2.994-22.704 2.994-25.4 0-31.539-6.95-31.539-25.886 0-19.51 5.64-25.984 31.539-25.984 24.177 0 31.412 5.31 31.412 25.984v2.8l-41.843-.001c0 8.891 1.716 11.5 10.43 11.5 6.505 0 10.672-.582 10.672-5.893h20.74v-.005zm67.423-3.376c0 9.466-2.093 14.68-7.126 17.48-4.902 2.902-12.639 3.381-24.043 3.381-24.917 0-30.805-5.884-30.805-25.886 0-17.191 4.417-25.984 30.805-25.984 18.523 0 31.175 1.547 31.175 19.608h-21.12c.125-2.707-.245-4.347-1.713-5.408-1.479-1.062-3.928-1.45-8.342-1.45-7.486 0-9.698 1.643-9.698 13.234 0 11.878 1.715 13.133 9.698 13.133 9.57 0 10.055-1.828 10.055-8.108h21.114zm26.212-5.025c0 11.017 1.23 13.133 11.414 13.133 9.818 0 10.803-2.116 10.803-13.133 0-11.01-.985-13.235-10.803-13.235-10.186 0-11.414 2.225-11.414 13.235m43.316 0c0 20.865-5.52 25.886-32.277 25.886-26.38 0-32.145-5.6-32.145-25.886 0-20.766 5.277-25.984 32.145-25.984 27.005 0 32.277 4.54 32.277 25.984"/><path d="M312.272 19.337c.965 0 1.834-.071 1.834-1.212 0-.922-.853-1.094-1.647-1.094h-1.56v2.306h1.373zm-1.373 4.18h-1.148v-7.436h2.873c1.786 0 2.67.65 2.67 2.115 0 1.327-.845 1.906-1.962 2.046l2.147 3.275h-1.28l-1.992-3.227h-1.314l.006 3.227zm1.389 1.652c2.964 0 5.304-2.284 5.304-5.387 0-3.05-2.34-5.357-5.304-5.357-3.002 0-5.333 2.304-5.333 5.357-.005 3.103 2.331 5.387 5.333 5.387zm-6.658-5.387c0-3.7 3.056-6.43 6.658-6.43 3.568 0 6.62 2.73 6.62 6.43 0 3.735-3.052 6.463-6.62 6.463-3.602 0-6.658-2.728-6.658-6.463z"/></g></svg>