<?xml version="1.0" encoding="UTF-8"?>
<svg width="324px" height="105px" viewBox="0 0 324 105" version="1.1" xmlns="http://www.w3.org/2000/svg" xmlns:xlink="http://www.w3.org/1999/xlink">
    <!-- Generator: Sketch 57.1 (83088) - https://sketch.com -->
    <title>Group 2</title>
    <desc>Created with Sketch.</desc>
    <g id="comp" stroke="none" stroke-width="1" fill="none" fill-rule="evenodd">
        <g id="enhanced-features-option2-v7" transform="translate(-213.000000, -363.000000)">
            <g id="hero" transform="translate(-81.000000, 164.000000)">
                <g id="option-3" transform="translate(81.000000, 0.000000)">
                    <g id="text" transform="translate(-81.000000, 199.000000)">
                        <g id="Group-2" transform="translate(294.000000, 0.000000)">
                            <text id="Cordless-Assembly-To" font-family="HelveticaNeue-Medium, Helvetica Neue" font-size="28" font-weight="400" fill="#383739">
                                <tspan x="0" y="99">Cordless Assembly Tools</tspan>
                            </text>
                            <path d="M26.8664044,0 C38.5639912,0 51.0916549,7.24497415 51.4689626,19.9598678 L37.4320681,19.9598678 C36.6019911,14.6367573 32.527068,11.8278797 26.5645582,11.8278797 C17.5081254,11.8278797 14.0368945,19.5902787 14.0368945,27.5005133 C14.0368945,35.4097213 17.5081254,43.1721203 26.5645582,43.1721203 C33.2062218,43.1721203 36.9038373,39.5501465 37.4320681,33.4139399 L51.4689626,33.4139399 C50.6388856,47.0897654 40.5259912,55 26.8664044,55 C10.4902021,55 -1.16529009e-12,42.8025311 -1.16529009e-12,27.5005133 C-1.16529009e-12,12.1974689 10.4902021,0 26.8664044,0 Z M74.2550411,14.4736842 C87.9465197,14.4736842 94.7927701,24.8074795 94.2039333,37.8005869 L66.1585347,37.8005869 C66.3783262,43.1151102 69.3971372,46.5105001 74.6966687,46.5105001 C77.7144575,46.5105001 80.6596639,45.1828944 81.8373376,42.3031691 L93.5414918,42.3031691 C91.1861445,51.1617332 83.0886158,55 74.5494595,55 C62.1092592,55 53.6437075,47.4700668 53.6437075,34.6266355 C53.6437075,22.8883461 62.9925144,14.4736842 74.2550411,14.4736842 Z M197.491102,14.4736842 C211.182924,14.4736842 218.028324,24.8074795 217.439472,37.8005869 L189.394393,37.8005869 C189.61419,43.1151102 192.633076,46.5105001 197.932741,46.5105001 C200.950605,46.5105001 203.894863,45.1828944 205.073589,42.3031691 L216.778036,42.3031691 C214.421608,51.1617332 206.323876,55 197.785528,55 C185.345016,55 176.879252,47.4700668 176.879252,34.6266355 C176.879252,22.8883461 186.228293,14.4736842 197.491102,14.4736842 Z M111.636905,0 L111.636905,53.5526316 L99.3133503,53.5526316 L99.3133503,0 L111.636905,0 Z M131.209609,0 L131.209609,53.5526316 L118.886054,53.5526316 L118.886054,0 L131.209609,0 Z M182.678571,0 L182.678571,12.0004642 L166.530806,12.0004642 L166.530806,53.5526316 L152.430726,53.5526316 L152.430726,12.0004642 L136.284014,12.0004642 L136.284014,0 L182.678571,0 Z M234.012176,0 L234.012176,27.6017969 L245.125031,14.6263796 L259.248842,14.6263796 L245.626857,29.3267139 L260.969388,53.5526316 L246.272062,53.5526316 L237.16651,37.8763025 L234.012176,41.1011474 L234.012176,53.5526316 L221.82398,53.5526316 L221.82398,0 L234.012176,0 Z M74.2550411,22.9631841 C69.8387649,22.9631841 66.9681853,26.0633227 66.1585347,30.7873434 L81.6901284,30.7873434 C81.4693145,26.4323868 78.4515258,22.9631841 74.2550411,22.9631841 Z M197.491102,22.9631841 C193.073693,22.9631841 190.204064,26.0633227 189.394393,30.7873434 L204.926376,30.7873434 C204.704534,26.4323868 201.68667,22.9631841 197.491102,22.9631841 Z M277.10024,0 L279.449117,6.15453644 L281.777207,0 L284.166667,0 L284.166667,8.68421053 L282.607678,8.68421053 L282.607678,1.89725557 L282.566105,1.89725557 L280.009363,8.68421053 L278.846308,8.68421053 L276.290556,1.89725557 L276.248983,1.89725557 L276.248983,8.68421053 L274.689004,8.68421053 L274.689004,0 L277.10024,0 Z M272.943927,0 L272.943927,1.37024013 L270.324825,1.37024013 L270.324825,8.68421053 L268.662894,8.68421053 L268.662894,1.37024013 L266.043793,1.37024013 L266.043793,0 L272.943927,0 Z" id="Combined-Shape" fill="#E35205"></path>
                        </g>
                    </g>
                </g>
            </g>
        </g>
    </g>
</svg>
