<?xml version="1.0" encoding="utf-8"?>
<!-- Generator: Adobe Illustrator 15.0.0, SVG Export Plug-In . SVG Version: 6.00 Build 0)  -->
<!DOCTYPE svg PUBLIC "-//W3C//DTD SVG 1.1//EN" "http://www.w3.org/Graphics/SVG/1.1/DTD/svg11.dtd">
<svg version="1.1" id="Layer_1" xmlns="http://www.w3.org/2000/svg" xmlns:xlink="http://www.w3.org/1999/xlink" x="0px" y="0px"
	 width="134.5px" height="45px" viewBox="0 0 134.5 45" enable-background="new 0 0 134.5 45" xml:space="preserve">
<g>
	<g>
		<path fill="#494949" d="M10.332,36.875c6.248,0.436,6.3-2.164,6.143-7.566V16.073c-0.054-4.753-1.585-5.022-6.143-5.131V36.875z
			 M1,44.173V3.646h10.122c3.391,0,7.472,0.111,10.493,1.888c3.601,2.162,4.189,6.11,4.189,10v17.991
			c-0.056,4.057-1.275,7.028-3.98,8.752c-2.44,1.617-5.405,1.896-8.263,1.896H1z"/>
		<path fill="#494949" d="M44.598,32.066c0,2.319-0.211,5.778-3.236,5.778c-3.026,0-3.395-3.46-3.395-5.778V15.429
			c0-2.485,0.368-5.459,3.34-5.459c3.079,0,3.291,2.975,3.291,5.459V32.066z M90.244,28.34v3.668c0,2.489-0.265,5.838-3.447,5.838
			c-2.436,0-3.336-1.347-3.336-3.621l0.05-20.043c0-2.646,0.693-4.266,3.604-4.213c1.75,0,2.971,1.779,2.971,5.24v2.597h9.325v-3.41
			c0-8.264-4.767-11.717-12.717-11.717c-4.952,0-8.359,1.393-10.357,4.269v-3.3h-24.17v4.012c-1.985-3.241-5.638-4.98-10.806-4.98
			c-8.162,0-12.725,4.321-12.725,12.101v16.478c0,9.129,3.285,13.882,12.725,13.882c9.433,0,12.557-4.753,12.557-13.882V14.778
			c0-1.076-0.087-2.079-0.259-3.03h5.828v32.424h9.324V11.749h5.687c-0.199,1.169-0.314,2.438-0.314,3.841V32.23
			c0,8.262,3.338,12.906,11.926,12.906c9.534,0,13.456-4.854,13.456-11.833V28.34H90.244z"/>
		<path fill="#494949" d="M117.74,15.429c0-2.485-0.209-5.459-3.287-5.459c-2.967,0-3.333,2.975-3.333,5.459v16.638
			c0,2.319,0.366,5.778,3.386,5.778c3.023,0,3.232-3.46,3.232-5.778V15.429H117.74z M127.069,31.258
			c0,9.129-3.128,13.881-12.562,13.881c-9.434,0-12.717-4.752-12.717-13.881V14.778c0-7.78,4.552-12.101,12.717-12.101
			c8.167,0,12.562,4.321,12.562,12.101V31.258z"/>
	</g>
	<g>
		<path fill="#E05206" d="M10.332,34.783c6.248,0.434,6.3-2.165,6.143-7.568V13.98c-0.054-4.753-1.585-5.022-6.143-5.132V34.783z
			 M1,42.08V1.554h10.122c3.391,0,7.472,0.11,10.493,1.888c3.601,2.162,4.189,6.11,4.189,10v17.99
			c-0.056,4.059-1.275,7.029-3.98,8.752c-2.44,1.617-5.405,1.896-8.263,1.896H1z"/>
		<path fill="#E05206" d="M44.598,29.975c0,2.32-0.211,5.777-3.236,5.777c-3.026,0-3.395-3.459-3.395-5.777V13.336
			c0-2.485,0.368-5.459,3.34-5.459c3.079,0,3.291,2.975,3.291,5.459V29.975z M90.244,26.246v3.669c0,2.489-0.265,5.837-3.447,5.837
			c-2.436,0-3.336-1.347-3.336-3.621l0.05-20.042c0-2.646,0.693-4.266,3.604-4.213c1.75,0,2.971,1.779,2.971,5.24v2.598h9.325
			v-3.411c0-8.263-4.767-11.716-12.717-11.716c-4.952,0-8.359,1.393-10.357,4.268v-3.3h-24.17v4.012
			c-1.985-3.24-5.638-4.979-10.806-4.979c-8.162,0-12.725,4.321-12.725,12.1v16.479c0,9.128,3.285,13.881,12.725,13.881
			c9.433,0,12.557-4.753,12.557-13.881V12.686c0-1.076-0.087-2.079-0.259-3.031h5.828V42.08h9.324V9.656h5.687
			c-0.199,1.17-0.314,2.438-0.314,3.841v16.64c0,8.264,3.338,12.908,11.926,12.908c9.534,0,13.456-4.854,13.456-11.834v-4.965
			H90.244z"/>
		<path fill="#E05206" d="M117.74,13.336c0-2.485-0.209-5.459-3.287-5.459c-2.967,0-3.333,2.975-3.333,5.459v16.639
			c0,2.32,0.366,5.777,3.386,5.777c3.023,0,3.232-3.459,3.232-5.777V13.336H117.74z M127.069,29.166
			c0,9.127-3.128,13.88-12.562,13.88c-9.434,0-12.717-4.753-12.717-13.88v-16.48c0-7.78,4.552-12.1,12.717-12.1
			c8.167,0,12.562,4.321,12.562,12.1V29.166z"/>
		<path fill="#E05206" d="M128.355,3.329c0.441,0,0.832-0.032,0.832-0.556c0-0.421-0.382-0.5-0.738-0.5h-0.7v1.056H128.355z
			 M127.749,5.238h-0.521V1.839h1.301c0.794,0,1.197,0.298,1.197,0.962c0,0.618-0.381,0.875-0.885,0.94l0.969,1.497h-0.578
			l-0.894-1.475h-0.591L127.749,5.238L127.749,5.238z M128.372,5.993c1.329,0,2.38-1.045,2.38-2.46c0-1.396-1.053-2.445-2.38-2.445
			c-1.351,0-2.402,1.049-2.402,2.445C125.97,4.948,127.021,5.993,128.372,5.993 M125.386,3.533c0-1.694,1.365-2.941,2.985-2.941
			c1.599,0,2.975,1.247,2.975,2.941c0,1.705-1.375,2.95-2.975,2.95C126.751,6.484,125.386,5.238,125.386,3.533"/>
	</g>
</g>
</svg>
