<svg width="564" height="77" viewBox="0 0 564 77" xmlns="http://www.w3.org/2000/svg"><defs><linearGradient x1="50%" y1="0%" x2="50%" y2="69.392%" id="a"><stop stop-color="#9D9FA1" offset="0%"/><stop stop-color="#CCCDCF" stop-opacity="0" offset="100%"/></linearGradient><linearGradient x1="50%" y1="37.751%" x2="50%" y2="100%" id="b"><stop stop-color="#CCCDCF" stop-opacity="0" offset="0%"/><stop stop-color="#57C0E8" offset="100%"/></linearGradient><linearGradient x1="50%" y1="37.751%" x2="50%" y2="100%" id="d"><stop stop-color="#6D6E70" stop-opacity=".283" offset="0%"/><stop stop-color="#57C0E8" offset="100%"/></linearGradient><linearGradient x1="50%" y1="37.751%" x2="50%" y2="100%" id="e"><stop stop-color="#6D6E70" stop-opacity=".283" offset="0%"/><stop stop-color="#57C0E8" offset="100%"/></linearGradient><filter x="-3.2%" y="-29.3%" width="106.5%" height="158.5%" filterUnits="objectBoundingBox" id="c"><feGaussianBlur stdDeviation="5" in="SourceGraphic"/></filter></defs><g transform="translate(12.738 1.98)" fill="none" fill-rule="evenodd" stroke-linejoin="round"><path d="M269.634 59.796c148.914 0 269.633-13.386 269.633-29.898S418.548 0 269.634 0C120.719 0 0 13.386 0 29.898s120.72 29.898 269.634 29.898z" stroke="url(#a)" stroke-width="3" opacity=".35" stroke-dasharray="3,4"/><ellipse stroke="url(#b)" stroke-width="5" filter="url(#c)" cx="269.634" cy="29.898" rx="269.634" ry="29.898"/><ellipse stroke="url(#b)" stroke-width="4" cx="269.634" cy="29.898" rx="269.634" ry="29.898"/><ellipse stroke="url(#d)" stroke-width="3" cx="266.767" cy="28.5" rx="221.5" ry="17.5"/><ellipse stroke="url(#e)" stroke-width="3" cx="271.767" cy="27.5" rx="171.5" ry="6.5"/></g></svg>