<svg width="1440" height="376" viewBox="0 0 1440 376" xmlns="http://www.w3.org/2000/svg"><defs><filter x="0%" y="0%" width="100%" height="100%" filterUnits="objectBoundingBox" id="s"><feGaussianBlur in="SourceGraphic"/></filter><filter x="-155.2%" y="-158.1%" width="410.5%" height="416.2%" filterUnits="objectBoundingBox" id="k"><feGaussianBlur stdDeviation="4" in="SourceGraphic"/></filter><filter x="-51.8%" y="-53.7%" width="203.7%" height="207.3%" filterUnits="objectBoundingBox" id="c"><feGaussianBlur stdDeviation="3" in="SourceGraphic"/></filter><filter x="-69.1%" y="-71.5%" width="238.2%" height="243.1%" filterUnits="objectBoundingBox" id="d"><feGaussianBlur stdDeviation="4" in="SourceGraphic"/></filter><filter x="-69.1%" y="-71.5%" width="238.2%" height="243.1%" filterUnits="objectBoundingBox" id="e"><feGaussianBlur stdDeviation="4" in="SourceGraphic"/></filter><filter x="-51.8%" y="-53.7%" width="203.7%" height="207.3%" filterUnits="objectBoundingBox" id="f"><feGaussianBlur stdDeviation="3" in="SourceGraphic"/></filter><filter x="-67.5%" y="-67.5%" width="235.1%" height="235.1%" filterUnits="objectBoundingBox" id="g"><feGaussianBlur stdDeviation="3" in="SourceGraphic"/></filter><filter x="-64.2%" y="-64.2%" width="228.3%" height="228.3%" filterUnits="objectBoundingBox" id="h"><feGaussianBlur stdDeviation="3" in="SourceGraphic"/></filter><filter x="0%" y="0%" width="100%" height="100%" filterUnits="objectBoundingBox" id="i"><feGaussianBlur in="SourceGraphic"/></filter><filter x="0%" y="0%" width="100%" height="100%" filterUnits="objectBoundingBox" id="j"><feGaussianBlur in="SourceGraphic"/></filter><filter x="0%" y="0%" width="100%" height="100%" filterUnits="objectBoundingBox" id="t"><feGaussianBlur in="SourceGraphic"/></filter><filter x="-148.4%" y="-147%" width="396.8%" height="394%" filterUnits="objectBoundingBox" id="l"><feGaussianBlur stdDeviation="4" in="SourceGraphic"/></filter><filter x="-128.8%" y="-124.6%" width="357.6%" height="349.1%" filterUnits="objectBoundingBox" id="m"><feGaussianBlur stdDeviation="4" in="SourceGraphic"/></filter><filter x="-90.5%" y="-87.5%" width="281%" height="275%" filterUnits="objectBoundingBox" id="n"><feGaussianBlur stdDeviation="4" in="SourceGraphic"/></filter><filter x="-93.2%" y="-93.2%" width="286.4%" height="286.4%" filterUnits="objectBoundingBox" id="o"><feGaussianBlur stdDeviation="4" in="SourceGraphic"/></filter><filter x="0%" y="0%" width="100%" height="100%" filterUnits="objectBoundingBox" id="p"><feGaussianBlur in="SourceGraphic"/></filter><filter x="0%" y="0%" width="100%" height="100%" filterUnits="objectBoundingBox" id="q"><feGaussianBlur in="SourceGraphic"/></filter><filter x="0%" y="0%" width="100%" height="100%" filterUnits="objectBoundingBox" id="r"><feGaussianBlur in="SourceGraphic"/></filter><linearGradient x1="41.451%" y1="28.027%" x2="59.48%" y2="43.638%" id="b"><stop stop-color="#57C0E8" stop-opacity=".05" offset="0%"/><stop stop-color="#57C0E8" stop-opacity=".3" offset="100%"/></linearGradient><linearGradient x1="54.307%" y1="39.927%" x2="34.711%" y2="52.121%" id="a"><stop stop-color="#57C0E8" stop-opacity=".05" offset="0%"/><stop stop-color="#57C0E8" stop-opacity=".3" offset="100%"/></linearGradient></defs><g fill="none" fill-rule="evenodd"><path d="M190.993 543.035l73.119-25.649-73.119 25.649zm414.645 271.7l124.208 11.733h-.002l-124.206-11.733zm-163.221-75.863l103.176 85.236-158.735-28.76 55.559-56.476zm-122.734-26.094l67.175 82.57-152.229-68.782 85.054-13.788zM712.135 555.16l-85.62 167.4h.002l198.897 11.122L712.136 555.16h-.001zm-262.337 1.012l-91.787 43.966 91.788-43.965h-.001zM204.32 252.116l59.791 265.27 72.093-138.84-131.884-126.43zm-59.66 56.055l-99.04 86.21-37.88-65.046 136.92-21.163zm279.822-201.328l-121.314 91.173 72.81 47.911 48.504-139.084zM368.042.502l-20.912 32.05L247.017 98.96 368.042.502zM190.993 543.034l-56.6-70.215 10.267-164.65L9.393 277.332l135.267 30.84L7.74 329.334l-3.852-53.257L247.017 98.96l4.467 7.88-4.467-7.88L347.13 32.552l77.352 74.29-.001-.003-77.351-74.287L368.045.5v0l.003.002L529.02 219.166l-18.01 26.76 18.011-26.76 9.354 29.984 89.488 137.725 78.888 39.207 130.322 174.057-124.937-44.98v.001l124.936 44.978 68.9 126.28-176.126 100.05-100.668 81.898-83.585-84.258-44.13-105.077-59.046 19.84 7.383-182.698 134.331 24.176-71.927-217.803h-.001L449.8 556.172l-.506-1.012.504 1.011.002.001-7.383 182.7-55.558 56.475-67.175-82.569-85.054 13.788v-.002l-43.637-183.53z" stroke="url(#a)" stroke-linejoin="round" transform="translate(920 -194)"/><path d="M1306.204 596.867c3.642 0 6.68 3.038 6.68 6.68 0 3.641-3.038 6.68-6.68 6.68s-6.68-3.039-6.68-6.68c0-3.642 3.038-6.68 6.68-6.68zm56-58.352c3.833 0 7.031 3.199 7.031 7.032s-3.198 7.03-7.03 7.03c-3.834 0-7.032-3.197-7.032-7.03s3.198-7.032 7.031-7.032zm-207.394-15.68c2.082.24 2.746.283 4.625 1.246 1.702.871 2.989 2.727 3.485 4.532.486 1.765.353 3.986-.614 5.604l-.151.238-.042.057-.084.192a8.768 8.768 0 01-3.205 3.659l-.229.14c-2.586 1.514-5.88 1.514-8.467 0a8.452 8.452 0 01-4.153-7.243c0-2.863 1.576-5.868 4.153-7.24 1.36-.726 3.101-1.367 4.682-1.185zm6.95 12.166l-1.013 1.312c.242-.305.485-.608.723-.916l.281-.376.01-.02zm.217-.279l-.106.134-.051.076-.069.09-.072.174c.081-.17.182-.325.298-.474zm.775-3.545l-.149 1.108-.143 1.056-.7 1.66.111-.145.242-.344.028-.059c.43-1.01.656-2.1.607-3.193a.258.258 0 01.004-.083zm-.275 2.134l-.023.081.006-.05.017-.03zm79.381-21.264c.23.06.46.122.69.184 2.59.689 4.428 3.15 4.428 5.816 0 2.585-1.728 4.977-4.194 5.748l-.234.068-.69.184c-3.907 1.04-7.877-1.93-7.877-6 0-4.071 3.97-7.041 7.877-6zm-10-49.5c.23.06.46.122.69.184 2.59.689 4.428 3.15 4.428 5.816 0 2.585-1.728 4.977-4.194 5.748l-.234.068-.69.184c-3.907 1.04-7.877-1.93-7.877-6 0-4.071 3.97-7.041 7.877-6zm-7.654-40.046c3.156 0 6.004 2.165 6.842 5.208a7.143 7.143 0 010 3.772 7.17 7.17 0 01-.794 1.826l-.07.106-.063.144-.073.182-.074.179a6.71 6.71 0 01-2.396 2.396 6.647 6.647 0 01-3.372.913 6.643 6.643 0 01-3.371-.913 6.701 6.701 0 01-2.396-2.396 5.595 5.595 0 01-.074-.179l-.023-.056-.024-.032c-.754-1.1-1.154-2.557-1.202-3.808l-.004-.247a7.065 7.065 0 01.968-3.581 7.149 7.149 0 016.126-3.514zm6.089 10.709c-.367.476-.735.95-1.102 1.427l.03-.025c.32-.322.604-.665.852-1.029l.11-.17.016-.035c.029-.059.06-.115.094-.168zm-12.177 0c.068.106.123.225.173.347l.051.126.132.183c.213.28.452.532.716.746l.03.025-1.102-1.427zm149.4-78.61a16.83 16.83 0 012.557.386c1.434.326 2.673 1.139 3.636 2.212l.093.106.014.013a7.238 7.238 0 012.264 4.959l.006.27a7.227 7.227 0 01-2.27 5.23l-.018.016-.089.103c-.903 1.006-2.048 1.783-3.37 2.145l-.266.067c-.865.198-1.553.302-2.556.385-2.01.167-4.235-.944-5.618-2.327a7.976 7.976 0 01-2.327-5.618c0-2.1.843-4.135 2.327-5.618 1.383-1.383 3.608-2.495 5.618-2.328zm8.067 9.919a4756.37 4756.37 0 01-3.411 4.437l.359-.212c.39-.23.753-.494 1.088-.788l.18-.164.087-.1a8.84 8.84 0 001.663-3.061l.034-.112zm-3.411-8.381c1.138 1.478 2.275 2.957 3.41 4.436l-.033-.111a8.843 8.843 0 00-1.663-3.06l-.084-.099-.183-.167a7.168 7.168 0 00-1.088-.788l-.36-.211zm-261.718-10.013c6.992 0 6.992 10.843 0 10.843s-6.992-10.844 0-10.844zm71.75-28.294c3.66 0 6.715 3.055 6.715 6.715 0 3.66-3.055 6.715-6.715 6.715-3.66 0-6.715-3.055-6.715-6.715 0-3.66 3.055-6.715 6.715-6.715zm-127-43.754c8.343 0 8.343 12.938 0 12.938s-8.343-12.938 0-12.938zm266.148-17.743l.166.149.39.36c1.979 1.83 2.036 5.316.17 7.242l-.17.166-.39.36c-3.622 3.351-9.812 1.094-9.812-4.065 0-5.08 6.004-7.346 9.646-4.212zm-351.679-61.292l.13.155.335.416c1.485 1.854 1.536 3.807.153 5.668l-.153.199-.334.416c-2.694 3.363-8.087.455-8.087-3.349 0-3.745 5.223-6.62 7.956-3.505zm288.531-18.441c10.247 0 10.247 15.89 0 15.89s-10.247-15.89 0-15.89zm-332-46.925c3.2 0 5.871 2.67 5.871 5.87 0 3.202-2.67 5.872-5.87 5.872s-5.872-2.67-5.872-5.871c0-3.201 2.671-5.871 5.871-5.871zm137-22.302c3.91 0 7.172 3.262 7.172 7.172 0 3.91-3.263 7.172-7.172 7.172s-7.172-3.262-7.172-7.172c0-3.91 3.263-7.172 7.172-7.172zM925.871 73.676c3.2 0 5.871 2.67 5.871 5.87 0 3.202-2.67 5.872-5.87 5.872S920 82.748 920 79.547c0-3.201 2.671-5.871 5.871-5.871zm197.333-24.638c4.638 0 8.508 3.87 8.508 8.508 0 4.638-3.87 8.508-8.508 8.508-4.638 0-8.508-3.87-8.508-8.508 0-4.638 3.87-8.508 8.508-8.508z" fill="#CFE8F2"/><path d="M.5 460.786h.001l114.536-7.556L.5 460.786zm430.467 268.498L246.53 765.843l114.546 162.984 69.89-199.542h.001v-.001zm-184.438 36.559h-.001l-17.501 145.49.001.002 17.501-145.492zM119.627 631.478l-2.944 133.799 55.11-99.759-52.166-34.04zm338.58-178.476L267.579 524.04l64.284 120.402-22.666 21.077 22.667-21.077 126.345-191.438h-.002zM173.09 477.736l94.489 46.302h-.001l-94.488-46.302zm338.151-95.073zm-45.944-108.844l45.944 108.844-.001-.003-45.942-108.84h-.001zM354.049 142.942L284.64 302.644 395.955 370.4l36.058-50.225-36.058 50.225-41.906-227.46zm285.937 177.234L536.505 370.4l103.483-50.223h-.002zM457.767 186.984l7.53 86.835h.001l139.21-48.139-146.74-38.696zm153.001-25.809l-6.26 64.506.001-.003 6.259-64.503zM171.613 36.531l101.468 94.334-129.038-24.292 27.57-70.042zM.5 460.786l116.983-147.994h.001L96.165 267.7h-.001L273.08 130.867l80.968 12.076-80.968-12.077-101.468-94.334L211.02.5l285.646 12.358h.006l156.313 102.623-38.117 3.452 38.117-3.452-16.165 45.694 3.169 159.002-76.57 83.084h.001L510.8 558.849l18.126 86.206-55.824 210.151-56.397 132.338-187.677-76.209-126.663-28.242 14.318-117.817L40.872 622.88.5 460.785z" stroke="url(#b)" stroke-linejoin="round" transform="translate(-180 -125)"/><path d="M452.834 38.997c3.85 4.875 11.41-1.096 7.56-5.971-3.85-4.875-11.41 1.096-7.56 5.97m-34.43 64.569c5.48 6.94 16.24-1.559 10.76-8.498-5.48-6.937-16.239 1.56-10.76 8.498m36.409 95.379c2.176 2.756 6.29 3.238 9.044 1.062 2.755-2.175 3.238-6.289 1.062-9.044-2.175-2.754-6.289-3.237-9.044-1.06-2.754 2.175-3.238 6.288-1.062 9.042M341.43 174.552c5.004 6.334 14.825-1.424 9.823-7.758-5.003-6.334-14.824 1.424-9.822 7.758m-52.506-23.78c.02-.067.042-.135.06-.204.315-.82.414-1.665.296-2.532a4.996 4.996 0 00-1.032-2.416 5.005 5.005 0 00-2.11-1.565 5.07 5.07 0 00-2.531-.296c-.073 0-.144.006-.215.01-1.805.116-3.46 1.61-4.094 3.233a5.21 5.21 0 00.758 5.089 5.212 5.212 0 004.774 1.916c1.726-.243 3.562-1.505 4.094-3.235m-5.877-90.226l-.006-.095.015 1.372c-.004-.5-.008-1.003-.016-1.505-.014-.812-.657-2.051-1.145-2.647.372.866.743 1.735 1.114 2.604a.566.566 0 00-.008-.04l.015 1.38a.962.962 0 00.007-.049c-.111.442-.222.886-.332 1.332a.875.875 0 01.02-.074 5.333 5.333 0 00.315-2.678 5.296 5.296 0 00-1.094-2.557c-1.143-1.447-3.076-2.272-4.914-1.974-2.093.342-3.546 1.564-4.442 3.474-1.045 2.227.006 4.954 1.847 6.377.428.33.913.6 1.43.763 1.825.564 3.673.447 5.226-.78a5.277 5.277 0 001.654-2.229 5.34 5.34 0 00.314-2.674m44.686 199.156c1.615 2.045 4.67 2.404 6.716.787 2.045-1.615 2.404-4.67.788-6.715-1.615-2.045-4.67-2.404-6.715-.789-2.046 1.615-2.404 4.67-.789 6.717m50.793 17.604l-.067.174c-1.133 2.935 1.356 6.086 4.473 5.664l.184-.026c3.23-.435 4.777-4.365 2.77-6.906-2.007-2.541-6.186-1.947-7.36 1.094m-159.474-32.25c-.09-.361-.178-.803-.3-1.086-.476-1.131-1.3-1.736-2.35-2.28-.56-.286-1.55-.341-2.155-.255a4.285 4.285 0 00-3.37 2.66c-.998 2.555.738 5.457 3.466 5.777a4.27 4.27 0 003.133-.886c1.08-.854 1.925-2.52 1.576-3.93m56.307 87.451c.837.23 1.684.498 2.568.279a4.49 4.49 0 002.161-.925 4.464 4.464 0 001.401-1.89 4.504 4.504 0 00.266-2.265l-.31-1.123a4.513 4.513 0 00-1.482-1.877c-.02-.02-.04-.04-.06-.056.292.28.584.562.875.845-.016-.025-.03-.05-.047-.074l.627 1.059-.03-.1c-.34-1.131-1.528-2.103-2.583-2.516a4.68 4.68 0 00-4.57.68 4.677 4.677 0 00-1.719 4.287c.211 1.512 1.35 3.248 2.903 3.676M179.215 20.521a10.9 10.9 0 01.227-.373c.964-1.507 1.679-3.41 1.275-5.24l-2.458 6.126a.33.33 0 00.03-.022l-1.523.904.035-.018-1.643.454a.294.294 0 01.086-.018l-1.665.018c.059 0 .113.005.17.013 1.65.234 3.405-.306 4.702-1.33 1.78-1.407 2.657-3.66 2.367-5.899-.248-1.91-1.263-3.466-2.743-4.654l1.279 1.236c-1.01-1.517-2.965-2.47-4.744-2.679-1.472-.173-2.583.2-3.967.627-1.751.541-3.247 2.35-3.89 3.993a7.22 7.22 0 001.052 7.06 7.2 7.2 0 004.79 2.68 7.15 7.15 0 003.628-.516 7.216 7.216 0 002.992-2.362" fill="#CFE8F2"/><g stroke="#57C0E8" stroke-linejoin="round"><path d="M-39.067 468.013l98.847-54.1-112.537-138.45zm98.847-54.099l121.314-91.175-77.352-74.29z"/><path d="M59.78 413.914l-112.538-138.45 156.5-27.015zm128.462 13.549l-7.147-104.724 96.147 30.724zm-84.5-179.013l77.353 74.29-30.596-65.337zm0 0l18.174-5.387 28.583 14.34z"/><path d="M181.095 322.74l96.147 30.724-126.743-96.06zm-77.353-74.29l18.174-5.387 2.742-26.666z"/><path d="M121.916 243.063l28.583 14.34-25.841-41.006z"/><path d="M-52.758 275.463l156.5-27.014 20.916-32.052zm347.745 189.584l-17.745-111.584-30.758 139.766zm-106.745-37.584l89-74-30.758 139.766zm0 0l-7.147-104.724-48.504 139.085z"/></g><path stroke="#57C0E8" stroke-linejoin="round" d="M1321.338 133.957l11.354 50.291L1487.94 78.175zM1084.88-23.189l78.329 133.723 93.854-156.923zm78.329 133.723l93.854-156.923-32.508 167.736zm49.851 124.199l119.632-50.484-108.138-62.902z"/><path stroke="#57C0E8" stroke-linejoin="round" d="M1321.338 133.957l11.354 50.291-108.137-62.902zm-96.784-12.611l32.508-167.735 106.413 85.472z"/><path stroke="#57C0E8" stroke-linejoin="round" d="M1224.554 121.346l96.783 12.611 42.138-94.874zm96.784 12.611l166.603-55.782-124.465-39.092zM1213.06 234.733l119.632-50.484-62.416 70.967zM1084.88-23.189l78.329 133.723-95.311-81.61zm278.595 62.273l40.99-225.68 89.941 76.677z"/><path stroke="#57C0E8" stroke-linejoin="round" d="M1363.475 39.084l124.466 39.092L1544.94-37.76zm0 0l130.931-149.003 50.533 72.159zM1213.06 234.733l57.216 20.483-24.103 93.488zm33.114 113.97l24.103-93.487 103.473 69.703zm86.518-164.455l169.361 104.885-128.303 35.786zm41.058 140.672l128.304-35.787 74.222 32.145zm-210.541-214.386l49.852 124.198-125.654-101.169z"/><path stroke="#57C0E8" stroke-linejoin="round" d="M1067.897 28.924l95.312 81.61-75.802 23.03zm16.983-52.113l10.424-31.608L986.607.36z"/><path stroke="#57C0E8" stroke-linejoin="round" d="M1067.897 28.924l16.983-52.113L986.606.36z"/><path stroke="#57C0E8" stroke-linejoin="round" d="M1087.407 133.564l-19.51-104.64L986.606.359zm-51.357-315.257l59.254 126.896L986.606.359z"/><g fill="#57C0E8" opacity=".8"><path d="M15.743 443.431a.286.286 0 01.043-.07l-1.32 1.802a.957.957 0 01.123-.115l-1.667 1.328a2.68 2.68 0 01.488-.274l-1.84.81c.717-.305 1.435-.6 2.124-.958 1.75-.908 3.028-2.894 3.466-4.766.428-1.822.185-4.067-.893-5.646-1.19-1.744-1.753-2.099-3.466-3.306-1.3-.916-3.137-1.185-4.678-1.2-2.92-.026-5.74 1.86-7.11 4.374a8.455 8.455 0 00.183 8.347c1.548 2.567 4.441 4.142 7.437 4.05 2.851-.09 5.831-1.752 7.11-4.376" filter="url(#c)" transform="translate(978.617 -440.337)"/><path d="M241.743 679.43a.28.28 0 01.043-.07l-1.32 1.803c.038-.043.078-.078.123-.115l-1.667 1.328c.152-.11.315-.197.488-.273l-1.84.809c.717-.304 1.435-.6 2.124-.958 1.75-.908 3.028-2.894 3.466-4.765.428-1.822.185-4.068-.893-5.647-1.19-1.744-1.753-2.1-3.466-3.306-1.3-.916-3.137-1.185-4.678-1.2-2.92-.025-5.74 1.86-7.11 4.374a8.455 8.455 0 00.183 8.347c1.548 2.567 4.441 4.143 7.437 4.049 2.851-.09 5.831-1.751 7.11-4.375" filter="url(#d)" transform="translate(978.617 -440.337)"/><path d="M274.743 791.43a.28.28 0 01.043-.07l-1.32 1.803c.038-.043.078-.078.123-.115l-1.667 1.328c.152-.11.315-.197.488-.273l-1.84.809c.717-.304 1.435-.6 2.124-.958 1.75-.908 3.028-2.894 3.466-4.765.428-1.822.185-4.068-.893-5.647-1.19-1.744-1.753-2.1-3.466-3.306-1.3-.916-3.137-1.185-4.678-1.2-2.92-.025-5.74 1.86-7.11 4.374a8.455 8.455 0 00.183 8.347c1.548 2.567 4.441 4.143 7.437 4.049 2.851-.09 5.831-1.751 7.11-4.375" filter="url(#e)" transform="translate(978.617 -440.337)"/><path d="M255.743 566.43a.28.28 0 01.043-.07l-1.32 1.803c.038-.043.078-.078.123-.115l-1.667 1.328c.152-.11.315-.197.488-.273l-1.84.809c.717-.304 1.435-.6 2.124-.958 1.75-.908 3.028-2.894 3.466-4.765.428-1.822.185-4.068-.893-5.647-1.19-1.744-1.753-2.1-3.466-3.306-1.3-.916-3.137-1.185-4.678-1.2-2.92-.025-5.74 1.86-7.11 4.374a8.455 8.455 0 00.183 8.347c1.548 2.567 4.441 4.143 7.437 4.049 2.851-.09 5.831-1.751 7.11-4.375" filter="url(#f)" transform="translate(978.617 -440.337)"/><path d="M103.969 581.386c3.199 1.74 7.319.526 9.062-2.672 1.74-3.198.526-7.32-2.673-9.06-3.198-1.743-7.32-.527-9.061 2.67-1.741 3.2-.525 7.32 2.672 9.062" filter="url(#g)" transform="translate(978.617 -440.337)"/><path d="M180.72 557.537c3.366 1.833 7.704.553 9.537-2.813 1.833-3.366.554-7.705-2.812-9.538-3.367-1.833-7.704-.553-9.538 2.813-1.833 3.367-.553 7.705 2.813 9.538" filter="url(#h)" transform="translate(978.617 -440.337)"/><path d="M38.631 116.434a.1.1 0 01.016-.025l-.473.644a.37.37 0 01.044-.04l-.596.474a.957.957 0 01.175-.098l-.659.29c.257-.109.514-.214.76-.343.626-.325 1.083-1.035 1.24-1.704.153-.652.066-1.455-.32-2.02-.425-.624-.626-.75-1.24-1.183-.464-.327-1.121-.424-1.672-.429-1.045-.009-2.054.665-2.544 1.565-.506.929-.48 2.08.066 2.985a3.025 3.025 0 002.66 1.449c1.02-.033 2.086-.627 2.543-1.565" filter="url(#i)" transform="translate(1210.617 232.699)"/><path d="M5.631 4.434a.1.1 0 01.016-.025l-.473.644a.37.37 0 01.044-.04l-.596.474a.957.957 0 01.175-.098l-.659.29c.257-.109.514-.214.76-.343.626-.325 1.083-1.035 1.24-1.704.153-.652.066-1.455-.32-2.02-.425-.624-.626-.75-1.24-1.183C4.115.102 3.458.005 2.907 0 1.86-.009.852.665.362 1.565c-.506.929-.48 2.08.066 2.985A3.025 3.025 0 003.088 6c1.02-.033 2.086-.627 2.543-1.565" filter="url(#j)" transform="translate(1210.617 232.699)"/></g><g fill="#57C0E8"><path d="M179.625 5.713c.02.029.04.059.062.088 1.682 2.385 4.75 2.385 6.432 0 .022-.029.042-.059.063-.088 1.704-2.416-.587-5.713-3.28-5.713-2.69 0-4.981 3.297-3.277 5.713" filter="url(#k)" transform="translate(-57.994 212)"/><path d="M164.434 36.065a11.471 11.471 0 00-.065-.198c-.556-1.677-1.977-2.893-3.799-2.893-1.823 0-3.243 1.216-3.799 2.893-.023.065-.044.132-.066.198-.828 2.496 1.361 5.072 3.865 5.072 2.504 0 4.692-2.576 3.864-5.072" filter="url(#l)" transform="translate(-57.994 212)"/><path d="M208.237 50.28c6.212 0 6.212-9.634 0-9.634s-6.212 9.633 0 9.633" filter="url(#m)" transform="translate(-57.994 212)"/><path d="M238.57 117.319c8.842 0 8.842-13.712 0-13.712s-8.842 13.712 0 13.712" filter="url(#n)" transform="translate(-57.994 212)"/><path d="M333.986 148.86c3.511 0 6.439-2.929 6.439-6.439 0-3.51-2.928-6.439-6.439-6.439-3.51 0-6.438 2.93-6.438 6.44 0 3.51 2.928 6.439 6.438 6.439" filter="url(#o)" transform="translate(-57.994 212)"/><path d="M181.347 3.01l.033.047c.887 1.257 2.503 1.257 3.39 0 .012-.015.022-.03.033-.046.898-1.273-.31-3.011-1.728-3.011s-2.626 1.738-1.728 3.01" filter="url(#p)" transform="translate(-57.994 215)"/><path d="M163.402 33.488a5.613 5.613 0 00-.032-.097c-.273-.822-.969-1.417-1.862-1.417-.893 0-1.589.595-1.861 1.417-.012.032-.022.065-.033.097-.405 1.223.667 2.486 1.894 2.486 1.227 0 2.3-1.263 1.894-2.486" filter="url(#q)" transform="translate(-57.994 215)"/><path d="M208.48 45.646c3.87 0 3.87-6 0-6s-3.87 6 0 6" filter="url(#r)" transform="translate(-57.994 215)"/><path d="M238.84 110.608c3.87 0 3.87-6 0-6-3.869 0-3.869 6 0 6" filter="url(#s)" transform="translate(-57.994 215)"/><path d="M334.548 141.982c1.635 0 3-1.364 3-3 0-1.635-1.365-3-3-3-1.636 0-3 1.365-3 3 0 1.636 1.364 3 3 3" filter="url(#t)" transform="translate(-57.994 215)"/></g></g></svg>