<svg width="324" height="105" viewBox="0 0 324 105" xmlns="http://www.w3.org/2000/svg"><g fill="none" fill-rule="evenodd"><text font-family="HelveticaNeue-Medium, Helvetica Neue" font-size="28" font-weight="400" fill="#383739"><tspan x="0" y="99">Cordless Assembly Tools</tspan></text><path d="M26.866 0C38.564 0 51.092 7.245 51.47 19.96H37.432c-.83-5.323-4.905-8.132-10.867-8.132-9.057 0-12.528 7.762-12.528 15.673 0 7.909 3.471 15.671 12.528 15.671 6.641 0 10.339-3.622 10.867-9.758H51.47C50.639 47.09 40.526 55 26.866 55 10.49 55 0 42.803 0 27.5S10.49 0 26.866 0zm47.389 14.474c13.692 0 20.538 10.333 19.949 23.327H66.159c.22 5.314 3.238 8.71 8.538 8.71 3.017 0 5.963-1.328 7.14-4.208h11.704C91.186 51.162 83.09 55 74.55 55c-12.44 0-20.905-7.53-20.905-20.373 0-11.739 9.349-20.153 20.611-20.153zm123.236 0c13.692 0 20.537 10.333 19.948 23.327h-28.045c.22 5.314 3.24 8.71 8.539 8.71 3.018 0 5.962-1.328 7.14-4.208h11.705C214.422 51.162 206.324 55 197.786 55c-12.441 0-20.907-7.53-20.907-20.373 0-11.739 9.35-20.153 20.612-20.153zM111.637 0v53.553H99.313V0h12.324zm19.573 0v53.553h-12.324V0h12.324zm51.469 0v12H166.53v41.553h-14.1V12h-16.147V0h46.395zm51.333 0v27.602l11.113-12.976h14.124l-13.622 14.7 15.342 24.227h-14.697l-9.105-15.677-3.155 3.225v12.452h-12.188V0h12.188zM74.255 22.963c-4.416 0-7.287 3.1-8.096 7.824H81.69c-.22-4.355-3.238-7.824-7.435-7.824zm123.236 0c-4.417 0-7.287 3.1-8.097 7.824h15.532c-.221-4.355-3.24-7.824-7.435-7.824zM277.101 0l2.348 6.155L281.777 0h2.39v8.684h-1.56V1.897h-.04l-2.558 6.787h-1.163l-2.555-6.787h-.042v6.787h-1.56V0h2.411zm-4.157 0v1.37h-2.62v7.314h-1.661V1.37h-2.62V0h6.9z" fill="#E35205"/></g></svg>