<svg width="542" height="85" viewBox="0 0 542 85" xmlns="http://www.w3.org/2000/svg" xmlns:xlink="http://www.w3.org/1999/xlink"><defs><path id="a" d="M0 0h542v85H0z"/></defs><g fill="none" fill-rule="evenodd"><mask id="b" fill="#fff"><use xlink:href="#a"/></mask><g mask="url(#b)"><g transform="translate(-293)" fill-rule="nonzero"><rect fill="#E35205" width="835" height="85" rx="14"/><path d="M294.89 54V31.156h12.188v3.063h-8.547v6.343h8.031v3.063h-8.03V54h-3.641zm15.813 0V31.156h12.344v3.063h-8.703v6.343h8.203v3.063h-8.203v7.297h8.969V54h-12.61zm16.39 0V31.156h12.344v3.063h-8.703v6.343h8.204v3.063h-8.204v7.297h8.97V54h-12.61zm15.97 0V31.156h3.656v19.766h8.828V54h-12.485zm22.593-19.781v-3.063h14.438v3.063h-5.344V54h-3.656V34.219h-5.438zM383.172 54V31.156h3.64v9.14h6.72v-9.14h3.656V54h-3.657V43.375h-6.719V54h-3.64zm18.781 0V31.156h12.344v3.063h-8.703v6.343h8.203v3.063h-8.203v7.297h8.969V54h-12.61zm25.063 0V31.156h12.187v3.063h-8.547v6.343h8.031v3.063h-8.03V54h-3.641zm15.515-6.75V31.156h3.656v16.375c0 2.771 1.12 4.162 3.36 4.172 2.219 0 3.328-1.39 3.328-4.172V31.156h3.64V47.25c0 2.542-.59 4.378-1.773 5.508-1.182 1.13-2.914 1.695-5.195 1.695s-4.021-.565-5.219-1.695c-1.198-1.13-1.797-2.966-1.797-5.508zm16.766-13.031v-3.063h14.437v3.063h-5.343V54h-3.657V34.219h-5.437zm17.219 13.031V31.156h3.656v16.375c0 2.771 1.12 4.162 3.36 4.172 2.218 0 3.327-1.39 3.327-4.172V31.156h3.641V47.25c0 2.542-.591 4.378-1.773 5.508-1.183 1.13-2.914 1.695-5.196 1.695-2.281 0-4.02-.565-5.219-1.695-1.197-1.13-1.796-2.966-1.796-5.508zM494.984 54V31.156h8.063c1.729 0 3.127.474 4.195 1.422 1.068.948 1.602 2.438 1.602 4.469 0 1.51-.331 2.773-.992 3.789-.662 1.016-1.602 1.617-2.82 1.805v.062c1.176.104 2.051.521 2.624 1.25.573.73.89 1.87.953 3.422.042 2.365.084 3.911.125 4.64.042.876.407 1.537 1.094 1.985h-4.125c-.302-.365-.505-1.036-.61-2.016a16.282 16.282 0 0 1-.077-1.28c-.01-.449-.021-.972-.032-1.571a41.836 41.836 0 0 0-.046-1.477c-.042-1.281-.303-2.198-.782-2.75-.479-.552-1.328-.828-2.547-.828h-2.984V54h-3.64zm3.641-12.672h2.922c1.156 0 2.052-.33 2.687-.992.636-.662.954-1.57.954-2.727 0-2.479-1.152-3.713-3.454-3.703h-3.109v7.422zM513.156 54V31.156H525.5v3.063h-8.703v6.343H525v3.063h-8.203v7.297h8.969V54h-12.61zm26.313-2.406c-1.198-1.917-1.797-4.922-1.797-9.016s.601-7.096 1.805-9.008c1.203-1.911 3.117-2.867 5.742-2.867s4.541.956 5.75 2.867c1.208 1.912 1.812 4.914 1.812 9.008 0 4.094-.604 7.096-1.812 9.008-1.209 1.911-3.125 2.867-5.75 2.867s-4.542-.953-5.75-2.86zm1.843-9.11c0 1.896.097 3.474.29 4.735.192 1.26.481 2.203.867 2.828.385.625.791 1.057 1.218 1.297.428.24.94.36 1.54.36.599 0 1.112-.12 1.539-.36.427-.24.83-.672 1.21-1.297.38-.625.667-1.568.86-2.828.193-1.26.289-2.839.289-4.735 0-1.854-.096-3.4-.29-4.64-.192-1.24-.478-2.164-.858-2.774-.38-.61-.784-1.03-1.211-1.265-.427-.235-.94-.352-1.54-.352-.598 0-1.111.117-1.538.352-.428.234-.834.656-1.22 1.265-.385.61-.674 1.534-.866 2.774-.193 1.24-.29 2.786-.29 4.64zM557 54V31.156h12.188v3.063h-8.547v6.343h8.03v3.063h-8.03V54H557zm33.13-15.904c0-1.301-.128-2.187-.384-2.656-.256-.47-.672-.704-1.248-.704-.448 0-.805.117-1.072.352s-.47.65-.608 1.248c-.139.597-.23 1.403-.272 2.416a93.86 93.86 0 0 0-.064 3.824c0 1.536.021 2.81.064 3.824.043 1.013.133 1.819.272 2.416s.341 1.013.608 1.248c.267.235.624.352 1.072.352.363 0 .661-.09.896-.272.235-.181.416-.485.544-.912.128-.427.219-.997.272-1.712.053-.715.08-1.616.08-2.704h5.76v1.696c0 1.6-.213 2.912-.64 3.936-.427 1.024-.992 1.83-1.696 2.416a5.641 5.641 0 0 1-2.416 1.184c-.907.203-1.84.304-2.8.304-1.664 0-3.03-.203-4.096-.608a4.943 4.943 0 0 1-2.496-2.032c-.597-.95-1.008-2.176-1.232-3.68-.224-1.504-.336-3.323-.336-5.456 0-2.176.133-4.021.4-5.536.267-1.515.72-2.741 1.36-3.68a5.426 5.426 0 0 1 2.528-2.032c1.045-.416 2.336-.624 3.872-.624 1.344 0 2.485.17 3.424.512.939.341 1.701.827 2.288 1.456.587.63 1.013 1.387 1.28 2.272.267.885.4 1.883.4 2.992v1.44h-5.76v-1.28zm14.536 4.48c0 1.536.021 2.81.064 3.824.043 1.013.133 1.819.272 2.416s.341 1.013.608 1.248c.267.235.624.352 1.072.352.448 0 .805-.117 1.072-.352s.47-.65.608-1.248c.139-.597.23-1.403.272-2.416a93.86 93.86 0 0 0 .064-3.824c0-1.536-.021-2.81-.064-3.824-.043-1.013-.133-1.819-.272-2.416s-.341-1.013-.608-1.248c-.267-.235-.624-.352-1.072-.352-.448 0-.805.117-1.072.352s-.47.65-.608 1.248c-.139.597-.23 1.403-.272 2.416a93.86 93.86 0 0 0-.064 3.824zm-6.144 0c0-2.133.139-3.952.416-5.456.277-1.504.736-2.73 1.376-3.68a5.594 5.594 0 0 1 2.528-2.08c1.045-.437 2.325-.656 3.84-.656 1.515 0 2.795.219 3.84.656a5.594 5.594 0 0 1 2.528 2.08c.64.95 1.099 2.176 1.376 3.68.277 1.504.416 3.323.416 5.456 0 2.133-.139 3.952-.416 5.456-.277 1.504-.736 2.73-1.376 3.68a5.3 5.3 0 0 1-2.528 2.032c-1.045.405-2.325.608-3.84.608-1.515 0-2.795-.203-3.84-.608a5.3 5.3 0 0 1-2.528-2.032c-.64-.95-1.099-2.176-1.376-3.68-.277-1.504-.416-3.323-.416-5.456zm19.464-11.424h6.656l3.84 14.08h.064v-14.08h5.568V54h-6.528l-3.968-14.112h-.064V54h-5.568V31.152zm19.944 0h6.656l3.84 14.08h.064v-14.08h5.568V54h-6.528l-3.968-14.112h-.064V54h-5.568V31.152zm19.944 0h13.536v4.864h-7.584v3.904h7.104v4.672h-7.104v4.544h7.872V54h-13.824V31.152zm26.12 6.944c0-1.301-.128-2.187-.384-2.656-.256-.47-.672-.704-1.248-.704-.448 0-.805.117-1.072.352s-.47.65-.608 1.248c-.139.597-.23 1.403-.272 2.416a93.86 93.86 0 0 0-.064 3.824c0 1.536.021 2.81.064 3.824.043 1.013.133 1.819.272 2.416s.341 1.013.608 1.248c.267.235.624.352 1.072.352.363 0 .661-.09.896-.272.235-.181.416-.485.544-.912.128-.427.219-.997.272-1.712.053-.715.08-1.616.08-2.704h5.76v1.696c0 1.6-.213 2.912-.64 3.936-.427 1.024-.992 1.83-1.696 2.416a5.641 5.641 0 0 1-2.416 1.184c-.907.203-1.84.304-2.8.304-1.664 0-3.03-.203-4.096-.608a4.943 4.943 0 0 1-2.496-2.032c-.597-.95-1.008-2.176-1.232-3.68-.224-1.504-.336-3.323-.336-5.456 0-2.176.133-4.021.4-5.536.267-1.515.72-2.741 1.36-3.68a5.426 5.426 0 0 1 2.528-2.032c1.045-.416 2.336-.624 3.872-.624 1.344 0 2.485.17 3.424.512.939.341 1.701.827 2.288 1.456.587.63 1.013 1.387 1.28 2.272.267.885.4 1.883.4 2.992v1.44h-5.76v-1.28zm12.072-1.888h-4.416v-5.056h14.848v5.056h-4.48V54h-5.952V36.208zm12.552-5.056h5.952V54h-5.952V31.152zm7.784 0h6.24l2.4 17.216h.064l2.4-17.216h6.336L728.914 54h-7.68l-4.832-22.848zm19.176 0h5.952V54h-5.952V31.152zm12.552 5.056h-4.416v-5.056h14.848v5.056h-4.48V54h-5.952V36.208zm16.712 8.8l-5.728-13.856h6.432l2.24 7.968h.064l2.24-7.968h6.528l-5.824 13.856V54h-5.952v-8.992zm21.401 4.871a4.121 4.121 0 1 1-8.243 0 4.121 4.121 0 0 1 8.243 0zm3.809-1.045c-.66 0-1.195-.536-1.195-1.195a5.203 5.203 0 0 0-5.197-5.197 1.195 1.195 0 0 1 0-2.39c4.183 0 7.587 3.404 7.587 7.587 0 .66-.536 1.195-1.195 1.195zm4.671 0c-.66 0-1.195-.536-1.195-1.195 0-5.441-4.426-9.868-9.868-9.868a1.195 1.195 0 0 1 0-2.39c6.76 0 12.258 5.5 12.258 12.258 0 .66-.535 1.195-1.195 1.195zm4.38 0a1.195 1.195 0 0 1-1.194-1.195c0-7.857-6.392-14.25-14.25-14.25a1.195 1.195 0 0 1 0-2.389c9.175 0 16.64 7.464 16.64 16.639 0 .66-.536 1.195-1.195 1.195z" fill="#FFF"/></g></g></g></svg>