<?xml version="1.0" encoding="utf-8"?>
<!-- Generator: Adobe Illustrator 15.0.0, SVG Export Plug-In . SVG Version: 6.00 Build 0)  -->
<!DOCTYPE svg PUBLIC "-//W3C//DTD SVG 1.1//EN" "http://www.w3.org/Graphics/SVG/1.1/DTD/svg11.dtd">
<svg version="1.1" id="Layer_1" xmlns="http://www.w3.org/2000/svg" xmlns:xlink="http://www.w3.org/1999/xlink" x="0px" y="0px"
	 width="512px" height="512px" viewBox="0 0 512 512" enable-background="new 0 0 512 512" xml:space="preserve">
<path id="help-3-icon" fill="#595959" d="M255.75,51.078c112.561,0,203.673,91.093,203.673,203.672
	c0,112.562-91.095,203.673-203.673,203.673c-112.562,0-203.672-91.095-203.672-203.673C52.078,142.188,143.171,51.078,255.75,51.078
	 M255.75,2C116.16,2,3,115.16,3,254.75C3,394.342,116.16,507.5,255.75,507.5c139.592,0,252.75-113.158,252.75-252.75
	C508.5,115.16,395.342,2,255.75,2L255.75,2z M258.234,406.29c-17.847,0-32.321-14.474-32.321-32.327
	c0-17.844,14.474-32.312,32.321-32.312c17.852,0,32.32,14.469,32.32,32.312C290.555,391.816,276.086,406.29,258.234,406.29z
	 M283.644,310.756v5.812c0,0-48.456,0-53.277,0v-5.812c0-16.452,2.4-37.558,21.5-55.906c19.102-18.353,42.972-33.511,42.972-56.435
	c0-25.342-17.589-38.748-39.763-38.748c-36.951,0-39.367,38.322-40.277,46.762h-51.817c1.38-39.962,18.271-95.858,92.407-95.858
	c64.247,0,93.13,43.029,93.13,83.379C348.518,258.177,283.644,269.334,283.644,310.756z"/>
</svg>
