<?xml version="1.0" encoding="utf-8"?>
<!-- Generator: Adobe Illustrator 15.0.0, SVG Export Plug-In . SVG Version: 6.00 Build 0)  -->
<!DOCTYPE svg PUBLIC "-//W3C//DTD SVG 1.1//EN" "http://www.w3.org/Graphics/SVG/1.1/DTD/svg11.dtd">
<svg version="1.1" id="Layer_1" xmlns="http://www.w3.org/2000/svg" xmlns:xlink="http://www.w3.org/1999/xlink" x="0px" y="0px"
	 width="512px" height="512px" viewBox="0 0 512 512" enable-background="new 0 0 512 512" xml:space="preserve">
<path id="speech-bubble-2-icon" fill="#666666" d="M50.918,446.647C67.583,413.5,86.083,368,85.135,336.276
	C62.684,309.204,50,274.316,50,238.783C50,138.6,147.19,65.352,256,65.352c108.132,0,206,72.698,206,173.431
	c0,104.894-115.562,202.853-274.119,163.914C159.083,420.5,95.583,438.5,50.918,446.647z M256,105.469
	c-91.469,0-165.884,59.805-165.884,133.314c0,38.68,16.694,63.037,40.256,87.055c-4.789,35.662-16.289,66.662-16.289,66.662
	s34-9,72.629-31.56c147.806,39.193,235.171-46.095,235.171-122.157C421.883,165.273,347.468,105.469,256,105.469z"/>
</svg>
