<svg id="Layer_1" data-name="Layer 1" xmlns="http://www.w3.org/2000/svg" viewBox="0 0 387.368 80">
  <path d="M383.16,18.947a4.307,4.307,0,0,1,2.071.545,3.868,3.868,0,0,1,1.574,1.557,4.235,4.235,0,0,1,.009,4.2,3.917,3.917,0,0,1-1.558,1.56,4.235,4.235,0,0,1-4.192,0,3.933,3.933,0,0,1-1.559-1.56,4.209,4.209,0,0,1,.009-4.2,3.873,3.873,0,0,1,1.576-1.557A4.3,4.3,0,0,1,383.16,18.947Zm0,.7a3.588,3.588,0,0,0-1.727.455,3.262,3.262,0,0,0-1.314,1.3,3.494,3.494,0,0,0-.008,3.5,3.294,3.294,0,0,0,1.3,1.3,3.506,3.506,0,0,0,3.493,0,3.274,3.274,0,0,0,1.3-1.3,3.526,3.526,0,0,0,.463-1.744,3.578,3.578,0,0,0-.47-1.76,3.246,3.246,0,0,0-1.315-1.3A3.6,3.6,0,0,0,383.16,19.645Zm-1.847,5.843V20.956h1.557a3.8,3.8,0,0,1,1.156.126,1.119,1.119,0,0,1,.568.438,1.159,1.159,0,0,1,.213.664,1.206,1.206,0,0,1-.355.865,1.393,1.393,0,0,1-.94.413,1.232,1.232,0,0,1,.385.24,5.229,5.229,0,0,1,.67.9l.553.887h-.893l-.4-.715a3.66,3.66,0,0,0-.765-1.054.935.935,0,0,0-.586-.156h-.429v1.925Zm.732-2.551h.887a1.424,1.424,0,0,0,.867-.189.617.617,0,0,0,.232-.5.6.6,0,0,0-.112-.359.663.663,0,0,0-.309-.238,2.307,2.307,0,0,0-.734-.078h-.831Z" transform="translate(0)" style="fill: #fff;fill-rule: evenodd"/>
  <path d="M64.35,70.418c-.485.44-.941.842-1.273,1.1a38.8,38.8,0,0,1-51.72-2.963A39.119,39.119,0,0,1,4.518,22.743,22.174,22.174,0,0,1,6.126,20.35a3.053,3.053,0,0,1,2.358-1.4,2.913,2.913,0,0,1,1.828.654c2.627,2.176,4.546,3.77,5.379,4.466l-.007.01.494.4a2.97,2.97,0,0,1,.506,4,3.351,3.351,0,0,1-1.662,1.287,4.775,4.775,0,0,0-2.665,2.454A15.477,15.477,0,0,0,11.4,34.7,28.541,28.541,0,0,0,18.9,60.98a28.175,28.175,0,0,0,32.706,5.262,4.038,4.038,0,0,0,2.234-3.31,3.237,3.237,0,0,1,3.07-2.992,2.756,2.756,0,0,1,1.973.881l.734.739,4.819,4.8a2.783,2.783,0,0,1,.823,2.056A2.751,2.751,0,0,1,64.35,70.418Z" transform="translate(0)" style="fill: #fff;fill-rule: evenodd"/>
  <path d="M13.415,9.5A39.345,39.345,0,0,1,64.371,9.23a2.463,2.463,0,0,1,.139,3.67l-5.873,5.683a2.732,2.732,0,0,1-1.964.81,3.254,3.254,0,0,1-2.134-.831,2.711,2.711,0,0,1-.955-1.845,4.008,4.008,0,0,0-2.2-3.3,28.521,28.521,0,0,0-4.4-1.68,2.118,2.118,0,0,0-.558-.079,1.991,1.991,0,0,0-1.995,1.981V59.2a1.426,1.426,0,0,1-1.076,1.376,17.192,17.192,0,0,1-4.254.473,19.7,19.7,0,0,1-4.437-.5,1.41,1.41,0,0,1-1.084-1.377V13.67a1.991,1.991,0,0,0-2-1.981,1.928,1.928,0,0,0-.567.084A28.234,28.234,0,0,0,26.6,13.478a3.888,3.888,0,0,0-2.291,3.244,3.178,3.178,0,0,1-2.751,2.757,2.709,2.709,0,0,1-.53.054,2.4,2.4,0,0,1-1.781-.817l-.317-.34-.018.01L13.3,12.812A2.256,2.256,0,0,1,13.415,9.5Z" transform="translate(0)" style="fill: #fff;fill-rule: evenodd"/>
  <path d="M85.331,58.947c-5.032,0-7.436-2.514-7.436-7.77V26.72c0-5.259,2.513-7.773,7.545-7.773h14.6c5.031,0,7.328,2.514,7.328,7.773V34.2l-10.28-2.272V28.891c0-.8-.219-1.029-.984-1.029H89.158c-.764,0-.984.229-.984,1.029V49.006c0,.8.22,1.027.984,1.027H96.1c.765,0,.984-.23.984-1.027V43.691h10.28v7.486c0,5.256-2.407,7.77-7.437,7.77Z" transform="translate(0)" style="fill: #fff;fill-rule: evenodd"/>
  <path d="M142.708,44.72c3.52-.743,5.225-3.2,5.225-7.6V26.72c0-5.259-2.42-7.773-7.482-7.773H117.9v40h10.342V45.577h4.237l6.547,13.37h10.453Zm-5.118-8.63c0,.8-.22,1.029-.991,1.029h-8.362V27.634H136.6c.771,0,.991.228.991,1.029Z" transform="translate(0)" style="fill: #fff;fill-rule: evenodd"/>
  <path d="M183.725,19.385v8.8H166.372v6.15h13.759v8.688H166.372v7.052h17.353v8.8H155.642v-39.5Z" transform="translate(0)" style="fill: #fff;fill-rule: evenodd"/>
  <path d="M210.156,28.546c0-.8-.216-1.029-.979-1.029h-6.265c-.764,0-.982.23-.982,1.029v3.085c0,.63.165.8,1.145,1.086l10.132,2.859c5.339,1.484,7.846,2.513,7.846,8.227v7.372c0,5.256-2.4,7.772-7.411,7.772H198.989c-5.012,0-7.41-2.516-7.41-7.772V44.553l10.242,2.272v2.52c0,.8.219,1.029.982,1.029h7.027c.763,0,.979-.228.979-1.029V45.862c0-.631-.271-.8-1.142-1.029l-10.133-2.915c-5.339-1.544-7.845-2.514-7.845-8.229V26.717c0-5.257,2.4-7.77,7.408-7.77h13.892c5.013,0,7.41,2.513,7.41,7.77v6.222l-10.243-2.272Z" transform="translate(0)" style="fill: #fff;fill-rule: evenodd"/>
  <path d="M236.911,58.947c-5.032,0-7.437-2.514-7.437-7.77V26.72c0-5.259,2.516-7.773,7.545-7.773h14.6c5.031,0,7.327,2.514,7.327,7.773V34.2l-10.279-2.272V28.891c0-.8-.219-1.029-.984-1.029h-6.946c-.764,0-.984.229-.984,1.029V49.006c0,.8.22,1.027.984,1.027h6.946c.765,0,.984-.23.984-1.027V43.691h10.279v7.486c0,5.256-2.4,7.77-7.436,7.77Z" transform="translate(0)" style="fill: #fff;fill-rule: evenodd"/>
  <path d="M294.858,19.385v8.8H277.505v6.15h13.756v8.688H277.505v7.052h17.353v8.8H266.775v-39.5Z" transform="translate(0)" style="fill: #fff;fill-rule: evenodd"/>
  <path d="M336.647,19.385v39.5h-9.533L312.9,36.256V58.88H302.513v-39.5h10.674l13.071,20.989V19.385Z" transform="translate(0)" style="fill: #fff;fill-rule: evenodd"/>
  <path d="M363.821,28.413V58.88h-10.73V28.413H343.1V19.384h30.712v9.029Z" transform="translate(0)" style="fill: #fff;fill-rule: evenodd"/>
</svg>
