<svg viewBox="0 0 39 39" fill="none" xmlns="http://www.w3.org/2000/svg">
<circle cx="19.4992" cy="19.0125" r="19.0125" fill="#CA3604"/>
<circle cx="19.2562" cy="19.2561" r="11.4563" fill="white"/>
<path fill-rule="evenodd" clip-rule="evenodd" d="M13.1725 35.0704C12.6421 34.8932 12.4631 34.5906 12.6191 34.135L13.3452 32.0163C13.501 31.5606 13.8294 31.4278 14.3597 31.6049L15.9797 32.1465C16.5098 32.3238 16.6889 32.6263 16.5328 33.0817L15.8069 35.2009C15.6508 35.6562 15.3225 35.7893 14.7923 35.6121L13.1725 35.0704ZM13.7674 34.3093C13.7438 34.3788 13.7601 34.4062 13.8407 34.4331L14.6534 34.705C14.7341 34.7319 14.764 34.7197 14.7878 34.6504L15.3848 32.9079C15.4084 32.8384 15.3921 32.811 15.3114 32.7839L14.4987 32.5122C14.4181 32.4851 14.3882 32.4973 14.3645 32.5668L13.7674 34.3093Z" fill="white"/>
<path fill-rule="evenodd" clip-rule="evenodd" d="M18.8696 36.2463C18.3097 36.2553 18.0382 36.0299 18.0304 35.5492L17.9935 33.3135C17.9856 32.8328 18.2495 32.5989 18.8094 32.5897L20.5194 32.5618C21.079 32.5526 21.3506 32.7784 21.3584 33.2588L21.3953 35.4947C21.4031 35.9753 21.1392 36.2092 20.5794 36.2184L18.8696 36.2463ZM19.1686 35.3321C19.1697 35.4054 19.1944 35.4257 19.2797 35.4244L20.1377 35.4106C20.2227 35.4091 20.2468 35.3879 20.2456 35.3147L20.2153 33.476C20.2141 33.4028 20.1895 33.3824 20.1043 33.3837L19.2464 33.3978C19.161 33.399 19.1371 33.4203 19.1384 33.4934L19.1686 35.3321Z" fill="white"/>
<path fill-rule="evenodd" clip-rule="evenodd" d="M23.702 31.918L24.623 34.589L26.2306 34.0487L26.5034 34.84L23.8126 35.7443L22.6188 32.2819L23.702 31.918Z" fill="white"/>
<mask id="mask0_3511_65890" style="mask-type:alpha" maskUnits="userSpaceOnUse" x="0" y="0" width="39" height="39">
<path fill-rule="evenodd" clip-rule="evenodd" d="M0 0H39V38.5084H0V0Z" fill="white"/>
</mask>
<g mask="url(#mask0_3511_65890)">
<path fill-rule="evenodd" clip-rule="evenodd" d="M19.5 38.5085C8.74766 38.5085 0 29.8707 0 19.2541C0 8.63724 8.74766 0 19.5 0C30.2524 0 39 8.63724 39 19.2541C39 29.8707 30.2524 38.5085 19.5 38.5085M19.4988 0.929506C9.26569 0.929506 0.940147 9.14994 0.940147 19.2541C0.940147 29.3586 9.26569 37.579 19.4988 37.579C29.7319 37.579 38.0574 29.3586 38.0574 19.2541C38.0574 9.14994 29.7319 0.929506 19.4988 0.929506" fill="#272525"/>
</g>
<path fill-rule="evenodd" clip-rule="evenodd" d="M11.3078 8.62589L9.97943 8.13328L9.63691 8.41897L10.4362 9.35295L9.60004 10.0504L7.20923 7.25612L9.0327 5.73502C9.44173 5.39376 9.78774 5.40641 10.1019 5.77348L10.7234 6.50004C10.9866 6.80744 10.9957 7.09412 10.7554 7.3834L12.1528 7.92103L11.3078 8.62589ZM9.80845 7.26407C9.87061 7.21209 9.87472 7.18145 9.82689 7.1255L9.38298 6.6066C9.33503 6.55065 9.30364 6.54954 9.24136 6.60139L8.56553 7.1652L9.13238 7.828L9.80845 7.26407Z" fill="white"/>
<path fill-rule="evenodd" clip-rule="evenodd" d="M14.0259 3.06934L14.3542 3.81736L12.731 4.51254L12.9605 5.03516L14.2471 4.484L14.5716 5.22247L13.2848 5.77363L13.5478 6.37304L15.171 5.67761L15.4992 6.42564L12.8725 7.55102L11.399 4.1946L14.0259 3.06934Z" fill="white"/>
<path fill-rule="evenodd" clip-rule="evenodd" d="M28.3554 4.60491L27.9947 5.33842L26.4029 4.57539L26.1506 5.08759L27.4129 5.69246L27.0569 6.41642L25.7945 5.81167L25.5058 6.39918L27.0977 7.16221L26.7372 7.89534L24.1606 6.66042L25.7788 3.37012L28.3554 4.60491Z" fill="white"/>
<path fill-rule="evenodd" clip-rule="evenodd" d="M32.5782 8.07538L30.0345 10.7349L29.3278 10.0757L29.7307 7.56987L28.2735 9.09321L27.5032 8.37508L30.0469 5.71582L30.8385 6.45367L30.456 8.77056L31.8079 7.35725L32.5782 8.07538Z" fill="white"/>
<path fill-rule="evenodd" clip-rule="evenodd" d="M34.0273 11.7934L31.5379 13.1796L31.0005 12.2386L33.4896 10.8523L32.9891 9.97641L33.7266 9.56543L35.2655 12.2587L34.5278 12.6693L34.0273 11.7934Z" fill="white"/>
<path fill-rule="evenodd" clip-rule="evenodd" d="M4.72108 20.8422L4.47944 20.8837C4.30158 19.7487 4.25998 18.5788 4.3595 17.4016L3.95408 17.3691C3.85144 18.5802 3.89441 19.7843 4.07813 20.9527L3.85132 20.9918L3.92867 21.4374L4.7983 21.2876L4.72108 20.8422Z" fill="white"/>
<path fill-rule="evenodd" clip-rule="evenodd" d="M5.02156 22.5783L4.77993 22.6198C4.99466 23.7487 5.34952 24.8648 5.83988 25.9404L5.46884 26.1064C4.96415 24.9999 4.5992 23.8512 4.37862 22.6889L4.15193 22.7279L4.07471 22.2824L4.94434 22.1328L5.02156 22.5783Z" fill="white"/>
<path fill-rule="evenodd" clip-rule="evenodd" d="M34.3961 20.8422L34.6377 20.8837C34.8156 19.7487 34.857 18.5788 34.7577 17.4016L35.1631 17.3691C35.2657 18.5802 35.2226 19.7843 35.039 20.9527L35.2658 20.9918L35.1885 21.4374L34.3187 21.2876L34.3961 20.8422Z" fill="white"/>
<path fill-rule="evenodd" clip-rule="evenodd" d="M34.0951 22.5783L34.3368 22.6198C34.122 23.7487 33.7671 24.8648 33.2767 25.9404L33.6478 26.1064C34.1525 24.9999 34.5174 23.8512 34.738 22.6889L34.9648 22.7279L35.042 22.2824L34.1724 22.1328L34.0951 22.5783Z" fill="white"/>
<path fill-rule="evenodd" clip-rule="evenodd" d="M19.5 7.24805C12.7572 7.24805 7.29114 12.6452 7.29114 19.303C7.29114 25.9605 12.7572 31.3579 19.5 31.3579C26.2427 31.3579 31.7088 25.9605 31.7088 19.303C31.7088 12.6452 26.2427 7.24805 19.5 7.24805M13.8469 12.7046C15.4388 11.3347 17.48 10.5819 19.5983 10.5819C21.687 10.5819 23.706 11.3146 25.2838 12.6449C25.4088 12.7509 25.4784 12.8937 25.4835 13.051C25.4889 13.208 25.4289 13.3553 25.3148 13.465L23.9966 14.7348C23.8767 14.8537 23.7246 14.9157 23.5559 14.9157C23.3841 14.9157 23.2138 14.8497 23.077 14.7304C22.9165 14.5899 22.8721 14.4284 22.8629 14.3178C22.8362 13.9959 22.6468 13.7134 22.3686 13.58C22.0508 13.4279 21.7185 13.3015 21.3811 13.2044C21.3403 13.1927 21.2977 13.1867 21.2554 13.1867C21.0086 13.1867 20.8078 13.385 20.8078 13.6292V23.8124C20.8078 23.9563 20.7085 24.0827 20.5663 24.1196C20.379 24.168 20.0608 24.2255 19.6112 24.2255C19.185 24.2255 18.8346 24.1641 18.6158 24.1128C18.4724 24.0788 18.372 23.9522 18.372 23.8051V13.6367C18.372 13.3928 18.1711 13.1944 17.9242 13.1944C17.8812 13.1944 17.8381 13.2004 17.7963 13.2127C17.4579 13.3111 17.1246 13.4396 16.8055 13.5942C16.5023 13.7408 16.3048 14.0187 16.2912 14.319C16.2799 14.5577 16.082 14.8524 15.6738 14.935C15.6336 14.9431 15.5937 14.9472 15.5551 14.9472C15.4051 14.9472 15.2669 14.884 15.1553 14.7647L15.0842 14.6888L15.0801 14.6908L13.8209 13.4449C13.7197 13.3446 13.6666 13.2112 13.6712 13.0693C13.6762 12.9278 13.7385 12.798 13.8469 12.7046M25.3029 25.7587C25.1934 25.8563 25.0905 25.9456 25.0163 26.0037C23.4576 27.2319 21.5724 27.8813 19.5639 27.8813C17.2234 27.8813 15.0228 26.9813 13.3683 25.3472C10.6426 22.6561 10.04 18.5325 11.8284 15.1979C11.8821 15.0974 12.0705 14.8152 12.1905 14.6682C12.3322 14.4946 12.4943 14.3571 12.7213 14.3571C12.8683 14.3571 13.0193 14.4092 13.133 14.5019C13.7246 14.9844 14.1567 15.3372 14.3448 15.4914L14.3428 15.4935L14.4541 15.5817C14.7195 15.7915 14.7654 16.1476 14.5678 16.4678C14.4946 16.5865 14.3548 16.6933 14.1938 16.7533C13.9306 16.8516 13.7425 17.0146 13.5936 17.2966C13.5105 17.4539 13.3984 17.7578 13.3785 17.846C12.9038 19.9492 13.5385 22.1581 15.0678 23.6684C16.2689 24.8544 17.8655 25.5072 19.5639 25.5072C20.5749 25.5072 21.5403 25.2806 22.433 24.8336C22.7255 24.6873 22.9182 24.4063 22.9362 24.1008C22.9464 23.9251 23.0271 23.7565 23.1571 23.6378C23.3004 23.507 23.4633 23.4381 23.628 23.4381C23.7904 23.4381 23.9485 23.5073 24.072 23.6327L24.2372 23.7963L25.3228 24.8603C25.4466 24.9819 25.5126 25.1436 25.5083 25.3161C25.5043 25.487 25.4314 25.6444 25.3029 25.7587" fill="#272525"/>
<path fill-rule="evenodd" clip-rule="evenodd" d="M7.74246 12.6607C7.452 13.1064 7.11857 13.1937 6.71153 12.9305L4.81744 11.7062C4.41015 11.443 4.36058 11.0945 4.65104 10.6487L5.49402 9.35534C5.78435 8.90963 6.11156 8.83209 6.51885 9.0952L7.0984 9.46984L6.32915 10.2669L6.0935 10.1146C6.03159 10.0746 6.0012 10.0825 5.95711 10.1503L5.55617 10.7655C5.51195 10.8334 5.51706 10.8642 5.57896 10.9042L7.13663 11.9111C7.19841 11.9511 7.22893 11.943 7.27302 11.8755L7.67396 11.26C7.71805 11.1924 7.71307 11.1615 7.65129 11.1214L7.23964 10.8555L7.83301 9.9447L8.41294 10.3195C8.81998 10.5827 8.87553 10.9217 8.58532 11.3673L7.74246 12.6607Z" fill="white"/>
<path fill-rule="evenodd" clip-rule="evenodd" d="M21.011 5.99045C20.4846 5.90411 20.2708 5.6348 20.3496 5.15783L20.7168 2.93894C20.7958 2.46184 21.0964 2.27688 21.6229 2.36335L23.1505 2.61405C23.6769 2.70052 23.8795 2.96784 23.8004 3.44507L23.6882 4.12412L22.6466 3.74142L22.6924 3.46553C22.7044 3.39284 22.6849 3.3684 22.6049 3.35525L21.878 3.23592C21.7981 3.22289 21.7717 3.23989 21.7597 3.31246L21.4578 5.13723C21.4457 5.2098 21.4652 5.23424 21.5453 5.24739L22.2721 5.36673C22.3521 5.37975 22.3785 5.36276 22.3904 5.29044L22.4701 4.80813L23.5458 4.98465L23.4333 5.66395C23.3545 6.1408 23.0649 6.3275 22.5387 6.24116L21.011 5.99045Z" fill="white"/>
<path fill-rule="evenodd" clip-rule="evenodd" d="M17.841 3.21907C17.8318 3.1465 17.8063 3.12864 17.7261 3.13881L17.0669 3.22242C16.9866 3.23247 16.9663 3.25616 16.9756 3.32873L17.0114 3.60859C17.0189 3.66577 17.038 3.67892 17.1444 3.69182L18.2435 3.81587C18.8223 3.87939 19.0979 3.9393 19.1641 4.45758L19.2495 5.12622C19.3104 5.60294 19.0875 5.8632 18.5601 5.93006L17.0187 6.12544C16.4915 6.1923 16.21 5.99606 16.1491 5.51921L16.0725 4.91868L17.1762 4.98815L17.2053 5.21677C17.2147 5.28934 17.2403 5.3072 17.3207 5.29691L18.0598 5.20337C18.14 5.19308 18.1602 5.16951 18.1508 5.09694L18.1105 4.78086C18.1032 4.7238 18.0726 4.71189 17.9783 4.70283L16.8786 4.57357C16.2992 4.50472 16.0244 4.45014 15.958 3.93186L15.8772 3.29945C15.8163 2.82273 16.0393 2.56272 16.5665 2.49598L18.0278 2.31052C18.555 2.24379 18.8364 2.43991 18.8974 2.91651L18.9695 3.48094L17.8656 3.41159L17.841 3.21907Z" fill="white"/>
<path fill-rule="evenodd" clip-rule="evenodd" d="M28.4637 30.3689C28.4196 30.3096 28.3876 30.3071 28.3195 30.3573L27.7604 30.7702C27.6923 30.8204 27.6854 30.8518 27.7295 30.911L27.8993 31.1391C27.9339 31.1857 27.9581 31.1873 28.0612 31.1439L29.1229 30.6875C29.6811 30.4455 29.9615 30.3565 30.2759 30.779L30.6817 31.3241C30.971 31.7128 30.8955 32.0568 30.448 32.3872L29.1402 33.3528C28.693 33.683 28.3404 33.6551 28.0511 33.2663L27.6866 32.7767L28.7258 32.2697L28.8646 32.456C28.9086 32.5153 28.9408 32.5178 29.0089 32.4675L29.636 32.0045C29.7042 31.9541 29.7109 31.923 29.6668 31.8638L29.4751 31.6061C29.4404 31.5595 29.4067 31.5648 29.3163 31.6054L28.2516 32.0577C27.6901 32.2952 27.413 32.3886 27.0985 31.9663L26.7148 31.4506C26.4254 31.0619 26.5009 30.7181 26.9483 30.3878L28.1881 29.4724C28.6354 29.142 28.9879 29.1699 29.2772 29.5586L29.6196 30.0187L28.5806 30.5257L28.4637 30.3689Z" fill="white"/>
<path fill-rule="evenodd" clip-rule="evenodd" d="M10.8855 30.7706L9.1755 33.0232L8.28662 32.3288L9.99684 30.0761L9.16951 29.4302L9.67612 28.7627L12.2194 30.7494L11.7128 31.4168L10.8855 30.7706Z" fill="white"/>
</svg>
