<svg width="263" height="45" viewBox="0 0 263 45" fill="none" xmlns="http://www.w3.org/2000/svg">
<g clip-path="url(#clip0)">
<path d="M73.8711 22.9306H88.192V17.5089H79.7253V14.0964H87.531V8.67474H79.7253V5.99578H88.192V0.574097H73.8711V22.9306Z" fill="white"/>
<path d="M96.2804 0.574097L89.5449 22.9306H95.6824L96.8155 18.7846H102.922L104.055 22.9306H110.161L103.394 0.574097H96.2804ZM101.442 13.6499H98.2004L99.837 7.62229L101.442 13.6499Z" fill="white"/>
<path d="M151.738 13.7456L148.622 0.574097H141.95L138.771 13.7775L135.686 0.574097H129.832L135.277 22.9306H142.201L145.254 8.99366L148.308 22.9306H155.232L160.614 0.574097H154.791L151.738 13.7456Z" fill="#EB8900"/>
<path d="M182.835 22.9306H197.124V17.5089H188.689V14.0964H196.495V8.67474H188.689V5.99578H197.124V0.574097H182.835V22.9306Z" fill="#EB8900"/>
<path d="M212.61 13.1397L206.693 0.574097H199.957V22.9306H205.622V10.9391L211.508 22.9306H218.275V0.574097H212.61V13.1397Z" fill="#EB8900"/>
<path d="M250.128 0.574097V8.99366H244.557V0.574097H238.671V22.9306H244.557V14.4153H250.128V22.9306H256.013V0.574097H250.128Z" fill="#EB8900"/>
<path d="M61.2181 6.09146L70.8177 6.05957V0.574097H61.2495C56.1507 0.605989 53.0977 3.25305 53.0977 7.65418V15.8505C53.0977 20.2835 56.1821 22.9306 61.3439 22.9306C61.4069 22.9306 61.4698 22.9306 61.5013 22.9306H70.8177V18.4019V17.4451V13.8094V10.7796V9.05744H62.4141V13.7775H65.6559V17.4451H61.5013C61.4384 17.4451 61.3754 17.4451 61.3439 17.4451C59.6758 17.4451 58.9834 16.7435 58.9834 15.0213V8.3877C58.9519 7.01634 59.3611 6.12335 61.2181 6.09146Z" fill="white"/>
<path d="M228.662 6.09146L236.153 6.05957V0.574097H228.662C223.563 0.605989 220.51 3.25305 220.51 7.65418V15.8505C220.51 20.2835 223.594 22.9306 228.756 22.9306C228.819 22.9306 228.882 22.9306 228.913 22.9306H236.153V17.4451H228.913C228.85 17.4451 228.788 17.4451 228.756 17.4451C227.088 17.4451 226.395 16.7435 226.395 15.0213V8.3877C226.395 7.01634 226.805 6.12335 228.662 6.09146Z" fill="#EB8900"/>
<path d="M176.037 15.4678C178.618 14.3835 180.065 12.1829 180.065 9.15312V7.65418C180.065 3.22116 176.981 0.574097 171.819 0.574097C171.756 0.574097 171.693 0.574097 171.662 0.574097H168.388H164.454H162.534V22.9306H168.388V16.2332V14.5429L169.584 16.2332L174.243 22.9306H181.261L176.037 15.4678ZM171.662 6.05957C171.725 6.05957 171.788 6.05957 171.819 6.05957C173.487 6.05957 174.18 6.7612 174.18 8.45149V8.4196V8.48338V8.45149C174.18 9.79096 173.771 10.6839 171.914 10.7158V10.7477H168.388V6.05957H171.662Z" fill="#EB8900"/>
<path d="M125.174 15.4678C127.755 14.3835 129.202 12.1829 129.202 9.15312V7.65418C129.202 3.22116 126.118 0.574097 120.956 0.574097C120.893 0.574097 120.83 0.574097 120.799 0.574097H117.494H113.56H111.64V22.9306H117.494V16.2332V14.5429L118.69 16.2332L123.348 22.9306H130.367L125.174 15.4678ZM120.799 6.05957C120.862 6.05957 120.925 6.05957 120.956 6.05957C122.624 6.05957 123.317 6.7612 123.317 8.45149V8.4196V8.48338V8.45149C123.317 9.79096 122.907 10.6839 121.05 10.7158V10.7477H117.494V6.05957H120.799Z" fill="white"/>
<path d="M0.28472 13.2034C-0.344768 15.8824 0.127348 18.4018 1.60664 20.3473C2.73972 21.7824 4.91146 23.5046 8.94018 23.5046H32.5145C36.9524 23.4727 40.1943 20.8894 41.4218 16.3607L41.4532 16.297L45.3246 0H12.1191C7.52383 0.0318923 3.7469 2.39192 2.07876 6.28278C1.79549 6.98441 1.60664 7.59036 1.5437 7.8455L0.28472 13.2034Z" fill="#EB8900"/>
<path d="M35.8503 4.81567L33.5527 14.5109C33.4582 14.8936 33.1435 15.1807 32.7343 15.2126H31.0662L33.5527 4.84757H29.9331L27.6669 14.4152C27.5725 14.798 27.1948 15.2126 26.8171 15.2444H25.149L27.6355 4.87946H12.3074C9.56917 4.91135 7.46038 6.28272 6.5791 8.38761H23.1661L20.7111 18.7526H20.8685H24.2992H26.6283H30.2164H32.6399C33.8674 18.7526 36.0706 18.5294 36.9834 15.1169L39.4384 4.87946H35.8503V4.81567Z" fill="black"/>
<path d="M11.457 11.0666L10.922 13.299H16.1467L15.8635 14.5109C15.769 14.8936 15.4228 15.2126 15.0136 15.2126H9.91479C8.87614 15.2126 8.56139 14.7661 8.81319 13.7136L9.82037 9.56763H6.20081L5.06773 14.3515C4.40677 17.0623 5.91754 18.6888 9.09646 18.6888H9.19088H9.88332H18.4444L20.4272 10.3968H12.2754C11.8662 10.3968 11.5515 10.6839 11.457 11.0666Z" fill="black"/>
<path d="M260.609 0.574097C261.931 0.574097 263.001 1.65843 263.001 2.99791C263.001 4.33738 261.931 5.42172 260.609 5.42172C259.287 5.42172 258.217 4.33738 258.217 2.99791C258.217 1.65843 259.287 0.574097 260.609 0.574097ZM260.609 5.03901C261.71 5.03901 262.623 4.11414 262.623 2.99791C262.623 1.88168 261.71 0.956804 260.609 0.956804C259.507 0.956804 258.594 1.88168 258.594 2.99791C258.594 4.11414 259.507 5.03901 260.609 5.03901ZM261.175 3.31683L261.679 4.43306H261.081L260.64 3.38062H260.137V4.43306H259.57V1.56276H260.766C261.301 1.56276 261.679 1.84979 261.679 2.42385V2.55142C261.647 2.96602 261.459 3.18926 261.175 3.31683ZM260.609 2.07303H260.105V2.90223H260.609C260.892 2.90223 261.081 2.77466 261.081 2.51953V2.45574C261.081 2.2006 260.924 2.07303 260.609 2.07303Z" fill="#EB8900"/>
<path d="M134.208 31.1587H142.076L141.447 33.9971H136.726L136.096 36.8674H139.999L139.401 39.7377H135.467L134.365 44.7767H131.249L134.208 31.1587Z" fill="white"/>
<path d="M149.85 30.9036C153.722 30.9036 155.893 33.9652 155.044 37.8561C154.162 41.8426 150.669 44.9681 146.797 44.9681C142.926 44.9681 140.754 41.8426 141.636 37.8561C142.485 33.9652 145.979 30.9036 149.85 30.9036ZM147.458 41.9383C149.378 41.9383 151.298 40.1842 151.802 37.8561C152.274 35.6236 151.109 33.9333 149.189 33.9333C147.269 33.9333 145.349 35.6236 144.877 37.8561C144.374 40.1842 145.538 41.9383 147.458 41.9383Z" fill="white"/>
<path d="M158.537 31.1587H163.006C164.328 31.1587 164.926 31.2544 165.43 31.4776C166.752 32.0836 167.381 33.4549 166.941 35.4323C166.626 36.8674 165.65 38.462 164.202 39.1637V39.1955C164.202 39.1955 164.328 39.4507 164.517 40.0247L165.965 44.7767H162.471L161.181 40.1842H159.701L158.694 44.7767H155.547L158.537 31.1587ZM161.716 37.3139C162.723 37.3139 163.478 36.7079 163.699 35.6236C163.919 34.6031 163.699 33.9971 162.125 33.9971H161.055L160.331 37.3139H161.716V37.3139Z" fill="white"/>
<path d="M176.572 30.9036C179.845 30.9036 181.104 32.7214 181.104 32.7214L179.058 35.209C179.058 35.209 178.02 33.9652 176.226 33.9652C173.55 33.9652 172.039 35.7831 171.599 37.8242C171.032 40.4075 172.386 41.9702 174.369 41.9702C175.879 41.9702 177.17 40.9815 177.17 40.9815L177.39 39.9291H175.565L176.194 37.0907H180.789L179.121 44.7767H176.509L176.603 44.394C176.666 44.107 176.761 43.8199 176.761 43.8199H176.729C176.729 43.8199 175.218 45 173.11 45C169.836 45 167.381 42.3848 168.357 37.9199C169.175 33.9652 172.669 30.9036 176.572 30.9036Z" fill="white"/>
<path d="M184.378 31.1587H192.404L191.806 33.9971H186.895L186.36 36.4847H190.263L189.634 39.355H185.731L185.164 41.9064H190.326L189.697 44.7767H181.419L184.378 31.1587Z" fill="white"/>
<path d="M202.947 41.9064H198.95L197.565 44.7767H194.323L201.657 31.1587H204.962L206.346 44.7767H203.105L202.947 41.9064ZM202.601 34.2522C202.601 34.2522 202.003 35.7512 201.562 36.6123L200.24 39.2593H202.758L202.632 36.6123C202.601 35.7512 202.632 34.2522 202.632 34.2522H202.601Z" fill="white"/>
<path d="M210.659 31.1587H213.775L212.61 36.6123H217.269L218.433 31.1587H221.581L218.622 44.7767H215.475L216.639 39.4507H211.981L210.816 44.7767H207.669L210.659 31.1587Z" fill="white"/>
<path d="M224.507 31.1587H232.533L231.935 33.9971H227.025L226.49 36.4847H230.393L229.764 39.355H225.861L225.294 41.9064H230.456L229.827 44.7767H221.549L224.507 31.1587Z" fill="white"/>
<path d="M239.049 41.9064H235.052L233.667 44.7767H230.425L237.758 31.1587H241.063L242.448 44.7767H239.206L239.049 41.9064ZM238.703 34.2522C238.703 34.2522 238.105 35.7512 237.664 36.6123L236.342 39.2593H238.86L238.734 36.6123C238.703 35.7512 238.734 34.2522 238.734 34.2522H238.703Z" fill="white"/>
<path d="M246.76 31.1587H251.323C255.352 31.1587 257.398 33.6463 256.454 37.9517C255.51 42.2253 252.394 44.8086 248.333 44.8086H243.77L246.76 31.1587ZM248.837 41.9064C251.009 41.9064 252.645 40.535 253.212 37.9199C253.778 35.3366 252.677 33.9971 250.568 33.9971H249.278L247.546 41.9064H248.837Z" fill="white"/>
</g>
<defs>
<clipPath id="clip0">
<rect width="263" height="45" fill="white"/>
</clipPath>
</defs>
</svg>
