<svg viewBox="0 0 330 80" fill="none" xmlns="http://www.w3.org/2000/svg">
<path fill-rule="evenodd" clip-rule="evenodd" d="M324.286 18.6701H325.081C325.461 18.6701 325.72 18.6142 325.859 18.5006C325.997 18.387 326.066 18.2383 326.066 18.0503C326.066 17.9304 326.033 17.8232 325.967 17.728C325.9 17.6329 325.807 17.5617 325.688 17.5153C325.571 17.4681 325.352 17.4457 325.031 17.4457H324.286V18.6701ZM323.63 20.9557V16.8946H325.026C325.502 16.8946 325.848 16.9322 326.061 17.0074C326.275 17.0833 326.445 17.2137 326.571 17.4C326.698 17.5864 326.761 17.7855 326.761 17.995C326.761 18.2917 326.655 18.5493 326.444 18.7708C326.231 18.9907 325.951 19.1139 325.601 19.1411C325.744 19.2003 325.859 19.2722 325.947 19.3562C326.11 19.5145 326.31 19.7841 326.547 20.1615L327.041 20.9557H326.241L325.881 20.3151C325.598 19.8121 325.369 19.497 325.196 19.3698C325.077 19.277 324.901 19.2306 324.67 19.2306H324.286V20.9557H323.63ZM325.286 15.7191C324.757 15.7191 324.24 15.8558 323.738 16.1277C323.236 16.3996 322.844 16.7875 322.56 17.2921C322.277 17.7976 322.135 18.3238 322.135 18.8708C322.135 19.4131 322.274 19.9353 322.552 20.4335C322.831 20.9318 323.219 21.3213 323.721 21.598C324.221 21.8779 324.742 22.017 325.286 22.017C325.829 22.017 326.352 21.8779 326.851 21.598C327.351 21.3213 327.74 20.9318 328.017 20.4335C328.294 19.9353 328.432 19.4131 328.432 18.8708C328.432 18.3238 328.291 17.7976 328.01 17.2921C327.727 16.7875 327.335 16.3996 326.831 16.1277C326.328 15.8558 325.812 15.7191 325.286 15.7191ZM325.286 15.0943C325.919 15.0943 326.538 15.2574 327.142 15.5821C327.745 15.9076 328.215 16.3723 328.551 16.9777C328.888 17.5823 329.056 18.2141 329.056 18.8707C329.056 19.5193 328.892 20.1455 328.559 20.7461C328.228 21.3451 327.762 21.8121 327.165 22.144C326.566 22.4743 325.94 22.6415 325.286 22.6415C324.633 22.6415 324.006 22.4743 323.408 22.144C322.809 21.8121 322.343 21.3451 322.009 20.7461C321.676 20.1455 321.509 19.5193 321.509 18.8707C321.509 18.2141 321.679 17.5823 322.017 16.9777C322.356 16.3723 322.827 15.9076 323.43 15.5821C324.034 15.2574 324.653 15.0943 325.286 15.0943Z" fill="white"/>
<path fill-rule="evenodd" clip-rule="evenodd" d="M53.5787 58.3606C53.1755 58.7308 52.7946 59.0685 52.5193 59.2895C46.757 63.9504 39.7874 66.4151 32.3625 66.4151C23.7072 66.4151 15.5726 62.9997 9.45548 56.7976C-0.6207 46.5846 -2.84869 30.9363 3.76089 18.2843C3.96249 17.9013 4.65879 16.8322 5.09992 16.2742C5.62586 15.613 6.2247 15.0943 7.06383 15.0943C7.60762 15.0943 8.16555 15.2911 8.5866 15.6439C10.7729 17.473 12.3701 18.8128 13.0656 19.3971L13.0582 19.4054L13.4711 19.7394C14.4508 20.5363 14.6211 21.8867 13.8914 23.1028C13.6206 23.5529 13.1028 23.9578 12.507 24.1862C11.5362 24.5602 10.8391 25.1784 10.2887 26.2483C9.98067 26.8461 9.56706 27.9974 9.49416 28.3322C7.73855 36.3143 10.0856 44.6967 15.7385 50.4275C20.1789 54.9278 26.0825 57.4068 32.3625 57.4068C36.0991 57.4068 39.6684 56.5473 42.9706 54.8502C44.0507 54.293 44.7626 53.2284 44.8303 52.0681C44.8668 51.4031 45.1651 50.7623 45.6464 50.3129C46.1761 49.8138 46.7779 49.5529 47.3871 49.5529C47.9875 49.5529 48.5722 49.8168 49.0289 50.2933L49.6404 50.9146L53.6538 54.952C54.1113 55.4119 54.3545 56.0271 54.3389 56.68C54.324 57.3307 54.0547 57.9248 53.5787 58.3606Z" fill="white"/>
<path fill-rule="evenodd" clip-rule="evenodd" d="M11.241 7.98398C17.3434 2.83023 25.1674 0 33.2875 0C41.2951 0 49.0342 2.75474 55.0826 7.75902C55.5624 8.15736 55.8277 8.69471 55.8477 9.28736C55.8678 9.87926 55.6372 10.4301 55.2014 10.8448L50.1487 15.6212C49.6882 16.0674 49.1051 16.3005 48.4596 16.3005C47.7986 16.3005 47.1476 16.0517 46.6231 15.6032C46.0076 15.0764 45.8372 14.468 45.8017 14.0525C45.6999 12.8395 44.9726 11.7783 43.9059 11.2753C42.6895 10.7043 41.4154 10.229 40.1219 9.86432C39.9646 9.82097 39.8026 9.79706 39.6414 9.79706C38.695 9.79706 37.9253 10.5444 37.9253 11.4614V49.767C37.9253 50.3103 37.5443 50.7842 36.999 50.9247C36.2794 51.104 35.0607 51.3208 33.3384 51.3208C31.7041 51.3208 30.3605 51.0891 29.5206 50.8978C28.9714 50.7692 28.5888 50.2924 28.5888 49.7394V11.4906C28.5888 10.5721 27.8183 9.82545 26.8704 9.82545C26.7061 9.82545 26.5411 9.84862 26.3806 9.89571C25.0833 10.2656 23.8053 10.7499 22.5836 11.3291C21.4205 11.8814 20.6623 12.9285 20.6122 14.0562C20.5682 14.956 19.8077 16.0629 18.2451 16.3738C18.0901 16.4037 17.9373 16.4186 17.7892 16.4186C17.2154 16.4186 16.6863 16.1824 16.2567 15.7318L15.9844 15.447L15.9682 15.456L11.1431 10.7694C10.7536 10.3919 10.5499 9.88898 10.5669 9.35537C10.587 8.82325 10.8268 8.33598 11.241 7.98398Z" fill="white"/>
<path fill-rule="evenodd" clip-rule="evenodd" d="M72.8894 48.3018C68.5086 48.3018 66.415 46.2149 66.415 41.8515V21.5469C66.415 17.1813 68.604 15.0943 72.984 15.0943H85.695C90.0758 15.0943 92.0754 17.1813 92.0754 21.5469V27.7599L83.1252 25.875V23.3494C83.1252 22.6854 82.9344 22.496 82.2696 22.496H76.2216C75.5553 22.496 75.3652 22.6854 75.3652 23.3494V40.0482C75.3652 40.7107 75.5553 40.9008 76.2216 40.9008H82.2696C82.9344 40.9008 83.1252 40.7107 83.1252 40.0482V35.6355H92.0754V41.8515C92.0754 46.2149 89.9804 48.3018 85.6018 48.3018H72.8894Z" fill="white"/>
<path fill-rule="evenodd" clip-rule="evenodd" d="M115.058 29.3264C115.058 29.9904 114.869 30.1805 114.205 30.1805H107.011V22.3047H114.205C114.869 22.3047 115.058 22.4956 115.058 23.1596V29.3264ZM119.461 36.4901C122.49 35.8725 123.956 33.8334 123.956 30.1803V21.5463C123.956 17.1806 121.874 15.0943 117.519 15.0943H98.1133V48.3018H107.011V37.2012H110.658L116.289 48.3018H125.283L119.461 36.4901Z" fill="white"/>
<path fill-rule="evenodd" clip-rule="evenodd" d="M155.472 15.0943V22.4953H140.549V27.6663H152.38V34.9723H140.549V40.9016H155.472V48.3018H131.321V15.0943H155.472Z" fill="white"/>
<path fill-rule="evenodd" clip-rule="evenodd" d="M177.683 23.0633C177.683 22.3993 177.495 22.2092 176.83 22.2092H171.376C170.711 22.2092 170.522 22.3993 170.522 23.0633V25.6248C170.522 26.1473 170.664 26.2887 171.517 26.526L180.339 28.8982C184.988 30.1317 187.17 30.9858 187.17 35.7293V41.8487C187.17 46.2134 185.082 48.3018 180.718 48.3018H167.961C163.597 48.3018 161.509 46.2134 161.509 41.8487V36.3529L170.428 38.2377V40.3299C170.428 40.9946 170.617 41.1847 171.282 41.1847H177.398C178.064 41.1847 178.252 40.9946 178.252 40.3299V37.4383C178.252 36.915 178.015 36.7736 177.257 36.5834L168.436 34.1641C163.787 32.8819 161.605 32.0765 161.605 27.3337V21.5445C161.605 17.1812 163.691 15.0943 168.055 15.0943H180.15C184.513 15.0943 186.601 17.1812 186.601 21.5445V26.7109L177.683 24.8246V23.0633Z" fill="white"/>
<path fill-rule="evenodd" clip-rule="evenodd" d="M199.682 48.3018C195.301 48.3018 193.208 46.2149 193.208 41.8515V21.5469C193.208 17.1813 195.398 15.0943 199.777 15.0943H212.487C216.868 15.0943 218.868 17.1813 218.868 21.5469V27.7599L209.918 25.875V23.3494C209.918 22.6854 209.727 22.496 209.062 22.496H203.014C202.348 22.496 202.158 22.6854 202.158 23.3494V40.0482C202.158 40.7107 202.348 40.9008 203.014 40.9008H209.062C209.727 40.9008 209.918 40.7107 209.918 40.0482V35.6355H218.868V41.8515C218.868 46.2149 216.774 48.3018 212.394 48.3018H199.682Z" fill="white"/>
<path fill-rule="evenodd" clip-rule="evenodd" d="M249.056 15.0943V22.4953H234.133V27.6663H245.964V34.9723H234.133V40.9016H249.056V48.3018H224.906V15.0943H249.056Z" fill="white"/>
<path fill-rule="evenodd" clip-rule="evenodd" d="M285.283 15.0943V48.3018H277.274L265.331 29.2787V48.3018H256.604V15.0943H265.572L276.556 32.7423V15.0943H285.283Z" fill="white"/>
<path fill-rule="evenodd" clip-rule="evenodd" d="M308.634 22.6854V48.3018H299.668V22.6854H291.321V15.0943H316.981V22.6854H308.634Z" fill="white"/>
<mask id="mask0" style="mask-type:alpha" maskUnits="userSpaceOnUse" x="66" y="57" width="220" height="23">
<path fill-rule="evenodd" clip-rule="evenodd" d="M66.415 57.3585H285.283V80H66.415V57.3585Z" fill="white"/>
</mask>
<g mask="url(#mask0)">
<path fill-rule="evenodd" clip-rule="evenodd" d="M283.945 72.4866C284.688 72.4866 285.283 73.0914 285.283 73.8483C285.283 74.6301 284.688 75.2349 283.945 75.2349C283.176 75.2349 282.581 74.6301 282.581 73.8483C282.581 73.0914 283.176 72.4866 283.945 72.4866ZM277.8 65.5528H274.134V68.0985H277.577C278.297 68.1249 278.989 68.1497 279.586 68.6031C280.327 69.1582 280.402 69.9897 280.402 70.7978V72.4616C280.377 72.9398 280.377 73.3947 280.106 73.9235C279.535 75.008 278.643 75.0833 277.428 75.1594H271.531V71.6045H274.134V73.0415H277.8V70.3429H274.332C272.126 70.3429 271.581 69.5114 271.531 67.621V66.007C271.63 64.9217 271.804 63.4598 274.654 63.4598H280.23V66.8633H277.8V65.5528ZM263.256 68.1746H267.096V65.6018H263.256V68.1746ZM263.256 73.0152H267.097V71.3266H269.548V72.6883C269.5 73.7465 269.327 75.2596 266.699 75.2348H263.578C262.934 75.2596 261.968 75.2596 261.274 74.4033C260.753 73.7729 260.753 73.2419 260.703 71.8817V66.788C260.703 66.0326 260.703 65.0995 261.199 64.3681C261.843 63.435 262.711 63.435 263.701 63.4086H266.601C267.889 63.4086 269.524 63.511 269.548 66.0816V70.1163H263.256V73.0152ZM251.437 72.9398H255.303V65.6793H251.437V72.9398ZM257.928 72.9399H259.292V75.1595H252.279C251.387 75.1595 250.644 75.1595 249.999 74.8063C248.885 74.1751 248.836 73.0152 248.81 71.7801V66.6879C248.81 65.9302 248.81 65.0234 249.356 64.317C249.925 63.5864 250.867 63.4599 252.056 63.4599H255.303V59.5773H253.916V57.3585H257.928V72.9399ZM239.742 73.0665H243.458V70.6466H239.742V73.0665ZM246.036 72.9398H247.398V75.1594H240.633C239.097 75.1594 238.752 75.1082 238.155 74.706C237.289 74.1261 237.091 73.2931 237.091 72.2349C237.091 70.2428 237.165 68.7297 240.014 68.6031H243.458V65.6793H239.742V67.4184H237.264V66.1568C237.339 65.1235 237.412 63.4086 240.114 63.4598H243.261C244.053 63.4598 244.698 63.4598 245.317 64.0653C245.738 64.4939 246.036 65.0482 246.036 66.4611V72.9398ZM232.804 65.6793H230.549V72.9398H231.912V75.1594H226.585V72.9398H227.972V65.6793H226.585V63.4598H232.209C233.82 63.511 235.308 63.7377 235.257 66.3594V68.1746H232.804V65.6793ZM224.083 59.7287H221.579V72.7885H223.017V75.1595H217.342V72.7885H218.829V59.7287H216.326V62.3512H213.749V57.3585H226.659V62.3512H224.083V59.7287ZM200.84 68.1746H204.68V65.6018H200.84V68.1746ZM200.84 73.0152H204.681V71.3266H207.135V72.6883C207.084 73.7465 206.91 75.2596 204.284 75.2348H201.163C200.519 75.2596 199.552 75.2596 198.857 74.4033C198.337 73.7729 198.337 73.2419 198.289 71.8817V66.788C198.289 66.0326 198.289 65.0995 198.784 64.3681C199.428 63.435 200.296 63.435 201.286 63.4086H204.186C205.475 63.4086 207.109 63.511 207.135 66.0816V70.1163H200.84V73.0152ZM189.244 63.4599H192.243C192.887 63.4599 193.68 63.435 194.374 63.8131C195.415 64.393 195.488 65.4527 195.488 66.3595V72.9399H196.852V75.1595H192.862V65.6794H189.244V72.9399H190.533V75.1595H185.231V72.9399H186.642V59.5773H185.231V57.3585H189.244V63.4599ZM181.464 63.4598H183.248V65.6794H181.464V72.9399H183.248V75.1595H181.562C180.87 75.1346 180.25 75.1083 179.68 74.6549C178.862 74.0245 178.838 72.9904 178.838 72.2086V65.6794H177.425V63.4598H178.838V59.8801H181.464V63.4598ZM169.944 65.7035L164.095 80H161.443L164.417 72.7885L161.443 65.7035H160.031V63.4854H163.178L165.706 70.1667L168.283 63.4854H171.381V65.7035H169.944ZM152.177 72.9398H155.795V65.6793H152.177V72.9398ZM152.177 63.4599H155.299C157.975 63.435 158.397 64.4683 158.447 66.3595V72.4112C158.447 73.5199 158 75.1595 155.795 75.1595H149.576V59.5773H148.212V57.3585H152.177V63.4599ZM134.288 72.9398H138.153V65.6793H134.288V72.9398ZM140.78 72.9399H142.142V75.1595H135.13C134.238 75.1595 133.495 75.1595 132.85 74.8063C131.735 74.1751 131.686 73.0152 131.66 71.7801V66.6879C131.66 65.9302 131.66 65.0234 132.206 64.317C132.777 63.5864 133.718 63.4599 134.907 63.4599H138.153V59.5773H136.766V57.3585H140.78V72.9399ZM123.112 68.1746H126.953V65.6018H123.112V68.1746ZM123.112 73.0152H126.953V71.3266H129.406V72.6883C129.357 73.7465 129.184 75.2596 126.557 75.2348H123.435C122.79 75.2596 121.824 75.2596 121.13 74.4033C120.61 73.7729 120.61 73.2419 120.561 71.8817V66.788C120.561 66.0326 120.561 65.0995 121.056 64.3681C121.7 63.435 122.567 63.435 123.559 63.4086H126.459C127.747 63.4086 129.382 63.511 129.406 66.0816V70.1163H123.112V73.0152ZM116.819 63.4598H118.603V65.6794H116.819V72.9399H118.603V75.1595H116.919C116.225 75.1346 115.605 75.1083 115.035 74.6549C114.217 74.0245 114.192 72.9904 114.192 72.2086V65.6794H112.78V63.4598H114.192V59.8801H116.819V63.4598ZM108.47 65.5528H104.802V68.0985H108.247C108.965 68.1249 109.659 68.1497 110.253 68.6031C110.997 69.1582 111.071 69.9897 111.071 70.7978V72.4616C111.046 72.9398 111.046 73.3947 110.773 73.9235C110.204 75.008 109.312 75.0833 108.098 75.1594H102.2V71.6045H104.802V73.0415H108.47V70.3429H105C102.795 70.3429 102.25 69.5114 102.2 67.621V66.007C102.299 64.9217 102.473 63.4598 105.323 63.4598H110.897V66.8633H108.47V65.5528ZM96.4517 65.6793H95.0638V63.4598H99.054V72.9398H100.466V75.1594H93.5519C92.2647 75.1082 91.9174 75.1082 91.3226 74.755C90.183 74.05 90.1338 72.8397 90.1081 71.5284V65.6793H88.7452V63.4598H92.7354V72.9398H96.4517V65.6793ZM85.1289 65.6793H82.8732V72.9398H84.236V75.1594H78.9087V72.9398H80.2965V65.6793H78.9087V63.4598H84.5334C86.1445 63.511 87.6314 63.7377 87.5815 66.3594V68.1746H85.1289V65.6793ZM76.7473 59.7287H74.2448V72.7886H75.6818V75.1595H70.0087V72.7886H71.4949V59.7287H68.9924V62.3512H66.415V57.3585H79.3247V62.3512H76.7473V59.7287Z" fill="white"/>
</g>
</svg>
