<svg width="14" height="14" viewBox="0 0 14 14" fill="none" xmlns="http://www.w3.org/2000/svg">
<path fill-rule="evenodd" clip-rule="evenodd" d="M5.66732 11C2.7218 11 0.333984 8.61223 0.333984 5.66671C0.333984 2.72119 2.7218 0.333374 5.66732 0.333374C8.61284 0.333374 11.0007 2.72119 11.0007 5.66671C11.0007 6.89918 10.5826 8.03401 9.88056 8.93714L13.472 12.5286L12.5292 13.4714L8.93775 9.87995C8.03462 10.582 6.89979 11 5.66732 11ZM9.66732 5.66671C9.66732 7.87585 7.87646 9.66671 5.66732 9.66671C3.45818 9.66671 1.66732 7.87585 1.66732 5.66671C1.66732 3.45757 3.45818 1.66671 5.66732 1.66671C7.87646 1.66671 9.66732 3.45757 9.66732 5.66671Z" fill="black"/>
</svg>
